<?xml version="1.0" encoding="UTF-8"?>
<svg id="logo-helixcore-icon-reg" xmlns="http://www.w3.org/2000/svg" version="1.1" viewBox="0 0 117 131">
  <!-- Generator: Adobe Illustrator 29.3.1, SVG Export Plug-In . SVG Version: 2.1.0 Build 151)  -->
  <defs>
    <style>
      .st0 {
      fill: #4c00ff;
      }
    </style>
  </defs>
  <path class="st0"
        d="M116.5,117.1V13.9c0-7-4.7-10.4-6.7-11.6-2-1.2-7.3-3.5-13.4,0l-1.1.6L30.8,40.3h0s-2,1.2-2,1.2l-.4.2-21.2,12.3C1.1,57.4.5,63.2.5,65.5c0,2.3.7,8.1,6.7,11.6l47.4,27.7c.2-.4.3-.9.6-1.3l10.4-17.9-25.9-15.3c-3-1.7-4.3-5.2-3.3-8.4.2-2.3,1.5-4.5,3.6-5.8l46.4-26.8c2.5-1.4,5.5-1.2,7.7.3,2.4,1.2,4.1,3.7,4.1,6.6v3.2s-14.6,8.4-14.6,8.4h0s-27,15.5-27,15.5l27,15.6v-15s14.6-8.4,14.6-8.4v35c0,1.5-.5,2.9-1.3,4.1,0,.1-.1.2-.2.3-2,3.5-6.5,4.7-10,2.7l-8.6-4.6-10.4,17.9c-.2.4-.5.8-.8,1.2l29.6,16.8c6,3.5,11.4,1.2,13.4,0,2-1.2,6.7-4.6,6.7-11.6Z"/>
</svg>
