<svg xmlns="http://www.w3.org/2000/svg" width="16" height="16" viewBox="0 0 16 16">
  <g fill="none" fill-rule="evenodd" transform="translate(1 1)">
    <path fill="#751E21" d="M2.71441237,3.91090722 L2.72004124,3.91653608 L2.72119588,3.91754639 C3.34874227,4.52430928 4.00472165,4.87863918 4.75278351,5.59408247 L4.75249485,5.59408247 C3.00653608,4.20072165 -0.661752577,3.39305155 0.244783505,1.30373196 C0.342061856,1.10441237 0.487690722,0.906247423 0.658865979,0.734927835 C0.829896907,0.563752577 1.02820619,0.417979381 1.22680412,0.320989691 C3.31713402,-0.58756701 4.12509278,3.08202062 5.51845361,4.82812371 L5.51816495,4.82841237 C4.80301031,4.08035052 4.44868041,3.42451546 3.8417732,2.79668041 L3.84061856,2.7956701 L3.83527835,2.79004124 L3.82647423,2.7816701 C3.52208247,2.47684536 3.02789691,2.47670103 2.72350515,2.7816701 L2.71441237,2.7903299 L2.70604124,2.79913402 C2.40092784,3.10381443 2.40092784,3.59771134 2.70604124,3.90239175 L2.71441237,3.91090722"/>
    <path fill="#1D5895" d="M2.71441237,10.1901237 L2.72004124,10.1847835 L2.72119588,10.1836289 C3.34874227,9.57672165 4.00472165,9.22239175 4.75278351,8.50723711 L4.75249485,8.50694845 C3.00653608,9.90030928 -0.662041237,10.7079794 0.244783505,12.797299 C0.342061856,12.9966186 0.487690722,13.1950722 0.659443299,13.3665361 C0.829896907,13.5372784 1.02820619,13.6830515 1.22680412,13.7800412 C3.31713402,14.6885979 4.12509278,11.0191546 5.51845361,9.27276289 L5.51845361,9.27247423 C4.80301031,10.0206804 4.44868041,10.6766598 3.8417732,11.3042062 L3.84061856,11.3052165 L3.83527835,11.3108454 L3.82647423,11.3196495 C3.52208247,11.6243299 3.02789691,11.6243299 2.72350515,11.3196495 L2.71441237,11.3108454 L2.70604124,11.3021856 C2.40092784,10.9975052 2.40092784,10.5036082 2.70604124,10.1987835 L2.71441237,10.1901237"/>
    <path fill="#9D3B2A" d="M11.2355052,10.1904124 L11.2298763,10.1847835 L11.2287216,10.1836289 C10.6010309,9.57672165 9.94534021,9.22239175 9.19684536,8.50723711 L9.19713402,8.50694845 C10.9435258,9.90030928 14.6121031,10.7079794 13.7049897,12.797299 C13.6082887,12.9966186 13.4622268,13.1950722 13.2907629,13.3665361 C13.1200206,13.5372784 12.9218557,13.6830515 12.7231134,13.7800412 C10.6327835,14.6885979 9.82496907,11.0191546 8.43131959,9.27276289 L8.43175258,9.27276289 C9.14690722,10.0206804 9.50138144,10.6766598 10.1082887,11.3042062 L10.1091546,11.3052165 L10.1144948,11.3108454 L10.1231546,11.3196495 C10.4276907,11.6243299 10.9220206,11.6243299 11.2265567,11.3196495 L11.2443093,11.3021856 C11.5489897,10.9972165 11.5489897,10.5036082 11.2443093,10.1987835 L11.2355052,10.1904124"/>
    <path fill="#3A5E30" d="M11.2355052,3.91090722 L11.2298763,3.91653608 L11.2287216,3.91754639 C10.6010309,4.52430928 9.94534021,4.87863918 9.19684536,5.59408247 L9.19713402,5.59437113 C10.9435258,4.20072165 14.6121031,3.39305155 13.7049897,1.30373196 C13.6082887,1.10441237 13.4622268,0.906247423 13.2907629,0.734927835 C13.1200206,0.563752577 12.9218557,0.417979381 12.7231134,0.320989691 C10.6327835,-0.58756701 9.82496907,3.08202062 8.43131959,4.82841237 L8.43175258,4.82841237 C9.14690722,4.08035052 9.50138144,3.42437113 10.1082887,2.79682474 L10.1091546,2.7956701 L10.1144948,2.79004124 L10.1231546,2.7816701 C10.4276907,2.47670103 10.9220206,2.47670103 11.2265567,2.7816701 L11.2355052,2.7903299 L11.2443093,2.79913402 C11.5489897,3.1036701 11.5489897,3.59771134 11.2443093,3.90239175 L11.2355052,3.91090722"/>
    <path fill="#C4242B" d="M5.63002062,7.05065979 C5.60923711,9.53385567 -0.944206186,10.0843299 0.247525773,12.8040825 C-0.833216495,10.6938351 2.09682474,9.73086598 2.58018557,7.72828866 C2.68338144,7.30092784 2.68179381,6.77268041 2.57397938,6.34705155 C2.07171134,4.36193814 -0.828742268,3.39810309 0.247525773,1.29694845 C-0.944206186,4.01670103 5.60952577,4.56717526 5.63002062,7.05065979"/>
    <path fill="#79A240" d="M6.2942268,2.65538144 C4.29338144,2.16971134 3.33041237,-0.757010309 1.22117526,0.323298969 C3.94092784,-0.86828866 4.49154639,5.6854433 6.97503093,5.70579381 C9.45851546,5.6854433 10.0089897,-0.86828866 12.7287423,0.323298969 C10.6179175,-0.757587629 9.65494845,2.17360825 7.65121649,2.65624742 C7.23208247,2.75713402 6.71364948,2.75698969 6.2942268,2.65538144"/>
    <path fill="#329DCC" d="M6.29364948,11.4459381 C4.29338144,11.9321856 3.33012371,14.8577526 1.22117526,13.7780206 C3.94092784,14.9696082 4.49154639,8.41558763 6.97503093,8.39523711 C9.45851546,8.41558763 10.0089897,14.9696082 12.7287423,13.7780206 C10.6161856,14.8599175 9.65321649,11.9223711 7.64645361,11.4436289 C7.22789691,11.3438969 6.71162887,11.3447629 6.29364948,11.4459381"/>
    <path fill="#E6762B" d="M8.31989691,7.05065979 C8.34053608,4.56746392 14.894268,4.01670103 13.7021031,1.29694845 C14.7828454,3.40734021 11.8529485,4.37016495 11.3694433,6.37303093 C11.2665361,6.80010309 11.268268,7.32863918 11.3759381,7.75426804 C11.8782062,9.73938144 14.7780825,10.7029278 13.7021031,12.8040825 C14.894268,10.0843299 8.34024742,9.53385567 8.31989691,7.05065979"/>
  </g>
</svg>
