<svg xmlns="http://www.w3.org/2000/svg" viewBox="0 0 16 16"><path d="M3.71,4.91h0c.63.6,1.28,1,2,1.67h0C4,5.2.34,4.39,1.24,2.3a2.46,2.46,0,0,1,.42-.57,2.22,2.22,0,0,1,.57-.41C4.32.41,5.13,4.08,6.52,5.83h0c-.72-.75-1.07-1.41-1.68-2h0a.8.8,0,0,0-1.11,0h0a.77.77,0,0,0,0,1.1h0" fill="#751e21" fill-rule="evenodd"/><path d="M6,10.87V11c-1.11,1.86-1.95,4.53-3.77,3.74a2.22,2.22,0,0,1-.57-.41,2.27,2.27,0,0,1-.42-.57C.34,11.71,4,10.9,5.75,9.51h0c-.75.71-1.4,1.07-2,1.67h0a.77.77,0,0,0,0,1.1h0a.8.8,0,0,0,1.11,0h0C5.28,11.85,5.59,11.38,6,10.87Z" fill="#1d5895" fill-rule="evenodd"/><path d="M12.24,4.91h0c-.63.6-1.28,1-2,1.67h0c1.74-1.39,5.41-2.2,4.5-4.29a2.16,2.16,0,0,0-.41-.57,2.22,2.22,0,0,0-.57-.41c-2.09-.91-2.9,2.76-4.29,4.51h0c.72-.75,1.07-1.41,1.68-2h0a.8.8,0,0,1,1.11,0h0a.77.77,0,0,1,0,1.1h0" fill="#3a5e30" fill-rule="evenodd"/><path d="M6.63,8.05c0,2.48-6.57,3-5.38,5.75C.17,11.69,3.1,10.73,3.58,8.73a3.06,3.06,0,0,0,0-1.38c-.5-2-3.4-2.95-2.32-5C.06,5,6.61,5.57,6.63,8.05" fill="#c4242b" fill-rule="evenodd"/><path d="M7.29,3.66c-2-.49-3-3.42-5.07-2.34C4.94.13,5.49,6.69,8,6.71s3-6.58,5.75-5.39C11.62.24,10.65,3.17,8.65,3.66a3.12,3.12,0,0,1-1.36,0" fill="#79a240" fill-rule="evenodd"/><path d="M6,13.13c-1.24,1-2.18,2.47-3.78,1.65C4,15.58,4.89,12.9,6,11Z" fill="#329dcc" fill-rule="evenodd"/><path d="M12.45,9H9.68a1.56,1.56,0,0,1-.36-.95c0-2.48,6.57-3,5.38-5.75,1.08,2.11-1.85,3.07-2.33,5.07a3.06,3.06,0,0,0,0,1.38A1.82,1.82,0,0,0,12.45,9Z" fill="#e6762b" fill-rule="evenodd"/><path d="M6.7,16H8.34l.79-4.06a2.07,2.07,0,0,1,1.09-.55c.36,0,.54.24.48.61L10,16h1.69l.73-4a2.1,2.1,0,0,1,1.15-.55.47.47,0,0,1,.51.43.37.37,0,0,1,0,.18L13.31,16H15l.85-4.61A1.17,1.17,0,0,0,15,10a1.16,1.16,0,0,0-.37,0,3.33,3.33,0,0,0-2.13,1,1,1,0,0,0-1.09-1h-.06a3.24,3.24,0,0,0-2.12,1v-.84H7.85Z" fill="#40b6e0"/></svg>