<svg xmlns="http://www.w3.org/2000/svg" width="16" height="16" viewBox="0 0 16 16">
  <g fill="none" fill-rule="evenodd">
    <g transform="translate(1 1)">
      <path fill="#751E21" d="M2.71441237,3.91090722 L2.72004124,3.91653608 L2.72119588,3.91754639 C3.34874227,4.52430928 4.00472165,4.87863918 4.75278351,5.59408247 L4.75249485,5.59408247 C3.00653608,4.20072165 -0.661752577,3.39305155 0.244783505,1.30373196 C0.342061856,1.10441237 0.487690722,0.906247423 0.658865979,0.734927835 C0.829896907,0.563752577 1.02820619,0.417979381 1.22680412,0.320989691 C3.31713402,-0.58756701 4.12509278,3.08202062 5.51845361,4.82812371 L5.51816495,4.82841237 C4.80301031,4.08035052 4.44868041,3.42451546 3.8417732,2.79668041 L3.84061856,2.7956701 L3.83527835,2.79004124 L3.82647423,2.7816701 C3.52208247,2.47684536 3.02789691,2.47670103 2.72350515,2.7816701 L2.71441237,2.7903299 L2.70604124,2.79913402 C2.40092784,3.10381443 2.40092784,3.59771134 2.70604124,3.90239175 L2.71441237,3.91090722"/>
      <path fill="#1D5895" d="M5,9.86687846 L5,10.0381113 C3.89303522,11.8968389 3.04505209,14.5703382 1.22680412,13.7800412 C1.02820619,13.6830515 0.829896907,13.5372784 0.659443299,13.3665361 C0.487690722,13.1950722 0.342061856,12.9966186 0.244783505,12.797299 C-0.662041237,10.7079794 3.00653608,9.90030928 4.75249485,8.50694845 L4.75278351,8.50723711 C4.00472165,9.22239175 3.34874227,9.57672165 2.72119588,10.1836289 L2.72004124,10.1847835 L2.71441237,10.1901237 L2.70604124,10.1987835 C2.40092784,10.5036082 2.40092784,10.9975052 2.70604124,11.3021856 L2.71441237,11.3108454 L2.72350515,11.3196495 C3.02789691,11.6243299 3.52208247,11.6243299 3.82647423,11.3196495 L3.83527835,11.3108454 L3.84061856,11.3052165 L3.8417732,11.3042062 C4.28272232,10.8482617 4.59034179,10.377308 5,9.86687846 Z"/>
      <path fill="#3A5E30" d="M11.2355052,3.91090722 L11.2298763,3.91653608 L11.2287216,3.91754639 C10.6010309,4.52430928 9.94534021,4.87863918 9.19684536,5.59408247 L9.19713402,5.59437113 C10.9435258,4.20072165 14.6121031,3.39305155 13.7049897,1.30373196 C13.6082887,1.10441237 13.4622268,0.906247423 13.2907629,0.734927835 C13.1200206,0.563752577 12.9218557,0.417979381 12.7231134,0.320989691 C10.6327835,-0.58756701 9.82496907,3.08202062 8.43131959,4.82841237 L8.43175258,4.82841237 C9.14690722,4.08035052 9.50138144,3.42437113 10.1082887,2.79682474 L10.1091546,2.7956701 L10.1144948,2.79004124 L10.1231546,2.7816701 C10.4276907,2.47670103 10.9220206,2.47670103 11.2265567,2.7816701 L11.2355052,2.7903299 L11.2443093,2.79913402 C11.5489897,3.1036701 11.5489897,3.59771134 11.2443093,3.90239175 L11.2355052,3.91090722"/>
      <path fill="#C4242B" d="M5.63002062,7.05065979 C5.60923711,9.53385567 -0.944206186,10.0843299 0.247525773,12.8040825 C-0.833216495,10.6938351 2.09682474,9.73086598 2.58018557,7.72828866 C2.68338144,7.30092784 2.68179381,6.77268041 2.57397938,6.34705155 C2.07171134,4.36193814 -0.828742268,3.39810309 0.247525773,1.29694845 C-0.944206186,4.01670103 5.60952577,4.56717526 5.63002062,7.05065979"/>
      <path fill="#79A240" d="M6.2942268,2.65538144 C4.29338144,2.16971134 3.33041237,-0.757010309 1.22117526,0.323298969 C3.94092784,-0.86828866 4.49154639,5.6854433 6.97503093,5.70579381 C9.45851546,5.6854433 10.0089897,-0.86828866 12.7287423,0.323298969 C10.6179175,-0.757587629 9.65494845,2.17360825 7.65121649,2.65624742 C7.23208247,2.75713402 6.71364948,2.75698969 6.2942268,2.65538144"/>
      <path fill="#329DCC" d="M5,12.1304185 C3.76376904,13.1077449 2.82290595,14.598069 1.22117526,13.7780206 C3.04317113,14.5762799 3.89169746,11.8984452 5,10.03751 L5,12.1304185 Z"/>
      <path fill="#E6762B" d="M11.4517507,8 L8.68029528,8 C8.45637949,7.71448367 8.32277548,7.40190664 8.31989691,7.05065979 C8.34053608,4.56746392 14.894268,4.01670103 13.7021031,1.29694845 C14.7828454,3.40734021 11.8529485,4.37016495 11.3694433,6.37303093 C11.2665361,6.80010309 11.268268,7.32863918 11.3759381,7.75426804 C11.3971085,7.8379397 11.4225385,7.91979646 11.4517507,8 Z"/>
    </g>
    <path fill="#FF6800" d="M7.89679817,10.016009 L6.7,15.9955594 L8.343037,15.9955594 L9.0898725,11.9915814 C9.0898725,11.9915814 9.73712963,11.4269178 10.2350197,11.4782509 C10.7329098,11.5295839 10.7329098,12.047355 10.7329098,12.047355 L10.0358637,16 L11.6796552,16 L12.4755252,11.9915814 C12.4755252,11.9915814 13.0232043,11.4269178 13.5708834,11.4782509 C14.1185625,11.5295839 14.0189845,12.0986881 14.0189845,12.0986881 L13.2721494,15.9955594 L14.9649757,15.9955594 L15.8113889,11.4313584 C15.9109669,10.7082551 15.4841627,10.0824977 14.9151867,10.016009 C14.3462108,9.94952024 13.7700395,10.0922585 13.2721494,10.4046974 C12.7742593,10.7171363 12.4755252,11.1233601 12.4755252,11.1233601 C12.4755252,11.1233601 12.2185696,10.0824977 11.429956,10.016009 C10.6413423,9.94952024 10.2848087,10.1435915 9.93628567,10.3489237 C9.5877626,10.5542559 9.38860656,10.8153618 9.38860656,10.8153618 L9.52577354,10.016009 L7.89679817,10.016009 Z"/>
  </g>
</svg>
