<svg version="1.1" width="48" height="48" viewBox="0 0 48 48" xmlns="http://www.w3.org/2000/svg">
  <path d="m23.35 0c7.083 0 12.98 5.04 14.3 11.75 5.059.3503 9.049 4.515 9.049 9.652 0 .7013-.07433 1.385-.2155 2.045-2.22-1.443-4.866-2.278-7.707-2.278-6.364 0-11.75 4.191-13.55 9.964l-13.56-.000386c-6.441 0-11.68-5.235-11.68-11.68 0-6.013 4.553-10.98 10.41-11.6 2.432-4.67 7.317-7.862 12.94-7.862z" fill="#8F989D" fill-rule="evenodd" stroke-width="3.113"/>
  <g transform="matrix(1.42 0 0 1.42 27.41 23.73)" clip-rule="evenodd" fill="#f4af3d" fill-rule="evenodd">
    <path d="m8.5 7.944 6-3.028v6.5l-6 3.028z"/>
    <path d="m7.5 7.944-6-3.028v6.5l6 3.028z"/>
    <path d="m14.1 4.097-6.1-2.597-6.1 2.597 6.1 3.028z"/>
  </g>
</svg>
