<svg width="16" height="16" viewBox="0 0 16 16" fill="none" xmlns="http://www.w3.org/2000/svg">
<path fill-rule="evenodd" clip-rule="evenodd" d="M11 10.5C11 10.2239 11.2239 10 11.5 10H15.5C15.7761 10 16 10.2239 16 10.5V14.5C16 14.7761 15.7761 15 15.5 15C15.2239 15 15 14.7761 15 14.5V11.7071L10.8536 15.8536C10.6583 16.0488 10.3417 16.0488 10.1464 15.8536C9.95118 15.6583 9.95118 15.3417 10.1464 15.1464L14.2929 11H11.5C11.2239 11 11 10.7761 11 10.5Z" fill="#6C707E"/>
<path d="M10.271 3.37897L3.37402 3.37297L7.92502 1.19097C8.46902 0.935969 9.13302 0.82897 9.87702 1.57297L12.015 3.71097C11.6805 3.37649 11.1591 3.3777 10.5285 3.37916C10.4445 3.37936 10.3586 3.37956 10.271 3.37897Z" fill="#29B6F6"/>
<path d="M10.0642 10.064L3.37402 3.37297L3.38002 10.271C3.38061 10.3587 3.38041 10.4445 3.38022 10.5285C3.37875 11.1591 3.37754 11.6805 3.71202 12.014L4.22168 12.5259L6.69568 14.9999L8.87872 14.9999L11.8786 12H11.4999C10.6715 12 9.99989 11.3284 9.99989 10.5C9.99989 10.3484 10.0224 10.202 10.0642 10.064Z" fill="#29B6F6"/>
<path d="M3.37328 3.37354L3.37928 10.2715C3.37987 10.3592 3.37967 10.445 3.37948 10.529C3.37801 11.1594 3.37681 11.6801 3.71128 12.0145L1.57328 9.87654C0.828284 9.13253 0.936284 8.46854 1.19128 7.92554L3.37328 3.37354Z" fill="#01579B"/>
<path d="M15.0004 9L15.0008 6.69674L12.5258 4.22274L12.0148 3.71074C11.6803 3.37626 11.1597 3.37747 10.5292 3.37893C10.4453 3.37912 10.3594 3.37932 10.2718 3.37874L3.37328 3.37354L10.0643 10.0643C10.2509 9.44837 10.8231 9 11.5 9H15.0004Z" fill="#01579B"/>
</svg>
