<svg width="16" height="16" viewBox="0 0 16 16" fill="none" xmlns="http://www.w3.org/2000/svg">
<path fill-rule="evenodd" clip-rule="evenodd" d="M3.37928 10.2715L3.37328 3.37354L1.19128 7.92554C0.936284 8.46854 0.828284 9.13254 1.57328 9.87654L3.71128 12.0145C3.33228 11.6355 3.38428 11.0175 3.37928 10.2715ZM12.5258 4.22274L12.0148 3.71074C11.6358 3.33174 11.0178 3.38374 10.2718 3.37874L3.37328 3.37354L12 12H15L15.0008 6.69674L12.5258 4.22274Z" fill="#01579B"/>
<path d="M3.37402 3.37297L10.271 3.37897C10.3587 3.37956 10.4445 3.37936 10.5285 3.37916C11.1591 3.3777 11.6805 3.37649 12.015 3.71097L9.87702 1.57297C9.13302 0.82897 8.46902 0.935969 7.92502 1.19097L3.37402 3.37297Z" fill="#29B6F6"/>
<path d="M12 12L3.37402 3.37297L3.38002 10.271C3.38061 10.3587 3.38041 10.4446 3.38022 10.5285C3.37875 11.1591 3.37754 11.6805 3.71202 12.014L4.22168 12.5259L6.69568 14.9999L12 15V12Z" fill="#29B6F6"/>
</svg>
