<svg width="16" height="16" viewBox="0 0 16 16" fill="none" xmlns="http://www.w3.org/2000/svg">
<path fill-rule="evenodd" clip-rule="evenodd" d="M15.3798 12.7116C15.5435 12.8689 15.5436 13.1309 15.3799 13.2883L12.6774 15.8875C12.4232 16.1319 12 15.9518 12 15.5992L12 10.4037C12 10.0512 12.423 9.87106 12.6772 10.1153L15.3798 12.7116Z" fill="#55A76A"/>
<path fill-rule="evenodd" clip-rule="evenodd" d="M7.62255 13.2884C7.45909 13.131 7.45916 12.8693 7.62271 12.712L10.3216 10.1164C10.5757 9.87198 10.9989 10.0521 10.9989 10.4047V15.5988C10.9989 15.9515 10.5755 16.1315 10.3214 15.8869L7.62255 13.2884Z" fill="#E55765"/>
<path d="M10.271 3.37897L3.37402 3.37297L7.92502 1.19097C8.46902 0.935969 9.13302 0.82897 9.87702 1.57297L12.015 3.71097C11.6805 3.37649 11.1591 3.3777 10.5285 3.37916C10.4445 3.37936 10.3586 3.37956 10.271 3.37897Z" fill="#29B6F6"/>
<path d="M9.50991 9.50961L3.37402 3.37297L3.38002 10.271C3.38061 10.3587 3.38041 10.4445 3.38022 10.5285C3.37875 11.1591 3.37754 11.6805 3.71202 12.014L4.22168 12.5259L6.69568 14.9999L7.95841 14.9999L6.92897 14.0088C6.35679 13.4579 6.35704 12.5419 6.92953 11.9913L9.50991 9.50961Z" fill="#29B6F6"/>
<path d="M3.37328 3.37354L3.37928 10.2715C3.37987 10.3592 3.37967 10.445 3.37948 10.529C3.37801 11.1594 3.37681 11.6801 3.71128 12.0145L1.57328 9.87654C0.828284 9.13253 0.936284 8.46854 1.19128 7.92554L3.37328 3.37354Z" fill="#01579B"/>
<path d="M15.0002 10.9602L15.0008 6.69674L12.5258 4.22274L12.0148 3.71074C11.6803 3.37626 11.1597 3.37747 10.5292 3.37893C10.4453 3.37912 10.3594 3.37932 10.2718 3.37874L3.37328 3.37354L9.50972 9.50979L9.6284 9.39566C9.91123 9.12364 10.2539 9.00185 10.5898 9.00195L12.4102 9.00098C12.7455 9.00113 13.0875 9.12279 13.37 9.39415L15.0002 10.9602Z" fill="#01579B"/>
</svg>
