<svg width="16" height="16" viewBox="0 0 16 16" fill="none" xmlns="http://www.w3.org/2000/svg">
<path d="M10.7127 14.7105C10.4717 14.1132 10.3093 13.3477 10.2631 12.4997H9.04102C9.2053 13.479 9.84398 14.2974 10.7127 14.7105Z" fill="#EBECF0"/>
<path d="M11.6783 14.4274C11.4715 13.9548 11.3129 13.2847 11.2647 12.4997H12.7343C12.6861 13.2847 12.5276 13.9548 12.3208 14.4274C12.202 14.6989 12.085 14.8649 11.9995 14.9526C11.9141 14.8649 11.797 14.6989 11.6783 14.4274Z" fill="#EBECF0"/>
<path d="M11.6783 9.57214C11.4715 10.0447 11.3129 10.7147 11.2647 11.4997H12.7343C12.6861 10.7147 12.5276 10.0447 12.3208 9.57214C12.202 9.30063 12.085 9.13457 11.9995 9.04688C11.9141 9.13457 11.797 9.30063 11.6783 9.57214Z" fill="#EBECF0"/>
<path d="M13.2864 14.7105C13.5274 14.1132 13.6897 13.3477 13.736 12.4997H14.9581C14.7938 13.479 14.1551 14.2974 13.2864 14.7105Z" fill="#EBECF0"/>
<path d="M13.736 11.4997H14.9581C14.7938 10.5205 14.1551 9.70212 13.2864 9.28899C13.5274 9.88633 13.6897 10.6518 13.736 11.4997Z" fill="#EBECF0"/>
<path d="M9.04102 11.4997H10.2631C10.3093 10.6518 10.4717 9.88633 10.7127 9.28899C9.84398 9.70212 9.2053 10.5205 9.04102 11.4997Z" fill="#EBECF0"/>
<path fill-rule="evenodd" clip-rule="evenodd" d="M16 12C16 9.79086 14.2091 8 12 8C9.79086 8 8 9.79086 8 12C8 14.2091 9.79086 16 12 16C14.2091 16 16 14.2091 16 12ZM10.2635 12.5C10.3098 13.3479 10.4722 14.1134 10.7131 14.7107C9.84445 14.2976 9.20577 13.4792 9.04148 12.5H10.2635ZM11.2652 12.5C11.3134 13.285 11.472 13.955 11.6787 14.4276C11.7975 14.6991 11.9146 14.8652 12 14.9529C12.0854 14.8652 12.2025 14.6991 12.3213 14.4276C12.528 13.955 12.6866 13.285 12.7348 12.5H11.2652ZM12.7348 11.5H11.2652C11.3134 10.715 11.472 10.045 11.6787 9.57239C11.7975 9.30089 11.9146 9.13483 12 9.04713C12.0854 9.13483 12.2025 9.30089 12.3213 9.57239C12.528 10.045 12.6866 10.715 12.7348 11.5ZM13.7365 12.5C13.6902 13.3479 13.5278 14.1134 13.2869 14.7107C14.1556 14.2976 14.7942 13.4792 14.9585 12.5H13.7365ZM14.9585 11.5H13.7365C13.6902 10.6521 13.5278 9.88659 13.2869 9.28925C14.1556 9.70237 14.7942 10.5208 14.9585 11.5ZM10.2635 11.5H9.04148C9.20577 10.5208 9.84445 9.70237 10.7131 9.28925C10.4722 9.88659 10.3098 10.6521 10.2635 11.5Z" fill="#6C707E"/>
<path d="M10.271 3.37897L3.37402 3.37297L7.92502 1.19097C8.46902 0.935969 9.13302 0.82897 9.87702 1.57297L12.015 3.71097C11.6805 3.37649 11.1591 3.3777 10.5285 3.37916C10.4445 3.37936 10.3586 3.37956 10.271 3.37897Z" fill="#29B6F6"/>
<path d="M8.46468 8.46425L3.37402 3.37297L3.38002 10.271C3.38061 10.3587 3.38041 10.4445 3.38022 10.5285C3.37875 11.1591 3.37754 11.6805 3.71202 12.014L4.22168 12.5259L6.69568 14.9999L7.99957 14.9999C7.37192 14.1643 7 13.1256 7 12C7 10.6192 7.55973 9.36909 8.46468 8.46425Z" fill="#29B6F6"/>
<path d="M3.37328 3.37354L3.37928 10.2715C3.37987 10.3592 3.37967 10.445 3.37948 10.529C3.37801 11.1594 3.37681 11.6801 3.71128 12.0145L1.57328 9.87654C0.828284 9.13253 0.936284 8.46854 1.19128 7.92554L3.37328 3.37354Z" fill="#01579B"/>
<path d="M15.0006 8.00008L15.0008 6.69674L12.5258 4.22274L12.0148 3.71074C11.6803 3.37626 11.1597 3.37747 10.5292 3.37893C10.4453 3.37912 10.3594 3.37932 10.2718 3.37874L3.37328 3.37354L8.46441 8.46452C9.36924 7.55967 10.6193 7 12 7C13.1259 7 14.1648 7.37212 15.0006 8.00008Z" fill="#01579B"/>
</svg>
