<svg width="16" height="16" viewBox="0 0 16 16" fill="none" xmlns="http://www.w3.org/2000/svg">
<path fill-rule="evenodd" clip-rule="evenodd" d="M13.7071 13L10.3904 9.6833C10.3958 9.68185 10.4012 9.68044 10.4067 9.67908L12.6932 9.10744L15 11.4142L15 13H13.7071ZM9.00028 9.51735C9.13938 9.31476 9.31476 9.13938 9.51735 9.00028C9.71078 8.86747 9.92901 8.76772 10.1641 8.70894L12.4507 8.1373C12.7915 8.05211 13.152 8.15196 13.4003 8.40034L15.7071 10.7071C15.8946 10.8946 16 11.149 16 11.4142V13C16 13.5523 15.5523 14 15 14H14V15C14 15.5523 13.5523 16 13 16H11.4142C11.149 16 10.8946 15.8946 10.7071 15.7071L8.40034 13.4003C8.15196 13.152 8.05211 12.7915 8.1373 12.4507L8.70894 10.1642C8.76772 9.92901 8.86747 9.71078 9.00028 9.51735ZM9.6833 10.3904L13 13.7071V15L11.4142 15L9.10744 12.6932L9.67908 10.4067C9.68044 10.4012 9.68185 10.3958 9.6833 10.3904Z" fill="#CED0D6"/>
<path fill-rule="evenodd" clip-rule="evenodd" d="M2 6V3C2 2.44772 2.44772 2 3 2H13C13.5523 2 14 2.44772 14 3V6C14 6.55228 13.5523 7 13 7H3C2.44772 7 2 6.55228 2 6ZM3 3V6H13L13 3H3Z" fill="#CED0D6"/>
<path d="M2 13V10C2 9.44771 2.44772 9 3 9H8.1432C7.96018 9.27805 7.82204 9.58873 7.73882 9.92164L7.71922 10H3V13H7.13111C7.18795 13.3659 7.34596 13.7134 7.59338 14H3C2.44772 14 2 13.5523 2 13Z" fill="#CED0D6"/>
</svg>
