<svg width="20" height="20" viewBox="0 0 20 20" fill="none" xmlns="http://www.w3.org/2000/svg">
<path fill-rule="evenodd" clip-rule="evenodd" d="M13.9999 18.9999C14.5522 18.9999 14.9999 18.5522 14.9999 17.9999V14.9999H17.9999C18.5522 14.9999 18.9999 14.5522 18.9999 13.9999V9.41411C18.9999 9.14889 18.8945 8.89454 18.707 8.707L11.8739 1.87393C11.3383 1.33826 10.5459 1.15122 9.82726 1.39077L4.44858 3.18367C3.85137 3.38274 3.38274 3.85137 3.18367 4.44858L1.39077 9.82726C1.15122 10.5459 1.33826 11.3383 1.87393 11.8739L8.707 18.707C8.89454 18.8945 9.14889 18.9999 9.41411 18.9999H13.9999ZM6.56066 5.5L14.5606 13.4999H17.4999V9.62121L13.3787 5.5H6.56066ZM5.5 6.56066L13.4999 14.5606V17.4999H9.62121L5.5 13.3787V6.56066ZM4 6.743V11.8787L2.93459 10.8133C2.80067 10.6794 2.75391 10.4813 2.8138 10.3016L4 6.743ZM6.743 4H11.8787L10.8133 2.93459C10.6793 2.80067 10.4813 2.75391 10.3016 2.8138L6.743 4Z" fill="#6C707E"/>
</svg>
