<svg width="20" height="20" viewBox="0 0 20 20" fill="none" xmlns="http://www.w3.org/2000/svg">
<g clip-path="url(#clip0_10683_11877)">
<path fill-rule="evenodd" clip-rule="evenodd" d="M15.4756 10.1049C15.8035 10.0393 16.1424 10.1419 16.3788 10.3784L19.7075 13.707C19.8951 13.8946 20.0004 14.1489 20.0004 14.4141V16.9999C20.0004 17.5522 19.5527 17.9999 19.0004 17.9999H18.0591C18.0499 18.0103 18.0403 18.0204 18.0303 18.0303C18.0206 18.0401 18.0106 18.0496 18.0004 18.0587V18.9999C18.0004 19.5522 17.5527 19.9999 17.0004 19.9999H14.4146C14.1494 19.9999 13.8951 19.8946 13.7075 19.707L10.3788 16.3784C10.1424 16.1419 10.0398 15.803 10.1054 15.4751L10.7389 12.3074C10.8973 11.5156 11.5161 10.8968 12.3079 10.7384L15.4756 10.1049ZM17.5606 16.4999H18.5004V14.6212L15.5074 11.6282L13.1586 12.098L17.5606 16.4999ZM12.0983 13.159L16.5004 17.5611V18.4999H14.6217L11.6287 15.5069L12.0983 13.159Z" fill="#CED0D6"/>
<path fill-rule="evenodd" clip-rule="evenodd" d="M2 4V7C2 8.10457 2.89543 9 4 9H16C17.1046 9 18 8.10457 18 7V4C18 2.89543 17.1046 2 16 2H4C2.89543 2 2 2.89543 2 4ZM3.5 7V4C3.5 3.72386 3.72386 3.5 4 3.5H16C16.2761 3.5 16.5 3.72386 16.5 4V7C16.5 7.27614 16.2761 7.5 16 7.5H4C3.72386 7.5 3.5 7.27614 3.5 7Z" fill="#CED0D6"/>
<path d="M4 11H9.64032C9.46739 11.3112 9.34034 11.6519 9.26808 12.0132L9.17072 12.5H4C3.72386 12.5 3.5 12.7239 3.5 13V16C3.5 16.2761 3.72386 16.5 4 16.5H8.72733C8.84967 16.8482 9.04932 17.1702 9.31821 17.439L9.87917 18H4C2.89543 18 2 17.1046 2 16V13C2 11.8954 2.89543 11 4 11Z" fill="#CED0D6"/>
</g>
<defs>
<clipPath id="clip0_10683_11877">
<rect width="20" height="20" fill="white"/>
</clipPath>
</defs>
</svg>
