<svg width="20" height="20" viewBox="0 0 20 20" fill="none" xmlns="http://www.w3.org/2000/svg">
<path d="M13.8447 14.9053C13.9592 15.0199 14.1016 15.0896 14.25 15.1146V18C14.25 18.1381 14.1381 18.25 14 18.25H9.41421C9.34791 18.25 9.28432 18.2237 9.23744 18.1768L2.40436 11.3437C2.06957 11.0089 1.95267 10.5137 2.10239 10.0645L3.8279 4.88802C3.83338 4.89386 3.83897 4.89963 3.84467 4.90533L13.8447 14.9053ZM15.1146 14.25C15.0896 14.1016 15.0199 13.9592 14.9053 13.8447L4.90533 3.84467C4.89963 3.83897 4.89386 3.83338 4.88802 3.8279L10.0645 2.10239C10.5137 1.95267 11.0089 2.06957 11.3437 2.40436L18.1768 9.23744C18.2237 9.28432 18.25 9.34791 18.25 9.41421V14C18.25 14.1381 18.1381 14.25 18 14.25H15.1146Z" stroke="#6C707E" stroke-width="1.5" stroke-linecap="round"/>
<path d="M4.75 13.5V5.75C4.75 5.19772 5.19772 4.75 5.75 4.75H13.5" stroke="#6C707E" stroke-width="1.5" stroke-linecap="round"/>
</svg>
