<svg width="16" height="16" viewBox="0 0 16 16" fill="none" xmlns="http://www.w3.org/2000/svg">
<path d="M11.1464 11.8536C11.2441 11.9512 11.372 12 11.5 12V14C11.5 14.2761 11.2761 14.5 11 14.5H7.41421C7.28161 14.5 7.15443 14.4473 7.06066 14.3536L2.22759 9.52048C1.82584 9.11873 1.68555 8.52448 1.86522 7.98548L3.15811 4.1068C3.17783 4.04766 3.20106 3.99021 3.22758 3.93468L11.1464 11.8536ZM12 11.5C12 11.372 11.9512 11.2441 11.8536 11.1464L3.93468 3.22758C3.99021 3.20106 4.04766 3.17783 4.1068 3.15811L7.98548 1.86522C8.52448 1.68555 9.11873 1.82584 9.52048 2.22759L14.3536 7.06066C14.4473 7.15443 14.5 7.2816 14.5 7.41421V11C14.5 11.2761 14.2761 11.5 14 11.5H12Z" stroke="#CED0D6" stroke-linecap="round"/>
<path d="M3.5 10.5V4.5C3.5 3.94772 3.94772 3.5 4.5 3.5H10.5" stroke="#CED0D6" stroke-linecap="round"/>
</svg>
