<!-- Copyright 2000-2024 JetBrains s.r.o. and contributors. Use of this source code is governed by the Apache 2.0 license. -->
<svg width="40" height="40" viewBox="0 0 40 40" fill="none" xmlns="http://www.w3.org/2000/svg">
<path d="M6.0743 26.4983L5 9.3384L16.4357 4L6.0743 26.4983Z" fill="url(#paint0_linear_4069_2091)"/>
<path d="M6.0743 26.4983L5 9.3384L16.4357 4L6.0743 26.4983Z" fill="url(#paint1_linear_4069_2091)"/>
<path d="M15.8835 22.5882H24.1165L20 12.4786L15.8835 22.5882Z" fill="url(#paint2_linear_4069_2091)"/>
<path d="M15.8835 22.5882H24.1165L20 12.4786L15.8835 22.5882Z" fill="url(#paint3_linear_4069_2091)"/>
<path d="M20 36L12.1586 31.5125L13.755 27.6125H26.245L27.8414 31.5125L20 36Z" fill="url(#paint4_linear_4069_2091)"/>
<path d="M20 36L12.1586 31.5125L13.755 27.6125H26.245L27.8414 31.5125L20 36Z" fill="url(#paint5_linear_4069_2091)"/>
<path d="M33.9257 26.4983L35 9.3384L23.5643 4L33.9257 26.4983Z" fill="url(#paint6_linear_4069_2091)"/>
<path d="M33.9257 26.4983L35 9.3384L23.5643 4L33.9257 26.4983Z" fill="url(#paint7_linear_4069_2091)"/>
<defs>
<linearGradient id="paint0_linear_4069_2091" x1="35" y1="25.8369" x2="19.9043" y2="37.0585" gradientUnits="userSpaceOnUse">
<stop offset="0.0103919" stop-color="#9225F2"/>
<stop offset="0.989033" stop-color="#F41049"/>
</linearGradient>
<linearGradient id="paint1_linear_4069_2091" x1="5" y1="4" x2="27.8197" y2="26.6178" gradientUnits="userSpaceOnUse">
<stop stop-color="#F933C2"/>
<stop offset="1" stop-color="#F932BE" stop-opacity="0"/>
</linearGradient>
<linearGradient id="paint2_linear_4069_2091" x1="35" y1="25.8369" x2="19.9043" y2="37.0585" gradientUnits="userSpaceOnUse">
<stop offset="0.0103919" stop-color="#9225F2"/>
<stop offset="0.989033" stop-color="#F41049"/>
</linearGradient>
<linearGradient id="paint3_linear_4069_2091" x1="5" y1="4" x2="27.8197" y2="26.6178" gradientUnits="userSpaceOnUse">
<stop stop-color="#F933C2"/>
<stop offset="1" stop-color="#F932BE" stop-opacity="0"/>
</linearGradient>
<linearGradient id="paint4_linear_4069_2091" x1="35" y1="25.8369" x2="19.9043" y2="37.0585" gradientUnits="userSpaceOnUse">
<stop offset="0.0103919" stop-color="#9225F2"/>
<stop offset="0.989033" stop-color="#F41049"/>
</linearGradient>
<linearGradient id="paint5_linear_4069_2091" x1="5" y1="4" x2="27.8197" y2="26.6178" gradientUnits="userSpaceOnUse">
<stop stop-color="#F933C2"/>
<stop offset="1" stop-color="#F932BE" stop-opacity="0"/>
</linearGradient>
<linearGradient id="paint6_linear_4069_2091" x1="35" y1="25.8369" x2="19.9043" y2="37.0585" gradientUnits="userSpaceOnUse">
<stop offset="0.0103919" stop-color="#9225F2"/>
<stop offset="0.989033" stop-color="#F41049"/>
</linearGradient>
<linearGradient id="paint7_linear_4069_2091" x1="5" y1="4" x2="27.8197" y2="26.6178" gradientUnits="userSpaceOnUse">
<stop stop-color="#F933C2"/>
<stop offset="1" stop-color="#F932BE" stop-opacity="0"/>
</linearGradient>
</defs>
</svg>
