<svg width="40" height="40" viewBox="0 0 40 40" fill="none" xmlns="http://www.w3.org/2000/svg">
<path d="M20.4889 22.5093C19.5709 22.4224 18.6311 22.3355 17.7569 21.9227C17.5821 21.8358 17.3854 21.7489 17.2324 21.5751C16.839 21.2058 16.7297 20.6626 16.9264 20.1847C17.1231 19.7284 17.5165 19.4677 18.041 19.4242C18.0629 19.4242 18.0847 19.4242 18.1284 19.4242C18.3689 19.4242 18.5656 19.4894 18.7404 19.5329C18.7404 19.5329 18.9808 19.5981 19.0682 19.6198C19.3524 19.7067 19.6146 19.7719 19.8769 19.837C20.0736 19.8805 20.2703 19.9022 20.467 19.9022C20.8386 19.9022 21.2101 19.8153 21.5379 19.6632L21.6254 19.6198C21.7783 19.5546 21.9532 19.4677 22.128 19.4025C22.3029 19.3373 22.4559 19.3156 22.6307 19.3156C23.046 19.3156 23.4394 19.5111 23.6579 19.8588C24.0076 20.3802 23.9202 21.032 23.4831 21.4882C23.0678 21.901 22.5433 22.1834 21.9532 22.3138C21.6035 22.379 21.2538 22.4224 20.9478 22.4659C20.8167 22.4876 20.6856 22.4876 20.5763 22.5093H20.5326H20.4889Z" fill="#9C70F2"/>
<path d="M12.14 30.5914C12.0307 30.5914 11.9433 30.5697 11.8559 30.548C11.375 30.4176 11.0691 30.0048 11.0253 29.4617C11.0035 29.1793 11.0253 28.8751 11.1128 28.5492C11.2876 27.7888 11.3095 27.6584 11.3095 27.4194C11.3313 27.2239 11.3313 26.9632 11.4406 26.3549C11.4843 26.0942 11.5062 25.79 11.4843 25.4207V25.3989V25.3772C11.5499 24.6385 11.681 21.2058 11.681 20.4019C11.681 18.7508 11.681 17.0996 11.681 15.4484V15.0573C11.681 14.7749 11.681 14.4925 11.7684 14.1883C11.9214 13.6452 12.3585 13.2758 12.8831 13.2541H12.9049C13.4076 13.2541 13.8229 13.58 13.9977 14.1014C14.107 14.3838 14.107 14.6663 14.1288 14.927V14.9704C14.1944 16.035 14.1944 17.0996 14.1288 18.1424C14.107 18.4249 14.107 18.6856 14.1288 18.9898C14.1288 19.1201 14.1288 19.2505 14.1288 19.4026V19.4243C14.0633 20.7496 14.0414 22.1183 14.0196 23.4436V23.6391C13.9977 24.8558 13.8884 26.0724 13.7792 27.3108C13.7573 27.6584 13.7354 27.8757 13.7354 28.0061C13.7136 28.3971 13.6917 28.4406 13.5169 29.0272L13.4076 29.44C13.3639 29.6138 13.2983 29.831 13.1672 30.0266C12.9049 30.3742 12.5334 30.5914 12.14 30.5914Z" fill="#FF8A12"/>
<path d="M23.5701 38C21.7561 38 19.8984 37.4134 18.3466 36.3271C17.9313 36.0447 17.6254 35.7622 17.2757 35.4581C17.0134 35.2191 16.7293 34.9801 16.4014 34.7194C15.2212 33.8069 14.8497 33.5027 13.4291 33.2203H13.4072L13.3635 33.1986C12.533 32.9596 12.1177 32.3947 12.227 31.6777C12.3363 31.026 12.8827 30.5914 13.6258 30.5914C13.6913 30.5914 13.7351 30.5914 13.8006 30.5914C14.7841 30.6783 15.0682 30.8087 15.8113 31.178L16.0955 31.3301C17.4068 31.9602 19.9858 33.9807 20.2918 34.2197C21.1223 34.8715 22.3025 35.2408 23.5264 35.2408C24.2695 35.2408 24.9689 35.1104 25.559 34.8497C26.6955 34.35 27.373 33.5244 28.1817 32.5468C28.2909 32.4164 28.3784 32.3078 28.4876 32.1774C30.4109 29.8527 31.7878 24.682 31.9627 22.6614C32.072 21.3361 32.1594 20.0978 32.225 18.9028C32.2905 17.9903 32.2687 16.4043 32.2031 15.557V15.5353C32.2031 15.2311 32.1812 14.927 32.1375 14.5794C31.919 12.6892 31.5911 11.277 31.0229 9.99517C30.1924 8.08328 28.8373 6.758 26.8703 5.91068C25.253 5.21545 23.439 4.84611 21.319 4.78093C20.8819 4.7592 20.4885 4.7592 20.1169 4.7592C18.3685 4.7592 16.9478 4.91129 15.6583 5.23718C11.5058 6.30175 8.9268 8.90887 8.00886 12.9716C7.50618 15.166 7.63732 17.3603 8.38041 19.4677C8.7301 20.4671 9.21093 21.2492 9.84474 21.8576C10.0633 22.0748 10.3256 22.1835 10.5223 22.3573C11.1124 22.9004 11.2435 23.7043 10.8064 24.2909C10.413 24.834 9.3202 24.682 9.14536 24.5951C7.9433 23.9867 7.28763 23.248 6.52268 21.8576C5.40804 19.8153 4.90536 17.5124 5.01464 14.8618C5.10206 12.4285 5.77958 10.2124 6.98165 8.27882C8.3367 6.08449 10.3037 4.45504 12.7953 3.43392C15.0901 2.45625 17.5379 2 20.2699 2C20.8163 2 21.3845 2.02173 21.9528 2.06518C23.8105 2.19553 25.4278 2.4997 26.914 3.02112C30.1705 4.15087 32.4217 6.21485 33.6019 9.16958C34.0827 10.3645 34.4542 11.6681 34.6946 13.1454C35.1099 15.6657 35.0225 18.2076 34.8913 20.3585C34.7384 23.0091 34.5417 25.2034 33.6456 27.5715C31.8534 32.3295 31.2852 33.1334 29.7771 34.9149C28.9029 35.936 27.9631 36.6964 26.8703 37.2396C25.8868 37.7393 24.7503 38 23.5701 38Z" fill="#DB0012"/>
<path d="M24.3573 29.2444C24.0294 29.2444 23.7016 29.2444 23.3738 29.2444C23.0896 29.2444 22.8055 29.2444 22.5214 29.2444C22.2591 29.2444 22.0187 29.1793 21.8002 29.0272C21.3849 28.7447 21.2101 28.3537 21.2756 27.8757C21.3412 27.4194 21.6472 27.0936 22.1061 26.9632C22.281 26.9197 22.4558 26.898 22.6744 26.898C22.7837 26.898 22.8711 26.898 22.9804 26.898H23.0241C23.3956 26.9197 23.789 26.9415 24.1606 26.9415C24.3573 26.9415 24.5321 26.9415 24.6851 26.9197C24.9692 26.898 25.2315 26.8328 25.4719 26.7242C25.6905 26.6373 25.7779 26.4852 25.8216 26.268C25.8435 26.0507 25.8435 25.8334 25.7997 25.5945C25.5375 24.2692 25.2752 22.9439 25.0129 21.6186C24.9255 21.1406 24.9255 20.6627 25.0129 20.0978C25.2971 18.5118 26.1713 17.2517 27.7012 16.2088C28.3787 15.7526 29.1 15.3398 29.6463 15.0356C29.8649 14.927 30.1272 14.7966 30.4769 14.7966C30.6517 14.7966 30.8047 14.8401 30.9795 14.9053C31.2855 15.0356 31.6134 15.405 31.6352 15.9698C31.6571 16.513 31.3074 16.9258 31.1107 17.0344L30.9358 17.1213C29.9523 17.6645 29.1218 18.1207 28.335 18.8811C27.7886 19.4025 27.5045 20.0543 27.5045 20.8147C27.5045 21.7707 27.7012 22.6832 27.9197 23.6608C27.9635 23.8781 28.0072 24.0736 28.0509 24.2909C28.2039 25.0296 28.2694 25.7683 28.2257 26.5721C28.1602 28.0712 27.0674 29.1575 25.603 29.2227C25.2096 29.2444 24.8162 29.2444 24.3573 29.2444Z" fill="#FF8A12"/>
</svg>
