<svg xmlns="http://www.w3.org/2000/svg" xmlns:xlink="http://www.w3.org/1999/xlink" width="16" height="16" viewBox="0 0 16 16">
  <defs>
    <path id="yeoman-a" d="M11.0953853,3.47688073 L11.0953853,3.46044037 L11.4577798,1.64885321 C11.4577798,1.64885321 10.6526514,-0.20312844 7.95527523,0.0183669725 C5.25802752,0.239733945 4.91586239,0.863761468 4.47293578,1.60858716 L4.73456881,2.79614679 L4.23133945,3.11827523 C4.23133945,3.11827523 4.05023853,2.57477982 3.76837615,2.5546789 C3.76837615,2.5546789 4.19107339,1.95081651 3.88917431,1.52811927 C3.58727523,1.10542202 1.97688991,1.14562385 1.35286239,3.27940367 C1.35286239,3.27940367 1.27245872,2.63527523 1.01069725,2.63527523 C0.74906422,2.63527523 -0.21712844,2.97750459 0.0445045872,3.9839633 C0.306137615,4.99042202 1.21202752,5.2923211 1.51392661,5.41311927 C1.51392661,5.41311927 1.65476147,5.59422018 1.59445872,5.83581651 C1.56273394,5.96265138 0.832357798,8.22050459 1.44244954,10.3076606 C1.89802752,11.8662844 3.35447706,13.2204954 3.35447706,13.2204954 C4.46689908,14.2816055 5.96778899,14.9324771 7.61959633,14.9324771 C11.048633,14.9324771 13.828789,12.1279817 13.828789,8.66811927 C13.8287248,6.50794495 12.7446881,4.60304587 11.0953853,3.47688073 Z"/>
  </defs>
  <g fill="none" fill-rule="evenodd" transform="translate(.3 .2)">
    <path fill="#020202" fill-rule="nonzero" d="M7.61959633,15.0929633 C4.10733028,15.0929633 1.24985321,12.2107615 1.24985321,8.66805505 C1.24985321,5.12547706 4.10726606,2.24340367 7.61959633,2.24340367 C11.1319266,2.24340367 13.9893394,5.12547706 13.9893394,8.66805505 C13.9892752,12.2107615 11.1318624,15.0929633 7.61959633,15.0929633 Z M7.61959633,2.56450459 C4.28438532,2.56450459 1.57095413,5.30253211 1.57095413,8.66805505 C1.57095413,12.0337064 4.28438532,14.7718624 7.61959633,14.7718624 C10.9548716,14.7718624 13.6682385,12.0337064 13.6682385,8.66805505 C13.6681743,5.30253211 10.9548716,2.56450459 7.61959633,2.56450459 Z"/>
    <path fill="#FFF" d="M7.61959633,2.56450459 C4.28438532,2.56450459 1.57095413,5.30253211 1.57095413,8.66805505 C1.57095413,12.0337064 4.28438532,14.7718624 7.61959633,14.7718624 C10.9548716,14.7718624 13.6682385,12.0337064 13.6682385,8.66805505 C13.6681743,5.30253211 10.9548716,2.56450459 7.61959633,2.56450459 Z"/>
    <mask id="yeoman-b" fill="#fff">
      <use xlink:href="#yeoman-a"/>
    </mask>
    <g mask="url(#yeoman-b)">
      <g transform="translate(.257 .128)">
        <path fill="#050505" d="M9.55255963,10.8229633 C9.55255963,10.8229633 14.0654404,11.5495505 14.562633,17.8599541 C14.562633,17.8599541 13.721156,18.395422 12.8415963,18.4336972 C12.8415321,18.4336972 12.9180826,13.5766606 9.55255963,10.8229633 Z"/>
        <path fill="#DD002A" d="M12.1914312,14.77 C12.2267523,14.8721101 12.2599541,14.973578 12.2916147,15.0740183 C12.5881193,15.0438991 13.2526697,14.9500734 13.8414404,14.6834312 C13.8002752,14.5847248 13.7578899,14.4890367 13.7144771,14.3953394 C13.4979908,14.4950092 13.0180092,14.6722569 12.1914312,14.77 Z"/>
        <circle cx="4.897" cy="6.044" r="1" fill="#F4CF8C"/>
        <circle cx="4.897" cy="6.044" r="1" fill="#F4CF8C"/>
        <path fill="#F4CF8C" d="M3.92924771,6.04382569 C3.92924771,6.07355963 3.93078899,6.10290826 3.93342202,6.13193578 C4.0023945,6.10265138 4.07592661,6.06450459 4.15427523,6.01434862 C4.61293578,5.72137615 4.62655046,5.37188991 4.52405505,5.15052294 C4.17476147,5.29649541 3.92924771,5.64142202 3.92924771,6.04382569 Z"/>
        <circle cx="4.397" cy="6.044" r="1" fill="#F4CF8C"/>
        <path fill="#D8AF6F" d="M4.39715596,5.57598165 C4.37808257,5.57598165 4.35952294,5.57733028 4.34115596,5.5796422 C4.52354128,5.60738532 4.66495413,5.80441284 4.66495413,6.04388991 C4.66495413,6.28336697 4.52354128,6.4803945 4.34115596,6.50813761 C4.35952294,6.5103211 4.37808257,6.51179817 4.39715596,6.51179817 C4.65544954,6.51179817 4.865,6.30231193 4.865,6.04395413 C4.865,5.78559633 4.65551376,5.57598165 4.39715596,5.57598165 Z"/>
        <path fill="#F4CF8C" fill-rule="nonzero" d="M5.48449659,5.58200258 C5.42970302,5.57826608 5.374667,5.57591743 5.31817628,5.57591743 C4.55106628,5.57591743 3.92918349,5.92415861 3.92918349,6.35364183 C3.92942594,5.95565191 4.60876924,5.62812158 5.48449659,5.58200258 Z M3.92942594,6.35374859 C3.92942594,6.78323181 4.55106628,7.13147299 5.31841873,7.13147299 C5.374667,7.13147299 5.42994547,7.12912433 5.48473904,7.12538784 C4.60876924,7.07937559 3.92942594,6.75173851 3.92942594,6.35374859 Z"/>
        <circle cx="10.562" cy="6.044" r="1" fill="#F4CF8C"/>
        <circle cx="10.562" cy="6.044" r="1" fill="#F4CF8C"/>
        <circle cx="11.062" cy="6.044" r="1" fill="#F4CF8C"/>
        <path fill="#D8AF6F" d="M10.7941284,6.04382569 C10.7941284,5.80434862 10.9354771,5.6073211 11.1178624,5.57957798 C11.0995596,5.57733028 11.0808716,5.57591743 11.0619266,5.57591743 C10.8034404,5.57591743 10.5940826,5.78540367 10.5940826,6.04376147 C10.5940826,6.30211927 10.8034404,6.5116055 11.0619266,6.5116055 C11.0808716,6.5116055 11.0995596,6.51019266 11.1178624,6.50794495 C10.9354771,6.48033028 10.7941284,6.28323853 10.7941284,6.04382569 Z"/>
        <path fill="#F4CF8C" fill-rule="nonzero" d="M11.5298991,6.04382569 C11.5298991,5.78546789 11.3651101,5.57598165 11.1619817,5.57598165 C11.1469541,5.57598165 11.1323119,5.57733028 11.1177982,5.5796422 C11.3498899,5.6073211 11.5298991,5.80434862 11.5298991,6.04382569 Z M11.1178624,6.50800917 C11.1323761,6.51019266 11.1469541,6.51166972 11.1620459,6.51166972 C11.3651101,6.51166972 11.5299633,6.30218349 11.5299633,6.04382569 C11.5298991,6.28323853 11.3498899,6.48033028 11.1178624,6.50800917 Z M2.19324771,6.66220183 C2.19324771,6.66220183 3.11641284,6.7826789 2.996,5.85951376 C2.996,5.85951376 3.31710092,6.36120183 4.03957798,5.89958716 C4.76205505,5.4380367 4.3807156,4.83597248 4.18009174,4.816 C3.97940367,4.79589908 3.69844037,4.57504587 2.996,5.29758716 L2.59462385,4.37448624 L3.05623853,3.7723578 C3.05623853,3.7723578 3.11962385,4.64202752 3.79040367,4.39779817 C4.46105505,4.15369725 3.95936697,2.66854128 3.35730275,2.66854128 L2.27352294,3.2906422 C2.27352294,3.2906422 2.47421101,2.72884404 3.35723853,2.26722936 C3.35723853,2.26722936 3.69837615,2.06654128 3.49775229,1.56478899 C3.29712844,1.0630367 1.39055963,1.42427523 1.08949541,3.87266972 C1.08949541,3.87266972 0.748357798,3.55156881 0.828633028,3.04988073 C0.908908257,2.54819266 -0.154834862,2.6886422 0.045853211,3.7723578 C0.246541284,4.85613761 1.29018349,5.07673394 1.29018349,5.07673394 C1.29018349,5.07673394 1.64448624,5.65002752 1.39049541,6.30089908 C1.39049541,6.3009633 1.79187156,6.8027156 2.19324771,6.66220183 Z M4.03957798,5.89958716 C4.76205505,5.4380367 4.3807156,4.83597248 4.18009174,4.816 C4.05672477,4.8036055 3.90278899,4.71568807 3.63948624,4.81747706 L3.87600917,5.30458716 C3.87600917,5.30458716 3.8273945,6.00131193 3.04975229,5.8230367 C3.04975229,5.8230367 3.04153211,5.85045872 3.02123853,5.89213761 C3.1092844,5.99553211 3.43282569,6.2872844 4.03957798,5.89958716 Z M3.00274312,5.9273945 C2.88245872,6.14311009 2.46554128,6.55752294 1.46344954,6.04093578 C1.44437615,6.13122936 1.42633028,6.21150459 1.39043119,6.3009633 C1.39043119,6.3009633 1.79180734,6.8027156 2.19318349,6.66220183 C2.19324771,6.66220183 3.06959633,6.77612844 3.00274312,5.9273945 Z M3.05617431,3.7723578 C3.05617431,3.7723578 3.11955963,4.64202752 3.79033945,4.39779817 C4.06455963,4.29793578 4.1427156,3.9906422 4.09821101,3.66215596 C3.93085321,3.8353578 3.41407339,4.27488073 3.21165138,3.34400917 L2.2880367,4.41340367 L1.55888073,4.83468807 L2.46624771,4.60786239 L2.99593578,5.29758716 L2.59455963,4.37448624 L3.05617431,3.7723578 Z M2.42456881,3.02977982 C2.57400917,2.82421101 2.8553578,2.52950459 3.35717431,2.26722936 C3.35717431,2.26722936 3.69831193,2.06654128 3.49768807,1.56478899 C3.49422018,1.55611927 3.49017431,1.54783486 3.48574312,1.53980734 C3.43809174,1.69155963 3.34516514,1.87246789 3.1630367,1.99911009 C2.79036697,2.25836697 1.4617156,3.18185321 1.883,4.57530275 C1.88306422,4.57543119 1.71255963,3.71321101 2.42456881,3.02977982 Z M1.07042202,3.85301835 C0.999908257,3.77659633 0.759788991,3.47957798 0.828504587,3.04988073 C0.860229358,2.85169725 0.713229358,2.75421101 0.536366972,2.77501835 C0.504899083,3.31453211 0.579266055,4.40788073 1.63992661,4.72127523 C1.63999083,4.72121101 1.23822936,4.5302844 1.07042202,3.85301835 Z"/>
        <path fill="#050505" d="M1.39049541,6.3009633 L2.19324771,6.66220183 C2.19324771,6.66220183 1.47077064,10.6358257 5.24370642,10.7963761 C5.24370642,10.7963761 5.27029358,13.3521468 2.94231193,13.3121376 C2.94231193,13.3121376 -0.134477064,10.8681101 1.39049541,6.3009633 Z"/>
        <path fill="#DD002A" fill-rule="nonzero" d="M2.35212844,8.82385321 C2.33986239,8.78750459 2.32830275,8.7509633 2.31725688,8.71448624 L2.31661468,8.71236697 C2.13827523,8.80477982 1.65855046,9.01227523 0.970623853,9.00546789 C0.973770642,9.09415596 0.978972477,9.18117431 0.985522936,9.26722936 C1.33102752,9.26825688 1.90091743,9.22156881 2.39817431,8.95338532 L2.39714679,8.95062385 C2.38282569,8.91311927 2.36946789,8.87548624 2.35668807,8.83772477 L2.35212844,8.82385321 Z M2.60650459,9.39316514 C2.58755963,9.36015596 2.5693211,9.32695413 2.55172477,9.29343119 L2.55146789,9.29304587 C2.3459633,9.39040367 1.77337615,9.62333028 1.02251376,9.62390826 C1.03561468,9.72261468 1.0509633,9.81945872 1.06823853,9.91437615 C1.4766789,9.91476147 2.08079817,9.84225688 2.67123853,9.50034862 L2.66956881,9.49758716 C2.64888991,9.46509174 2.62911009,9.43221101 2.60997248,9.39913761 L2.60650459,9.39316514 Z M1.39049541,6.3009633 C1.17253211,6.89808257 1.08069725,7.44594495 1.00844954,7.95977064 C1.39011009,8.03336697 1.77536697,8.04030275 2.15227523,7.7967156 C2.10423853,7.15322936 2.19331193,6.66220183 2.19331193,6.66220183 L1.39049541,6.3009633 Z"/>
        <path fill="#050505" d="M9.99311009,10.6954862 L5.46597248,10.6954862 C0.647146789,12.8116055 1.76900917,20.7921193 1.76900917,20.7921193 L7.76068807,20.7921193 L7.76068807,17.1427431 L8.09212844,20.7921193 L13.6900734,20.7921193 C13.6900092,20.7921193 14.8119358,12.8116697 9.99311009,10.6954862 Z"/>
        <path fill="#930023" d="M14.0534954,18.123 C13.9857431,16.4086422 13.6414587,14.2021651 12.4863945,12.5507431 C11.1028991,11.0731651 9.55249541,10.8229633 9.55249541,10.8229633 C12.9180183,13.5766606 12.8415321,18.4336972 12.8415321,18.4336972 C13.2914587,18.4141101 13.7310459,18.2644771 14.0534954,18.123 Z"/>
        <path fill="#DD002A" fill-rule="nonzero" d="M1.96391743,15.6679266 C1.94831193,15.7413303 1.93334862,15.8147982 1.91922018,15.8880734 C3.25088991,15.3976239 5.35788991,15.0808257 7.7296055,15.0808257 C10.1013853,15.0808257 12.2082569,15.3976881 13.5399908,15.8880734 C13.5257982,15.8147982 13.5108991,15.7413303 13.4952294,15.6679266 C12.1613761,15.1866606 10.0749908,14.8768624 7.72966972,14.8768624 C5.38434862,14.8768624 3.29777064,15.1866606 1.96391743,15.6679266 Z M2.22773394,14.6601193 C2.20692661,14.7260734 2.18676147,14.7923486 2.16736697,14.8584312 C3.50481651,14.4175596 5.50013761,14.1375596 7.72954128,14.1375596 C9.95894495,14.1375596 11.9542018,14.4174954 13.2916514,14.8584312 C13.2723211,14.7923486 13.252156,14.7260734 13.2313486,14.6601193 C11.8945413,14.2305505 9.9253578,13.9589633 7.72954128,13.9589633 C5.53359633,13.9589633 3.56454128,14.2304862 2.22773394,14.6601193 Z M4.10077982,11.5715138 C3.06888991,12.9017064 3.18011927,14.5198624 3.18011927,14.5198624 L3.46063303,14.3924495 C3.3723945,12.9808899 4.0167156,11.8626239 4.42200917,11.3075046 C4.3107156,11.3918899 4.20366055,11.4799358 4.10077982,11.5715138 Z M11.0370734,11.3075046 C11.442367,11.8626881 12.0866881,12.9808899 11.9985138,14.3924495 L12.2788991,14.5198624 C12.2788991,14.5198624 12.3901927,12.9017064 11.3583028,11.5716422 C11.2554862,11.4799358 11.1484312,11.3918899 11.0370734,11.3075046 Z"/>
        <path fill="#F4CF8C" fill-rule="nonzero" d="M10.2332936,10.5292202 C10.2332936,10.5292202 9.27101835,11.4059541 7.68863303,11.4059541 C5.80685321,11.4059541 5.22572477,10.5292202 5.22572477,10.5292202 L4.89261468,4.39779817 L10.5664679,4.39779817 L10.2332936,10.5292202 Z M10.2332936,10.5292202 C10.2332936,10.5292202 9.27101835,11.4059541 7.68863303,11.4059541 C5.80685321,11.4059541 5.22572477,10.5292202 5.22572477,10.5292202 L4.89261468,4.39779817 L10.5664679,4.39779817 L10.2332936,10.5292202 Z M10.2332936,10.5292202 C10.2332936,10.5292202 9.27101835,11.4059541 7.68863303,11.4059541 C5.80685321,11.4059541 5.22572477,10.5292202 5.22572477,10.5292202 L4.89261468,4.39779817 L10.5664679,4.39779817 L10.2332936,10.5292202 Z"/>
        <path fill="#B27D30" d="M8.44989908,5.44311009 L8.59009174,5.26477064 C8.59009174,5.26477064 9.1,5.23921101 9.88406422,5.65985321 C9.88406422,5.65985321 9.3166789,4.95869725 8.46248624,5.19451376 L8.48804587,5.04154128 L8.24587156,5.43675229 C8.24587156,5.43675229 8.33507339,5.96573394 8.23951376,6.34822936 L7.21956881,6.34822936 C7.12388073,5.96573394 7.21314679,5.43675229 7.21314679,5.43675229 L6.97097248,5.04154128 L6.99640367,5.19451376 C6.14233945,4.95869725 5.57501835,5.65985321 5.57501835,5.65985321 C6.35901835,5.23914679 6.86892661,5.26477064 6.86892661,5.26477064 L7.00918349,5.44311009 C6.73502752,5.99129358 6.0912844,6.03586239 6.0912844,6.03586239 C6.76694495,6.10605505 7.0156055,5.68534862 7.0156055,5.68534862 C6.97733028,6.01678899 7.04745872,6.45316514 7.04745872,6.45316514 L7.72626606,6.93147706 L7.72947706,6.92826606 L7.73268807,6.93147706 L8.41149541,6.45316514 C8.41149541,6.45316514 8.48162385,6.01678899 8.44334862,5.68534862 C8.44334862,5.68534862 8.69194495,6.10605505 9.36766972,6.03586239 C9.36773394,6.03592661 8.72386239,5.99129358 8.44989908,5.44311009 Z"/>
        <ellipse cx="7.73" cy="7.429" fill="#050505" rx="1" ry="1"/>
        <path fill="#DD002A" d="M7.72954128,8.01442202 C7.94011927,8.01442202 8.1343211,7.94455046 8.29024771,7.87384404 C8.18100917,7.7556789 7.97081651,7.67553211 7.72954128,7.67553211 C7.48813761,7.67553211 7.27807339,7.7556789 7.16883486,7.87384404 C7.32469725,7.94455046 7.5189633,8.01442202 7.72954128,8.01442202 Z"/>
        <path fill="#FFF" d="M7.72954128,6.87098165 C7.21558716,6.87098165 6.79892661,7.12073394 6.79892661,7.42873394 C6.79892661,7.44485321 6.80027523,7.4607156 6.80258716,7.47657798 L8.65655963,7.47657798 C8.65880734,7.4607156 8.66022018,7.44485321 8.66022018,7.42873394 C8.66015596,7.12066972 8.24349541,6.87098165 7.72954128,6.87098165 Z"/>
        <path fill="#C98C28" fill-rule="nonzero" d="M7.72954128,8.3497156 C7.54073394,8.3497156 7.36502752,8.316 7.21834862,8.25800917 C7.33587156,8.41040367 7.52088991,8.50911009 7.72954128,8.50911009 C7.93819266,8.50911009 8.12314679,8.41040367 8.24073394,8.25800917 C8.09411927,8.316 7.91834862,8.3497156 7.72954128,8.3497156 Z M7.72954128,10.0087798 C7.40689908,10.0087798 7.10686239,9.95098165 6.85621101,9.85188991 C7.05722018,10.1123028 7.37311927,10.2807523 7.72954128,10.2807523 C8.0859633,10.2807523 8.40179817,10.1123028 8.60280734,9.85188991 C8.35209174,9.95098165 8.05205505,10.0087798 7.72954128,10.0087798 Z"/>
        <polygon fill="#CEA063" points="4.947 5.405 10.512 5.405 10.566 4.398 4.893 4.398"/>
        <path fill="#050505" d="M10.5788624,4.39779817 L11.0766972,1.52015596 C11.0766972,1.52015596 10.3260275,0.0467522936 7.74604587,0.0467522936 C4.60991743,0.0467522936 4.38238532,1.52015596 4.38238532,1.52015596 L4.88015596,4.39779817 L10.5788624,4.39779817 Z"/>
        <polygon fill="#DD002A" points="4.667 3.164 4.88 4.398 10.579 4.398 10.792 3.164"/>
        <polygon fill="#050505" points="11.439 5.086 4.02 5.086 3.79 4.398 11.669 4.398"/>
        <circle cx="7.73" cy="3.558" r="1" fill="#050505"/>
        <path fill="#DD002A" fill-rule="nonzero" d="M7.72954128,4.36337615 C7.28545872,4.36337615 6.92422018,4.00220183 6.92422018,3.55844037 C6.92422018,3.11429358 7.28545872,2.75305505 7.72954128,2.75305505 C8.17362385,2.75305505 8.53486239,3.11429358 8.53486239,3.55844037 C8.53486239,4.00220183 8.17362385,4.36337615 7.72954128,4.36337615 Z M7.72954128,2.85824771 C7.34351376,2.85824771 7.02947706,3.17234862 7.02947706,3.55837615 C7.02947706,3.94421101 7.34357798,4.25805505 7.72954128,4.25805505 C8.11550459,4.25805505 8.4296055,3.94421101 8.4296055,3.55837615 C8.4296055,3.17234862 8.11556881,2.85824771 7.72954128,2.85824771 Z M7.72954128,4.13944037 C7.40901835,4.13944037 7.14815596,3.87877064 7.14815596,3.55831193 C7.14815596,3.23778899 7.40901835,2.97692661 7.72954128,2.97692661 C8.05006422,2.97692661 8.31092661,3.23778899 8.31092661,3.55831193 C8.31092661,3.87877064 8.05006422,4.13944037 7.72954128,4.13944037 Z M7.72954128,3.0529633 C7.45088991,3.0529633 7.22412844,3.27966055 7.22412844,3.55831193 C7.22412844,3.83683486 7.45088991,4.06340367 7.72954128,4.06340367 C8.00819266,4.06340367 8.23488991,3.83683486 8.23488991,3.55831193 C8.23488991,3.27966055 8.00819266,3.0529633 7.72954128,3.0529633 Z M7.875,3.35434862 L8.13945872,3.16342202 L7.93883486,3.42055963 L8.25434862,3.3380367 L7.9742844,3.50533028 L8.29833945,3.54244954 L7.97678899,3.59742202 L8.26565138,3.74898165 L7.9459633,3.68399083 L8.16045872,3.92969725 L7.88598165,3.7536055 L7.99721101,4.06019266 L7.80474312,3.79688991 L7.7976789,4.12293578 L7.71342202,3.80774312 L7.58909174,4.10944954 L7.62434862,3.78507339 L7.39944954,4.02133945 L7.54933945,3.73177064 L7.25424771,3.87087156 L7.49892661,3.65489908 L7.17358716,3.67801835 L7.47946789,3.56505505 L7.16780734,3.46898165 L7.49391743,3.47411927 L7.23793578,3.27201835 L7.54022018,3.39474312 L7.37446789,3.11377982 L7.61208257,3.33726606 L7.55897248,3.01545872 L7.69974312,3.3097156 L7.76659633,2.99041284 L7.79157798,3.31555963 L7.96914679,3.04211009 L7.875,3.35434862 Z"/>
        <path fill="#050505" d="M7.90325688,3.55831193 C7.90325688,3.654 7.82542202,3.73189908 7.72947706,3.73189908 C7.63366055,3.73189908 7.55582569,3.654 7.55582569,3.55831193 C7.55582569,3.46223853 7.63366055,3.38453211 7.72947706,3.38453211 C7.82542202,3.38453211 7.90325688,3.46223853 7.90325688,3.55831193 Z"/>
        <path fill="#DD002A" d="M7.68863303,11.4059541 C5.80775229,11.4059541 5.22630275,10.530055 5.22572477,10.5292202 L5.29334862,11.7738716 C5.29334862,11.7738716 5.85874312,12.6269083 7.68972477,12.6269083 C9.22927523,12.6269083 10.1655413,11.7738716 10.1655413,11.7738716 L10.2332294,10.5292202 C10.2322018,10.5301835 9.27011927,11.4059541 7.68863303,11.4059541 Z"/>
        <path fill="#050505" d="M7.73368502,12.6108532 C7.78220693,12.4490183 7.81156473,12.2406881 7.81156473,12.0132844 C7.81156473,11.7858807 7.78220693,11.5775505 7.73368502,11.4157156 C7.68529901,11.5775505 7.65600917,11.7858807 7.65600917,12.0132844 C7.65600917,12.2406881 7.68529901,12.4490183 7.73368502,12.6108532 Z"/>
        <circle cx="8.175" cy="12.052" r="1" fill="#930023"/>
        <circle cx="8.137" cy="12.013" r="1" fill="#FFF"/>
        <path fill="#FFB000" fill-rule="nonzero" d="M8.33854128,13.7272569 L7.12047706,13.7272569 C6.92717431,13.7272569 6.7699633,13.8845321 6.7699633,14.0778349 L6.7699633,14.944422 C6.7699633,15.1377248 6.92717431,15.295 7.12047706,15.295 L8.33854128,15.295 C8.53184404,15.295 8.68899083,15.1377248 8.68899083,14.944422 L8.68899083,14.0778349 C8.68899083,13.8845963 8.53184404,13.7272569 8.33854128,13.7272569 Z M8.24368807,14.2137248 L8.24368807,14.8086606 C8.24368807,14.8441743 8.21478899,14.8730092 8.17946789,14.8730092 L7.2796789,14.8730092 C7.24416514,14.8730092 7.2153945,14.8441743 7.2153945,14.8086606 L7.2153945,14.2137248 C7.2153945,14.178211 7.24416514,14.1493761 7.2796789,14.1493761 L8.17946789,14.1493761 C8.21478899,14.1493761 8.24368807,14.178211 8.24368807,14.2137248 Z"/>
        <polygon fill="#C98C28" points="7.053 6.457 7.726 6.932 7.73 6.928 7.733 6.932 8.406 6.457"/>
        <path fill="#4F1907" fill-rule="nonzero" d="M7.72947706,6.82634862 C7.72947706,6.82634862 7.16215596,6.15068807 5.82997248,6.48219266 C4.49778899,6.81356881 3.81583486,8.46447706 3.81583486,8.46447706 C3.81583486,8.46447706 4.54242202,9.00636697 5.677,8.85968807 C6.81157798,8.71320183 7.73583486,7.50200917 7.72947706,6.82634862 Z M7.72954128,6.82634862 C7.72954128,6.82634862 8.29679817,6.15068807 9.62898165,6.48219266 C10.9611651,6.81356881 11.6432477,8.46447706 11.6432477,8.46447706 C11.6432477,8.46447706 10.9166606,9.00636697 9.78201835,8.85968807 C8.64737615,8.71320183 7.72318349,7.50200917 7.72954128,6.82634862 Z"/>
        <polygon fill="#DD002A" points="10.49 12.62 10.608 12.62 10.401 12.877 10.192 12.62 10.311 12.62 10.311 12.505 9.865 12.505 9.865 12.62 10.042 12.62 10.339 12.986 10.339 13.215 10.167 13.215 10.167 13.331 10.636 13.331 10.636 13.215 10.462 13.215 10.462 12.986 10.76 12.62 10.936 12.62 10.936 12.505 10.49 12.505"/>
      </g>
    </g>
  </g>
</svg>
