<svg width="40" height="40" viewBox="0 0 40 40" xmlns="http://www.w3.org/2000/svg">
  <g transform="matrix(2.54 0 0 2.54 2.03 2.42)">
    <path d="m2.74 5.78c0.0188 0.0142 0.0514 0.0234 0.0188 0.0514-0.0234 0.0326-0.0514 0.0606-0.07 0.098-0.0186 0.0328-0.0326 0.042-0.0606 0.0188 0.0372-0.0608 0.0744-0.117 0.112-0.168zm9.37 4.89c0 0.0138 0.0046 0.023 0.0046 0.0372 0.0094-0.0186 0.0094-0.028 0.0142-0.0372zm-0.951 1.86-0.812-4.5c-0.0138-0.00443-0.0324-0.0136-0.0652-0.023 0.0094 0.0186 0.0142 0.0326 0.0188 0.0466 0.023-0.00461 0.0326-0.00461 0.0418-0.00922 0-0.00461 0-0.00922 0.0048-0.0142l0.812 4.5zm-0.839-5.51c-0.0046 0.0138-0.0046 0.028-0.0046 0.042 0-0.0142 0-0.0284 5e-3 -0.0422zm-0.00461 0.13v-0.0328c-0.0136 0.00461-0.0276 0.00461-0.0464 0.00939 0.0234 0.00886 0.0468 0.0138 0.0468 0.023z" fill="#DB5C5C"/>
    <path d="m13.9 6.02c-0.00922-0.182-0.0138-0.364-0.0326-0.546-0.0326-0.248-0.0652-0.5-0.121-0.743-0.042-0.201-0.112-0.392-0.182-0.584-0.0886-0.224-0.177-0.453-0.289-0.668-0.182-0.346-0.42-0.654-0.639-0.976-0.145-0.206-0.331-0.374-0.471-0.584-0.0792-0.121-0.196-0.224-0.312-0.317-0.187-0.15-0.382-0.285-0.578-0.416-0.149-0.103-0.298-0.201-0.457-0.29-0.126-0.0704-0.261-0.126-0.392-0.187-0.149-0.07-0.294-0.154-0.462-0.187-0.0422-0.00886-0.0794-0.023-0.121-0.0372-0.107-0.0372-0.21-0.0792-0.317-0.112-0.163-0.0514-0.322-0.112-0.49-0.154-0.163-0.042-0.331-0.0698-0.499-0.0934-0.186-0.0275-0.377-0.0372-0.564-0.0555-0.121-0.0142-0.242-0.028-0.359-0.0326-0.177-0.00922-0.359-0.00922-0.536-0.0138-0.0886-0.00478-0.182-0.0142-0.27-0.00939-0.135 0.00461-0.27 0.0186-0.406 0.0372-0.13 0.0142-0.261 0.0372-0.387 0.0562-0.154 0.0186-0.307 0.028-0.461 0.0468-0.145 0.0188-0.294 0.0468-0.438 0.0702-0.0514 0.00939-0.103 0.028-0.154 0.0372-0.112 0.0234-0.228 0.0328-0.34 0.0702-0.2 0.061-0.401 0.131-0.597 0.206-0.182 0.0748-0.359 0.154-0.532 0.248-0.177 0.0978-0.345 0.214-0.513 0.327-0.159 0.107-0.317 0.219-0.471 0.341-0.149 0.117-0.289 0.248-0.424 0.378-0.0744 0.0744-0.135 0.163-0.205 0.247-0.116 0.136-0.233 0.266-0.345 0.406-0.0929 0.117-0.177 0.238-0.266 0.36-0.158 0.214-0.293 0.443-0.419 0.672-0.0514 0.0934-0.098 0.187-0.145 0.28-0.07 0.14-0.145 0.276-0.21 0.42-0.0468 0.0982-0.084 0.206-0.112 0.313-0.065 0.229-0.13 0.463-0.191 0.691-0.056 0.206-0.07 0.42-0.0744 0.631-0.00478 0.187 0.0138 0.369 0.0324 0.556 0.00478 0.0468-0.023 0.103 0.0326 0.14-0.0186 0.0514-0.00461 0.0797 0.023 0.0886-0.0323 0.0514 0.0142 0.0844-0.00425 0.131-0.00478 0.00922 0.0142 0.0278 0.023 0.0418 0 0.0142-0.00443 0.0328 0 0.0468 0.00496 0.042 0.0236 0.084 0.0236 0.131 0 0.0326 0.0278 0.07 0.0372 0.103 0.00461 0.0138 0 0.0372-0.00939 0.0466-0.028 0.0326-0.0234 0.0606 0.0186 0.0794 0.0236 0.0606 0.0142 0.0886 0.00957 0.117 0.00922 0.0418-0.00478 0.0558 0 0.0652 0.0372 0.0748 0.0514 0.159 0.0558 0.243 0 0.0188 0.00939 0.0376 0.0188 0.0608 0.00461 0 0 0.0886 0 0.0886 0.023-0.0138 0.042-0.0184 0.0652-0.0278 0.0142 0.0606 0.028 0.117 0.0466 0.168 0.0234 0.0372 0.0234 0.0556 0.0142 0.0603 0.0186 0.084 0.0278 0.163 0.0603 0.243 0-0.0886-0.00886-0.177-0.023-0.261 0.0652 0.0234 0.121 0.0466 0.159 0.0466 0.00478-0.0142 0.00939-0.0326 0.0142-0.042-0.028-0.0278-0.0514-0.0698-0.0794-0.0978 0.00939 0.0372 0 0.0514 0 0.0656-0.0186-0.00957-0.042-0.019-0.0652-0.0284 0.0186-0.023 0.0372-0.0466 0.0652-0.0744 0-0.0422-0.023-0.0797-0.0886-0.075 0.028-0.00922 0.056-0.023 0.0886-0.0326 0.0514-0.0278-0.00461-0.0792-0.00461-0.145 0.00461-0.0792-0.042-0.159-0.056-0.243-0.0234-0.131-0.0186-0.327-0.0326-0.458-0.028-0.0234-0.0514 0.0372-0.056 0.042 0.0142 0.112 0.028 0.224 0.0372 0.336-0.0278-0.0934-0.0466-0.196-0.0698-0.308-0.00478 0.0328-0.00939 0.0468-0.00939 0.0656-0.023 0.023-0.00461 0.0514 0.00939 0.084-0.0326-0.0142-0.07-0.00922-0.07-0.00922v0.131c-0.0464-0.0468-0.0603-0.084-0.0838-0.117-0.00922-0.0372-0.0142-0.0744-0.023-0.112 0.00886-0.0236 0-0.0376 0-0.0514-0.00496-0.033-0.00957-0.0702-0.0142-0.112 0.00461-0.00461-0.00461-0.0744-0.00461-0.0744 0.0372 0.00443 0.0608 0.00886 0.084 0.00886-0.0466-0.0603-0.0142-0.0978 0.00478-0.135 0.00939-0.0188 0.042-0.023 0.0514-0.0422 0.0372-0.07 0.098-0.126 0.098-0.215 0-0.042 0.0142-0.0886 0.0186-0.131 0.00939-0.0794 0.0186-0.159 0.023-0.238 0.00957-0.103 0-0.206 0.0236-0.304 0.0376-0.163 0.0842-0.327 0.135-0.49 0.0372-0.117 0.0794-0.229 0.126-0.346 0.07-0.182 0.135-0.364 0.224-0.537 0.126-0.252 0.27-0.495 0.41-0.743 0.0886-0.154 0.182-0.299 0.28-0.448 0.093-0.145 0.186-0.294 0.294-0.43 0.149-0.191 0.313-0.369 0.494-0.528 0.187-0.168 0.364-0.341 0.564-0.495 0.261-0.201 0.536-0.379 0.83-0.533 0.238-0.126 0.485-0.224 0.732-0.318 0.159-0.0606 0.331-0.0886 0.494-0.14 0.186-0.0608 0.373-0.0886 0.569-0.0934 0.126-0.00478 0.247-0.0188 0.373-0.0328 0.112-0.00886 0.224-0.0184 0.345-0.0324-0.0142 0.0186-0.0188 0.028-0.0234 0.0372-0.051 0.0748-0.107 0.15-0.158 0.224-0.042 0.0608-0.0886 0.126-0.131 0.187-0.0748 0.0984-0.154 0.196-0.224 0.299-0.107 0.154-0.205 0.313-0.317 0.467-0.112 0.149-0.233 0.29-0.35 0.434-0.154 0.201-0.298 0.406-0.452 0.607-0.14 0.191-0.289 0.374-0.424 0.565-0.121 0.168-0.229 0.346-0.345 0.518-0.172 0.257-0.345 0.509-0.517 0.766-0.135 0.196-0.271 0.388-0.41 0.584-0.00939 0.0142-0.0234 0.0184-0.0372 0.0278-0.0372 0.0606-0.0372 0.0934-0.0514 0.121-0.0372 0.07-0.0744 0.14-0.117 0.206-0.0234 0.0372-0.056 0.0698-0.084 0.107-0.00461-0.056 0.0744-0.084 0.0372-0.154-0.023 0.0376-0.0466 0.0702-0.0698 0.108l-0.056 0.112c0.0186 0.0142 0.0514 0.0236 0.0186 0.0514-0.0142 0.0236-0.028 0.0514-0.042 0.075 0.0234-0.0142 0.0372-0.028 0.0514-0.0468 0 0.0514-0.028 0.0932-0.0514 0.135-0.0186 0.0372-0.0652 0.0656-0.0978 0.0934 0.00461 0.00478 0.0372 0.0188 0.042 0.0234 0.042-0.0142 0.056-0.0372 0.0608-0.0234 0.0142-0.0186 0.028-0.0326 0.0326-0.0466 0.0184-0.0468 0.0464-0.084 0.093-0.103 0.0188-0.00939 0.0326-0.0234 0.0466-0.0372 0.14-0.145 0.285-0.285 0.41-0.439 0.196-0.238 0.373-0.486 0.56-0.728 0.079-0.103 0.172-0.206 0.256-0.304 0.0138 0.107 0.00461 0.21 0 0.308-0.0142 0.173-0.0234 0.346-0.0372 0.523-0.00478 0.07 0 0.14-0.00478 0.21 0 0.0186-0.0142 0.0326-0.0142 0.0514 0 0.0466 0.0142 0.098 0.0142 0.145-0.0142 0.173-0.033 0.341-0.047 0.514-0.00478 0.0372 0.0138 0.0748 0.023 0.108-0.023 0.252 0.0284 0.518-0.0138 0.785 0.0326-0.0514 0.042-0.084 0.042-0.117 0.00443-0.028 0-0.056 0-0.0886v-0.0468c0.00443-0.0842 0.023-0.173 0.0138-0.257-0.00939-0.0934-0.00939-0.182 0.00939-0.271 0.00939-0.0372-0.00461-0.084 0.0188-0.131v0.07c-0.00461 0.266 0.00478 0.532-0.0324 0.798-0.00478 0.0234 0.0142 0.0656-0.0372 0.0608-0.0422 0.084 0.00922 0.145-0.0372 0.191-0.00957 0.00939 0.00886 0.0514 0.0136 0.0794-0.0188 0.0562-0.0188 0.0562 0.00922 0.0608 0.00461 0.103 0.0142 0.196 0.0186 0.294 0.0744-0.177 0.0372-0.36 0.0702-0.542 0.00461 0.0748 0.00939 0.15 0.00461 0.229 0 0.122-0.00461 0.238-0.00922 0.36 0 0.0234-0.00478 0.0468-0.00939 0.0702-0.0142 0.0656-0.0186 0.131-0.042 0.191-0.0186 0.0468-0.00922 0.117-0.00922 0.173v0.178c0.0186 0.0794-0.00478 0.121 0.00922 0.168-0.0142 0.047-0.0186 0.061-0.0142 0.075l0.0142 0.07c0.0934-0.00939 0.0514 0.0608 0.0886 0.098-0.028 0.0376-0.0186 0.0514-0.0186 0.0704 0 0.042-0.00443 0.0794-0.00922 0.121 0 0.107-0.00461 0.215-0.00461 0.318 0 0.0142 0.00461 0.0278 0.00461 0.0418 0 0.00957-0.00461 0.131-0.00461 0.131 0.00939 0.0138 0 0.0278-0.0142 0.0418-0.00443 0-0.0184-0.593-0.0184-0.593h-0.07c-0.00922 0.28 0.0142 0.532-0.0372 0.794-0.056 0.00443-0.0744 0.0138-0.135 0.0138-0.145 0-0.289 0-0.434 0.00461-0.173 0-0.34 0.00461-0.513 0.00461-0.0836 0-0.172 0.00957-0.256 0.00957-0.112 0-0.229-0.0142-0.34-0.0142-0.173 0-0.341 0.0142-0.513 0.0188-0.126 0.00461-0.252 0.00461-0.377 0.00939-0.0842 0.00443-0.168 0.00886-0.252 0.0184-0.0372 0.00461-0.07 0.0186-0.117 0.0326-0.0142 0-0.0466-0.00461-0.0744 0-0.047 0.00939-0.0886 0.0372-0.136 0.0468-0.07 0.0142-0.0886 0.0326-0.0794 0.103v0.0466c-0.00461 0.00922 0.103-0.0142 0.103-0.0142-0.00957 0-0.0142 0.028-0.0284 0.0514 0.0376-0.0142 0.0608-0.0234 0.0842-0.0326 0.07 0.0328 0.131 0.0142 0.186 0.0284 0.182 0.0464 0.368 0.0656 0.555 0.0838 0.121 0.0094 0.238 0.0142 0.359 0.0186 0.172 0.0094 0.345 0.0188 0.517 0.0188 0.145 0 0.285-0.0142 0.429-0.0142 0.2 0 0.401 0.0092 0.602 0.0142 0.042 0 0.0886-5e-3 0.135-5e-3h0.34c0.303-0.0092 0.606-0.0142 0.91-0.023 0.173-5e-3 0.35-0.0142 0.522-0.019l0.532-0.0142c0.205-0.0046 0.41-0.0046 0.611-0.0089 0.154 0 0.303-0.0053 0.457-0.0097 0.172-0.0046 0.349-0.0186 0.522-0.0278 0.0934-0.0048 0.187-0.0142 0.28-0.0234 0.112-0.00922 0.229-0.023 0.34-0.0278 0.168-0.00957 0.341-0.0142 0.509-0.0236 0.21-0.0138 0.42-0.0324 0.634-0.0372 0.196-0.00922 0.396-0.00461 0.592-0.00922 0.173-0.00478 0.345-0.0142 0.522-0.0188l0.294-0.0142s0.196-0.00461 0.294-0.0142c0.168-0.00922 0.336-0.0278 0.504-0.0324 0.107-0.00478 0.214 0 0.322-0.00478 0.172-0.00461 0.35-0.0142 0.522-0.0142 0.065 0 0.135 0.00957 0.219 0.0142-0.0372 0.0328-0.0606 0.0514-0.0886 0.0748 0.0186 0.00461 0.0372 0.0142 0.056 0.0234-0.028 0.0186-0.0514 0.023-0.0744 0.023-0.0096 0.0236-0.019 0.033-0.0284 0.0797h0.084c-0.0326 0-0.0606 0.042-0.0932 0.07-0.0372-0.0096-0.07 0-0.0886 0.0514 0.0326 0.0184 0.028 0.0324 0.0234 0.0514-0.056 0.0184-0.098 0.0372-0.0744 0.0978-0.019 0.0092-0.0422 0.0186-0.0656 0.0326-0.023 0.0372-0.0652 0.0466-0.056 0.098 0.0188 0.0044 0.0372 0.0142 0.0514 0.0184-0.0234 0.0094-0.0466 0.0234-0.07 0.0326-0.0838 0.0514-0.0464 0.0748-0.0278 0.0982-0.0142 0.0094-0.028 0.0186-0.042 0.0234 0.0092 0.042 0.023 0.0514 0.0278 0.0514-0.0186 0.0138-0.042 0.0326-0.07 0.056-0.0142 0.042-0.0328 0.0606-0.0514 0.0886-0.0186 0.028-0.028 0.0656-0.0514 0.0934-0.0978 0.108-0.168 0.234-0.294 0.318-0.0468 0.0328-0.0886 0.0748-0.131 0.117-0.084 0.0792-0.159 0.168-0.247 0.243-0.116 0.098-0.237 0.187-0.364 0.275-0.154 0.107-0.307 0.215-0.461 0.318-0.084 0.0558-0.177 0.0978-0.266 0.149-0.0886 0.0514-0.173 0.0982-0.261 0.149-0.056 0.0372-0.107 0.0886-0.168 0.117-0.154 0.0656-0.317 0.121-0.476 0.182-0.154 0.0656-0.266 0.121-0.382 0.163-0.107 0.0372-0.219 0.0656-0.331 0.0886-0.0372 0.0096-0.0794 0-0.121 0.0048-0.0794 0.0142-0.159 0.033-0.238 0.0422-0.205 0.028-0.41 0.0468-0.615 0.0748-0.121 0.0142-0.238 0.0372-0.359 0.0514-0.0838 0.0046-0.172-0.0046-0.256-0.0046-0.0606 0-0.126 0.0142-0.187 0.0048-0.0978-0.0142-0.196-0.0372-0.294-0.056-0.023-0.0046-0.056-0.0142-0.0744-0.0046-0.0372 0.0188-0.0702-0.0092-0.108 0-0.023 0.0048-0.0464-0.0142-0.0698-0.0142-0.0188-0.0044-0.0422 5e-3 -0.0656 0-0.0514-0.0138-0.0978-0.0324-0.154-0.0278-0.0555 0.0046-0.112-0.0234-0.172-0.0372-0.0842-0.0188-0.163-0.0372-0.247-0.0562-0.0324-0.0094-0.0603-0.0234-0.093-0.042-0.121 0-0.201-0.0046-0.275-0.0328-0.0652-0.023-0.126-0.0558-0.196-0.0464-0.0184 0.0046-0.0324-0.0046-0.0514-0.0046-0.0142-0.0188-0.0278-0.0562-0.0416-0.0562-0.0932 0.0048-0.149-0.0744-0.229-0.098-0.0418-0.0142-0.0744-0.0608-0.116-0.0748-0.103-0.042-0.186-0.131-0.303-0.145-0.0372-0.0048-0.0744-0.0234-0.117-0.0372 0.0142 0.0184 0.023 0.0324 0.0372 0.0464-0.135-0.0656-0.261-0.14-0.387-0.21-0.0184-0.0046-0.0324-0.023-0.0464-0.0326l-0.126-0.084c-0.07 0.0142-0.098-0.0142-0.117-0.0234-0.126-0.0886-0.27-0.145-0.392-0.243-0.0514-0.0422-0.112-0.0702-0.149-0.122-0.0656-0.0794-0.145-0.135-0.233-0.182-0.0698-0.0372-0.135-0.0794-0.2-0.121-0.0328-0.0234-0.0656-0.0514-0.0656-0.103 0-0.0328-0.0138-0.0656-0.0558-0.0468-0.0186-0.028-0.0372-0.0606-0.0606-0.07-0.056-0.023-0.0932-0.0656-0.135-0.103-0.042-0.0372-0.0744-0.0886-0.126-0.107-0.0934-0.0372-0.149-0.117-0.205-0.182-0.131-0.154-0.247-0.323-0.369-0.486-0.00939-0.0142-0.028-0.0236-0.042-0.0376 0.0186 0.0514 0.042 0.0934 0.0652 0.14-0.0464-0.0186-0.079-0.0514-0.107-0.084-0.00478 0.0048 0.322 0.542 0.322 0.542 0.0284 0.042 0.0514 0.0842 0.0794 0.126-0.07 0.0046-0.117-0.0328-0.14-0.0748-0.0418-0.0744-0.0886-0.121-0.182-0.112-0.00922-0.033-0.0186-0.0704-0.023-0.103-0.019 0-0.0328 0-0.0656-0.0048 0.0656 0.103 0.121 0.191 0.182 0.294-0.0236-0.0142-0.0372-0.0234-0.047-0.028 0.0838 0.0886 0.144 0.201 0.252 0.257 0.0234 0.107 0.145 0.159 0.173 0.261-0.023-0.0048-0.0422-0.0094-0.0656-0.0142-0.0372-0.0466-0.0792-0.0932-0.121-0.145 0.00922 0.0326 0.023 0.0606 0.0418 0.084 0.056 0.07 0.107 0.14 0.173 0.201 0.0234 0.0238 0.056 0.0331 0.056 0.0751 0.0372 0.0186 0.0514 0.023 0.0652 0.023 0.00957 0.0284-0.00443 0.0704 0.0514 0.061 0.0372 0.07 0.0744 0.07 0.126 0.0468 0.0608 0.0608 0.0936 0.0656 0.135 0.0284 0 0.023 0.00461 0.0464 0.00461 0.0652 0.0186-0.0094 0.0142-0.0234 0.0142-0.0468 0.023 0.0186 0.0372 0.028 0.0464 0.0372 0.0466 0.0656 0.0886 0.126 0.154 0.178 0.0886 0.0748 0.168 0.154 0.252 0.224 0.163 0.136 0.346 0.248 0.527 0.35 0.224 0.126 0.439 0.262 0.667 0.383 0.275 0.145 0.569 0.243 0.872 0.313 0.112 0.0234 0.219 0.0466 0.331 0.0744 0.0975 0.0284 0.196 0.0704 0.294 0.0936 0.149 0.0328 0.303 0.0608 0.452 0.0886 0.0324 0.0048 0.0656 0.0096 0.103 0.0142 0.0416 0.0094 0.0929-0.0094 0.102 0.0048 0.0234 0.0372 0.042 0.0184 0.07 0.0138 0.0326-0.0094 0.07-0.0094 0.107-0.0094 0.131 0.0046 0.256 0.0326 0.387 0.0234 0.0284 0 0.0702-0.0236 0.0936 0.023 0.0418-0.0186 0.0652-0.0186 0.0838-0.023 0.00496 0.0418 0 0.0418-0.00886 0.0464-0.00957 0.0046-0.0236 0.0094-0.0422 0.0234 0.168 0.0326 0.326 0.0372 0.466 0 0.243 0.0186 0.453-0.0094 0.653-0.0794 0.0186 0.0234 0.0326 0.056 0.0606 0.0094 0.00922-0.0142 0.0326-0.019 0.0514-0.0236 0.0418-0.0094 0.0932-0.028 0.13-0.0142 0.0422 0.0142 0.0562-0.023 0.0886-0.023 0.0562 0 0.107-0.0048 0.159-0.0142 0.028-0.0046 0.056-0.0186 0.0886-0.028-0.0372-0.019-0.0744-0.0236-0.103-0.0236 0.0562-0.028 0.107-0.0514 0.159-0.0744-0.00939 0.0138-0.0188 0.0324-0.0372 0.0324h0.065c-0.0142 0-0.0328 0.042-0.056 0.07 0.168-0.042 0.321-0.0794 0.471-0.117-0.0514-0.0978 0.0558-0.065 0.0932-0.121-0.0466 0.0142-0.0932 0.028-0.14 0.0372 0.159-0.0792 0.322-0.149 0.48-0.219-0.023 0.028-0.0514 0.042-0.093 0.0656 0.028 0.0044 0.0466 0.0044 0.0606 0.0089 0.0744 0.0236 0.056-0.0464 0.0792-0.0886 0.0886 0 0.126-0.0138 0.168-0.028 0.0466-0.0142 0.0932-0.028 0.14-0.0466 0.0744-0.0326 0.144-0.0744 0.219-0.112 0.0142-5e-3 0.0372 0 0.056 0 0.0514-0.033 0.0698-0.061 0.0838-0.0564 0.0656 0.0094 0.112-0.0142 0.13-0.0744 0.0326-0.0236 0.056-0.0422 0.0792-0.0564 0.102-0.056 0.2-0.112 0.303-0.168 0.0372 0 0.056 0 0.0652-0.0048 0.061-0.0284 0.117-0.0606 0.173-0.0934-0.0142-0.0046-0.0466-0.023-0.0466-0.023 0.0464-0.0096 0.0602-0.0142 0.0886-0.0236 0.112-0.131 0.266-0.22 0.382-0.323 0.0514-0.0046 0.0514-0.0186 0.0514-0.0278 0.0184-0.0234 0.0372-0.0514 0.0602-0.0702 0.103-0.0934 0.214-0.173 0.308-0.271 0.135-0.136 0.266-0.276 0.387-0.421 0.112-0.131 0.224-0.261 0.317-0.406 0.131-0.201 0.242-0.406 0.359-0.617 0.084-0.149 0.159-0.299 0.243-0.448 0.0089-0.0142 0.0278-0.0328 0.0418-0.0328 0.126-0.0142 0.252-0.023 0.373-0.0372 0.028-0.00461 0.0606-0.023 0.0886-0.0372-0.0142-0.0234-0.0234-0.0514-0.0372-0.0748-0.0188-0.0284-0.0468-0.0514-0.0656-0.0797-0.0184-0.023-0.0324-0.0514-0.0464-0.0792-0.0142-0.023-0.028-0.0418-0.042-0.0656-0.0284-0.0514-0.0562-0.103-0.0798-0.158-0.0046-0.0142-0.0142-0.0372-0.0092-0.0514 0.084-0.182 0.117-0.378 0.196-0.56 0.0792-0.187 0.103-0.397 0.14-0.598 0.0326-0.191 0.0514-0.383 0.0744-0.574 0.0142-0.135 0.0328-0.266 0.0372-0.402 0.0284-0.215 0.0188-0.416 0.0142-0.617-0.00461-0.177-0.0142-0.359-0.023-0.537zm-11.7 5.75c-0.0326-0.0372-0.0606-0.0794-0.0932-0.117l0.0142-0.0142c0.0509 0.0562 0.102 0.112 0.153 0.173-0.028-0.0142-0.0606-0.0234-0.0744-0.0422zm0.0744 0.0422c0.0142-0.0048 0.0284-0.0048 0.0422-0.0094 0.0142 0.0234 0.0234 0.0514 0.0372 0.0794-0.0652-0.0048-0.0978-0.0328-0.0792-0.07zm4.85 1.93v-0.0142c0.0886-0.0092 0.172-0.0186 0.261-0.0278v0.0136c-0.0886 0.0142-0.172 0.023-0.261 0.028zm1.17-0.121c-0.065 0.0142-0.135 0.0236-0.2 0.033-0.0234 0.0046-0.0514 0.028-0.0606-0.0142-0.00939 0.0048-0.0188 0.0048-0.028 0.0096 0.023 0.0698 0.0792 0.0138 0.126 0.0418-0.103 0.0142-0.2 0.0234-0.298 0.0372v-0.0092c0.0284-0.0046 0.0608-0.0094 0.0886-0.0142v-0.0138c-0.0464-0.0048-0.093-0.0094-0.14-0.0094-0.0136 0-0.0324 0.0188-0.0464 0.0234-0.0186 0.0046-0.0372 0.0094-0.0606 0.0094-0.0792 0.0046-0.158 0.0046-0.233 0.0092-0.00478 0-0.0142-0.0046-0.0188-0.0046v-0.0142c0.312-0.0418 0.62-0.0838 0.933-0.126 0.00478 0.0092 0.00478 0.0186 0.00939 0.0278-0.028 0-0.0466 0.0097-0.07 0.0142zm0.0702-0.0464c0.107-0.0142 0.206-0.0234 0.308-0.0372-0.214 0.0606-0.284 0.0698-0.308 0.0372zm-4.06-9.43c0.149-0.206 0.303-0.411 0.452-0.621 0.0466-0.0611 0.0838-0.127 0.13-0.187 0.0142-0.0188 0.0328-0.028 0.056-0.0468l-0.00461-0.00886c0.0186-0.0236 0.0372-0.0425 0.0466-0.061 0.0237-0.0372 0.0377-0.0794 0.0564-0.121 0.00461-0.00886 0.0186-0.0183 0.0186-0.0183 0.0656 0.0326 0.0656-0.0372 0.0886-0.0608 0.042-0.0468 0.084-0.098 0.121-0.145 0.028-0.0372 0.056-0.07 0.0794-0.112 0.00461-0.0142-0.00939-0.0372-0.0142-0.0562h-0.0138c0.0142-0.00922 0.028-0.023 0.042-0.0326 0.00461 0 0.00461 0 0.00922-0.00461 0.028-0.0422 0.056-0.0842 0.084-0.122 0.0558-0.0744 0.116-0.149 0.182-0.214-0.00922 0.023-0.0186 0.0466-0.028 0.0652 0.00478 0 0.00478 0.00478 0.00939 0.00478 0.056-0.0748 0.117-0.145 0.173-0.22-0.00478-0.00443-0.00939-0.00922-0.0142-0.00922-0.023 0.0234-0.0418 0.0468-0.0652 0.0702-0.00461-0.00478-0.00922-0.00939-0.0142-0.00939 0.047-0.0608 0.0936-0.121 0.14-0.191 0.00939 0.0142 0.0188 0.0326 0.0372 0.07 0.019-0.0466 0.0376-0.0792 0.0514-0.112-0.0138 0.0142-0.0324 0.028-0.0464 0.0422l-0.0142-0.0142 0.084-0.126c0.0886-0.126 0.177-0.257 0.266-0.383 0.0328-0.0466 0.0744-0.084 0.103-0.131 0.0886-0.177 0.229-0.318 0.336-0.481 0.0234-0.0326 0.056-0.0606 0.084-0.0886 0.023-0.0284 0.042-0.0188 0.0606 0.00461 0.126 0.159 0.252 0.322 0.377 0.481 0.0936 0.117 0.187 0.229 0.275 0.35 0.107 0.15 0.21 0.299 0.317 0.448 0.121 0.173 0.242 0.346 0.359 0.523 0.177 0.262 0.345 0.523 0.522 0.785 0.131 0.191 0.261 0.378 0.387 0.57h-0.238c-0.219-0.00443-0.443-0.023-0.662-0.0138-0.298 0.0142-0.601 0.0468-0.9 0.0702-0.378 0.0328-0.76 0.0372-1.14 0.0372-0.136 0-0.271 0.019-0.406 0.0284-0.163 0.00922-0.322 0.0186-0.485 0.023-0.191 0.00957-0.377 0.0142-0.569 0.019-0.107 0.00461-0.219 0-0.336 0zm5.35 2.15v0.0422c-0.00461 0-0.00922 0.00478-0.0186 0.00478-0.0186-0.0656-0.0372-0.136-0.0606-0.201-0.0466-0.136-0.098-0.271-0.182-0.392-0.0936-0.131-0.177-0.266-0.271-0.401-0.023-0.0328-0.056-0.0608-0.084-0.0886-0.098-0.108-0.196-0.22-0.322-0.299-0.187-0.117-0.378-0.215-0.583-0.299-0.056-0.023-0.107-0.0514-0.163-0.084h0.112l0.797-0.0142c0.173-0.00443 0.341-0.00443 0.513-0.0138 0.0418 0 0.0652 0.0142 0.0886 0.0514 0.0418 0.07 0.0838 0.14 0.13 0.21 0.00478 0.00922 0.0142 0.023 0.0142 0.0372 0 0.103 0 0.21 0.00461 0.313 0.00443 0.107 0.0142 0.21 0.0184 0.318 0 0.107-0.00939 0.219-0.00461 0.331 0.00478 0.159 0.00939 0.323 0.00939 0.486zm-5.02-1.56c0.219-0.00939 0.429-0.0234 0.644-0.0328 0.167-0.00939 0.34-0.0142 0.508-0.0234 0.07-0.00443 0.135-0.00886 0.205 0-0.0744 0.0376-0.149 0.075-0.214 0.122-0.084 0.056-0.163 0.131-0.247 0.191-0.0842 0.0606-0.159 0.135-0.229 0.215-0.0886 0.107-0.187 0.201-0.28 0.303-0.0656 0.0748-0.14 0.145-0.196 0.224-0.0792 0.103-0.149 0.214-0.224 0.331 0.0234-0.444 0.0514-0.883 0.0326-1.33zm3.05 4.49c-0.149 0.0372-0.303 0.0794-0.457 0.098-0.13 0.0188-0.266 0.0142-0.401 0.0142-0.122 0-0.238-0.00461-0.359-0.0142-0.135-0.0138-0.27-0.0278-0.401-0.0886-0.112-0.0514-0.229-0.098-0.34-0.154-0.112-0.056-0.224-0.121-0.308-0.224-0.0603-0.075-0.144-0.136-0.219-0.201 0.0142 0.056 0.0466 0.103 0.098 0.135-0.0234 0.028-0.056 0.0142-0.103-0.0608-0.0138 0.00939-0.0278 0.0142-0.0372 0.0188 0.0142-0.0328 0.028-0.0656 0.042-0.0934-0.0186-0.0372-0.042-0.0794-0.0606-0.117-0.0372-0.0606-0.0744-0.126-0.107-0.187-0.00939-0.0142-0.00939-0.028-0.0186-0.042-0.0234-0.028-0.0468-0.0562-0.0656-0.0842-0.0372-0.0558-0.0698-0.116-0.116-0.173 0 0.0142 0.00478 0.028 0.00478 0.0468-0.00478 0-0.00939 0.00461-0.00939 0.00461l-0.0982-0.238c-0.00461 0-0.00461 0-0.00922 0.00461l0.0838 0.308c-0.00461 0-0.00922 0.00443-0.0142 0.00443-0.0136-0.0184-0.0276-0.0372-0.0372-0.0603-0.00922-0.0376-0.0372-0.0376-0.0603-0.0236-0.0142 0.00939-0.0236 0.042-0.0188 0.056 0.0328 0.0794 0.07 0.159 0.107 0.238 0.00922 0.028 0.0186 0.0514 0.0326 0.0794 0.00478 0.00939 0.0188 0.0186 0.0188 0.0326 0.0188 0.0372 0.0328 0.0744 0.056 0.107 0.042 0.056 0.0886 0.112 0.131 0.168 0.0416 0.056 0.0789 0.117 0.116 0.173 0.00461 0.00939 0.0186 0.00939 0.023 0.0142 0.0236 0.07 0.103 0.121 0.159 0.0932 0.0142 0.107 0.131 0.145 0.177 0.248-0.056-0.0234-0.0978-0.042-0.135-0.0608-0.00478 0.00461-0.00478 0.00922-0.00957 0.0186 0.056 0.028 0.112 0.056 0.163 0.0886 0.047 0.0284 0.0936 0.0562 0.136 0.0886 0.056 0.0514 0.121 0.0797 0.2 0.0982-0.00425-0.0142-0.00886-0.019-0.00886-0.019 0.13 0.0608 0.266 0.126 0.368 0.177-0.485 0.00957-1 0.019-1.54 0.0284 0-0.0886-0.00461-0.173-0.00461-0.262 0-0.0372 0.00922-0.07 0.00443-0.107-0.0142-0.214-0.0142-0.43-0.042-0.64-0.0278-0.224-0.0278-0.444-0.023-0.668 0.00443-0.121-0.00478-0.247-0.00957-0.369 0-0.163 0-0.323 0.00496-0.486 0-0.0234 0.00939-0.042 0.0188-0.0656h0.0142c0.00443 0.00957 0 0.0236 0.00886 0.0284 0.0142 0.0142 0.0376 0.0372 0.047 0.0326 0.0278-0.0188 0.0698-0.0372 0.0792-0.0656 0.023-0.0558 0.0326-0.117 0.0326-0.173 0-0.0418 0.0188-0.0698 0.0372-0.098 0.00957-0.0142 0.0142-0.028 0.0236-0.0466-0.0186-0.0142-0.0372-0.0234-0.0606-0.042 0.0188-0.0514 0.0142-0.112 0.0842-0.14 0.00922-0.00478 0.00922-0.0284 0.0142-0.0422 0.00443-0.0377 0.00886-0.0797 0.0138-0.117 0.00922 0.0142 0.0142 0.0186 0.023 0.0278 0.00496-0.00922 0.00957-0.0142 0.00957-0.0142 0-0.0184-0.00461-0.0558 0-0.0558 0.056-0.00939 0.0326-0.07 0.0606-0.098 0.00443-0.00496-0.00478-0.019-0.00478-0.0284 0-0.00922 0-0.023 0.00461-0.023 0.065-0.0142 0.0558-0.0842 0.0978-0.117 0.0142-0.00939 0.0186-0.023 0.0372-0.0466 0.0372 0.0652-0.028 0.098-0.0326 0.145 0.079-0.0466 0.102-0.159 0.0558-0.191 0.0186-0.0142 0.0372-0.0326 0.0514-0.0514 0.0514-0.056 0.107-0.107 0.154-0.163 0.0328-0.0418 0.0514-0.0932 0.084-0.135 0.0188-0.0234 0.056-0.042 0.084-0.0562 0.084-0.0464 0.163-0.0978 0.214-0.177 0.00939-0.00939 0.0234-0.0186 0.0372-0.028 0.0142-0.00939 0.0422-0.00939 0.0468-0.0234 0.00478-0.00922-0.00922-0.0326-0.0186-0.0466 0.0184-0.00939 0.0372-0.028 0.0744-0.0468-0.0142 0.028-0.0186 0.0468-0.028 0.0656l0.023 0.023c0.0422-0.0326 0.107-0.0698 0.149-0.0978 0-0.00443-0.0234-0.023-0.0234-0.023-0.0278 0.0142-0.0698 0.0372-0.112 0.056 0.00886-0.0142 0.00886-0.0234 0.0142-0.028 0.065-0.042 0.13-0.084 0.2-0.117 0.163-0.0744 0.326-0.149 0.49-0.219 0.028-0.0142 0.0656-0.00461 0.098-0.00461 0.0138 0 0.023 0 0.0372-0.00461 0.0744-0.0234 0.149-0.0468 0.224-0.0656 0.0324-0.00922 0.0696-0.0138 0.103-0.0138 0.139 0.00443 0.279 0.00443 0.419 0.0138 0.0606 0.00461 0.117 0.0186 0.173 0.0372 0.0698 0.0236 0.144 0.0562 0.21 0.0886 0.0792 0.0425 0.154 0.089 0.229 0.14 0.135 0.0886 0.261 0.187 0.396 0.266 0.131 0.0794 0.233 0.187 0.317 0.308 0.103 0.145 0.219 0.275 0.266 0.453l0.0698 0.308c0.0142 0.056 0.0468 0.112 0.0328 0.177-0.0236 0.117-0.0422 0.238-0.0608 0.355-0.00922 0.047-0.0186 0.0939-0.0138 0.14 0.00886 0.145-0.047 0.271-0.103 0.402-0.0188 0.042-0.0468 0.0842-0.07 0.131 0.00461 0.00461 0.0326 0.0188 0.0372 0.0188l0.042-0.084c0.00478 0 0.00478 0 0.00939 0.00478-0.0234 0.0652-0.042 0.135-0.0656 0.201-0.0556 0.145-0.112 0.294-0.182 0.434-0.0372 0.0794-0.103 0.145-0.149 0.22-0.0464 0.0652-0.0838 0.135-0.13 0.196-0.042 0.0514-0.0838 0.103-0.14 0.14-0.126 0.0934-0.256 0.187-0.392 0.262-0.0838 0.0514-0.182 0.0794-0.275 0.103zm-2.49-0.248-0.00461 0.00478c-0.00975-0.00461-0.0237-0.00922-0.033-0.0186l-0.112-0.168c-0.00922-0.0138-0.0142-0.0278-0.00922-0.0464 0.0514 0.0794 0.103 0.154 0.159 0.229zm2.9 0.64c0.21-0.0886 0.382-0.214 0.541-0.359 0.0236-0.0234 0.0468-0.0466 0.0748-0.0656 0.196-0.121 0.34-0.289 0.471-0.476 0.149-0.215 0.247-0.458 0.369-0.686 0.00922-0.0188 0.0184-0.0372 0.0278-0.0514-0.00939 0.532 0.0514 1.06 0.121 1.58-0.527 0.0186-1.06 0.0372-1.6 0.056zm4.73-0.14c-0.0046 0.00939-0.0142 0.0188-0.0186 0.0284-0.0048-0.00957-0.0048-0.0236-0.0094-0.0425-0.028 0.075-0.0886 0.0376-0.131 0.0376-0.252 0.00478-0.508 0.00478-0.76 0.00478-0.242 0-0.489 0-0.732 0.00425-0.0794 0-0.163 0.0186-0.243 0.0234-0.191 0.00922-0.382 0.0142-0.573 0.0186-0.0142 0-0.028-0.023-0.0514-0.0418-0.0046 0.00939-0.0142 0.0234-0.028 0.042-5e-3 -0.00922-0.0142-0.0184-0.0236-0.0324-0.0046 0.0142-0.0094 0.028-0.0142 0.0372h-0.0135c-0.0094-0.0652-0.028-0.126-0.028-0.191 0-0.14 0.0142-0.28 0.0186-0.42 0.0048-0.0652 0-0.126 0-0.187 0.0188 0.0142 0.0328 0.0236 0.0514 0.0372 0.0092-0.0183 0.0186-0.0323 0.028-0.0461 0 0-0.0094-0.00496-0.0188-0.0142 0.0089-0.00478 0.0184-0.0142 0.0184-0.0188 0.0046-0.0142 0.0142-0.028 0.0142-0.0372 0-0.0328-0.0096-0.0608-0.0142-0.0886 0.0046 0 0.0092 0 0.0142-0.00496l0.0278 0.14h0.0142c-0.0188-0.0324 0.0418-0.0606-0.0094-0.0978-0.0046-0.00478 0.0046-0.0328 0.0046-0.0468-0.0142-0.0278-0.023-0.0558-0.0372-0.0932 0.0046-0.00461 0.0186-0.00939 0.0326-0.0142-0.0186-0.00922-0.0326-0.0184-0.0466-0.023 0.0466-0.0422 0.0466-0.0656 0.0046-0.112 0.0096-0.00443 0.0188-0.00443 0.0188-0.00886 0-0.0422 0-0.0842-0.0092-0.126-0.0094-0.0471 0.0142-0.103-0.056-0.131 0.0046 0.0142 0.0094 0.0234 0.0186 0.0372 0 0-0.0142 0.00478-0.028 0.0142-0.0606-0.0562-0.023-0.131-0.0372-0.215 0.0326 0.00939 0.056 0.0188 0.0792 0.0284-0.0094-0.033-0.0326-0.0704-0.0466-0.112h-0.019v-0.308c0 0.00478 0.0326 0.00478 0.0514 0.00957 0-0.00478 0.0044-0.00939 0.0044-0.0142-0.0142-0.0186-0.0328-0.0372-0.0514-0.0606l0.0094-0.00939c-0.0372-0.0464-0.0186-0.112-0.0186-0.126v-0.327c0.0468 0.0468-0.023 0.107 0.0468 0.135v-0.0466h-0.0048c-0.0046-0.07-0.0046-0.14-0.0092-0.21h-0.0092c-0.0048 0.00957-0.0048 0.0142-0.0096 0.0236h-0.0092l0.028-1.12c0.0466 0.0606 0.0978 0.117 0.13 0.177 0.107 0.196 0.247 0.365 0.378 0.542 0.112 0.154 0.214 0.322 0.317 0.481 0.126 0.191 0.247 0.383 0.373 0.574 0.0932 0.145 0.191 0.29 0.289 0.43 0.0886 0.126 0.182 0.247 0.275 0.369 0.079 0.107 0.163 0.215 0.242 0.322 0.0934 0.131 0.187 0.261 0.28 0.388 0.0464 0.0652 0.0978 0.131 0.149 0.196 0.0284 0.0372 0.0702 0.0656 0.0982 0.0886-0.0044 0-0.0092 0-0.0184-0.00461 0.0142 0.0186 0.023 0.0326 0.0326 0.042 0.0514 0.028 0.056 0.056 0.028 0.0982zm0.238-1.17v-0.0328c0 0.00922 0.0046 0.023 0 0.0326zm0.159-2.06c-0.0048 0-0.0326-0.0284-0.0372-0.033-0.0048 0.0142 0 0.028-0.0094 0.0468-0.0048-0.0138-0.0372-0.00922-0.0372-0.023-0.0048 0.0652 0.0278 0.131 0.023 0.196 0.0142-0.00939 0.07-0.0142 0.084-0.028 0.0048 0.00461 0.0142 0.00922 0.0188 0.00922-0.0934 0.0702-0.07 0.14-0.028 0.22 0.0092 0.0184 0.0372 0.0558 0.0092 0.0932-0.0092 0.00939 0.0048 0.0372 0.0094 0.0608h0.0136v0.00886l-0.042 0.0142c-0.0092-0.0142-0.065-0.0418-0.065-0.0656v0.239c0.0466 0.0142 0.0466 0.0794 0.0652 0.112 0.0097-0.0142 0.0142-0.0236 0.019-0.0372l0.0048 0.00425c-0.0048 0.028-0.0094 0.056-0.0188 0.0842-0.0092 0.0418-0.0186 0.0792-0.023 0.121 0 0.00461 0.0089 0.0142 0.0089 0.0186-0.051 0.117-0.023 0.247-0.0416 0.369-0.0142 0.0886 0 0.183-0.0094 0.276-0.0096 0.0794-0.0284 0.163-0.0468 0.243-0.0048 0.0142-0.0142 0.0186-0.0372 0.028 0.0092-0.056 0.0046-0.0934-0.0048-0.145-5e-3 0-0.0656-0.0326-0.0704-0.0326 0 0.0656 0.0372 0.154 0.0514 0.229-0.0142-0.00461-0.07-0.0372-0.0744-0.0372-0.0096 0.056-0.0096 0.131-0.0142 0.191-0.0048 0.0468-0.0466 0.0886-0.0514 0.14 0 0.0284 0.0326 0.0468 0.028 0.0936h0.0372c0-0.0932 0.0422-0.177 0.0422-0.275h0.0138c0.0048 0.00939 0.0188 0.0188 0.0142 0.0234-0.0094 0.0514-0.0284 0.107-0.0234 0.159 0 0.028 0.023 0.056 0.0142 0.0886-0.0096 0.0284-0.0142 0.0562-0.019 0.0982-0.0048-0.0234-0.0094-0.0326-0.0094-0.0466-0.0046 0-0.0466-0.00478-0.0514-0.00478-0.0046 0.028 0.0328 0.056 0.028 0.0794-0.0046 0.00461-0.0092 0.00461-0.0186 0.00939l-0.154-0.224c-0.122-0.177-0.243-0.355-0.364-0.537-0.0328-0.0468-0.0608-0.0934-0.0842-0.14-0.144-0.248-0.303-0.486-0.48-0.715-0.135-0.173-0.243-0.36-0.369-0.541-0.116-0.173-0.233-0.341-0.349-0.514-0.042-0.0558-0.0932-0.107-0.131-0.168-0.121-0.191-0.229-0.388-0.349-0.579-0.103-0.159-0.214-0.313-0.322-0.467-0.0372-0.0514-0.0744-0.108-0.112-0.164-0.0046-0.00886-0.0092-0.0183-0.0092-0.0323-0.0094-0.103-0.0188-0.206-0.0234-0.304 0-0.0934 0.0094-0.187 0.0094-0.285v-0.084c0-0.0234 0.0044-0.042 0.0044-0.0656 0.0044-0.00443 0.0092-0.0138 0.0138-0.0184-0.135 0-0.275-0.00496-0.41 0-0.0886 0.00443-0.135-0.033-0.196-0.0984-0.177-0.201-0.308-0.43-0.462-0.644-0.145-0.206-0.294-0.407-0.443-0.607-0.121-0.163-0.243-0.322-0.364-0.486-0.135-0.187-0.266-0.374-0.406-0.56-0.168-0.224-0.341-0.448-0.513-0.672-0.0797-0.103-0.168-0.201-0.257-0.308 0.0608 0.00957 0.117 0.0188 0.173 0.0236l0.224 0.0142c0.168 0.0136 0.336 0.023 0.503 0.0461 0.14 0.019 0.28 0.047 0.425 0.0702 0.308 0.0514 0.611 0.136 0.905 0.234 0.173 0.056 0.34 0.131 0.509 0.201 0.377 0.154 0.737 0.341 1.09 0.537 0.112 0.0608 0.177 0.159 0.261 0.248 0.121 0.126 0.243 0.252 0.359 0.383 0.135 0.154 0.261 0.313 0.392 0.472 0.116 0.14 0.237 0.28 0.354 0.42 0.0372 0.042 0.0656 0.0934 0.0978 0.14 0.0744 0.112 0.159 0.22 0.224 0.341 0.0464 0.089 0.0744 0.192 0.107 0.29 0.0464 0.145 0.0932 0.285 0.14 0.43 0.0324 0.107 0.0602 0.22 0.0836 0.331 0.0188 0.075 0.0142 0.154 0.0372 0.229 0.0284 0.0985 0 0.206 0.0284 0.304 0.0044 0.00939 0.0089 0.0234 0.0138 0.0328 0.0186 0.0184 0.0326 0.0372 0.0046 0.0652-0.0044 0.00461-0.0044 0.023 0 0.0372 0.0096-0.00922 0.0142-0.0186 0.0236-0.0326 0 0.00939 0.0044 0.0142 0.0044 0.0186 0 0.0184-0.0048 0.0372 0 0.0558 0 0.00922 0.0092 0.023 0.0138 0.0326 0.0094-0.00957 0.0186-0.0142 0.0372-0.0284 0.042 0.159 0.0468 0.318 0.0468 0.481 0 0.154 0.0278 0.308-0.0372 0.458 0.0138-0.0514-0.0188-0.0984-0.0048-0.145z" fill="#dd3a0a"/>
    <path d="m11 12.7c-0.0514 0.0372-0.103 0.07-0.168 0.084-5e-3 -0.0046-5e-3 -0.0094-0.0096-0.0142 0.0514-0.0326 0.107-0.0652 0.159-0.098 0.0048 0.0089 0.0142 0.0184 0.0188 0.0278zm-8.74-6.33c0.0514-0.065 0.103-0.13 0.158-0.196 0.00443 0.00461 0.0416 0.0142 0.0464 0.0186-0.0514 0.0656-0.121 0.154-0.173 0.224-0.00957-0.00939-0.0236-0.042-0.0328-0.0468zm-1.32 2.29c-0.0372-0.0794-0.0744-0.164-0.112-0.243 0.00461-0.00478 0.0372-0.0188 0.0418-0.0188 0.0514 0.0744 0.0744 0.163 0.112 0.243 0 0-0.0372 0.0186-0.042 0.0186zm1.19-2.24c-0.028 0.0422-0.056 0.089-0.084 0.131-0.00461-0.00496-0.056 0.0184-0.0606 0.0138 0.028-0.042 0.0978-0.117 0.126-0.159 0.00478 0.00461 0.00939 0.00939 0.0188 0.0142zm8.38 6.47c0.0044 0 0.0044-0.0046 0.0092-0.0046 0.0326 0.0046 0.0698 0.0092 0.107 0.0092-0.061 0.042-0.0984 0.0372-0.117-0.0046zm-8.37-6.28c0.00496-0.0142 0.0142-0.028 0.0236-0.042 0.00922 0 0.023-0.00478 0.023-0.00478 0.019-0.0326 0.019-0.056 0.0376-0.084-0.00461-0.00461-0.00939-0.00461-0.0142-0.00939-0.0278 0.0191-0.0558 0.0425-0.0838 0.0611 0.00939 0.00922 0.00939 0.0142 0.00939 0.0234-0.0372-0.00478-0.0514 0.0142-0.07 0.0652-0.00461 0.0142-0.028 0.0188-0.0514 0.0372-0.00461 0.00957-0.00922 0.033-0.0186 0.0562l0.00478 0.00496c-0.00939 0.00939-0.0234 0.0142-0.0234 0.0142-0.028 0.0278-0.0606 0.0514-0.0886 0.0792-0.00461 0.0142-0.00922 0.028-0.00922 0.042 0.0328-0.0326 0.0886-0.0934 0.131-0.131l0.00478 0.00478c0.0186-0.028 0.0326-0.056 0.0514-0.084 0.00443 0.00461 0.00443 0.00922 0.00922 0.0142-0.0142 0.0372-0.028 0.079-0.042 0.116-0.00975 0.00461-0.0237 0.0142-0.0237 0.00939-0.0186 0.0142-0.0326 0.0326-0.0514 0.0466l-0.0838 0.056c-0.0466 0.042-0.0932 0.0792-0.145 0.121-0.0326 0.0514-0.0652 0.098-0.103 0.159 0.0562-0.0142 0.0702 0.00939 0.0656 0.0562 0.0652 0.00922 0.07-0.042 0.0886-0.0794 0.00461-0.00957 0.00939-0.0284 0.0186-0.033 0.042-0.0372 0.0886-0.0698 0.135-0.107 0.00939-0.00939 0.00939-0.0284 0.00939-0.0422 0-0.00461-0.0236-0.00461-0.0376-0.00939 0.042-0.0468 0.103-0.126 0.145-0.177 0.0234-0.0142 0.0466-0.033 0.0466-0.047-0.00461-0.0514 0.028-0.0652 0.0656-0.084-0.0188-0.0142-0.0236-0.0278-0.0236-0.0324z" fill="#DB5C5C"/>
    <path d="m2.25 6.54c-0.0186 0.0326-0.0372 0.0606-0.0558 0.0934l-0.028-0.0142c-0.0186 0.107-0.084 0.201-0.149 0.219 0.0186 0.00939 0.0372 0.0188 0.0514 0.0142 0.0138-0.00478 0.023-0.0284 0.0324-0.0422l0.126-0.182 0.0422-0.0702-0.0186-0.0186zm-1.55 2.05c0.0234 0 0.0468 0.00461 0.0744 0.00461 0-0.0186 0.0236-0.0142 0.0236-0.0326h0.0142c0 0.0234 0.00461 0.042 0.00461 0.0656h-0.0978c-0.00478-0.00478-0.0234-0.033-0.0188-0.0376zm-0.0372-0.215c-0.0142-0.0142-0.0372-0.028-0.0372-0.042-0.00478-0.0184 0.00922-0.0416 0.023-0.065 0.00957 0.0326 0.0142 0.0606 0.0234 0.0934-0.00478 0.00443-0.00939 0.00922-0.00939 0.0138zm0.117-0.299c0.0186 0.0471 0.0372 0.0985 0.056 0.145-0.00461 0-0.0326 0.0142-0.0372 0.0186-0.0186-0.0468-0.042-0.0982-0.0606-0.145 0.00461-0.00461 0.0326-0.0188 0.042-0.0188zm10.4 4.46c0.023-0.0092 0.051-0.0142 0.0886-0.023-0.0422 0.0324-0.0748 0.0558-0.103 0.0838-0.0048-0.0046-0.0094-0.0094-0.0142-0.0094 0.0094-0.0186 0.0188-0.0326 0.0284-0.0514zm-5.73-9.87c0.0278-0.0188 0.0514-0.0328 0.0792-0.0514l0.00922 0.00922c-0.0284 0.0372-0.0514 0.0744-0.0842 0.121-0.00461-0.0324-0.00461-0.0514-0.00939-0.0744-0.00461 0 0 0 0.00478-0.00461zm1.37 2.36c0.042-0.0188 0.084-0.0372 0.135-0.0608-0.00461 0.028-0.00461 0.0468-0.00461 0.0656-0.0142-0.00478-0.0328-0.00957-0.0468-0.00957-0.028 0.00478-0.0794 0.0422-0.103 0.0468-0.00443 0 0.0188-0.0372 0.0188-0.042zm3.5 3.96c0.0092 0.0466 0.0978 0.07 0.0092 0.117 0.0142 0.00975 0.0278 0.0142 0.0418 0.0237 0 0.00478-0.0046 0.0142-0.0092 0.0188-0.0094 0.00443-0.028 0.0138-0.0372 0.00886-0.0048 0-0.0142-0.0184-0.0142-0.0278 0-0.042 0.0048-0.084 0.0094-0.14z" fill="#DB5C5C"/>
  </g>
</svg>
