<svg xmlns="http://www.w3.org/2000/svg" xmlns:xlink="http://www.w3.org/1999/xlink" width="40" height="40" viewBox="0 0 40 40">
  <defs>
    <polygon id="prettier-a" points="0 0 19.81 0 19.81 1.524 0 1.524"/>
    <polygon id="prettier-c" points=".333 0 11 0 11 1.524 .333 1.524"/>
    <polygon id="prettier-e" points=".428 .334 5 .334 5 1.857 .428 1.857"/>
    <polygon id="prettier-g" points=".904 .286 7 .286 7 1.809 .904 1.809"/>
    <polygon id="prettier-i" points=".904 .048 7 .048 7 1.571 .904 1.571"/>
    <polygon id="prettier-k" points=".428 .238 5 .238 5 1.761 .428 1.761"/>
    <polygon id="prettier-m" points=".428 .096 5 .096 5 1.619 .428 1.619"/>
    <polygon id="prettier-o" points=".952 .142 4 .142 4 1.666 .952 1.666"/>
    <polygon id="prettier-q" points=".952 .19 4 .19 4 1.714 .952 1.714"/>
    <polygon id="prettier-s" points=".762 .381 16 .381 16 1.905 .762 1.905"/>
    <polygon id="prettier-u" points=".857 .476 10 .476 10 1.999 .857 1.999"/>
  </defs>
  <g fill="none" fill-rule="evenodd" transform="translate(4 4)">
    <path fill="#56B3B4" d="M23.6186,6.0955 L25.1426,6.0955 C25.5696,6.0955 25.9046,6.4305 25.9046,6.8575 C25.9046,7.2835 25.5696,7.6185 25.1426,7.6185 L23.6186,7.6185 C23.1926,7.6185 22.8566,7.2835 22.8566,6.8575 C22.8566,6.4305 23.1926,6.0955 23.6186,6.0955"/>
    <path fill="#EA5E5E" d="M0.7621,30.4764 L8.3811,30.4764 C8.8081,30.4764 9.1431,30.8114 9.1431,31.2384 C9.1431,31.6644 8.8081,31.9994 8.3811,31.9994 L0.7621,31.9994 C0.3351,31.9994 0.0001,31.6644 0.0001,31.2384 C0.0001,30.8114 0.3351,30.4764 0.7621,30.4764"/>
    <path fill="#BF85BF" d="M19.0473,18.2859 L23.6183,18.2859 C24.0453,18.2859 24.3813,18.6209 24.3813,19.0479 C24.3813,19.4739 24.0453,19.8089 23.6183,19.8089 L19.0473,19.8089 C18.6203,19.8089 18.2853,19.4739 18.2853,19.0479 C18.2853,18.6209 18.6203,18.2859 19.0473,18.2859"/>
    <path fill="#EA5E5E" d="M9.9047,18.2859 L16.0007,18.2859 C16.4257,18.2859 16.7617,18.6209 16.7617,19.0479 C16.7617,19.4739 16.4257,19.8089 16.0007,19.8089 L9.9047,19.8089 C9.4777,19.8089 9.1427,19.4739 9.1427,19.0479 C9.1427,18.6209 9.4777,18.2859 9.9047,18.2859"/>
    <path fill="#56B3B4" d="M0.7621,18.2859 L6.8571,18.2859 C7.2831,18.2859 7.6181,18.6209 7.6181,19.0479 C7.6181,19.4739 7.2831,19.8089 6.8571,19.8089 L0.7621,19.8089 C0.3351,19.8089 0.0001,19.4739 0.0001,19.0479 C0.0001,18.6209 0.3351,18.2859 0.7621,18.2859"/>
    <path fill="#BF85BF" d="M.7621 24.3807L8.3811 24.3807C8.8081 24.3807 9.1431 24.7167 9.1431 25.1427 9.1431 25.5687 8.8081 25.9047 8.3811 25.9047L.7621 25.9047C.3351 25.9047.0001 25.5687.0001 25.1427.0001 24.7167.3351 24.3807.7621 24.3807M.7621 12.1902L8.3811 12.1902C8.8081 12.1902 9.1431 12.5262 9.1431 12.9522 9.1431 13.3782 8.8081 13.7142 8.3811 13.7142L.7621 13.7142C.3351 13.7142.0001 13.3782.0001 12.9522.0001 12.5262.3351 12.1902.7621 12.1902"/>
    <path fill="#F7BA3E" d="M8.3813,3.0477 L23.6183,3.0477 C24.0453,3.0477 24.3813,3.3827 24.3813,3.8097 C24.3813,4.2357 24.0453,4.5707 23.6183,4.5707 L8.3813,4.5707 C7.9543,4.5707 7.6183,4.2357 7.6183,3.8097 C7.6183,3.3827 7.9543,3.0477 8.3813,3.0477"/>
    <path fill="#EA5E5E" d="M0.7621,3.0477 L5.3331,3.0477 C5.7601,3.0477 6.0951,3.3827 6.0951,3.8097 C6.0951,4.2357 5.7601,4.5707 5.3331,4.5707 L0.7621,4.5707 C0.3351,4.5707 0.0001,4.2357 0.0001,3.8097 C0.0001,3.3827 0.3351,3.0477 0.7621,3.0477"/>
    <path fill="#F7BA3E" d="M6.8569,27.4285 L8.3809,27.4285 C8.8079,27.4285 9.1429,27.7635 9.1429,28.1905 C9.1429,28.6165 8.8079,28.9515 8.3809,28.9515 L6.8569,28.9515 C6.4299,28.9515 6.0949,28.6165 6.0949,28.1905 C6.0949,27.7635 6.4299,27.4285 6.8569,27.4285"/>
    <path fill="#56B3B4" d="M6.8569 9.1424L8.3809 9.1424C8.8079 9.1424 9.1429 9.4784 9.1429 9.9054 9.1429 10.3314 8.8079 10.6664 8.3809 10.6664L6.8569 10.6664C6.4299 10.6664 6.0949 10.3314 6.0949 9.9054 6.0949 9.4784 6.4299 9.1424 6.8569 9.1424M.7621 27.4285L3.8101 27.4285C4.2361 27.4285 4.5721 27.7635 4.5721 28.1905 4.5721 28.6165 4.2361 28.9515 3.8101 28.9515L.7621 28.9515C.3351 28.9515.0001 28.6165.0001 28.1905.0001 27.7635.3351 27.4285.7621 27.4285"/>
    <path fill="#F7BA3E" d="M0.7621,9.1424 L3.8101,9.1424 C4.2361,9.1424 4.5721,9.4784 4.5721,9.9054 C4.5721,10.3314 4.2361,10.6664 3.8101,10.6664 L0.7621,10.6664 C0.3351,10.6664 0.0001,10.3314 0.0001,9.9054 C0.0001,9.4784 0.3351,9.1424 0.7621,9.1424"/>
    <path fill="#D0D4D8" d="M20.5717 27.4285L22.0947 27.4285C22.5217 27.4285 22.8567 27.7635 22.8567 28.1905 22.8567 28.6165 22.5217 28.9515 22.0947 28.9515L20.5717 28.9515C20.1447 28.9515 19.8097 28.6165 19.8097 28.1905 19.8097 27.7635 20.1447 27.4285 20.5717 27.4285M11.4281 27.4285L17.5241 27.4285C17.9501 27.4285 18.2851 27.7635 18.2851 28.1905 18.2851 28.6165 17.9501 28.9515 17.5241 28.9515L11.4281 28.9515C11.0021 28.9515 10.6661 28.6165 10.6661 28.1905 10.6661 27.7635 11.0021 27.4285 11.4281 27.4285M25.143 27.4285L31.238 27.4285C31.664 27.4285 32 27.7635 32 28.1905 32 28.6165 31.664 28.9515 31.238 28.9515L25.143 28.9515C24.716 28.9515 24.381 28.6165 24.381 28.1905 24.381 27.7635 24.716 27.4285 25.143 27.4285"/>
    <path fill="#56B3B4" d="M12.9526,15.2381 L25.1426,15.2381 C25.5696,15.2381 25.9046,15.5731 25.9046,16.0001 C25.9046,16.4261 25.5696,16.7611 25.1426,16.7611 L12.9526,16.7611 C12.5256,16.7611 12.1906,16.4261 12.1906,16.0001 C12.1906,15.5731 12.5256,15.2381 12.9526,15.2381"/>
    <path fill="#F7BA3E" d="M5.3334,15.2381 L9.9044,15.2381 C10.3314,15.2381 10.6664,15.5731 10.6664,16.0001 C10.6664,16.4261 10.3314,16.7611 9.9044,16.7611 L5.3334,16.7611 C4.9064,16.7611 4.5714,16.4261 4.5714,16.0001 C4.5714,15.5731 4.9064,15.2381 5.3334,15.2381"/>
    <path fill="#EA5E5E" d="M0.7621,15.2381 L2.2851,15.2381 C2.7121,15.2381 3.0471,15.5731 3.0471,16.0001 C3.0471,16.4261 2.7121,16.7611 2.2851,16.7611 L0.7621,16.7611 C0.3351,16.7611 0.0001,16.4261 0.0001,16.0001 C0.0001,15.5731 0.3351,15.2381 0.7621,15.2381"/>
    <path fill="#BF85BF" d="M14.476,6.0955 L20.572,6.0955 C20.998,6.0955 21.333,6.4305 21.333,6.8575 C21.333,7.2835 20.998,7.6185 20.572,7.6185 L14.476,7.6185 C14.049,7.6185 13.714,7.2835 13.714,6.8575 C13.714,6.4305 14.049,6.0955 14.476,6.0955"/>
    <path fill="#56B3B4" d="M0.7621,6.0955 L11.4281,6.0955 C11.8551,6.0955 12.1911,6.4305 12.1911,6.8575 C12.1911,7.2835 11.8551,7.6185 11.4281,7.6185 L0.7621,7.6185 C0.3351,7.6185 0.0001,7.2835 0.0001,6.8575 C0.0001,6.4305 0.3351,6.0955 0.7621,6.0955"/>
    <path fill="#F7BA3E" d="M5.3334,21.3338 L19.0474,21.3338 C19.4744,21.3338 19.8104,21.6688 19.8104,22.0958 C19.8104,22.5218 19.4744,22.8568 19.0474,22.8568 L5.3334,22.8568 C4.9064,22.8568 4.5714,22.5218 4.5714,22.0958 C4.5714,21.6688 4.9064,21.3338 5.3334,21.3338"/>
    <path fill="#BF85BF" d="M0.7621,21.3338 L2.2851,21.3338 C2.7121,21.3338 3.0471,21.6688 3.0471,22.0958 C3.0471,22.5218 2.7121,22.8568 2.2851,22.8568 L0.7621,22.8568 C0.3351,22.8568 0.0001,22.5218 0.0001,22.0958 C0.0001,21.6688 0.3351,21.3338 0.7621,21.3338"/>
    <path fill="#EA5E5E" d="M19.0473,9.1424 L26.6663,9.1424 C27.0933,9.1424 27.4283,9.4784 27.4283,9.9054 C27.4283,10.3314 27.0933,10.6664 26.6663,10.6664 L19.0473,10.6664 C18.6203,10.6664 18.2853,10.3314 18.2853,9.9054 C18.2853,9.4784 18.6203,9.1424 19.0473,9.1424"/>
    <path fill="#F7BA3E" d="M19.0473,12.1902 L26.6663,12.1902 C27.0933,12.1902 27.4283,12.5262 27.4283,12.9522 C27.4283,13.3782 27.0933,13.7142 26.6663,13.7142 L19.0473,13.7142 C18.6203,13.7142 18.2853,13.3782 18.2853,12.9522 C18.2853,12.5262 18.6203,12.1902 19.0473,12.1902"/>
    <mask id="prettier-b" fill="#fff">
      <use xlink:href="#prettier-a"/>
    </mask>
    <path fill="#56B3B4" d="M0.7621,-0.0002 L19.0471,-0.0002 C19.4741,-0.0002 19.8101,0.3348 19.8101,0.7618 C19.8101,1.1878 19.4741,1.5238 19.0471,1.5238 L0.7621,1.5238 C0.3351,1.5238 0.0001,1.1878 0.0001,0.7618 C0.0001,0.3348 0.3351,-0.0002 0.7621,-0.0002" mask="url(#prettier-b)"/>
    <g transform="translate(21)">
      <mask id="prettier-d" fill="#fff">
        <use xlink:href="#prettier-c"/>
      </mask>
      <path fill="#D0D4D8" d="M1.0951,-0.0002 L10.2381,-0.0002 C10.6641,-0.0002 11.0001,0.3348 11.0001,0.7618 C11.0001,1.1878 10.6641,1.5238 10.2381,1.5238 L1.0951,1.5238 C0.6681,1.5238 0.3331,1.1878 0.3331,0.7618 C0.3331,0.3348 0.6681,-0.0002 1.0951,-0.0002" mask="url(#prettier-d)"/>
    </g>
    <path fill="#D0D4D8" d="M22.0951,21.3338 L25.1431,21.3338 C25.5701,21.3338 25.9051,21.6688 25.9051,22.0958 C25.9051,22.5218 25.5701,22.8568 25.1431,22.8568 L22.0951,22.8568 C21.6681,22.8568 21.3331,22.5218 21.3331,22.0958 C21.3331,21.6688 21.6681,21.3338 22.0951,21.3338"/>
    <g transform="translate(27 21)">
      <mask id="prettier-f" fill="#fff">
        <use xlink:href="#prettier-e"/>
      </mask>
      <path fill="#D0D4D8" d="M1.1908,0.3338 L4.2378,0.3338 C4.6648,0.3338 5.0008,0.6688 5.0008,1.0958 C5.0008,1.5218 4.6648,1.8568 4.2378,1.8568 L1.1908,1.8568 C0.7638,1.8568 0.4278,1.5218 0.4278,1.0958 C0.4278,0.6688 0.7638,0.3338 1.1908,0.3338" mask="url(#prettier-f)"/>
    </g>
    <g transform="translate(25 18)">
      <mask id="prettier-h" fill="#fff">
        <use xlink:href="#prettier-g"/>
      </mask>
      <path fill="#D0D4D8" d="M1.6664,0.2859 L6.2374,0.2859 C6.6644,0.2859 7.0004,0.6209 7.0004,1.0479 C7.0004,1.4739 6.6644,1.8089 6.2374,1.8089 L1.6664,1.8089 C1.2394,1.8089 0.9044,1.4739 0.9044,1.0479 C0.9044,0.6209 1.2394,0.2859 1.6664,0.2859" mask="url(#prettier-h)"/>
    </g>
    <g transform="translate(25 3)">
      <mask id="prettier-j" fill="#fff">
        <use xlink:href="#prettier-i"/>
      </mask>
      <path fill="#D0D4D8" d="M1.6664,0.0477 L6.2374,0.0477 C6.6644,0.0477 7.0004,0.3827 7.0004,0.8097 C7.0004,1.2357 6.6644,1.5707 6.2374,1.5707 L1.6664,1.5707 C1.2394,1.5707 0.9044,1.2357 0.9044,0.8097 C0.9044,0.3827 1.2394,0.0477 1.6664,0.0477" mask="url(#prettier-j)"/>
    </g>
    <g transform="translate(27 15)">
      <mask id="prettier-l" fill="#fff">
        <use xlink:href="#prettier-k"/>
      </mask>
      <path fill="#D0D4D8" d="M1.1908,0.2381 L4.2378,0.2381 C4.6648,0.2381 5.0008,0.5731 5.0008,1.0001 C5.0008,1.4261 4.6648,1.7611 4.2378,1.7611 L1.1908,1.7611 C0.7638,1.7611 0.4278,1.4261 0.4278,1.0001 C0.4278,0.5731 0.7638,0.2381 1.1908,0.2381" mask="url(#prettier-l)"/>
    </g>
    <g transform="translate(27 6)">
      <mask id="prettier-n" fill="#fff">
        <use xlink:href="#prettier-m"/>
      </mask>
      <path fill="#D0D4D8" d="M1.1908,0.0955 L4.2378,0.0955 C4.6648,0.0955 5.0008,0.4305 5.0008,0.8575 C5.0008,1.2835 4.6648,1.6185 4.2378,1.6185 L1.1908,1.6185 C0.7638,1.6185 0.4278,1.2835 0.4278,0.8575 C0.4278,0.4305 0.7638,0.0955 1.1908,0.0955" mask="url(#prettier-n)"/>
    </g>
    <g transform="translate(28 9)">
      <mask id="prettier-p" fill="#fff">
        <use xlink:href="#prettier-o"/>
      </mask>
      <path fill="#D0D4D8" d="M1.7143,0.1424 L3.2373,0.1424 C3.6643,0.1424 4.0003,0.4784 4.0003,0.9054 C4.0003,1.3314 3.6643,1.6664 3.2373,1.6664 L1.7143,1.6664 C1.2873,1.6664 0.9523,1.3314 0.9523,0.9054 C0.9523,0.4784 1.2873,0.1424 1.7143,0.1424" mask="url(#prettier-p)"/>
    </g>
    <g transform="translate(28 12)">
      <mask id="prettier-r" fill="#fff">
        <use xlink:href="#prettier-q"/>
      </mask>
      <path fill="#D0D4D8" d="M1.7143,0.1902 L3.2373,0.1902 C3.6643,0.1902 4.0003,0.5262 4.0003,0.9522 C4.0003,1.3782 3.6643,1.7142 3.2373,1.7142 L1.7143,1.7142 C1.2873,1.7142 0.9523,1.3782 0.9523,0.9522 C0.9523,0.5262 1.2873,0.1902 1.7143,0.1902" mask="url(#prettier-r)"/>
    </g>
    <g transform="translate(16 24)">
      <mask id="prettier-t" fill="#fff">
        <use xlink:href="#prettier-s"/>
      </mask>
      <path fill="#D0D4D8" d="M1.5238,0.3807 L15.2378,0.3807 C15.6648,0.3807 16.0008,0.7167 16.0008,1.1427 C16.0008,1.5687 15.6648,1.9047 15.2378,1.9047 L1.5238,1.9047 C1.0968,1.9047 0.7618,1.5687 0.7618,1.1427 C0.7618,0.7167 1.0968,0.3807 1.5238,0.3807" mask="url(#prettier-t)"/>
    </g>
    <path fill="#D0D4D8" d="M11.4281,24.3807 L14.4761,24.3807 C14.9031,24.3807 15.2381,24.7167 15.2381,25.1427 C15.2381,25.5687 14.9031,25.9047 14.4761,25.9047 L11.4281,25.9047 C11.0021,25.9047 10.6661,25.5687 10.6661,25.1427 C10.6661,24.7167 11.0021,24.3807 11.4281,24.3807"/>
    <g transform="translate(22 30)">
      <mask id="prettier-v" fill="#fff">
        <use xlink:href="#prettier-u"/>
      </mask>
      <path fill="#D0D4D8" d="M1.6186,0.4764 L9.2376,0.4764 C9.6646,0.4764 10.0006,0.8114 10.0006,1.2384 C10.0006,1.6644 9.6646,1.9994 9.2376,1.9994 L1.6186,1.9994 C1.1926,1.9994 0.8566,1.6644 0.8566,1.2384 C0.8566,0.8114 1.1926,0.4764 1.6186,0.4764" mask="url(#prettier-v)"/>
    </g>
    <path fill="#D0D4D8" d="M11.4281 30.4764L20.5721 30.4764C20.9981 30.4764 21.3331 30.8114 21.3331 31.2384 21.3331 31.6644 20.9981 31.9994 20.5721 31.9994L11.4281 31.9994C11.0021 31.9994 10.6661 31.6644 10.6661 31.2384 10.6661 30.8114 11.0021 30.4764 11.4281 30.4764M11.4281 9.1424L16.0001 9.1424C16.4261 9.1424 16.7621 9.4784 16.7621 9.9054 16.7621 10.3314 16.4261 10.6664 16.0001 10.6664L11.4281 10.6664C11.0021 10.6664 10.6661 10.3314 10.6661 9.9054 10.6661 9.4784 11.0021 9.1424 11.4281 9.1424M11.4281 12.1902L16.0001 12.1902C16.4261 12.1902 16.7621 12.5262 16.7621 12.9522 16.7621 13.3782 16.4261 13.7142 16.0001 13.7142L11.4281 13.7142C11.0021 13.7142 10.6661 13.3782 10.6661 12.9522 10.6661 12.5262 11.0021 12.1902 11.4281 12.1902"/>
  </g>
</svg>
