<svg width="40" height="40" viewBox="0 0 40 40" fill="none" xmlns="http://www.w3.org/2000/svg">
<g clip-path="url(#clip0_1_2)">
<path fill-rule="evenodd" clip-rule="evenodd" d="M3.48645 27.5659C2.41369 25.2509 1.81494 22.6722 1.81494 19.9548C1.81494 19.2515 1.85497 18.5575 1.93307 17.875C2.01229 17.1853 2.12968 16.5085 2.2829 15.8466C3.14398 12.1333 5.1468 8.85543 7.90066 6.40355C10.2138 4.34684 13.0476 2.87947 16.1539 2.21435C17.3798 1.95248 18.6514 1.81471 19.9549 1.81471C20.4118 1.81518 20.872 1.83277 21.335 1.86805C23.5305 2.03571 25.605 2.58838 27.4978 3.45485C29.0246 4.1547 30.4378 5.06018 31.7017 6.13592C34.8766 8.84054 37.091 12.6081 37.8273 16.8359C38.0032 17.8493 38.0949 18.8914 38.0949 19.9548C38.0946 20.4124 38.0769 20.8733 38.0415 21.3369C37.9077 23.0893 37.5287 24.7646 36.9404 26.3319C36.1195 28.515 34.8895 30.4983 33.344 32.1886C31.3339 34.2411 28.7796 35.1543 26.6462 35.1163C25.0948 35.0887 23.5769 34.4714 22.528 33.5682C21.0296 32.2779 20.4243 30.803 20.2169 29.1572C20.1654 28.7481 20.1956 27.6332 20.4085 26.8613C20.5672 26.2859 20.9697 25.1747 21.5584 24.6887C20.8698 24.3921 19.9836 23.7464 19.7042 23.4364C19.6356 23.3601 19.6444 23.2409 19.7059 23.1588C19.7674 23.0767 19.8753 23.0443 19.9718 23.079C20.5638 23.2822 21.2848 23.4827 22.0449 23.6098C23.0447 23.7769 24.2881 23.9875 25.5477 24.0494C28.6188 24.2002 31.8268 22.8216 32.8224 20.0789C33.818 17.3362 33.4318 14.6234 29.86 12.9961C26.2881 11.3688 24.6382 9.43408 21.7523 8.26711C19.8673 7.5048 17.7692 7.95731 15.6153 9.14773C9.81336 12.354 4.61535 22.4845 7.01156 31.8702C7.04582 31.9986 6.98801 32.1338 6.87146 32.1978C6.76236 32.2577 6.62803 32.2406 6.53755 32.1577C5.84022 31.3915 5.20758 30.5655 4.64821 29.6882C4.21544 29.0092 3.82697 28.3003 3.48645 27.5659Z" fill="black"/>
<path fill-rule="evenodd" clip-rule="evenodd" d="M20.8822 0.021937C31.8836 0.533695 40.3998 9.8809 39.8881 20.8823C39.3763 31.8836 30.0291 40.3997 19.0278 39.8879C8.02641 39.3762 -0.489841 30.0291 0.0219166 19.0278C0.533675 8.02642 9.88088 -0.489821 20.8822 0.021937ZM25.5478 24.0496C24.2882 23.9876 23.0448 23.7771 22.0451 23.61C21.2849 23.4828 20.5639 23.2824 19.972 23.0792C19.8754 23.0445 19.7675 23.0769 19.706 23.1589C19.6445 23.2411 19.6356 23.3604 19.7043 23.4366C19.9837 23.7466 20.8699 24.3923 21.5584 24.6889C20.9698 25.1749 20.5673 26.2862 20.4086 26.8615C20.1957 27.6334 20.1654 28.7482 20.217 29.1574C20.4244 30.8032 21.0297 32.2781 22.5281 33.5684C23.577 34.4716 25.0949 35.0889 26.6462 35.1165C28.7871 35.1546 31.3518 34.235 33.3651 32.1675C35.9972 29.2818 37.7216 25.5296 38.0417 21.3371C38.804 11.3542 31.318 2.63044 21.3351 1.86817C11.3522 1.10589 2.62851 8.59192 1.86622 18.5748C1.47144 23.7447 3.28885 28.577 6.51994 32.1403C6.60992 32.2381 6.75504 32.2619 6.87153 32.198C6.98803 32.1341 7.04585 31.9988 7.01158 31.8704C4.61541 22.4846 9.81344 12.3541 15.6153 9.14785C17.7693 7.95743 19.8673 7.50492 21.7523 8.26719C24.6383 9.43415 26.2882 11.3689 29.8601 12.9963C33.432 14.6235 33.8182 17.3364 32.8226 20.0791C31.8269 22.8218 28.619 24.2004 25.5478 24.0496ZM19.2977 9.53171C18.1272 9.62331 17.3586 11.0722 17.2579 12.0042C17.1569 12.9362 17.6194 14.4745 19.1447 14.4444C20.9309 14.4092 21.4736 12.8803 21.2776 11.4009C21.1306 10.2898 20.2764 9.45501 19.2977 9.53171Z" fill="white"/>
<path fill-rule="evenodd" clip-rule="evenodd" d="M19.3058 9.52614C20.2844 9.44946 21.1382 10.2847 21.2854 11.3955C21.4817 12.8752 20.9387 14.4037 19.1529 14.4389C17.6274 14.4693 17.1652 12.9309 17.2662 11.999C17.3667 11.067 18.1349 9.61804 19.3058 9.52614Z" fill="black"/>
</g>
<defs>
<clipPath id="clip0_1_2">
<rect width="40" height="40" fill="white"/>
</clipPath>
</defs>
</svg>
