<svg xmlns="http://www.w3.org/2000/svg" width="16" height="16" viewBox="0 0 16 16">
  <g fill="none" transform="translate(1 .5)">
    <polygon fill="#B3B3B3" points="6.975 14.779 .041 12.339 1.137 3.254 6.983 .041 12.858 3.298 13.954 12.382" transform="matrix(1 0 0 -1 0 14.82)"/>
    <polygon fill="#AF2B2D" points="13.262 11.862 6.959 14.011 6.959 .814 12.241 3.737" transform="matrix(1 0 0 -1 0 14.826)"/>
    <polygon fill="#DF2E31" points=".819 11.823 1.758 3.698 6.959 .814 6.959 14.011 .819 11.823" transform="matrix(1 0 0 -1 0 14.825)"/>
    <path fill="#F2F2F2" d="M8.42008876,4.74565828 L6.97059172,7.77264053 L5.69454142,4.74565828 L8.42008876,4.74565828 Z M8.97273669,3.47286982 L5.13045118,3.47286982 L4.27088018,1.32285503 L2.67196006,1.29329142 L6.95914941,10.8305843 L11.3957618,1.29329142 L9.91380178,1.29329142 L8.97273669,3.47286982 Z" transform="matrix(1 0 0 -1 0 12.124)"/>
    <polygon fill="#B3B3B3" points="6.959 10.859 6.971 7.801 8.419 4.772 6.962 4.772 6.959 3.504 8.973 3.502 9.914 1.322 11.444 1.293" transform="matrix(1 0 0 -1 0 12.153)"/>
  </g>
</svg>
