<svg xmlns="http://www.w3.org/2000/svg" width="16" height="16" viewBox="0 0 16 16">
  <g fill="none" fill-rule="evenodd">
    <path fill="#9AA7B0" fill-opacity=".8" d="M15,13.25 L15,15 L15,13.25 Z M6,15 L1,15 L1,13.25 C1,11.4842411 3.68422361,10.383243 6,9.95464698 L6,15 Z M8,8 C6.06625,8 4.5,6.43375 4.5,4.5 C4.5,2.56625 6.06625,1 8,1 C9.93375,1 11.5,2.56625 11.5,4.5 C11.5,6.43375 9.93375,8 8,8 Z"/>
    <path fill="#9AA7B0" d="M7,15 L7,11.0283688 L7.80567376,11.0283688 L9.66666667,13.4737589 L9.66666667,11.0283688 L10.529078,11.0283688 L10.529078,15 L9.7858156,15 L7.86241135,12.4751773 L7.86241135,15 L7,15 Z M11.141844,15 L12.8439716,11 L13.6496454,11 L15.351773,15 L14.4382979,15 L14.0751773,14.1092199 L12.3957447,14.1092199 L12.0326241,15 L11.141844,15 Z M12.7078014,13.3375887 L13.7631206,13.3375887 L13.235461,12.0496454 L12.7078014,13.3375887 Z"/>
  </g>
</svg>
