<svg xmlns="http://www.w3.org/2000/svg" width="16" height="16" viewBox="0 0 16 16">
  <path fill="#9AA7B0" fill-rule="evenodd" d="M4.576,12.916 C2.574,12.553 2.079,11.849 2.079,10.727 C2.079,10.562 2.101,10.122 2.101,9.935 C2.101,9.077 1.771,8.714 0.858,8.714 L0.572,8.714 L0.572,7.702 L0.858,7.702 C1.771,7.702 2.101,7.339 2.101,6.481 C2.101,6.294 2.079,5.854 2.079,5.689 C2.079,4.567 2.574,3.863 4.576,3.5 L4.807,4.38 C3.487,4.743 3.311,5.084 3.311,5.887 C3.311,6.107 3.333,6.47 3.333,6.701 C3.333,7.559 2.915,7.977 2.189,8.208 C2.926,8.45 3.333,8.857 3.333,9.715 C3.333,9.946 3.311,10.309 3.311,10.529 C3.311,11.332 3.487,11.673 4.807,12.036 L4.576,12.916 Z M8.933,12.916 C6.931,12.553 6.436,11.849 6.436,10.727 C6.436,10.562 6.458,10.122 6.458,9.935 C6.458,9.077 6.128,8.714 5.215,8.714 L4.929,8.714 L4.929,7.702 L5.215,7.702 C6.128,7.702 6.458,7.339 6.458,6.481 C6.458,6.294 6.436,5.854 6.436,5.689 C6.436,4.567 6.931,3.863 8.933,3.5 L9.164,4.38 C7.844,4.743 7.668,5.084 7.668,5.887 C7.668,6.107 7.69,6.47 7.69,6.701 C7.69,7.559 7.272,7.977 6.546,8.208 C7.283,8.45 7.69,8.857 7.69,9.715 C7.69,9.946 7.668,10.309 7.668,10.529 C7.668,11.332 7.844,11.673 9.164,12.036 L8.933,12.916 Z"/>
</svg>
