<svg xmlns="http://www.w3.org/2000/svg" width="16" height="16" viewBox="0 0 16 16">
  <path fill="#9AA7B0" fill-rule="evenodd" d="M4.576,12.916 C2.574,12.553 2.079,11.849 2.079,10.727 C2.079,10.562 2.101,10.122 2.101,9.935 C2.101,9.077 1.771,8.714 0.858,8.714 L0.572,8.714 L0.572,7.702 L0.858,7.702 C1.771,7.702 2.101,7.339 2.101,6.481 C2.101,6.294 2.079,5.854 2.079,5.689 C2.079,4.567 2.574,3.863 4.576,3.5 L4.807,4.38 C3.487,4.743 3.311,5.084 3.311,5.887 C3.311,6.107 3.333,6.47 3.333,6.701 C3.333,7.559 2.915,7.977 2.189,8.208 C2.926,8.45 3.333,8.857 3.333,9.715 C3.333,9.946 3.311,10.309 3.311,10.529 C3.311,11.332 3.487,11.673 4.807,12.036 L4.576,12.916 Z M8.83299998,12.916 C6.83099998,12.553 6.33599998,11.849 6.33599998,10.727 C6.33599998,10.562 6.35799998,10.122 6.35799998,9.935 C6.35799998,9.077 6.02799998,8.714 5.11499998,8.714 L4.82899998,8.714 L4.82899998,7.702 L5.11499998,7.702 C6.02799998,7.702 6.35799998,7.339 6.35799998,6.481 C6.35799998,6.294 6.33599998,5.854 6.33599998,5.689 C6.33599998,4.567 6.83099998,3.863 8.83299998,3.5 L9.06399998,4.38 C7.74399998,4.743 7.56799998,5.084 7.56799998,5.887 C7.56799998,6.107 7.58999998,6.47 7.58999998,6.701 C7.58999998,7.559 7.17199998,7.977 6.44599998,8.208 C7.18299998,8.45 7.58999998,8.857 7.58999998,9.715 C7.58999998,9.946 7.56799998,10.309 7.56799998,10.529 C7.56799998,11.332 7.74399998,11.673 9.06399998,12.036 L8.83299998,12.916 Z M15.378,8.85 L15.378,9.994 L14.069,9.994 L13.772,11.765 L12.595,11.765 L12.892,9.994 L11.099,9.994 L10.802,11.765 L9.62499995,11.765 L9.92199995,9.994 L8.94299995,9.994 L8.94299995,8.85 L10.12,8.85 L10.45,6.936 L9.34999995,6.936 L9.34999995,5.792 L10.648,5.792 L10.945,4.065 L12.122,4.065 L11.825,5.792 L13.618,5.792 L13.915,4.065 L15.092,4.065 L14.795,5.792 L15.785,5.792 L15.785,6.936 L14.597,6.936 L14.267,8.85 L15.378,8.85 Z M11.616,6.903 L11.275,8.883 L13.112,8.883 L13.453,6.903 L11.616,6.903 Z"/>
</svg>
