<svg xmlns="http://www.w3.org/2000/svg" width="16" height="16" viewBox="0 0 16 16">
  <g fill="none" fill-opacity=".9" fill-rule="evenodd">
    <path fill="#7F8B91" d="M4.737,13 C2.724,12.6261682 2.163,11.8785047 2.163,10.6869159 C2.163,10.5116822 2.196,10.0794393 2.196,9.88084112 C2.196,8.96962617 1.844,8.67757009 0.986,8.67757009 L0.5,8.67757009 L0.5,7.32242991 L0.986,7.32242991 C1.844,7.32242991 2.196,7.03037383 2.196,6.11915888 C2.196,5.92056075 2.163,5.48831776 2.163,5.31308411 C2.163,4.12149533 2.724,3.37383178 4.737,3 L5.034,4.17990654 C3.868,4.53037383 3.692,4.85747664 3.692,5.57009346 C3.692,5.80373832 3.725,6.18925234 3.725,6.43457944 C3.725,7.28738318 3.318,7.74299065 2.581,8 C3.318,8.25700935 3.725,8.71261682 3.725,9.56542056 C3.725,9.81074766 3.692,10.1962617 3.692,10.4299065 C3.692,11.1425234 3.868,11.4696262 5.034,11.8200935 L4.737,13 Z"/>
    <path fill="#7F8B91" d="M8.737,13 C6.724,12.6261682 6.163,11.8785047 6.163,10.6869159 C6.163,10.5116822 6.196,10.0794393 6.196,9.88084112 C6.196,8.96962617 5.844,8.67757009 4.986,8.67757009 L4.5,8.67757009 L4.5,7.32242991 L4.986,7.32242991 C5.844,7.32242991 6.196,7.03037383 6.196,6.11915888 C6.196,5.92056075 6.163,5.48831776 6.163,5.31308411 C6.163,4.12149533 6.724,3.37383178 8.737,3 L9.034,4.17990654 C7.868,4.53037383 7.692,4.85747664 7.692,5.57009346 C7.692,5.80373832 7.725,6.18925234 7.725,6.43457944 C7.725,7.28738318 7.318,7.74299065 6.581,8 C7.318,8.25700935 7.725,8.71261682 7.725,9.56542056 C7.725,9.81074766 7.692,10.1962617 7.692,10.4299065 C7.692,11.1425234 7.868,11.4696262 9.034,11.8200935 L8.737,13 Z"/>
    <polygon fill="#7F8B91" points="10 5.484 11.776 3 13.024 3 14.8 5.484 13.48 5.484 12.388 4.08 11.296 5.484"/>
  </g>
</svg>
