<svg id="Layer_1" data-name="Layer 1" xmlns="http://www.w3.org/2000/svg" width="16" height="16" viewBox="0 0 16 16">
  <title>dart_file</title>
  <g>
    <g>
      <polygon points="7 1 3 5 7 5 7 1" fill="#9aa7b0" opacity="0.8" style="isolation: isolate"/>
      <path d="M7.48145,13.59766a1.84931,1.84931,0,0,1-.27833-2.06348L8.14844,9.5625l.55468-1.01562.85938-.39844L11.52441,7.208A1.99641,1.99641,0,0,1,12.3916,7,1.73515,1.73515,0,0,1,13,7.124V1H8V6H3v9H8.84082Z" fill="#9aa7b0" opacity="0.8" style="isolation: isolate"/>
    </g>
    <g>
      <g>
        <path d="M9.90053,9.90082,9.356,9.35627l.00337,3.94163c.00274.42628-.02681.77982.18979.99641l.29211.29211,4.721-.02412L9.90053,9.90082" fill="#70b4f4"/>
        <path d="M9.43379,13.73846l.00026.00026-.00121-.00557Zm.40746.848L11.25482,16h3.33363l-.02624-1.4377Z" fill="#7cc1fd"/>
        <path d="M9.35935,13.29789,9.356,9.35628h0L8.109,11.95742a.88773.88773,0,0,0,.21868,1.11545l1.22144,1.22144C9.33254,14.07772,9.36209,13.72418,9.35935,13.29789Z" fill="#305699"/>
      </g>
      <g>
        <path d="M9.90063,9.90072l4.66148,4.66168.02413-4.721-.29212-.29211c-.21659-.21659-.57013-.187-.99641-.18979L9.35608,9.35617l.54455.54455" fill="#305699"/>
        <path d="M14.56211,14.5624,16,14.58865V11.255L14.58624,9.84144Z" fill="#305699"/>
        <path d="M13.29771,9.35954,9.35609,9.35617h0l2.60115-1.247a.88773.88773,0,0,1,1.11545.21868l1.22144,1.22145C14.07753,9.33274,13.724,9.36228,13.29771,9.35954Z" fill="#7cc1fd"/>
      </g>
    </g>
  </g>
</svg>
