<svg xmlns="http://www.w3.org/2000/svg" xmlns:xlink="http://www.w3.org/1999/xlink" width="16" height="16" viewBox="0 0 16 16">
  <defs>
    <polygon id="dart_file-a" points=".29 .019 5.446 .019 5.446 2.286 .29 2.286"/>
    <polygon id="dart_file-c" points="0 .213 1.549 .213 1.549 5.151 0 5.151"/>
    <polygon id="dart_file-e" points=".214 .213 6.857 .213 6.857 5.446 .214 5.446"/>
    <polygon id="dart_file-g" points=".214 0 5.151 0 5.151 1.549 .214 1.549"/>
  </defs>
  <g fill="none" fill-rule="evenodd">
    <polygon fill="#9AA7B0" fill-opacity=".8" points="7 1 3 5 7 5"/>
    <path fill="#9AA7B0" fill-opacity=".8" d="M7.4814,13.5977 C7.0294,13.1357 6.8614,12.2657 7.2034,11.5347 L8.7034,8.5467 L11.5244,7.2077 C11.8254,7.0667 12.1054,6.9997 12.3914,6.9997 C12.5604,6.9997 12.7714,7.0357 13.0004,7.1237 L13.0004,0.9997 L8.0004,0.9997 L8.0004,5.9997 L3.0004,5.9997 L3.0004,14.9997 L8.8404,14.9997 L7.4814,13.5977 Z"/>
    <g transform="translate(8 8)">
      <path fill="#70B4F4" d="M1.90028571,1.90068571 L1.35628571,1.35611429 L1.35971429,5.29782857 C1.36257143,5.72411429 1.33285714,6.07782857 1.54942857,6.29382857 L1.84085714,6.5864 L6.562,6.5624 L1.90028571,1.90068571"/>
      <g transform="translate(1.143 5.714)">
        <mask id="dart_file-b" fill="#fff">
          <use xlink:href="#dart_file-a"/>
        </mask>
        <path fill="#7CC1FD" d="M0.698285714,0.872228571 L2.112,2.28594286 L5.44571429,2.28594286 L5.41942857,0.848228571 L0.698285714,0.872228571 Z M0.290857143,0.0242285714 L0.291428571,0.0248 C0.290857143,0.0230857143 0.289714286,0.0208 0.289714286,0.0190857143 C0.289714286,0.0208 0.290285714,0.0225142857 0.290857143,0.0242285714 Z" mask="url(#dart_file-b)"/>
      </g>
      <g transform="translate(0 1.143)">
        <mask id="dart_file-d" fill="#fff">
          <use xlink:href="#dart_file-c"/>
        </mask>
        <path fill="#5070A8" d="M1.35954286,4.15514286 L1.35611429,0.213428571 L0.109257143,2.81457143 C-0.0364571429,3.12485714 -0.0981714286,3.50428571 0.327542857,3.92942857 L1.54925714,5.15114286 C1.33268571,4.93457143 1.3624,4.58142857 1.35954286,4.15514286" mask="url(#dart_file-d)"/>
      </g>
      <g transform="translate(1.143 1.143)">
        <mask id="dart_file-f" fill="#fff">
          <use xlink:href="#dart_file-e"/>
        </mask>
        <path fill="#5070A8" d="M5.44325714,0.698685714 L5.15125714,0.406114286 C4.93468571,0.189542857 4.58154286,0.219257143 4.15525714,0.2164 L0.213542857,0.212971429 L0.758114286,0.758114286 L5.41925714,5.41982857 L6.85754286,5.44611429 L6.85754286,2.1124 L5.44325714,0.698685714 Z" mask="url(#dart_file-f)"/>
      </g>
      <g transform="translate(1.143)">
        <mask id="dart_file-h" fill="#fff">
          <use xlink:href="#dart_file-g"/>
        </mask>
        <path fill="#7CC1FD" d="M4.15474286,1.35937143 L0.2136,1.35594286 L2.81417143,0.109085714 C3.12502857,-0.0366285714 3.50445714,-0.0977714286 3.9296,0.327371429 L5.15131429,1.54908571 C4.93474286,1.33251429 4.58102857,1.36222857 4.15474286,1.35937143" mask="url(#dart_file-h)"/>
      </g>
    </g>
  </g>
</svg>
