<?xml version="1.0" encoding="utf-8"?>
<!-- Generator: Adobe Illustrator 22.1.0, SVG Export Plug-In . SVG Version: 6.00 Build 0)  -->
<svg version="1.1" id="Layer_1" xmlns="http://www.w3.org/2000/svg" xmlns:xlink="http://www.w3.org/1999/xlink" x="0px" y="0px"
	 viewBox="0 0 16 16" style="enable-background:new 0 0 16 16;" xml:space="preserve">
<style type="text/css">
	.st0{opacity:0.9;}
	.st1{fill:#70B4F4;}
	.st2{fill:#7CC1FD;}
	.st3{fill:#305699;}
</style>
<g class="st0">
	<g>
		<path class="st1" d="M4.3,4.3l-1-1l0,6.9c0,0.7,0,1.4,0.3,1.7l0.5,0.5l8.3,0L4.3,4.3"/>
		<path class="st2" d="M3.5,11L3.5,11C3.5,11,3.5,11,3.5,11C3.5,11,3.5,11,3.5,11z M4.2,12.5L6.7,15h5.8l0-2.5L4.2,12.5z"/>
		<path class="st3" d="M3.4,10.3l0-6.9l0,0L1.2,7.9c-0.3,0.5-0.4,1.2,0.4,2L3.7,12C3.3,11.6,3.4,11,3.4,10.3z"/>
	</g>
	<g>
		<path class="st3" d="M4.3,4.3l8.2,8.2l0-8.3L12,3.7c-0.4-0.4-1-0.3-1.7-0.3l-6.9,0L4.3,4.3"/>
		<path class="st3" d="M12.5,12.5l2.5,0V6.7l-2.5-2.5L12.5,12.5z"/>
		<path class="st2" d="M10.3,3.4l-6.9,0l0,0l4.6-2.2c0.5-0.3,1.2-0.4,2,0.4L12,3.7C11.6,3.3,11,3.4,10.3,3.4z"/>
	</g>
</g>
</svg>
