<svg id="Layer_1" data-name="Layer 1" xmlns="http://www.w3.org/2000/svg" width="16" height="16" viewBox="0 0 16 16">
  <title>dart_remote</title>
  <g>
    <path d="M7.14062,13H2V5H4V3H1V14H7.84082A9.12473,9.12473,0,0,1,7.14062,13Z" fill="#9aa7b0" opacity="0.7" style="isolation: isolate"/>
    <rect x="5" y="8" width="1" height="3" fill="#9aa7b0" opacity="0.7"/>
    <polygon points="14 7.842 15 8.842 15 1 5 1 5 5 6 5 6 3 14 3 14 7.842" fill="#9aa7b0" opacity="0.8" style="isolation: isolate"/>
    <path d="M13,6.50391,10,4V6H5A2.00575,2.00575,0,0,0,3,8v3H4V8A1.00115,1.00115,0,0,1,5,7H8l2-.00293V8.99951Z" fill="#5c7180" style="isolation: isolate"/>
    <g>
      <g>
        <path d="M9.90053,9.90082,9.356,9.35627l.00337,3.94163c.00274.42628-.02681.77982.18979.99641l.29211.29211,4.721-.02412L9.90053,9.90082" fill="#70b4f4"/>
        <path d="M9.43379,13.73846l.00026.00026-.00121-.00557Zm.40746.848L11.25482,16h3.33363l-.02624-1.4377Z" fill="#7cc1fd"/>
        <path d="M9.35935,13.29789,9.356,9.35628h0L8.109,11.95742a.88773.88773,0,0,0,.21868,1.11545l1.22144,1.22144C9.33254,14.07772,9.36209,13.72418,9.35935,13.29789Z" fill="#305699"/>
      </g>
      <g>
        <path d="M9.90063,9.90072l4.66148,4.66168.02413-4.721-.29212-.29211c-.21659-.21659-.57013-.187-.99641-.18979L9.35608,9.35617l.54455.54455" fill="#305699"/>
        <path d="M14.56211,14.5624,16,14.58865V11.255L14.58624,9.84144Z" fill="#305699"/>
        <path d="M13.29771,9.35954,9.35609,9.35617h0l2.60115-1.247a.88773.88773,0,0,1,1.11545.21868l1.22144,1.22145C14.07753,9.33274,13.724,9.36228,13.29771,9.35954Z" fill="#7cc1fd"/>
      </g>
    </g>
  </g>
</svg>
