<svg id="Layer_1" data-name="Layer 1" xmlns="http://www.w3.org/2000/svg" width="12.99983" height="15" viewBox="0 0 12.99983 15">
  <title>dart_file_dark</title>
  <g>
    <g>
      <polygon points="4 0 0 4 4 4 4 0" fill="#9aa7b0" opacity="0.8" style="isolation: isolate"/>
      <path d="M7.48161,13.59766a1.84929,1.84929,0,0,1-.27832-2.06348L8.1486,9.5625l.55469-1.01563.85938-.39843L11.52458,7.208A1.99638,1.99638,0,0,1,12.39177,7a1.73524,1.73524,0,0,1,.6084.124V1h-5V6h-5v9H8.841Z" transform="translate(-3.00017 -1)" fill="#9aa7b0" opacity="0.8" style="isolation: isolate"/>
    </g>
    <g>
      <g>
        <path d="M9.90053,9.90082,9.356,9.35627l.00337,3.94163c.00274.42628-.02681.77982.18979.99641l.29211.29211,4.721-.02412L9.90053,9.90082" transform="translate(-3.00017 -1)" fill="#70b4f4"/>
        <path d="M9.43379,13.73846l.00026.00026-.00121-.00557Zm.40746.848L11.25482,16h3.33363l-.02624-1.4377Z" transform="translate(-3.00017 -1)" fill="#7cc1fd"/>
        <path d="M9.35935,13.29789,9.356,9.35628h0L8.109,11.95742a.88773.88773,0,0,0,.21868,1.11545l1.22144,1.22144C9.33254,14.07772,9.36209,13.72418,9.35935,13.29789Z" transform="translate(-3.00017 -1)" fill="#5070a8"/>
      </g>
      <g>
        <path d="M9.90063,9.90072l4.66148,4.66168.02413-4.721-.29212-.29211c-.21659-.21659-.57013-.187-.99641-.18979L9.35608,9.35617l.54455.54455" transform="translate(-3.00017 -1)" fill="#5070a8"/>
        <path d="M14.56211,14.5624,16,14.58865V11.255L14.58624,9.84144Z" transform="translate(-3.00017 -1)" fill="#5070a8"/>
        <path d="M13.29771,9.35954,9.35609,9.35617h0l2.60115-1.247a.88773.88773,0,0,1,1.11545.21868l1.22144,1.22145C14.07753,9.33274,13.724,9.36228,13.29771,9.35954Z" transform="translate(-3.00017 -1)" fill="#7cc1fd"/>
      </g>
    </g>
  </g>
</svg>
