<svg xmlns="http://www.w3.org/2000/svg" width="13" height="13" viewBox="0 0 13 13">
  <g fill="none" fill-rule="evenodd">
    <rect width="9" height="2.8" x="2" y="1.2" fill="#AFB1B3"/>
    <path fill="#AFB1B3" d="M6.45349495 4.79999995C5.41312153 5.40057723 4.63551333 6.40549103 4.33541181 7.5999999L2 7.5999999 2 4.79999995 6.45349495 4.79999995zM10.9465047 4.79999995L11 4.79999995 11 4.83137513C10.9822468 4.82079764 10.9644147 4.81033888 10.9465047 4.79999995zM4.20984117 8.39999986C4.20331461 8.49915693 4.19999981 8.59919126 4.19999981 8.69999981 4.19999981 9.62507313 4.47913564 10.4849508 4.95777433 11.1999998L2 11.1999998 2 8.39999986 4.20984117 8.39999986zM11.5598072 11.9872442L11.2476186 12.92381 8.42857115 13 7.03389827 11.4785388 7.03389827 7.46133531 11.5598072 11.9872442zM11.9213623 11.5817682L7.37349233 7.03389827 11.4785387 7.03389827 13 8.42857128 12.92381 11.247619 11.9213623 11.5817682zM6.49152538 6.95318816L6.49152538 10.6000316 6.14285717 10.4857141 5 9.1904761 6.49152538 6.95318816zM10.6000313 6.49152538L6.95318813 6.49152538 9.19047592 5 10.4857139 6.14285717 10.6000313 6.49152538z"/>
  </g>
</svg>
