<svg width="16" height="16" viewBox="0 0 16 16" fill="none" xmlns="http://www.w3.org/2000/svg">
<path d="M11.5964 6.53468C11.7397 6.67825 11.8202 6.87281 11.8202 7.07566C11.8202 7.2785 11.7397 7.47306 11.5964 7.61663C11.452 7.75915 11.2574 7.83921 11.0545 7.83955C10.9541 7.83976 10.8547 7.82018 10.7618 7.78193C10.669 7.74368 10.5846 7.68751 10.5135 7.61663L8.22559 5.32496C8.15228 5.25458 8.09375 5.17027 8.05342 5.07699C8.0131 4.9837 7.9918 4.88331 7.99076 4.78169C7.98973 4.68007 8.00898 4.57926 8.04739 4.48517C8.0858 4.39109 8.1426 4.30561 8.21446 4.23375C8.28632 4.16189 8.3718 4.10509 8.46589 4.06668C8.55997 4.02826 8.66078 4.00901 8.7624 4.01005C8.86402 4.01109 8.96442 4.03239 9.0577 4.07271C9.15099 4.11303 9.23529 4.17157 9.30567 4.24488L11.5964 6.53468Z" fill="white"/>
<path d="M11.5964 10.3542C11.7035 10.4612 11.7764 10.5976 11.8059 10.7461C11.8354 10.8946 11.8202 11.0485 11.7622 11.1883C11.7041 11.3282 11.6059 11.4476 11.4799 11.5316C11.3539 11.6155 11.2059 11.6602 11.0545 11.66H4.94523C4.845 11.6601 4.74573 11.6405 4.65311 11.6022C4.56049 11.5639 4.47633 11.5077 4.40546 11.4368C4.33459 11.3659 4.2784 11.2818 4.2401 11.1891C4.2018 11.0965 4.18215 10.9973 4.18227 10.897V8.22294C4.17869 8.12057 4.19576 8.01852 4.23247 7.92288C4.26917 7.82725 4.32476 7.73998 4.39592 7.66629C4.46708 7.5926 4.55235 7.53399 4.64664 7.49397C4.74094 7.45394 4.84232 7.43331 4.94476 7.43331C5.0472 7.43331 5.14859 7.45394 5.24288 7.49397C5.33718 7.53399 5.42245 7.5926 5.4936 7.66629C5.56476 7.73998 5.62035 7.82725 5.65706 7.92288C5.69376 8.01852 5.71084 8.12057 5.70725 8.22294V10.1331H9.20772L4.40332 5.32221C4.33001 5.25183 4.27148 5.16753 4.23116 5.07424C4.19084 4.98096 4.16953 4.88057 4.1685 4.77894C4.16746 4.67732 4.18671 4.57652 4.22512 4.48243C4.26353 4.38834 4.32033 4.30286 4.3922 4.231C4.46406 4.15914 4.54953 4.10234 4.64362 4.06393C4.73771 4.02552 4.83852 4.00627 4.94014 4.0073C5.04176 4.00834 5.14215 4.02964 5.23544 4.06996C5.32872 4.11029 5.41302 4.16882 5.4834 4.24213L11.5964 10.3542Z" fill="white"/>
<path d="M8 14.431C6.72912 14.4303 5.48698 14.0528 4.43058 13.3463C3.37419 12.6398 2.55096 11.6359 2.06496 10.4616C1.57895 9.28735 1.45198 7.99534 1.7001 6.74891C1.94822 5.50248 2.56029 4.35758 3.45894 3.45893C4.35759 2.56028 5.50248 1.94822 6.74891 1.7001C7.99534 1.45198 9.28735 1.57895 10.4616 2.06495C11.6359 2.55096 12.6398 3.37418 13.3463 4.43058C14.0528 5.48697 14.4303 6.72911 14.431 8C14.4315 8.84467 14.2655 9.68116 13.9425 10.4616C13.6195 11.2421 13.1458 11.9513 12.5485 12.5485C11.9513 13.1458 11.2421 13.6195 10.4616 13.9425C9.68116 14.2655 8.84468 14.4315 8 14.431V14.431ZM8 1C6.61553 1 5.26215 1.41054 4.11101 2.17971C2.95987 2.94888 2.06266 4.04213 1.53285 5.32121C1.00303 6.6003 0.86441 8.00776 1.13451 9.36563C1.4046 10.7235 2.07129 11.9708 3.05026 12.9497C4.02922 13.9287 5.2765 14.5954 6.63437 14.8655C7.99224 15.1356 9.3997 14.997 10.6788 14.4672C11.9579 13.9373 13.0511 13.0401 13.8203 11.889C14.5895 10.7378 15 9.38447 15 8C15 6.14472 14.263 4.36543 12.9511 3.05355C11.6392 1.74167 9.85994 1.00466 8.00466 1.00466" fill="white"/>
</svg>
