<svg xmlns="http://www.w3.org/2000/svg" width="10" height="10" viewBox="0 0 10 10">
  <g fill="none" fill-rule="evenodd" transform="translate(.6)">
    <polygon fill="#202A5A" points="8.317 2.55 4.5 .333 .333 2.667 .333 7.333 4.5 9.667 8.5 7.333 8.5 2.667 8.5 2.467"/>
    <polygon fill="#2C448A" points=".333 2.667 4.5 5 8.5 2.667 4.5 .333"/>
    <polygon fill="#283A79" points="8.5 2.467 7.167 3.167 7.15 3.467 4.5 5 4.5 9.667 8.5 7.333"/>
    <polygon fill="#202A5A" points=".333 2.667 .333 7.333 4.5 9.667 4.5 5"/>
    <polygon fill="#3558A7" points="0 7.333 0 5.833 4.5 8.5 4.5 10"/>
    <polygon fill="#3558A7" points="0 2.667 0 3.5 4.5 6.167 4.5 5.333"/>
    <polygon fill="#416FB5" points="8.833 7.333 8.833 6.5 5.183 4.917 4.5 5.333 4.5 6.15 6.717 7.133 4.5 8.5 4.5 10"/>
    <polygon fill="#477FC1" points="6.717 7.133 6.45 7.033 4.5 8.167 .333 5.833 .333 5.633 0 5.833 4.5 8.5"/>
    <polygon fill="#477FC1" points="1.967 3 4.5 1.5 7.167 3.167 8.5 2.467 4.5 0 0 2.667 4.5 5.333 5.183 4.917"/>
    <polygon fill="#202A5A" points="7.15 3.467 7.167 3.167 4.5 1.5 1.967 3 2.25 3.167 4.5 1.833"/>
  </g>
</svg>
