<svg xmlns="http://www.w3.org/2000/svg" width="16" height="16" viewBox="0 0 16 16">
  <g fill="none" fill-rule="evenodd" transform="translate(1 .2)">
    <polygon fill="#202A5A" points="13.037 3.967 7.1 .519 .619 4.148 .619 11.407 7.1 15.037 13.322 11.407 13.322 4.148 13.322 3.837"/>
    <polygon fill="#2C448A" points=".619 4.148 7.1 7.778 13.322 4.148 7.1 .519"/>
    <polygon fill="#283A79" points="13.322 3.837 11.248 4.926 11.222 5.393 7.1 7.778 7.1 15.037 13.322 11.407"/>
    <polygon fill="#202A5A" points=".619 4.148 .619 11.407 7.1 15.037 7.1 7.778"/>
    <polygon fill="#3558A7" points=".1 11.407 .1 9.074 7.1 13.222 7.1 15.556"/>
    <polygon fill="#3558A7" points=".1 4.148 .1 5.444 7.1 9.593 7.1 8.296"/>
    <polygon fill="#416FB5" points="13.841 11.407 13.841 10.111 8.163 7.648 7.1 8.296 7.1 9.567 10.548 11.096 7.1 13.222 7.1 15.556"/>
    <polygon fill="#477FC1" points="10.548 11.096 10.133 10.941 7.1 12.704 .619 9.074 .619 8.763 .1 9.074 7.1 13.222"/>
    <polygon fill="#477FC1" points="3.159 4.667 7.1 2.333 11.248 4.926 13.322 3.837 7.1 0 .1 4.148 7.1 8.296 8.163 7.648"/>
    <polygon fill="#202A5A" points="11.222 5.393 11.248 4.926 7.1 2.333 3.159 4.667 3.6 4.926 7.1 2.852"/>
  </g>
</svg>
