<svg width="40" height="40" viewBox="0 0 40 40" fill="none" xmlns="http://www.w3.org/2000/svg">
<path fill-rule="evenodd" clip-rule="evenodd" d="M9.59527 33.6057C8.9917 33.3411 8.55249 32.8141 8.42323 32.2405C8.74656 32.02 9.14658 31.9019 9.5416 31.9099C9.7782 31.9142 10.0159 31.9623 10.2419 32.0614C10.4145 32.1498 10.5816 32.2324 10.7541 32.3648C11.3579 32.806 10.9779 33.7879 10.2016 33.7437C9.9862 33.7437 9.81088 33.694 9.59527 33.6057ZM7.26363 35.1087C7.00493 34.4911 7.09389 33.829 7.43876 33.3436C8.04252 33.4761 8.59464 33.8706 8.85353 34.4882C8.93988 34.6647 8.98836 34.8908 8.98836 35.0676C9.03144 35.7291 8.03453 36.1208 7.56022 35.5913C7.43059 35.4591 7.34999 35.2851 7.26363 35.1087ZM7.4785 27.3457C7.65642 27.1306 7.91084 27.0446 8.15209 27.07C8.5549 27.1119 8.93375 27.4423 8.90683 27.9109C8.90683 28.0876 8.85836 28.3137 8.772 28.4901C8.51349 29.1078 8.00129 29.5021 7.3979 29.6346C7.00976 29.1492 6.92341 28.4872 7.1821 27.8695C7.26828 27.6931 7.34943 27.5221 7.4785 27.3457ZM5.71441 35.5913C5.283 36.1649 4.2833 35.7623 4.32657 35.0121C4.32657 34.8357 4.37504 34.6232 4.46121 34.4468C4.71991 33.829 5.23174 33.4347 5.8355 33.3025C6.18037 33.832 6.26951 34.4937 6.01081 35.0676C5.92464 35.2439 5.84348 35.4149 5.71441 35.5913ZM3.03252 33.7849C2.25642 33.829 1.87924 32.905 2.43972 32.4199C2.56898 32.2876 2.73612 32.191 2.95192 32.1029C3.1783 32.0035 3.41546 31.9559 3.65225 31.951C4.04522 31.9441 4.43057 32.0592 4.75724 32.2821C4.67107 32.8557 4.24263 33.3822 3.63906 33.6471C3.46635 33.7353 3.24832 33.7849 3.03252 33.7849ZM3.03307 29.2347C3.24869 29.2347 3.42382 29.2846 3.63943 29.3727C4.243 29.6372 4.6824 30.1643 4.81147 30.7379C4.29426 31.0907 3.59616 31.1815 2.99278 30.9169C2.82025 30.8288 2.65292 30.7322 2.48058 30.5999C1.91471 30.1448 2.21854 29.2705 2.89843 29.2347C2.94375 29.2323 2.9846 29.2291 3.03307 29.2347ZM5.67392 27.3871C5.80337 27.5194 5.88415 27.6931 5.97032 27.8695C6.22902 28.4872 6.14025 29.1496 5.79501 29.6346C5.19163 29.5021 4.63913 29.1078 4.38043 28.4901C4.29407 28.3137 4.24578 28.0876 4.24578 27.9109C4.24578 27.4699 4.62019 27.1496 5.01371 27.1111C5.24994 27.0882 5.49601 27.172 5.67392 27.3871ZM6.56758 25C2.93762 25 0 27.9594 0 31.6161C0 34.8357 2.29096 37.5108 5.3142 38.1059V40C9.24464 39.403 12.7247 36.2599 12.9845 32.134C13.2442 28.008 10.1974 25 6.56758 25Z" fill="#55A76A"/>
<path d="M31.2366 16.986C31.3015 16.994 31.388 16.9765 31.426 17.0153C31.53 17.1233 31.6504 17.2396 31.6994 17.3796C31.8514 17.8075 32.0048 18.2414 32.1018 18.6862C32.3348 19.7632 32.5574 20.8434 32.7434 21.9314C32.8704 22.6713 32.8832 23.4266 32.7522 24.1735C32.5411 25.3822 31.8716 26.1455 30.8489 26.5485C29.887 26.9275 28.9016 27.0262 27.8967 26.8083C27.8017 26.7883 27.7051 26.7679 27.5881 26.7429C27.709 26.572 27.8161 26.4182 27.926 26.2653C28.2369 25.8355 28.4344 25.3574 28.4455 24.7946C28.4515 24.5148 28.5485 24.4439 28.7873 24.5407C29.3603 24.7747 29.9458 24.9215 30.5608 24.8415C31.3095 24.7434 31.8804 24.3562 32.1584 23.5485C32.2714 23.2226 32.3401 22.8758 32.4221 22.5368C32.439 22.4719 32.425 22.3958 32.425 22.3259C32.4072 22.3189 32.3911 22.3123 32.3733 22.3054C32.3183 22.3763 32.2551 22.4404 32.2112 22.5183C32.1132 22.6962 32.0408 22.8914 31.9309 23.0573C31.8109 23.2353 31.6768 23.4146 31.5178 23.5466C31.2158 23.7986 30.8662 23.7573 30.6252 23.4323C30.4932 23.2563 30.3924 23.0361 30.3254 22.8171C30.0894 22.0301 30.001 21.2092 29.883 20.3942C29.7571 19.5224 29.6257 18.6513 29.2678 17.8474C29.2058 17.7094 29.1689 17.555 29.1399 17.404C29.1279 17.349 29.1547 17.2502 29.1916 17.2282C29.2396 17.2004 29.3352 17.1993 29.3752 17.2351C29.4622 17.3121 29.5569 17.4073 29.5979 17.5173C29.7668 17.9742 29.9124 18.4432 30.0774 18.9021C30.2343 19.3409 30.3985 19.7769 30.5754 20.2058C30.6344 20.3488 30.7342 20.4784 30.8342 20.5944C31.1711 20.9823 31.6314 20.8822 31.8254 20.3845C31.9543 20.0566 31.9233 19.7165 31.8713 19.3786C31.7673 18.7027 31.5436 18.0682 31.3157 17.4362C31.2857 17.3562 31.2486 17.277 31.2336 17.194C31.2207 17.1281 31.2346 17.055 31.2366 16.986Z" fill="white"/>
<path d="M11.511 13.0163C11.8299 12.9823 12.0718 13.1128 12.1408 13.4597C12.2068 13.7957 12.2416 14.147 12.2356 14.489C12.2116 15.7139 11.911 16.8474 11.258 17.8493C11.0052 18.237 10.7034 18.571 10.3108 18.7839C9.90879 19.0009 9.5103 19.01 9.12132 18.7351C8.95932 18.6221 8.86953 18.4637 8.86253 18.2507C8.8216 17.1298 9.17527 16.1576 9.79222 15.2917C9.8772 15.1727 9.98774 15.0364 10.1477 15.0964C10.2983 15.1536 10.3229 15.3244 10.3469 15.4802C10.4028 15.8551 10.3231 16.203 10.1692 16.5339C9.99919 16.8989 9.89553 17.283 9.90452 17.696C9.90653 17.821 9.92992 17.9511 9.9719 18.0671C10.0449 18.2711 10.2172 18.3426 10.3772 18.2146C10.5291 18.0916 10.6745 17.9391 10.7815 17.7683C11.2204 17.0653 11.4707 16.271 11.6467 15.445C11.7447 14.983 11.8006 14.5128 11.7756 14.0358C11.7736 14.001 11.7747 13.9662 11.7707 13.9323C11.7127 13.4814 11.4825 13.3333 11.1086 13.5212C10.7016 13.7252 10.3844 14.063 10.0744 14.406C9.3555 15.2039 8.71964 16.0709 8.31663 17.1208C8.0837 17.7246 7.94811 18.3496 8.05394 19.0114C8.11793 19.4204 8.2836 19.7776 8.52854 20.0886C8.75954 20.3836 9.08243 20.4257 9.40843 20.4567C9.9933 20.5117 10.4584 20.2291 10.8723 19.8132C11.4233 19.2592 11.7804 18.5718 11.9934 17.7858C12.0573 17.554 12.1361 17.3281 12.216 17.1032C12.248 17.0133 12.2939 16.9233 12.3498 16.8503C12.3918 16.7943 12.4618 16.7634 12.5198 16.7224C12.5508 16.7852 12.6065 16.847 12.6106 16.9118C12.6546 17.8018 12.9715 18.6139 13.1975 19.4519C13.3465 19.9998 13.4691 20.5518 13.5051 21.1276C13.5701 22.1476 13.2051 22.9073 12.4201 23.4323C11.9265 23.7619 11.3945 23.9829 10.8508 24.1706C9.9857 23.6571 9.02397 23.2976 8.00218 23.1228C7.9571 23.0392 7.91048 22.9561 7.86741 22.8708C7.79951 22.735 7.83531 22.6678 7.96409 22.6189C8.72107 22.3329 9.4807 22.0508 10.2317 21.7448C10.7145 21.5479 11.18 21.2986 11.5989 20.9587C12.1086 20.5437 12.4043 20.0016 12.4133 19.2878C12.4173 18.961 12.4143 18.6332 12.4143 18.3064C12.4043 18.3034 12.393 18.3006 12.383 18.2976C12.2741 18.4925 12.1639 18.6866 12.0549 18.8815C11.714 19.4915 11.3125 20.0409 10.7737 20.4499C10.0148 21.0268 9.19162 21.1981 8.30784 20.8894C7.41384 20.5774 6.93258 19.4965 7.23558 18.5075C7.42959 17.8737 7.74343 17.3074 8.07835 16.7556C8.77728 15.6067 9.5456 14.5221 10.4895 13.6052C10.7854 13.3193 11.0962 13.0614 11.511 13.0163Z" fill="white"/>
<path d="M27.1448 17.1794C27.2877 17.1964 27.4367 17.2296 27.5647 17.2985C28.3826 17.7405 28.9157 18.4196 28.9778 19.4704C29.0078 19.9893 29.0346 20.5085 29.0686 21.1403C29.0466 21.3863 29.0438 21.7485 28.9729 22.0944C28.8849 22.5294 28.6034 22.8112 28.2414 22.9802C27.9455 23.118 27.6909 22.9941 27.469 22.7712C27.1621 22.4612 26.9525 22.0692 26.8196 21.6423C26.5827 20.8746 26.3802 20.0937 26.1623 19.319C26.0513 18.9231 25.9444 18.5236 25.8254 18.1306C25.7795 17.9788 25.7107 17.8349 25.6418 17.694C25.5478 17.5011 25.592 17.3103 25.76 17.2263C25.8799 17.1664 25.9893 17.168 26.0422 17.3269C26.1992 17.7957 26.3511 18.2671 26.5071 18.737C26.643 19.1469 26.7601 19.5677 26.9231 19.9646C27.2081 20.6595 28.111 20.5735 28.383 20.0896C28.5839 19.7346 28.5892 19.3534 28.5012 18.9694C28.3902 18.4906 28.1469 18.0998 27.802 17.7868C27.766 17.7538 27.7277 17.7229 27.6858 17.7009C27.5648 17.6379 27.4895 17.6848 27.4875 17.8327C27.4866 17.9176 27.5068 18.0036 27.5188 18.0896C27.5278 18.1515 27.5431 18.2141 27.5471 18.2771C27.5561 18.4179 27.5664 18.5712 27.4358 18.6472C27.3048 18.7241 27.1823 18.6504 27.0803 18.5524C26.8573 18.3375 26.7088 18.0677 26.6418 17.7497C26.5699 17.3978 26.7978 17.1375 27.1448 17.1794Z" fill="white"/>
<path d="M17.0823 17.4216C17.2108 17.4388 17.267 17.5308 17.2571 17.7155C17.2531 17.7714 17.2447 17.8306 17.2268 17.8845C17.0338 18.4633 16.6766 18.8827 16.1897 19.1696C16.0728 19.2384 15.9552 19.2315 15.8303 19.1726C15.6054 19.0676 15.3786 18.9685 15.1467 18.8835C14.9967 18.8275 14.9216 18.8925 14.9426 19.0524C15.0076 19.5324 15.0877 20.0103 15.3157 20.4353C15.3717 20.5392 15.437 20.6392 15.51 20.7282C15.7819 21.0631 16.068 21.1224 16.4319 20.9255C16.6948 20.7845 16.7773 20.8215 16.8303 21.1374C16.8723 21.3913 16.8941 21.6501 16.925 21.9079C16.9191 21.9079 16.9115 21.9089 16.9055 21.9099C16.9055 21.9677 16.9075 22.0249 16.9055 22.0837C16.8925 22.5747 16.7186 22.7779 16.2746 22.7839C15.6567 22.7928 14.9697 22.2196 14.9387 21.4597C14.9016 20.5459 14.6654 19.6766 14.3664 18.8298C14.3145 18.6841 14.2238 18.5503 14.135 18.4245C14.0041 18.2366 13.985 18.1273 14.1028 17.9235C14.1787 17.7937 14.2648 17.6684 14.3557 17.5495C14.4757 17.3916 14.5242 17.4035 14.5862 17.5935C14.6131 17.6803 14.6265 17.7723 14.6584 17.8571C14.7084 17.9831 14.7594 18.1103 14.8254 18.2263C14.9004 18.3603 15.0131 18.3947 15.1311 18.2907C15.2849 18.1539 15.4315 18.0088 15.5793 17.863C15.6793 17.764 15.7682 17.6464 15.8752 17.5554C16.009 17.4406 16.0569 17.4582 16.1457 17.6159C16.2587 17.8149 16.4586 17.9128 16.6516 17.8698C16.7615 17.8468 16.826 17.7849 16.844 17.656C16.867 17.4881 16.9593 17.4066 17.0823 17.4216Z" fill="white"/>
<path fill-rule="evenodd" clip-rule="evenodd" d="M18.9905 17.4206C19.4125 16.8117 20.4853 16.8525 20.9143 17.5124C21.2662 18.0543 21.4304 18.6622 21.4045 19.319C21.3615 20.411 20.9223 21.2654 20.0793 21.8444C19.7364 22.0804 19.3563 22.1758 18.9553 22.0788C18.4143 21.9468 18.0317 21.4641 17.9377 20.8171C17.9158 20.6702 17.9066 20.519 17.8996 20.4421C17.9047 19.8823 18.0278 19.4232 18.1867 18.9763C18.3877 18.4154 18.6566 17.9025 18.9905 17.4206ZM20.1975 17.444C19.9786 17.3541 19.8 17.5074 19.8039 17.7673C19.8079 17.9773 19.9046 18.1368 20.0256 18.2878C20.1334 18.4237 20.203 18.5796 20.1321 18.7624C20.0551 18.9583 19.901 19.0396 19.717 19.0437C19.4144 19.0515 19.1977 18.8734 19.0168 18.6267C18.9588 18.5477 18.8981 18.4712 18.8391 18.3942C18.8212 18.3992 18.8052 18.4059 18.7873 18.4118C18.7763 18.4766 18.7572 18.5404 18.7532 18.6052C18.6992 19.3482 18.9738 19.9107 19.5178 20.3327C19.7006 20.4754 19.8642 20.4849 20.0491 20.3591C20.442 20.0891 20.7599 19.737 20.9709 19.279C21.0259 19.1621 21.062 19.0124 21.05 18.8835C21.003 18.3945 20.8015 17.9813 20.4856 17.6423C20.4066 17.5563 20.3025 17.4861 20.1975 17.444Z" fill="white"/>
<path fill-rule="evenodd" clip-rule="evenodd" d="M23.6262 16.9773C24.1362 17.0393 24.5284 17.3277 24.8264 17.7917C25.1903 18.3546 25.3879 18.9656 25.3889 19.6355C25.3959 20.0354 25.3041 20.4333 25.1282 20.8093C24.4952 22.1613 23.209 22.1221 22.428 21.4421C21.8963 20.9792 21.6772 20.3654 21.7561 19.6237C21.8231 19.0078 21.9592 18.4116 22.1711 17.8357C22.4441 17.0967 22.8703 16.8843 23.6262 16.9773ZM23.7297 17.2351C23.6388 17.2221 23.5143 17.1997 23.4582 17.2517C23.4053 17.3018 23.3804 17.4648 23.4133 17.5388C23.4883 17.7047 23.6003 17.8519 23.7082 17.9968C23.7712 18.0796 23.86 18.1377 23.9289 18.2155C24.0019 18.2985 24.0021 18.3834 23.9211 18.4714C23.6751 18.7403 23.3001 18.7714 23.0461 18.5095C22.9272 18.3875 22.8461 18.2191 22.7561 18.0651C22.7062 17.9802 22.6749 17.8835 22.636 17.7927C22.6101 17.7947 22.5827 17.7965 22.5569 17.7995C22.5569 18.1074 22.5518 18.4154 22.5588 18.7233C22.5698 19.2073 22.8021 19.5327 23.175 19.7497C23.2719 19.8056 23.3711 19.8551 23.4709 19.906C23.6979 20.0199 23.9256 20.0111 24.1526 19.9011C24.4374 19.7631 24.6908 19.5731 24.8977 19.3132C25.0974 19.0625 25.1123 18.932 24.9514 18.6462C24.6664 18.1343 24.3021 17.7007 23.8752 17.3298C23.8313 17.2919 23.7816 17.2423 23.7297 17.2351Z" fill="white"/>
<path d="M25.9502 21.9229C26.1521 22.3906 26.3328 22.8754 26.6836 23.2373C26.8695 23.4282 27.0844 23.5847 27.2793 23.7656C27.4533 23.9266 27.6472 24.0774 27.7842 24.2734C28.0281 24.6224 28.0018 25.013 27.8008 25.376C27.6838 25.5859 27.5266 25.768 27.3877 25.9629C27.3797 25.9768 27.3674 25.989 27.3564 26.001C26.9038 26.5548 27.0267 27.1967 27.6514 27.5127C28.0433 27.7106 28.4515 27.6735 28.8604 27.6045C28.9484 27.5895 29.0351 27.5687 29.1221 27.5527C29.4029 27.5028 29.665 27.5485 29.8359 27.8223C30.1909 28.3953 30.5319 28.9805 30.8789 29.5615L30.8262 29.6436C30.7192 29.6216 30.6049 29.6162 30.5049 29.5742C29.8709 29.3172 29.2374 29.0581 28.6084 28.7881C26.2965 27.7921 23.9878 26.7858 21.6719 25.7998C21.1759 25.5888 20.6546 25.4452 20.1416 25.2842C19.9167 25.2123 19.6866 25.2596 19.4697 25.3516C18.3007 25.8426 17.1279 26.326 15.9639 26.832C15.3351 27.1053 14.7079 27.3825 14.0801 27.6582C13.5601 26.6125 12.8416 25.7022 11.9756 24.9707C12.2459 24.6477 12.5481 24.3572 12.8936 24.1113C13.4064 23.7474 13.8168 23.25 14.1758 22.7041C14.2048 22.6581 14.2393 22.6154 14.2783 22.5635C14.4993 22.7985 14.7057 23.036 14.9287 23.25C15.3486 23.6578 15.8437 23.793 16.3926 23.7061C16.7836 23.6431 17.1539 23.5223 17.4639 23.2373C17.5857 23.1234 17.6794 22.9956 17.6895 22.8018C17.6974 22.6499 17.7856 22.6015 17.9424 22.6553C18.1653 22.7312 18.3815 22.8325 18.6064 22.8955C19.3234 23.0955 19.9962 22.9655 20.6182 22.5225C20.876 22.3375 21.131 22.1471 21.3818 21.9512C21.4567 21.8924 21.51 21.8884 21.5889 21.9443C21.8209 22.1073 22.0548 22.2701 22.2988 22.4131C23.2287 22.9589 24.1433 22.9019 25.0332 22.292C25.3031 22.108 25.5618 21.9052 25.8457 21.6973C25.8817 21.7753 25.9182 21.8489 25.9502 21.9229Z" fill="#6398AA"/>
<path d="M37.4385 17.6699C37.4622 17.67 37.487 17.6747 37.5107 17.6777C37.5127 17.6887 37.5146 17.6999 37.5166 17.7109C36.0607 18.3159 34.6059 18.9201 33.1211 19.5381C33.0621 19.2851 33.0001 19.0495 32.9551 18.8115C32.9141 18.6046 32.8893 18.3925 32.8623 18.1826C32.8304 17.9308 32.8942 17.7948 33.1201 17.7588C33.468 17.7038 33.8219 17.6641 34.1729 17.6611C35.2609 17.6531 36.3505 17.6649 37.4385 17.6699Z" fill="#6398AA"/>
<path d="M2.74707 17.6426C4.05581 17.4967 5.36155 17.6717 6.69629 17.6777C6.61632 17.9446 6.54759 18.183 6.47461 18.4189C6.41066 18.6247 6.33225 18.8264 6.28027 19.0361C6.24029 19.2011 6.16686 19.2091 6.04297 19.1592C5.65405 19.0022 5.25992 18.8623 4.875 18.6953C4.23903 18.4183 3.60854 18.1269 2.97656 17.8389C2.89356 17.8009 2.81535 17.7462 2.73535 17.6992C2.73835 17.6803 2.74309 17.6615 2.74707 17.6426Z" fill="#6398AA"/>
<path d="M20.0117 10.1445C20.1247 10.3225 20.2304 10.467 20.3154 10.623C21.2414 12.316 22.166 14.0101 23.0869 15.707C23.2099 15.934 23.1892 15.9858 22.9502 16.0098C22.6222 16.0428 22.3702 16.2365 22.1172 16.4375C21.9993 16.5304 21.8837 16.6289 21.7607 16.7158C21.6228 16.8137 21.4863 16.7946 21.3594 16.6807C20.9315 16.2928 20.4115 16.1939 19.8906 16.0879C19.3396 15.9779 18.9261 16.246 18.5381 16.624C18.4091 16.748 18.27 16.8619 18.125 16.9619C17.9591 17.0758 17.8741 17.0612 17.7412 16.8994C17.5982 16.7234 17.4348 16.5836 17.2178 16.5596C17.1069 16.5467 16.9908 16.578 16.8779 16.584C16.6711 16.5959 16.6092 16.5106 16.7031 16.3066C16.9191 15.8417 17.137 15.3756 17.3789 14.9277C18.1809 13.4398 18.9928 11.9595 19.8027 10.4775C19.8597 10.3746 19.9258 10.2805 20.0117 10.1445Z" fill="#6398AA"/>
<path d="M19.8047 17.7679C19.8007 17.5079 19.9783 17.3547 20.1973 17.4446C20.3023 17.4866 20.4064 17.5569 20.4854 17.6429C20.8012 17.9818 21.0028 18.3952 21.0498 18.8841C21.0617 19.0129 21.0266 19.1628 20.9717 19.2796C20.7607 19.7376 20.4418 20.0897 20.0488 20.3597C19.864 20.4854 19.7004 20.4752 19.5176 20.3323C18.9736 19.9104 18.699 19.3486 18.7529 18.6058C18.7569 18.5408 18.7761 18.4764 18.7871 18.4114C18.805 18.4055 18.8211 18.3998 18.8389 18.3948C18.8978 18.4718 18.9586 18.5473 19.0166 18.6263C19.1975 18.8731 19.4141 19.0511 19.7168 19.0433C19.9006 19.0393 20.0548 18.9586 20.1318 18.763C20.2028 18.58 20.1334 18.4234 20.0254 18.2874C19.9045 18.1365 19.8088 17.9777 19.8047 17.7679Z" fill="black"/>
<path d="M23.7295 17.2357C23.7813 17.2428 23.8311 17.2915 23.875 17.3294C24.302 17.7004 24.6662 18.1348 24.9512 18.6468C25.112 18.9326 25.0974 19.0629 24.8975 19.3138C24.6905 19.5737 24.4373 19.7637 24.1523 19.9017C23.9255 20.0116 23.6985 20.0203 23.4717 19.9066C23.3717 19.8556 23.2718 19.8053 23.1748 19.7493C22.8022 19.5324 22.5707 19.2075 22.5596 18.7239C22.5526 18.416 22.5576 18.1071 22.5576 17.7991C22.5833 17.7962 22.61 17.7943 22.6357 17.7923C22.6747 17.8833 22.7059 17.9808 22.7559 18.0657C22.8457 18.2195 22.9271 18.3872 23.0459 18.5091C23.2998 18.7709 23.6749 18.7405 23.9209 18.472C24.0019 18.384 24.0026 18.2981 23.9297 18.2152C23.8607 18.1372 23.771 18.0794 23.708 17.9964C23.6001 17.8515 23.4881 17.7043 23.4131 17.5384C23.3802 17.4643 23.4051 17.3013 23.458 17.2513C23.514 17.1993 23.6385 17.2227 23.7295 17.2357Z" fill="black"/>
<path fill-rule="evenodd" clip-rule="evenodd" d="M19.7607 9.21418C19.9057 8.94718 20.0215 8.92611 20.1855 9.17511C20.4905 9.63502 20.7758 10.1121 21.0508 10.596C21.8497 12.0028 22.6287 13.4237 23.4355 14.8255C23.7605 15.3904 24.1306 15.9257 24.6006 16.3587C24.7034 16.4526 24.8235 16.5353 24.9473 16.5833C25.0372 16.6193 25.1731 16.6303 25.2461 16.5804C25.5149 16.3947 25.8086 16.3466 26.1104 16.3206C26.6673 16.2736 27.2255 16.2646 27.7734 16.4066C27.9034 16.4405 28.0294 16.5009 28.1514 16.5618C28.3662 16.6698 28.5583 16.6715 28.7402 16.4778C29.0602 16.1338 29.9407 16.1821 30.1367 16.7191C30.2057 16.9096 30.2931 16.9081 30.418 16.7503C30.8549 16.2018 31.4172 16.1969 32 16.3099C32.1938 16.348 32.3271 16.5077 32.415 16.7005C32.499 16.8865 32.5794 17.0749 32.6504 17.2669C32.6904 17.3728 32.7407 17.4057 32.8496 17.4017C34.6246 17.3317 36.4007 17.2634 38.1777 17.2064C38.7396 17.1874 39.3034 17.2034 39.8652 17.2034C39.9052 17.2034 39.9454 17.2102 39.9863 17.2132C39.9903 17.2291 39.996 17.2452 40.001 17.2611C39.797 17.359 39.5976 17.466 39.3906 17.554C37.5128 18.352 35.6328 19.1467 33.7539 19.9437C33.7009 19.9657 33.6467 19.99 33.5947 20.013C33.2808 20.149 33.2819 20.1488 33.3379 20.5247C33.4339 21.1737 33.5451 21.822 33.6191 22.4739C33.7431 23.5738 33.6502 24.6394 33.0703 25.5833C32.5773 26.3842 31.9326 26.9876 31.0977 27.3216C30.9047 27.3986 30.7214 27.5049 30.5234 27.6028C31.0674 28.7786 31.8192 29.7756 32.2832 30.9544C32.2692 30.9694 32.2571 30.9844 32.2432 30.9993C31.9964 30.9034 31.7467 30.8132 31.502 30.7073C29.481 29.8393 27.4614 28.9679 25.4404 28.0989C23.8175 27.4 22.1912 26.7073 20.5713 26.0003C20.2275 25.8505 19.9113 25.8504 19.5645 25.9984C17.8242 26.7471 16.0774 27.475 14.3359 28.221C14.2572 28.029 14.1715 27.8414 14.0801 27.6575C14.708 27.3819 15.3351 27.1046 15.9639 26.8314C17.1277 26.3254 18.3009 25.8428 19.4697 25.3519C19.6867 25.2599 19.9166 25.2125 20.1426 25.2845C20.6546 25.4455 21.1759 25.5891 21.6719 25.8001C23.9876 26.786 26.2966 27.7915 28.6084 28.7874C29.2374 29.0574 29.8709 29.3175 30.5049 29.5745C30.6047 29.6164 30.7184 29.6219 30.8252 29.6439L30.8789 29.5618C30.5319 28.9809 30.1909 28.3955 29.8359 27.8226C29.665 27.5487 29.4029 27.5032 29.1221 27.553C29.0351 27.569 28.9483 27.5898 28.8604 27.6048C28.4515 27.6738 28.0433 27.7109 27.6514 27.513C27.0265 27.197 26.9035 26.5543 27.3564 26.0003C27.3673 25.9885 27.3797 25.977 27.3887 25.9632C27.5267 25.7682 27.6838 25.5853 27.8008 25.3753C28.0015 25.0125 28.027 24.6216 27.7832 24.2737C27.6462 24.0779 27.4532 23.9269 27.2793 23.7659C27.0843 23.585 26.8695 23.4286 26.6836 23.2376C26.3327 22.8757 26.1512 22.391 25.9492 21.9232C25.9172 21.8492 25.8817 21.7755 25.8457 21.6976C25.5617 21.9056 25.3022 22.1073 25.0322 22.2913C24.1423 22.9012 23.2288 22.9584 22.2988 22.4124C22.0559 22.2695 21.8208 22.1076 21.5889 21.9446C21.51 21.8887 21.4567 21.8927 21.3818 21.9515C21.1309 22.1475 20.8752 22.3378 20.6172 22.5228C19.9953 22.9656 19.3233 23.0958 18.6064 22.8958C18.3815 22.8328 18.1653 22.7316 17.9424 22.6556C17.7855 22.6017 17.6974 22.6502 17.6895 22.8021C17.6803 22.9957 17.5857 23.1237 17.4639 23.2376C17.1539 23.5226 16.7835 23.6424 16.3926 23.7044C15.8436 23.7924 15.3497 23.6573 14.9287 23.2493C14.7058 23.0354 14.4992 22.7987 14.2783 22.5638C14.2395 22.6156 14.2047 22.6576 14.1758 22.7034C13.8168 23.2494 13.4065 23.7467 12.8936 24.1116C12.5485 24.3572 12.2458 24.6466 11.9756 24.9691C11.6239 24.6721 11.2477 24.4054 10.8516 24.1702C11.395 23.9826 11.9273 23.7615 12.4209 23.4319C13.2057 22.9081 13.5707 22.1479 13.5059 21.1282C13.4699 20.5533 13.3463 19.9994 13.1973 19.4515C12.9713 18.6137 12.6534 17.8023 12.6094 16.9114C12.6052 16.8467 12.5505 16.7848 12.5186 16.722C12.4616 16.7639 12.3916 16.794 12.3496 16.8499C12.2937 16.9239 12.2488 17.0129 12.2168 17.1028C12.1368 17.3288 12.0571 17.5546 11.9932 17.7855C11.7802 18.5713 11.4239 19.2589 10.873 19.8128C10.4591 20.2288 9.99317 20.5114 9.4082 20.4564C9.08242 20.4254 8.75923 20.3839 8.52734 20.0892C8.28342 19.7783 8.11873 19.4209 8.05469 19.012C7.94869 18.3501 8.08346 17.7244 8.31543 17.1204C8.71941 16.0716 9.35433 15.2045 10.0742 14.4066C10.3842 14.0626 10.7015 13.7248 11.1074 13.5208C11.4814 13.3328 11.7125 13.4809 11.7695 13.9329C11.7735 13.9667 11.7724 14.0007 11.7744 14.0355C11.8004 14.5134 11.7445 14.9827 11.6455 15.4456C11.4705 16.2706 11.2202 17.0649 10.7812 17.7679C10.6743 17.9388 10.5298 18.0932 10.3779 18.2152C10.218 18.3431 10.0457 18.2706 9.97266 18.0667C9.93068 17.9518 9.90633 17.8205 9.90332 17.6966C9.89436 17.2837 9.99998 16.8984 10.1699 16.5335C10.3238 16.2027 10.4026 15.8546 10.3477 15.4798C10.3237 15.3238 10.2984 15.154 10.1465 15.097C9.98672 15.0361 9.87791 15.1724 9.79297 15.2913C9.1761 16.1582 8.82145 17.1296 8.86133 18.2503C8.86936 18.4632 8.9601 18.6217 9.12207 18.7357C9.51095 19.0094 9.9087 19.0004 10.3096 18.7845C10.7035 18.5715 11.0058 18.2369 11.2588 17.8489C11.9118 16.848 12.2114 15.7135 12.2344 14.4896C12.2414 14.1468 12.2065 13.796 12.1406 13.4603C12.0716 13.1133 11.8307 12.9819 11.5117 13.0169C11.0967 13.0609 10.7853 13.3188 10.4893 13.6048C9.54537 14.5217 8.77606 15.6072 8.07812 16.7571C7.74326 17.308 7.42931 17.8743 7.23438 18.5091C6.93267 19.497 7.41376 20.577 8.30762 20.89C9.19055 21.1989 10.0145 21.0264 10.7725 20.4505C11.3113 20.0406 11.7147 19.493 12.0557 18.8821C12.1646 18.6872 12.2738 18.4931 12.3838 18.2982C12.3927 18.3011 12.4042 18.304 12.415 18.3069C12.415 18.6337 12.4181 18.9606 12.4141 19.2874C12.405 20.0012 12.1075 20.5434 11.5986 20.9583C11.1797 21.2983 10.7144 21.5474 10.2305 21.7454C9.47959 22.0504 8.72172 22.3325 7.96484 22.6194C7.83603 22.6674 7.79951 22.7357 7.86719 22.8714C7.9103 22.9567 7.9568 23.0398 8.00195 23.1234C7.68682 23.0694 7.36633 23.032 7.04102 23.014C7.03528 22.9977 7.02916 22.9815 7.02344 22.9652C6.93545 22.7192 6.96426 22.4895 7.11719 22.2835C7.18917 22.1845 7.26591 22.0885 7.33789 21.9896C7.50567 21.7608 7.50793 21.6363 7.33008 21.4114C7.1421 21.1715 6.93687 20.9464 6.75488 20.7025C6.65994 20.5755 6.60555 20.4125 6.5166 20.2816C6.45562 20.1936 6.37215 20.1107 6.28223 20.0648C5.78235 19.8088 5.28536 19.5405 4.77148 19.3216C3.46758 18.7646 2.15358 18.2338 0.84668 17.6868C0.559848 17.5679 0.281808 17.4291 0.000976562 17.2982C0.00297235 17.2792 0.00482371 17.2586 0.0078125 17.2386C0.114742 17.2276 0.224105 17.2063 0.332031 17.2073C1.93189 17.2223 3.53098 17.2381 5.13184 17.2571C5.64676 17.2641 6.16377 17.2762 6.67969 17.2952C6.78651 17.2992 6.82228 17.2286 6.86621 17.1497C7.38313 16.2169 7.95451 15.329 8.60938 14.5081C9.24036 13.7181 9.9018 12.9616 10.7178 12.4027C11.4616 11.8928 11.712 11.9116 12.4609 12.4915C12.8057 12.7574 12.9542 13.1406 12.9902 13.5823C13.0412 14.2103 13.0701 14.8411 13.1221 15.4681C13.1621 15.9569 13.2174 16.4441 13.2764 16.931C13.3044 17.1427 13.3711 17.1791 13.5439 17.0902C13.6428 17.0402 13.7414 16.9787 13.8184 16.8968C14.1354 16.5628 14.505 16.4762 14.918 16.5902C15.3557 16.7099 15.6937 16.5696 15.9346 16.1419C16.5596 15.0349 17.2299 13.9567 17.7959 12.8148C18.4058 11.5819 19.1058 10.414 19.7607 9.21418ZM31.2363 16.9857C31.2343 17.0556 31.2205 17.1277 31.2324 17.1937C31.2484 17.2776 31.2855 17.3559 31.3145 17.4359C31.5434 18.0678 31.7681 18.7033 31.8721 19.3782C31.924 19.717 31.9541 20.0573 31.8252 20.3851C31.6311 20.8825 31.1718 20.9825 30.835 20.5941C30.734 20.4781 30.6342 20.3493 30.5752 20.2054C30.3973 19.7766 30.2341 19.3404 30.0771 18.9027C29.9122 18.4428 29.7666 17.9747 29.5977 17.5179C29.5567 17.408 29.4629 17.3117 29.376 17.2347C29.336 17.1997 29.2394 17.1998 29.1904 17.2288C29.1546 17.2511 29.1277 17.3497 29.1396 17.4036C29.1686 17.5546 29.2056 17.709 29.2676 17.847C29.6255 18.6509 29.7578 19.523 29.8838 20.3939C30.0018 21.2087 30.0893 22.0308 30.3252 22.8177C30.3922 23.0367 30.494 23.256 30.626 23.4329C30.8669 23.7565 31.2158 23.7978 31.5176 23.5462C31.6765 23.4142 31.8097 23.2359 31.9307 23.0579C32.0406 22.892 32.1139 22.6968 32.2119 22.5189C32.2559 22.4409 32.3191 22.3759 32.374 22.305C32.3918 22.3129 32.4079 22.3195 32.4258 22.3265C32.4258 22.3963 32.4387 22.4716 32.4229 22.5374C32.3409 22.8754 32.2702 23.2222 32.1582 23.5482C31.8801 24.3568 31.3084 24.7442 30.5596 24.8411C29.9457 24.9211 29.361 24.7753 28.7881 24.5403C28.5491 24.4443 28.4513 24.5143 28.4453 24.7943C28.4332 25.358 28.2376 25.8351 27.9268 26.2659C27.8159 26.4178 27.7097 26.5726 27.5889 26.7435C27.7057 26.7684 27.8016 26.7889 27.8955 26.8089C28.9014 27.0269 29.8867 26.9271 30.8486 26.5482C31.8715 26.1462 32.5418 25.3819 32.7529 24.1732C32.8839 23.4262 32.8701 22.6709 32.7432 21.931C32.5572 20.844 32.3346 19.7628 32.1006 18.6868C32.0046 18.241 31.8502 17.8081 31.6992 17.3802C31.6493 17.2403 31.5307 17.1229 31.4268 17.0159C31.3888 16.9759 31.3013 16.9947 31.2363 16.9857ZM27.1445 17.18C26.7977 17.138 26.5699 17.3976 26.6426 17.7493C26.7086 18.0673 26.8571 18.3381 27.0801 18.553C27.183 18.6508 27.3058 18.7256 27.4355 18.6478C27.5665 18.5718 27.5569 18.4176 27.5469 18.2767C27.5429 18.2139 27.5276 18.152 27.5186 18.0902C27.5076 18.0042 27.4863 17.9173 27.4873 17.8323C27.4894 17.6848 27.5648 17.6377 27.6855 17.7005C27.7275 17.7225 27.7668 17.7535 27.8027 17.7864C28.1467 18.0994 28.391 18.4911 28.501 18.97C28.5889 19.3539 28.5837 19.7353 28.3838 20.0902C28.1106 20.5738 27.208 20.6595 26.9238 19.9652C26.7608 19.5682 26.6428 19.1466 26.5078 18.7366C26.3508 18.2667 26.199 17.7954 26.042 17.3265C25.989 17.1677 25.8797 17.1669 25.7607 17.2269C25.5928 17.3109 25.5487 17.5007 25.6426 17.6937C25.7106 17.8346 25.7792 17.9792 25.8252 18.1312C25.9441 18.524 26.0512 18.9229 26.1611 19.3187C26.3791 20.0936 26.5823 20.8749 26.8193 21.6429C26.9523 22.0698 27.1618 22.4618 27.4697 22.7718C27.6906 22.9956 27.9454 23.1185 28.2412 22.9808C28.6031 22.8118 28.8855 22.5298 28.9736 22.095C29.0436 21.7492 29.0464 21.3869 29.0684 21.1409C29.0344 20.5091 29.0085 19.9899 28.9775 19.471C28.9155 18.42 28.3834 17.7411 27.5645 17.2991C27.4365 17.2301 27.2875 17.197 27.1445 17.18ZM17.082 17.4222C16.9591 17.4062 16.8668 17.4887 16.8438 17.6566C16.8257 17.7855 16.7623 17.8464 16.6514 17.8704C16.4585 17.9133 16.2585 17.8144 16.1455 17.6165C16.0576 17.4578 16.0088 17.4402 15.875 17.556C15.7681 17.6469 15.6809 17.7637 15.5801 17.8636C15.4332 18.0095 15.2847 18.1545 15.1309 18.2903C15.0139 18.3943 14.9002 18.3608 14.8252 18.2269C14.7602 18.1109 14.7082 17.9837 14.6582 17.8568C14.6263 17.773 14.6128 17.6799 14.5859 17.5931C14.5239 17.4031 14.4755 17.3921 14.3555 17.5501C14.2656 17.669 14.1795 17.7933 14.1025 17.9241C13.9848 18.1279 14.0038 18.2372 14.1357 18.4251C14.2246 18.5509 14.3142 18.6847 14.3662 18.8304C14.6652 19.6774 14.9015 20.5463 14.9385 21.4603C14.9708 22.2199 15.6566 22.7924 16.2744 22.7845C16.7184 22.7785 16.8922 22.5752 16.9053 22.0833C16.9072 22.0255 16.9053 21.9673 16.9053 21.9105C16.9113 21.9095 16.9188 21.9085 16.9248 21.9085C16.8938 21.6507 16.873 21.3918 16.8311 21.137C16.7781 20.821 16.6946 20.7841 16.4326 20.9261C16.0678 21.1219 15.7817 21.0636 15.5098 20.7288C15.4368 20.6399 15.3714 20.5388 15.3154 20.4359C15.0875 20.01 15.0074 19.5329 14.9424 19.0521C14.9214 18.8931 14.9965 18.8281 15.1465 18.8831C15.3785 18.9691 15.6061 19.0682 15.8311 19.1732C15.9557 19.2309 16.0728 19.2389 16.1895 19.1702C16.6773 18.8833 17.0335 18.4639 17.2266 17.8841C17.2445 17.8312 17.2528 17.772 17.2568 17.7152C17.2678 17.5304 17.2107 17.4384 17.082 17.4222ZM20.915 17.513C20.486 16.853 19.4122 16.8122 18.9902 17.4212C18.6564 17.903 18.3875 18.4151 18.1855 18.9759C18.0266 19.4238 17.9044 19.8828 17.8984 20.4427C17.9064 20.5197 17.9155 20.6708 17.9365 20.8177C18.0316 21.4646 18.4151 21.9464 18.9561 22.0784C19.3559 22.1753 19.7372 22.0799 20.0801 21.845C20.9229 21.2661 21.3613 20.4115 21.4043 19.3196C21.4303 18.6629 21.2668 18.0549 20.915 17.513ZM23.627 16.9769C22.871 16.8849 22.4439 17.0972 22.1719 17.8362C21.96 18.412 21.8228 19.0077 21.7568 19.6224C21.6779 20.3653 21.8957 20.9797 22.4287 21.4427C23.2097 22.1216 24.4959 22.1617 25.1289 20.8099C25.3048 20.434 25.3956 20.0359 25.3896 19.6361C25.3886 18.9661 25.1891 18.3543 24.8262 17.7903C24.5273 17.3278 24.1366 17.0399 23.627 16.9769ZM34.1738 17.6614C33.8218 17.6634 33.4681 17.7051 33.1191 17.7601C32.8936 17.7952 32.8294 17.9321 32.8613 18.1829C32.8893 18.3929 32.9151 18.6049 32.9551 18.8118C33.0011 19.0507 33.0621 19.2856 33.1211 19.5374C34.6058 18.9205 36.0608 18.3161 37.5176 17.7112C37.5156 17.7014 37.5137 17.6889 37.5117 17.679C37.4867 17.676 37.4625 17.6712 37.4375 17.6702C36.3506 17.6652 35.2617 17.6524 34.1738 17.6614ZM6.69629 17.678C5.36155 17.672 4.05582 17.497 2.74707 17.6429C2.74309 17.6618 2.73834 17.6806 2.73535 17.6995C2.81533 17.7465 2.89358 17.8012 2.97656 17.8392C3.60851 18.1272 4.23905 18.4186 4.875 18.6956C5.2599 18.8626 5.65408 19.0025 6.04297 19.1595C6.16679 19.2094 6.24029 19.2012 6.28027 19.0364C6.33223 18.8267 6.41067 18.625 6.47461 18.4193C6.54757 18.1834 6.61635 17.9449 6.69629 17.678ZM19.8037 10.4778C18.9937 11.9598 18.1819 13.4401 17.3799 14.928C17.1379 15.377 16.9191 15.843 16.7031 16.3079C16.6084 16.5106 16.6721 16.5953 16.8789 16.5833C16.9918 16.5783 17.1069 16.5479 17.2188 16.5599C17.4346 16.5839 17.5983 16.7239 17.7412 16.8997C17.8742 17.0606 17.96 17.0772 18.126 16.9622C18.2699 16.8632 18.4101 16.7473 18.5391 16.6234C18.9269 16.2456 19.3398 15.9782 19.8906 16.0892C20.4116 16.1942 20.9314 16.293 21.3584 16.681C21.4853 16.7959 21.6238 16.814 21.7617 16.7161C21.8846 16.6302 21.9993 16.5308 22.1172 16.4368C22.3701 16.2369 22.6224 16.0432 22.9502 16.0101C23.1882 15.9871 23.2108 15.9343 23.0879 15.7073C22.1669 14.0104 21.2414 12.3163 20.3145 10.6224C20.2295 10.4666 20.1256 10.3236 20.0127 10.1448C19.9267 10.2808 19.8597 10.3759 19.8037 10.4778Z" fill="black"/>
</svg>
