<?xml version="1.0"?>
<!-- Copyright 2000-2024 JetBrains s.r.o. and contributors. Use of this source code is governed by the Apache 2.0 license. -->
<svg width="16" height="16" viewBox="0 0 16 16" fill="none" xmlns="http://www.w3.org/2000/svg">
  <path d="M8.5 7.81996L14 5.28149V11.1991L8.5 13.7208V7.81996Z" fill="white"/>
  <path d="M2.69315 4.5001L7.99998 2.05078L13.3068 4.5001L8 6.94941L2.69315 4.5001Z" fill="#E7C200"/>
  <path d="M7.5 7.82001V13.7208L2 11.1992V5.28155L7.5 7.82001Z" fill="#E7C200"/>
  <path d="M2.5 8.56058V8.96138L4.5 9.88446V9.48062C4.5 8.80974 4.10948 8.20024 3.5 7.91986C3.03276 7.70492 2.5 8.04627 2.5 8.56058Z" fill="#0D1A2B"/>
  <path d="M7 11.0385V10.6406C7 9.9698 6.60947 9.36032 6 9.08C5.53274 8.86509 5 9.20645 5 9.72076V10.1154L7 11.0385Z" fill="#0D1A2B"/>
  <path fill-rule="evenodd" clip-rule="evenodd"
        d="M8.2095 1.04602C8.07656 0.98466 7.92339 0.98466 7.79045 1.04602L1.29047 4.04602C1.1134 4.12775 1 4.30497 1 4.5V11.5199C1 11.7154 1.11392 11.8929 1.29162 11.9744L7.79162 14.9545C7.92392 15.0152 8.07608 15.0152 8.20838 14.9545L14.7084 11.9744C14.8861 11.8929 15 11.7154 15 11.5199V4.5C15 4.30497 14.8866 4.12775 14.7095 4.04602L8.2095 1.04602ZM2.69315 4.5L7.99998 2.05069L13.3068 4.5L8 6.94932L2.69315 4.5ZM8.5 7.81992L14 5.28145V11.1991L8.5 13.7207V7.81992ZM7.5 7.81992V13.7207L2 11.1991V5.28145L7.5 7.81992Z"
        fill="#0D1A2B"/>
</svg>
