<?xml version="1.0"?>
<!-- Copyright 2000-2024 JetBrains s.r.o. and contributors. Use of this source code is governed by the Apache 2.0 license. -->
<svg width="16" height="16" xmlns="http://www.w3.org/2000/svg">
  <path clip-rule="evenodd" d="m8.52,0.18a1.12,1.12 0 0 0 -1.07,0l-5.52,3.03a2.08,2.08 0 0 0 -0.01,0.01l-0.72,0.41a1.12,1.12 0 0 0 -0.58,0.97l0,6.82c0,0.41 0.23,0.78 0.58,0.97l5.56,3.06l0.02,0.01l0.67,0.36c0.34,0.19 0.73,0.19 1.07,0l0.67,-0.36l0.02,-0.01l5.56,-3.06c0.36,-0.19 0.59,-0.57 0.59,-0.97l0,-6.82c0,-0.41 -0.23,-0.78 -0.59,-0.97l-0.72,-0.4a1.93,1.93 0 0 0 -0.01,-0.01l-5.52,-3.03l0,-0.01zm0.35,7.82l5.17,-2.84a2.13,2.13 0 0 0 0.01,-0.01l0.06,-0.03a0.26,0.26 0 0 1 0.38,0.23l0,5.3a0.26,0.26 0 0 1 -0.38,0.23l-0.05,-0.02a2.27,2.27 0 0 0 -0.02,-0.01l-5.17,-2.84zm-6.95,-2.85a0.21,0.21 0 0 0 0.01,0.01l5.17,2.84l-5.17,2.84a0.72,0.72 0 0 0 -0.02,0.01l-0.05,0.02a0.26,0.26 0 0 1 -0.38,-0.23l0,-5.3c0,-0.19 0.2,-0.32 0.38,-0.23l0.06,0.03zm11.71,-1.19l-4.84,-2.66a0.26,0.26 0 0 0 -0.38,0.21l0,5.75l5.21,-2.87a0.26,0.26 0 0 0 0,-0.45l0.01,0.01zm-11.29,0.45l5.21,2.87l0,-5.75a0.26,0.26 0 0 0 -0.38,-0.21l-4.84,2.66a0.26,0.26 0 0 0 0,0.45l0.01,-0.01zm0.01,7.63a0.26,0.26 0 0 1 -0.01,-0.44l5.22,-2.87l0,5.74a0.26,0.26 0 0 1 -0.37,0.23l-4.84,-2.66zm6.07,2.43l0,-5.74l5.22,2.87a0.26,0.26 0 0 1 -0.01,0.44l-4.84,2.66a0.26,0.26 0 0 1 -0.37,-0.23l0,-0.01l0,0.01z" fill="#0D1A2B" fill-rule="evenodd" id="svg_1"/>
  <path d="m7.86,0.93a0.26,0.26 0 0 1 0.25,0l5.51,3.03a0.26,0.26 0 0 1 0,0.45l-5.51,3.03a0.26,0.26 0 0 1 -0.25,0l-5.52,-3.03a0.26,0.26 0 0 1 0,-0.45l5.52,-3.03z" fill="#E2D23F" id="svg_2"/>
  <path d="m1.47,5.35c0,-0.19 0.2,-0.32 0.38,-0.23l5.56,3.06a0.26,0.26 0 0 1 0.14,0.23l0,6.06a0.26,0.26 0 0 1 -0.38,0.23l-5.56,-3.05a0.26,0.26 0 0 1 -0.14,-0.23l0,-6.06l0,-0.01z" fill="#FFEC40" id="svg_3"/>
  <path d="m14.1,5.12a0.26,0.26 0 0 1 0.38,0.23l0,6.06c0,0.09 -0.05,0.18 -0.14,0.23l-5.56,3.05a0.26,0.26 0 0 1 -0.38,-0.23l0,-6.06c0,-0.09 0.06,-0.18 0.14,-0.23l5.56,-3.06l0,0.01z" fill="#fff" id="svg_4"/>
  <path d="m3.8,10.11l0,0.01l-1.31,-0.68l0,-0.01c0.03,-0.41 0.35,-0.58 0.71,-0.38c0.36,0.19 0.62,0.67 0.6,1.07l0,-0.01zm2.05,1.19l0,0.01l-1.3,-0.68l0,-0.01c0.02,-0.41 0.34,-0.59 0.7,-0.4c0.36,0.19 0.63,0.67 0.6,1.07z" fill="#0D1A2B" id="svg_5"/>
</svg>