<svg xmlns="http://www.w3.org/2000/svg" width="16" height="16" viewBox="0 0 16 16">
  <path fill="#AFB1B3" fill-rule="evenodd" d="M4.82332644,6.09399586 L5.71279502,6.98346445 L4.4421256,8.25413387 C3.52982284,9.16643663 3.52982284,10.6455716 4.4421256,11.5578744 C5.35442836,12.4701772 6.83356337,12.4701772 7.74586613,11.5578744 L9.01653555,10.287205 L9.90600414,11.1766736 L8.63533471,12.447343 C7.23179202,13.8508857 4.95619971,13.8508857 3.55265702,12.447343 C2.14911433,11.0438003 2.14911433,8.76820798 3.55265702,7.36466529 L4.82332644,6.09399586 Z M6.09399586,4.82332644 L7.36466529,3.55265702 C8.76820798,2.14911433 11.0438003,2.14911433 12.447343,3.55265702 C13.8508857,4.95619971 13.8508857,7.23179202 12.447343,8.63533471 L11.1766736,9.90600414 L10.287205,9.01653555 L11.5578744,7.74586613 C12.4701772,6.83356337 12.4701772,5.35442836 11.5578744,4.4421256 C10.6455716,3.52982284 9.16643663,3.52982284 8.25413387,4.4421256 L6.98346445,5.71279502 L6.09399586,4.82332644 Z M5.68351279,9.33123708 L9.24138718,5.77336269 L10.3214562,6.8534317 L6.7635818,10.4113061 L5.68351279,9.33123708 Z"/>
</svg>
