<svg width="12" height="12" viewBox="0 0 12 12" fill="none" xmlns="http://www.w3.org/2000/svg">
<g clip-path="url(#clip0_2_170)">
<path d="M7.75437 6.49474L8.80407 5.07783L7.43007 3.22336L5.00638 6.49474H7.75437Z" fill="#FFC107"/>
<path d="M9.95026 3.53004C10.0907 3.34041 10.0907 3.10681 9.95026 2.91717L7.75371 -0.0475311H5.00638L8.80406 5.07833L9.95026 3.53004Z" fill="#0F9D58"/>
<path d="M2.30125 -0.0480309L1.25156 1.36889L2.62555 3.22336L5.04924 -0.0480309H2.30125Z" fill="#DB4437"/>
<path d="M0.105363 2.91666C-0.0351212 3.1063 -0.0351212 3.33989 0.105363 3.52953L2.30191 6.49423H5.04924L1.25156 1.36888L0.105363 2.91666V2.91666Z" fill="#4285F4"/>
<path fill-rule="evenodd" clip-rule="evenodd" d="M8 7.5L10 5L10 9L12 9L9 12L6 9L8 9L8 7.5Z" fill="#9AA7B0"/>
</g>
<defs>
<clipPath id="clip0_2_170">
<rect width="12" height="12" fill="white"/>
</clipPath>
</defs>
</svg>
