<svg width="40" height="40" viewBox="0 0 40 40" fill="none" xmlns="http://www.w3.org/2000/svg">
<path fill-rule="evenodd" clip-rule="evenodd" d="M9.59527 33.6057C8.9917 33.3411 8.55248 32.8141 8.42323 32.2405C8.74655 32.02 9.14658 31.9019 9.5416 31.9099C9.77819 31.9142 10.0159 31.9622 10.2419 32.0614C10.4144 32.1497 10.5816 32.2324 10.7541 32.3648C11.3579 32.806 10.9779 33.7879 10.2016 33.7437C9.98619 33.7437 9.81088 33.694 9.59527 33.6057ZM7.26363 35.1087C7.00493 34.4911 7.09389 33.829 7.43876 33.3436C8.04251 33.4761 8.59464 33.8706 8.85353 34.4883C8.93988 34.6647 8.98835 34.8908 8.98835 35.0676C9.03144 35.7291 8.03453 36.1208 7.56022 35.5913C7.43059 35.4591 7.34999 35.2851 7.26363 35.1087ZM7.4785 27.3457C7.65642 27.1306 7.91084 27.0446 8.15209 27.07C8.5549 27.1119 8.93375 27.4423 8.90683 27.9109C8.90683 28.0876 8.85835 28.3137 8.772 28.4901C8.51348 29.1078 8.00129 29.5021 7.3979 29.6346C7.00976 29.1492 6.9234 28.4872 7.1821 27.8695C7.26827 27.6931 7.34943 27.5221 7.4785 27.3457ZM5.71441 35.5913C5.283 36.1649 4.2833 35.7623 4.32657 35.0121C4.32657 34.8357 4.37504 34.6232 4.46121 34.4468C4.71991 33.829 5.23174 33.4347 5.83549 33.3025C6.18036 33.832 6.26951 34.4937 6.01081 35.0676C5.92464 35.2439 5.84348 35.4149 5.71441 35.5913ZM3.03252 33.7849C2.25642 33.829 1.87924 32.905 2.43972 32.4199C2.56898 32.2876 2.73612 32.191 2.95192 32.1029C3.1783 32.0035 3.41546 31.9559 3.65225 31.951C4.04522 31.9441 4.43057 32.0592 4.75724 32.2821C4.67107 32.8557 4.24263 33.3822 3.63906 33.6471C3.46635 33.7353 3.24832 33.7849 3.03252 33.7849ZM3.03307 29.2347C3.24869 29.2347 3.42382 29.2846 3.63943 29.3727C4.243 29.6372 4.6824 30.1643 4.81147 30.7379C4.29426 31.0907 3.59616 31.1815 2.99277 30.9169C2.82025 30.8288 2.65292 30.7322 2.48058 30.5999C1.91471 30.1448 2.21854 29.2705 2.89843 29.2347C2.94375 29.2323 2.9846 29.2291 3.03307 29.2347ZM5.67392 27.3871C5.80336 27.5194 5.88415 27.6931 5.97032 27.8695C6.22902 28.4872 6.14025 29.1496 5.79501 29.6346C5.19163 29.5021 4.63913 29.1078 4.38043 28.4901C4.29407 28.3137 4.24578 28.0876 4.24578 27.9109C4.24578 27.4699 4.62018 27.1496 5.01371 27.1111C5.24994 27.0882 5.49601 27.172 5.67392 27.3871ZM6.56758 25C2.93762 25 0 27.9594 0 31.6161C0 34.8357 2.29096 37.5108 5.3142 38.1059V40C9.24464 39.403 12.7247 36.2599 12.9845 32.134C13.2442 28.008 10.1973 25 6.56758 25Z" fill="#55A76A"/>
<path d="M34.5 5C35.8807 5 37 6.11929 37 7.5V12.1455C37 13.8499 36.0371 15.4086 34.5127 16.1709L31 17.9268V20L30.9873 20.5146C30.7281 25.6279 26.6279 29.7281 21.5146 29.9873L21 30H14.8535C14.1151 25.8929 10.6489 23 6.56738 23C5.53727 23 4.55084 23.182 3.6377 23.5156C3.28402 22.5743 3.06601 21.5663 3.0127 20.5146L3 20V8C3 6.39489 4.26055 5.08421 5.8457 5.00391L6 5H34.5Z" fill="#FFF4EB"/>
<path d="M31.5 32C32.3284 32 33 32.6716 33 33.5C33 34.3284 32.3284 35 31.5 35H14.4082C14.7204 34.143 14.9196 33.2264 14.9805 32.2598L14.9902 32H31.5Z" fill="#E66D17"/>
<path fill-rule="evenodd" clip-rule="evenodd" d="M34.5 5C35.8807 5 37 6.11929 37 7.5V12.1455C37 13.8499 36.0371 15.4086 34.5127 16.1709L31 17.9268V20L30.9873 20.5146C30.7281 25.6279 26.6279 29.7281 21.5146 29.9873L21 30H14.8535C14.6561 28.9022 14.2628 27.8922 13.7158 27H21C24.866 27 28 23.866 28 20V8H6V20C6 21.0744 6.24225 22.0922 6.6748 23.002C6.63904 23.0015 6.60324 23 6.56738 23C5.53727 23 4.55084 23.182 3.6377 23.5156C3.28402 22.5743 3.06601 21.5663 3.0127 20.5146L3 20V8C3 6.39489 4.26055 5.08421 5.8457 5.00391L6 5H34.5ZM31 14.5723L33.1709 13.4873C33.679 13.2332 34 12.7136 34 12.1455V8H31V14.5723Z" fill="#E66D17"/>
</svg>
