<svg xmlns="http://www.w3.org/2000/svg" width="16" height="16" viewBox="0 0 16 16">
  <path fill="#DE4F4F" fill-rule="evenodd" d="M14.9871527,10.2562493 C14.7657038,10.4958497 14.4763164,10.290478 14.4763164,10.290478 L8.0060695,3.27698133 L15.0382363,9.77730792 C15.0382363,9.77730792 15.2086015,10.0169083 14.9871527,10.2562493 Z M14.263684,7.98367624 L11.3311727,4.79522818 L14.5416619,7.74303865 C14.5416619,7.74303865 14.625937,7.8553189 14.5162498,7.96759916 C14.4068219,8.0796201 14.263684,7.98367624 14.263684,7.98367624 Z M14.7431441,12.2137635 C14.42627,12.5568277 14.0121555,12.263032 14.0121555,12.263032 L4.75072004,2.22419187 L14.8162689,11.5284131 C14.8162689,11.5284131 15.0600181,11.871218 14.7431441,12.2137635 Z M13.7927812,13.9034128 C13.4759071,14.2462176 13.0615333,13.952422 13.0615333,13.952422 L0.9,1 L13.865906,13.2178031 C13.865906,13.2178031 14.1093959,13.560608 13.7927812,13.9034128 Z M12.0380457,14.833809 C11.7211716,15.1766138 11.3067978,14.8828182 11.3067978,14.8828182 L2.04562163,4.84397804 L12.1111704,14.1481993 C12.1111704,14.1481993 12.3546604,14.4910041 12.0380457,14.833809 Z M9.91794551,14.8594805 C9.6964967,15.0988215 9.40710925,14.8937091 9.40710925,14.8937091 L2.93686235,7.88021245 L9.96902914,14.380539 C9.96902914,14.380539 10.139135,14.6201394 9.91794551,14.8594805 Z M7.74105698,14.2845952 C7.63162911,14.3968754 7.48849123,14.3006723 7.48849123,14.3006723 L4.55597992,11.1122242 L7.76646914,14.0600347 C7.76646914,14.0600347 7.85048485,14.1723149 7.74105698,14.2845952 Z"/>
</svg>
