<?xml version="1.0" encoding="UTF-8"?>
<svg xmlns="http://www.w3.org/2000/svg" xmlns:xlink="http://www.w3.org/1999/xlink" width="30pt" height="30pt" viewBox="0 0 30 30" version="1.1">
<g id="surface1">
<path style=" stroke:none;fill-rule:nonzero;fill:rgb(39.607843%,30.980392%,94.117647%);fill-opacity:1;" d="M 18.429688 0 C 18.429688 0.0546875 18.429688 0.105469 18.429688 0.160156 C 18.429688 2.0625 16.890625 3.601562 14.992188 3.601562 C 13.089844 3.601562 11.550781 2.0625 11.550781 0.160156 C 11.550781 0.105469 11.550781 0.0546875 11.550781 0 L 0 0 L 0 30 L 30 30 L 30 0 Z M 18.429688 0 "/>
<path style=" stroke:none;fill-rule:nonzero;fill:rgb(100%,100%,100%);fill-opacity:1;" d="M 6.96875 16.167969 L 8.957031 16.167969 L 10.3125 23.394531 L 10.339844 23.394531 L 11.96875 16.167969 L 13.828125 16.167969 L 15.304688 23.484375 L 15.332031 23.484375 L 16.878906 16.167969 L 18.828125 16.167969 L 16.296875 26.789062 L 14.324219 26.789062 L 12.859375 19.558594 L 12.824219 19.558594 L 11.257812 26.789062 L 9.25 26.789062 Z M 21.070312 16.167969 L 24.207031 16.167969 L 27.316406 26.789062 L 25.265625 26.789062 L 24.589844 24.425781 L 21.019531 24.425781 L 20.496094 26.789062 L 18.5 26.789062 Z M 22.265625 18.785156 L 21.398438 22.683594 L 24.097656 22.683594 L 23.101562 18.785156 Z M 22.265625 18.785156 "/>
</g>
</svg>
