<svg xmlns="http://www.w3.org/2000/svg" width="16" height="16" viewBox="0 0 16 16">
  <path fill="#E7170D" fill-rule="evenodd" d="M4.14739985,8.20194033 C4.44709166,8.29747503 4.76490121,8.34999994 5.08333348,8.34999994 C6.43057357,8.34999994 7.76666661,7.40979794 7.76666661,6.25 C7.76666661,6.01863907 7.70842297,5.7960167 7.6054908,5.58785321 C8.04124992,5.3726676 8.32830858,5.12671651 8.46666678,4.84999994 C8.62222219,4.53888894 8.66111104,4.22777785 8.58333333,3.91666667 C8.19835781,4.46111115 7.80946892,4.73333339 7.41666667,4.73333339 C7.16304607,4.73333339 6.89288518,4.68371248 6.606184,4.58447067 C6.13795723,4.31200399 5.58962907,4.15000006 5.08333348,4.15000006 C3.86363649,4.15000006 2.40000006,5.09020206 2.40000006,6.25 C2.40000006,7.06431847 3.05865916,7.77038188 3.91737719,8.1187688 C2.98724748,8.15229047 2.04999997,8.5825209 2.04999997,9.10833311 C2.04999997,9.51573139 2.71686496,10.2157528 3.33676263,10.368333 C3.53521433,10.4171795 2.15160461,11.1410514 1.95610437,11.5337154 C1.34837552,10.4965258 1,9.28894664 1,8 C1,4.13400675 4.13400675,1 8,1 C11.8659932,1 15,4.13400675 15,8 C15,11.8659932 11.8659932,15 8,15 C7.03859259,15 6.12245366,14.8061826 5.2885248,14.4554895 C5.19138783,14.2663949 4.92255253,13.784965 5.19999989,13.6000002 C5.43247084,13.4450197 6.25,14.4166667 6.94999989,14.4166667 C7.53056672,14.4166667 6.25,13.7166662 6.60000022,13.4833331 C6.77168135,13.3688792 8,14.4166667 8.58333333,14.0666664 C8.77862902,13.949489 6.94999989,12.7833338 7.53333322,13.0166669 C8.11666656,13.25 10.6833336,13.25 10.1000002,12.7833338 C9.84204509,12.5769699 8.43166653,12.3400003 8.46666678,12.2000004 C8.50166702,12.0600006 11.9666662,12.0833333 11.9666662,11.1499998 C11.9666662,11.1499998 11.3466476,11.1499998 10.5666664,11.1499998 C10.0141036,11.1499998 9.39999978,10.9166667 9.39999978,10.9166667 C10.5783334,10.6599997 12.6666667,10.2166662 12.6666667,9.16666667 C12.6666667,9.10833311 11.9426993,9.42804387 11.1499998,9.75 C10.3970692,10.0558039 9.376288,10.2746352 9.51666689,10.0999999 C9.87246518,9.65737696 12.6666667,8.70000045 12.6666667,7.18333356 C12.6666667,7.03481573 11.7982056,7.70830504 10.9166667,8.23333311 C9.99288346,8.78352105 9.05168785,9.28754785 9.16666667,9.10833325 C9.36127631,8.80500007 12.3166664,6.94999989 12.3166664,5.43333356 C12.3166664,5.20000045 11.2098901,6.39539746 10.3333333,7.18333356 C9.39338083,8.02825601 8.6390733,8.44052493 8.81666644,8.23333311 C9.51666689,7.41666667 11.5,5.66666667 11.5,3.56666672 C11.5,3.33349907 9.75,6.13333289 8.81666644,7.06666644 C7.41666667,8.46666622 5.89999978,9.39999978 5.08333333,9.39999978 C4.5,9.39999978 3.63666666,9.39999978 3.63666666,8.93333356 C3.63666666,8.60467529 4.05706055,8.33329335 4.14739985,8.20194033 Z M5.08333333,8 C3.91666667,8 3.91666667,6.5721661 3.91666667,6.25 C3.91666667,5.9278339 3.91666667,4.5 5.08333333,4.5 C6.25,4.5 6.25,5.9278339 6.25,6.25 C6.25,6.5721661 6.25,8 5.08333333,8 Z M5.08333333,12.7833335 C3.79466892,12.7833335 2.75,12.3132325 2.75,11.7333335 C2.75,11.1534346 3.79466892,10.6833336 5.08333333,10.6833336 C5.76033815,10.6833336 6.40710678,10.6860832 6.83333333,10.8933334 C7.21842005,11.0805795 7.41666667,11.4580867 7.41666667,11.7333335 C7.41666667,12.3132325 6.37199775,12.7833335 5.08333333,12.7833335 Z"/>
</svg>
