<svg width="16" height="16" viewBox="0 0 16 16" fill="none" xmlns="http://www.w3.org/2000/svg">
<g clip-path="url(#clip0_13312_15492)">
<path d="M8.93527 10.1424L7.63107 14.4897C4.33497 14.3053 1.69472 11.665 1.51029 8.36893L5.85762 7.06473L8.93527 10.1424Z" stroke="#6C707E"/>
<path d="M14.5 1.5L10 6" stroke="#6C707E" stroke-linecap="round"/>
<path d="M6.85742 6.35742L6.96289 6.25195C7.73307 5.48178 8.98178 5.48178 9.75195 6.25195V6.25195C10.5221 7.02213 10.5221 8.27084 9.75195 9.04102L9.64648 9.14648" stroke="#6C707E"/>
<g clip-path="url(#clip1_13312_15492)">
<path d="M12.9971 16C12.997 16 12.9972 16 12.9971 16L12.9974 10.3531C13.3649 10.355 13.7309 10.4002 14.0877 10.488L14.295 9.76793C14.2331 9.73273 14.1815 9.68188 14.1455 9.62048C14.1095 9.55908 14.0902 9.48929 14.0897 9.41811C14.0924 9.30786 14.1381 9.20303 14.2171 9.126C14.296 9.04898 14.402 9.00586 14.5123 9.00586C14.6227 9.00586 14.7287 9.04898 14.8076 9.126C14.8866 9.20303 14.9323 9.30786 14.935 9.41811C14.9334 9.52172 14.893 9.62097 14.8218 9.69624C14.7505 9.77152 14.6536 9.81734 14.5502 9.82465L14.3395 10.5585C15.1392 10.8109 16.0002 11.3728 16.0002 12.6247C15.9942 14.372 13.5546 16 12.9971 16Z" fill="#E66D17"/>
<path d="M13.7522 14.1505C13.2772 13.4159 13.4772 11.7061 14.7205 11.4617C14.9213 11.4401 15.1229 11.4941 15.2859 11.6133C15.4489 11.7325 15.5614 11.9083 15.6015 12.1061C15.9118 13.1261 14.0855 14.5536 13.7522 14.1505Z" fill="white"/>
<path d="M14.4987 12.5772C14.4256 12.5796 14.3548 12.6036 14.2952 12.646C14.2356 12.6884 14.1898 12.7474 14.1635 12.8157C14.1373 12.8839 14.1317 12.9584 14.1474 13.0298C14.1632 13.1012 14.1997 13.1664 14.2522 13.2173C14.3048 13.2681 14.3712 13.3024 14.4431 13.3157C14.515 13.3291 14.5893 13.321 14.6566 13.2924C14.724 13.2639 14.7814 13.2161 14.8218 13.1551C14.8622 13.0941 14.8837 13.0226 14.8837 12.9495C14.8818 12.8491 14.8403 12.7535 14.7681 12.6838C14.6959 12.614 14.5991 12.5757 14.4987 12.5772Z" fill="#E66D17"/>
<path d="M11.9025 10.5049L11.6968 9.75657C11.7563 9.72083 11.8056 9.67037 11.8399 9.61007C11.8742 9.54976 11.8924 9.48164 11.8928 9.41225C11.8901 9.302 11.8444 9.19717 11.7654 9.12014C11.6865 9.04312 11.5805 9 11.4701 9C11.3598 9 11.2538 9.04312 11.1749 9.12014C11.0959 9.19717 11.0502 9.302 11.0475 9.41225C11.0494 9.52205 11.0946 9.62664 11.1734 9.70315C11.2522 9.77967 11.3582 9.82187 11.468 9.82054L11.6743 10.5701C10.8713 10.8278 10 11.392 10 12.6246C10.0178 14.4064 12.4398 16 12.9973 16V10.353C12.6277 10.361 12.2603 10.412 11.9025 10.5049Z" fill="#E66D17"/>
<path d="M12.3276 14.1507C11.9944 14.5545 10.1678 13.1262 10.4776 12.1063C10.5177 11.9082 10.6305 11.7322 10.7938 11.613C10.9571 11.4937 11.1591 11.4398 11.3601 11.4619C12.6031 11.7062 12.8041 13.4161 12.3284 14.1514L12.3276 14.1507Z" fill="white"/>
<path d="M11.5573 12.5879C11.4842 12.5904 11.4134 12.6143 11.3538 12.6567C11.2942 12.6991 11.2484 12.7581 11.2221 12.8264C11.1959 12.8947 11.1903 12.9691 11.206 13.0406C11.2218 13.112 11.2583 13.1772 11.3108 13.228C11.3634 13.2789 11.4298 13.3131 11.5017 13.3265C11.5736 13.3398 11.6479 13.3317 11.7152 13.3032C11.7826 13.2746 11.84 13.2268 11.8804 13.1659C11.9208 13.1049 11.9423 13.0333 11.9423 12.9602C11.9404 12.8598 11.8989 12.7643 11.8267 12.6945C11.7545 12.6247 11.6576 12.5864 11.5573 12.5879Z" fill="#E66D17"/>
</g>
</g>
<defs>
<clipPath id="clip0_13312_15492">
<rect width="16" height="16" fill="white"/>
</clipPath>
<clipPath id="clip1_13312_15492">
<rect width="16" height="16" fill="white"/>
</clipPath>
</defs>
</svg>
