<svg width="16" height="16" viewBox="0 0 16 16" fill="none" xmlns="http://www.w3.org/2000/svg">
<path d="M1.59709 12.9547L2.41527 3.95473C2.43868 3.69719 2.65461 3.5 2.91321 3.5H6.08679C6.34539 3.5 6.56132 3.69719 6.58473 3.95473L7.40291 12.9547C7.42953 13.2475 7.19898 13.5 6.90497 13.5H2.09503C1.80102 13.5 1.57047 13.2475 1.59709 12.9547Z" fill="#EBECF0" stroke="#6C707E" stroke-linecap="round" stroke-linejoin="round"/>
<path d="M9.65803 12.9293L10.3723 7.92929C10.4075 7.68296 10.6185 7.5 10.8673 7.5H13.1327C13.3815 7.5 13.5925 7.68296 13.6277 7.92929L14.342 12.9293C14.385 13.2305 14.1513 13.5 13.847 13.5H10.153C9.84873 13.5 9.615 13.2305 9.65803 12.9293Z" fill="#EBECF0" stroke="#6C707E" stroke-linecap="round" stroke-linejoin="round"/>
<path d="M12 5.5L12.2929 5.20711C12.6834 4.81658 12.6834 4.18342 12.2929 3.79289L11.7071 3.20711C11.3166 2.81658 11.3166 2.18342 11.7071 1.79289L12 1.5" stroke="#6C707E" stroke-linecap="round" stroke-linejoin="round"/>
</svg>
