<svg width="16" height="16" viewBox="0 0 16 16" fill="none" xmlns="http://www.w3.org/2000/svg">
<path d="M7.9942 14.9998C7.994 14.9998 7.9944 14.9998 7.9942 14.9998L7.9948 3.70623C8.72973 3.7099 9.46176 3.80044 10.1754 3.97604L10.5899 2.53582C10.4661 2.46544 10.363 2.36374 10.2909 2.24094C10.2189 2.11814 10.1804 1.97856 10.1794 1.83621C10.1848 1.61571 10.2762 1.40605 10.4341 1.252C10.592 1.09795 10.804 1.01172 11.0246 1.01172C11.2453 1.01172 11.4572 1.09795 11.6152 1.252C11.7731 1.40605 11.8645 1.61571 11.8699 1.83621C11.8668 2.04341 11.786 2.24191 11.6435 2.39246C11.501 2.543 11.3072 2.63464 11.1004 2.64926L10.6789 4.11696C12.2784 4.62168 14.0004 5.74557 14.0004 8.2492C13.9884 11.7438 9.10919 14.9998 7.9942 14.9998Z" fill="#CE6117"/>
<path d="M9.50445 11.3019C8.55445 9.83274 8.95445 6.41311 11.4409 5.92438C11.8425 5.8811 12.2458 5.98926 12.5717 6.22766C12.8976 6.46607 13.1228 6.81753 13.2029 7.21317C13.8234 9.25306 10.1709 12.108 9.50445 11.3019Z" fill="white"/>
<path d="M10.9964 8.15439C10.8502 8.1593 10.7086 8.20714 10.5894 8.29195C10.4703 8.37676 10.3787 8.49478 10.3261 8.6313C10.2736 8.76782 10.2624 8.91679 10.2939 9.05963C10.3254 9.20248 10.3984 9.33287 10.5035 9.43456C10.6087 9.53624 10.7415 9.60471 10.8853 9.63143C11.0291 9.65815 11.1776 9.64194 11.3123 9.58482C11.447 9.52769 11.5618 9.43219 11.6426 9.31021C11.7233 9.18823 11.7664 9.04517 11.7664 8.89889C11.7627 8.69815 11.6796 8.50706 11.5352 8.3675C11.3909 8.22795 11.1971 8.15131 10.9964 8.15439Z" fill="#CE6117"/>
<path d="M5.80498 4.00979L5.39348 2.51311C5.51248 2.44163 5.61106 2.34072 5.67971 2.22011C5.74837 2.0995 5.7848 1.96325 5.78548 1.82449C5.78011 1.60399 5.6887 1.39434 5.53077 1.24028C5.37284 1.08623 5.16091 1 4.94023 1C4.71955 1 4.50762 1.08623 4.34969 1.24028C4.19176 1.39434 4.10035 1.60399 4.09499 1.82449C4.09867 2.04407 4.18922 2.25326 4.34683 2.40628C4.50444 2.55931 4.71627 2.64372 4.93598 2.64104L5.34848 4.14022C3.74249 4.65544 2 5.78382 2 8.24897C2.0355 11.8125 6.87947 14.9998 7.99446 14.9998V3.70596C7.25531 3.72195 6.52053 3.82391 5.80498 4.00979Z" fill="#E66D17"/>
<path d="M6.65517 11.3023C5.98868 12.1098 2.3357 9.25338 2.95519 7.21349C3.0354 6.81728 3.26095 6.46536 3.58754 6.22689C3.91412 5.98841 4.31813 5.88062 4.72018 5.9247C7.20617 6.41343 7.60817 9.83306 6.65667 11.3038L6.65517 11.3023Z" fill="white"/>
<path d="M5.11453 8.17685C4.96833 8.18176 4.8268 8.2296 4.70761 8.31441C4.58842 8.39922 4.49683 8.51724 4.44428 8.65376C4.39172 8.79028 4.38051 8.93925 4.41206 9.08209C4.44361 9.22494 4.51651 9.35533 4.62168 9.45702C4.72685 9.5587 4.85962 9.62717 5.00345 9.65389C5.14727 9.68061 5.29578 9.6644 5.43045 9.60728C5.56512 9.55015 5.68 9.45465 5.76075 9.33267C5.8415 9.21069 5.88455 9.06763 5.88453 8.92135C5.88085 8.72061 5.79773 8.52952 5.65339 8.38996C5.50906 8.25041 5.31528 8.17377 5.11453 8.17685Z" fill="#E66D17"/>
</svg>
