<?xml version="1.0"?>
<svg xmlns="http://www.w3.org/2000/svg" focusable="false" width="16" height="16" preserveAspectRatio="xMidYMid meet"
     viewBox="0 0 256 256">
  <path
    d="M128 0C93.81 0 61.666 13.314 37.49 37.49 13.314 61.666 0 93.81 0 128c0 34.19 13.314 66.334 37.49 90.51C61.666 242.686 93.81 256 128 256c34.19 0 66.334-13.314 90.51-37.49C242.686 194.334 256 162.19 256 128c0-34.19-13.314-66.334-37.49-90.51C194.334 13.314 162.19 0 128 0"
    fill="#FF7F00"/>
  <path
    d="M249.386 128c0 67.04-54.347 121.386-121.386 121.386C60.96 249.386 6.613 195.04 6.613 128 6.613 60.96 60.96 6.614 128 6.614c67.04 0 121.386 54.346 121.386 121.386"
    fill="#FFF"/>
  <path
    d="M160.869 74.062l5.145-18.537c5.264-.47 9.392-4.886 9.392-10.273 0-5.7-4.62-10.32-10.32-10.32s-10.32 4.62-10.32 10.32c0 3.755 2.013 7.03 5.01 8.837l-5.05 18.195c-14.437-3.67-26.625-3.39-26.625-3.39l-2.258 1.01v140.872l2.258.753c13.614 0 73.177-41.133 73.323-85.27 0-31.624-21.023-45.825-40.555-52.197zM146.53 164.8c-11.617-18.557-6.706-61.751 23.643-67.925 8.32-1.333 18.509 4.134 21.51 16.279 7.582 25.766-37.015 61.845-45.153 51.646zm18.216-39.752a9.399 9.399 0 0 0-9.399 9.399 9.399 9.399 0 0 0 9.4 9.399 9.399 9.399 0 0 0 9.398-9.4 9.399 9.399 0 0 0-9.399-9.398zm2.81 8.672a2.374 2.374 0 1 1 0-4.749 2.374 2.374 0 0 1 0 4.749z"
    fill="#E57200"/>
  <path
    d="M101.371 72.709l-5.023-18.901c2.874-1.832 4.786-5.04 4.786-8.701 0-5.7-4.62-10.32-10.32-10.32-5.699 0-10.319 4.62-10.319 10.32 0 5.682 4.592 10.289 10.267 10.317L95.8 74.378c-19.609 6.51-40.885 20.742-40.885 51.88.436 45.01 59.572 85.267 73.186 85.267V68.892s-12.252-.062-26.729 3.817zm10.395 92.09c-8.138 10.2-52.735-25.88-45.154-51.645 3.002-12.145 13.19-17.612 21.511-16.28 30.35 6.175 35.26 49.369 23.643 67.926zm-18.82-39.46a9.399 9.399 0 0 0-9.399 9.398 9.399 9.399 0 0 0 9.4 9.4 9.399 9.399 0 0 0 9.398-9.4 9.399 9.399 0 0 0-9.399-9.399zm-2.81 8.671a2.374 2.374 0 1 1 0-4.748 2.374 2.374 0 0 1 0 4.748z"
    fill="#FF7F00"/>
</svg>