<svg width="16" height="16" viewBox="0 0 16 16" fill="none" xmlns="http://www.w3.org/2000/svg">
<path fill-rule="evenodd" clip-rule="evenodd" d="M10.8536 10.1464C11.0488 10.3417 11.0488 10.6583 10.8536 10.8536L8.70711 13L10.8536 15.1464C11.0488 15.3417 11.0488 15.6583 10.8536 15.8536C10.6583 16.0488 10.3417 16.0488 10.1464 15.8536L7.64645 13.3536C7.45118 13.1583 7.45118 12.8417 7.64645 12.6464L10.1464 10.1464C10.3417 9.95118 10.6583 9.95118 10.8536 10.1464ZM12.1464 10.1464C12.3417 9.95118 12.6583 9.95118 12.8536 10.1464L15.3536 12.6464C15.5488 12.8417 15.5488 13.1583 15.3536 13.3536L12.8536 15.8536C12.6583 16.0488 12.3417 16.0488 12.1464 15.8536C11.9512 15.6583 11.9512 15.3417 12.1464 15.1464L14.2929 13L12.1464 10.8536C11.9512 10.6583 11.9512 10.3417 12.1464 10.1464Z" fill="#6C707E"/>
<path d="M3 3H13C13.5523 3 14 3.44772 14 4V5H2V4C2 3.44772 2.44772 3 3 3Z" fill="#EBECF0"/>
<path d="M6.5 13C6.5 12.6161 6.64645 12.2322 6.93934 11.9393L9.43934 9.43934C9.73223 9.14645 10.1161 9 10.5 9C10.7776 9 11.0102 8.99996 11.2295 8.99992C11.6324 8.99985 11.9904 8.99979 12.5006 9C12.8843 9.00016 13.2679 9.14661 13.5607 9.43934L14 9.87868V6H2V12C2 12.5523 2.44772 13 3 13H6.5Z" fill="#EBECF0"/>
<path fill-rule="evenodd" clip-rule="evenodd" d="M3 2C1.89543 2 1 2.89543 1 4V12C1 13.1046 1.89543 14 3 14H6.88191C6.6273 13.7158 6.5 13.3579 6.5 13H3C2.44772 13 2 12.5523 2 12V6H14V9.87868L15 10.8787V4C15 2.89543 14.1046 2 13 2H3ZM13 3H3C2.44772 3 2 3.44772 2 4V5H14V4C14 3.44772 13.5523 3 13 3Z" fill="#6C707E"/>
</svg>
