<svg width="20" height="20" viewBox="0 0 20 20" fill="none" xmlns="http://www.w3.org/2000/svg">
<path d="M6.29337 10.2267C6.1055 10.233 5.92364 10.2945 5.77048 10.4034C5.61731 10.5124 5.49962 10.6641 5.43209 10.8395C5.36455 11.0149 5.35015 11.2064 5.39069 11.3899C5.43123 11.5735 5.52491 11.741 5.66005 11.8717C5.79519 12.0024 5.96581 12.0904 6.15063 12.1247C6.33544 12.159 6.52628 12.1382 6.69933 12.0648C6.87239 11.9914 7.02 11.8687 7.12377 11.7119C7.22753 11.5552 7.28285 11.3713 7.28283 11.1834C7.2781 10.9254 7.17129 10.6799 6.98582 10.5005C6.80034 10.3212 6.55133 10.2227 6.29337 10.2267Z" fill="#6C707E"/>
<path d="M13.85 10.1984C13.6621 10.2047 13.4803 10.2661 13.3271 10.3751C13.174 10.4841 13.0563 10.6358 12.9887 10.8112C12.9212 10.9866 12.9068 11.1781 12.9473 11.3616C12.9879 11.5452 13.0816 11.7127 13.2167 11.8434C13.3518 11.9741 13.5225 12.062 13.7073 12.0964C13.8921 12.1307 14.0829 12.1099 14.256 12.0365C14.429 11.9631 14.5766 11.8403 14.6804 11.6836C14.7842 11.5269 14.8395 11.343 14.8395 11.155C14.8347 10.8971 14.7279 10.6515 14.5425 10.4722C14.357 10.2929 14.108 10.1944 13.85 10.1984Z" fill="#6C707E"/>
<path fill-rule="evenodd" clip-rule="evenodd" d="M6.65072 2.94543L7.17951 4.86974C8.09876 4.63081 9.0427 4.49972 9.99227 4.47911C10.9367 4.48383 11.8775 4.60014 12.7946 4.82592L13.3272 2.97421C13.1681 2.88372 13.0356 2.75296 12.943 2.59508C12.8505 2.43719 12.801 2.25773 12.7997 2.07471C12.8066 1.79121 12.9241 1.52165 13.127 1.32359C13.33 1.12552 13.6023 1.01465 13.8859 1.01465C14.1694 1.01465 14.4418 1.12552 14.6447 1.32359C14.8477 1.52165 14.9651 1.79121 14.972 2.07471C14.968 2.34111 14.8642 2.59632 14.6811 2.78988C14.498 2.98344 14.249 3.10127 13.9832 3.12006L13.4416 5.0071C15.497 5.65603 17.7097 7.10103 17.7097 10.32C17.6943 14.8126 11.4266 18.9988 9.99304 18.9996C8.56025 18.9996 2.33566 14.9018 2.29004 10.3201C2.29004 7.15063 4.52917 5.69985 6.5929 5.03743L6.06283 3.10991C5.78049 3.11335 5.50829 3.00482 5.30576 2.80808C5.10323 2.61133 4.98687 2.34238 4.98214 2.06006C4.98903 1.77657 5.10649 1.507 5.30944 1.30894C5.51238 1.11087 5.78472 1 6.06829 1C6.35187 1 6.62421 1.11087 6.82715 1.30894C7.03009 1.507 7.14755 1.77657 7.15445 2.06006C7.15357 2.23847 7.10677 2.41365 7.01854 2.56872C6.93032 2.72379 6.80364 2.85352 6.65072 2.94543ZM3.51726 8.98878C2.72119 11.6115 7.41534 15.284 8.2718 14.2458L8.27373 14.2477C9.49642 12.3568 8.97984 7.96013 5.7853 7.33175C5.26866 7.27509 4.7495 7.41367 4.32983 7.72028C3.91016 8.02689 3.62032 8.47936 3.51726 8.98878ZM14.4207 7.33134C11.2255 7.95971 10.7115 12.3564 11.9323 14.2453C12.7887 15.2817 17.4823 11.6111 16.6849 8.98837C16.5819 8.47968 16.2926 8.0278 15.8738 7.72128C15.4549 7.41476 14.9367 7.2757 14.4207 7.33134Z" fill="#6C707E"/>
</svg>
