<svg width="16" height="16" viewBox="0 0 16 16" fill="none" xmlns="http://www.w3.org/2000/svg">
<path d="M5.11453 8.17685C4.96833 8.18176 4.8268 8.2296 4.70761 8.31441C4.58842 8.39922 4.49683 8.51724 4.44428 8.65376C4.39172 8.79028 4.38051 8.93925 4.41206 9.08209C4.44361 9.22494 4.51651 9.35533 4.62168 9.45702C4.72685 9.5587 4.85962 9.62717 5.00345 9.65389C5.14727 9.68061 5.29578 9.6644 5.43045 9.60728C5.56512 9.55015 5.68 9.45465 5.76075 9.33267C5.8415 9.21069 5.88455 9.06763 5.88453 8.92135C5.88085 8.72061 5.79773 8.52952 5.65339 8.38996C5.50906 8.25041 5.31528 8.17377 5.11453 8.17685Z" fill="#6C707E"/>
<path d="M10.9964 8.15439C10.8502 8.1593 10.7086 8.20714 10.5894 8.29195C10.4703 8.37676 10.3787 8.49478 10.3261 8.6313C10.2736 8.76782 10.2624 8.91679 10.2939 9.05963C10.3254 9.20248 10.3983 9.33287 10.5035 9.43456C10.6087 9.53624 10.7415 9.60471 10.8853 9.63143C11.0291 9.65815 11.1776 9.64194 11.3123 9.58482C11.447 9.52769 11.5618 9.43219 11.6426 9.31021C11.7233 9.18823 11.7664 9.04517 11.7664 8.89889C11.7627 8.69815 11.6796 8.50706 11.5352 8.3675C11.3909 8.22795 11.1971 8.15131 10.9964 8.15439Z" fill="#6C707E"/>
<path fill-rule="evenodd" clip-rule="evenodd" d="M5.39348 2.51311L5.80498 4.00979C6.52053 3.82391 7.25531 3.72195 7.99446 3.70596C8.7294 3.70963 9.46142 3.80044 10.1751 3.97604L10.5896 2.53582C10.4657 2.46544 10.3626 2.36374 10.2906 2.24094C10.2185 2.11814 10.1801 1.97856 10.1791 1.83621C10.1844 1.61571 10.2758 1.40605 10.4338 1.252C10.5917 1.09795 10.8036 1.01172 11.0243 1.01172C11.245 1.01172 11.4569 1.09795 11.6148 1.252C11.7728 1.40605 11.8642 1.61571 11.8695 1.83621C11.8664 2.04341 11.7856 2.24191 11.6432 2.39246C11.5007 2.543 11.3069 2.63464 11.1001 2.64926L10.6786 4.11696C12.278 4.62168 14 5.74557 14 8.2492C13.988 11.7438 9.10956 15 7.99457 15C6.87844 14.9989 2.03549 11.8119 2 8.24897C2 5.78382 3.74249 4.65544 5.34848 4.14022L4.93598 2.64104C4.71627 2.64372 4.50444 2.55931 4.34683 2.40628C4.18922 2.25326 4.09867 2.04407 4.09499 1.82449C4.10035 1.60399 4.19176 1.39434 4.34969 1.24028C4.50762 1.08623 4.71955 1 4.94023 1C5.16091 1 5.37284 1.08623 5.53077 1.24028C5.6887 1.39434 5.78011 1.60399 5.78548 1.82449C5.7848 1.96325 5.74837 2.0995 5.67971 2.22011C5.61106 2.34072 5.51248 2.44163 5.39348 2.51311ZM2.95519 7.21349C2.3357 9.25338 5.98868 12.1098 6.65517 11.3023L6.65667 11.3038C7.60817 9.83306 7.20617 6.41343 4.72018 5.9247C4.31813 5.88062 3.91412 5.98841 3.58754 6.22689C3.26095 6.46536 3.0354 6.81728 2.95519 7.21349ZM11.4409 5.92438C8.95445 6.41311 8.55445 9.83274 9.50445 11.3019C10.1709 12.108 13.8234 9.25306 13.2029 7.21317C13.1228 6.81753 12.8976 6.46606 12.5717 6.22766C12.2458 5.98926 11.8425 5.8811 11.4409 5.92438Z" fill="#6C707E"/>
</svg>
