<svg xmlns="http://www.w3.org/2000/svg" xmlns:xlink="http://www.w3.org/1999/xlink" width="40" height="40" viewBox="0 0 40 40">
  <defs>
    <polygon id="dart-a" points="0 .644 6.894 .644 6.894 17.377 0 17.377"/>
    <polygon id="dart-c" points=".687 0 17.527 0 17.527 6.835 .687 6.835"/>
  </defs>
  <g fill="none" fill-rule="evenodd" transform="translate(4 4)">
    <path fill="#00D2B8" d="M8.7686,8.7119 L6.6866,6.6439 L6.6956,21.5939 L6.7206,22.2919 C6.7316,22.6209 6.7916,22.9919 6.8946,23.3769 L23.3916,29.1549 L27.5156,27.3409 L27.5176,27.3359 L8.7686,8.7119"/>
    <path fill="#55DDCA" d="M27.5156,27.3408 L23.3916,29.1548 L6.8956,23.3778 C7.2106,24.5788 7.9086,25.9288 8.6596,26.6668 L14.0426,31.9848 L26.0136,31.9998 L27.5176,27.3358 L27.5156,27.3408 Z M6.8946,23.3768 L6.8956,23.3778 C6.8946,23.3708 6.8916,23.3628 6.8916,23.3568 C6.8916,23.3628 6.8926,23.3698 6.8946,23.3768 Z"/>
    <g transform="translate(0 6)">
      <mask id="dart-b" fill="#fff">
        <use xlink:href="#dart-a"/>
      </mask>
      <path fill="#0081C6" d="M0.2754,10.2646 C-0.2576,10.8296 0.0064,11.9956 0.8654,12.8546 L4.5674,16.5626 L6.8944,17.3766 C6.7924,16.9926 6.7314,16.6206 6.7204,16.2916 L6.6954,15.5936 L6.6864,0.6436 L0.2754,10.2646 Z" mask="url(#dart-b)"/>
    </g>
    <path fill="#0079B3" d="M23.5273,6.8354 C23.1403,6.7374 22.7693,6.6764 22.4323,6.6664 L21.6893,6.6404 L6.6863,6.6424 L27.5193,27.3354 L27.5213,27.3354 L29.3503,23.2354 L23.5273,6.8354"/>
    <path fill="#00A4E4" d="M26.8369,8.5913 C26.0809,7.8343 24.7389,7.1463 23.5279,6.8363 L29.3509,23.2353 L27.5219,27.3363 L27.5199,27.3363 L31.9899,25.9173 L31.9999,13.7393 L26.8369,8.5913 Z M23.5089,6.8313 C23.5169,6.8333 23.5229,6.8353 23.5279,6.8363 L23.5269,6.8353 C23.5229,6.8333 23.5169,6.8333 23.5089,6.8313 Z"/>
    <g transform="translate(6)">
      <mask id="dart-d" fill="#fff">
        <use xlink:href="#dart-c"/>
      </mask>
      <path fill="#00D2B8" d="M16.7119,4.5371 L12.9809,0.8571 C12.1169,0.0081 10.9429,-0.2559 10.3759,0.2721 L0.6869,6.6421 L15.6899,6.6411 L16.4329,6.6661 C16.7699,6.6771 17.1409,6.7371 17.5269,6.8351 L16.7119,4.5371 Z" mask="url(#dart-d)"/>
    </g>
  </g>
</svg>
