<svg xmlns="http://www.w3.org/2000/svg" width="105" height="105" viewBox="0 0 105 105">
  <defs>
    <linearGradient id="linear-gradient" x1="80.79459" y1="75.08594" x2="37.33223" y2="31.62359" gradientUnits="userSpaceOnUse">
      <stop offset=".27698" stop-color="#6b57ff"/>
      <stop offset=".83781" stop-color="#af1df5"/>
    </linearGradient>
  </defs>
  <g id="Layer_1">
    <rect width="105" height="105" fill="none" stroke-width="0"/>
  </g>
  <g id="Layer_3">
    <path d="m82.5,31.6741c-.14165.07674-.33128.10973-.57856.09988-.86809-.03459-1.73961.01923-2.60797-.0118-.82797-.02959-1.23534.353-1.38534,1.1427-.34098,1.79532-.6955,3.58487-1.41309,5.28665-1.99601,4.73358-6.06418,7.10975-11.54081,6.70198-4.87351-.36285-8.96234-3.71656-10.15733-8.28634-.31045-1.1872-.45251-2.39271-.60017-3.60178-.02331-.19092-.02894-.38411-.05548-.57449-.17049-1.22263-.73766-1.83317-1.70901-1.84546-.99067-.01253-1.69116.65056-1.79703,1.8763-.10229,1.18425-.18915,2.36516-.46993,3.52339-1.02917,4.24552-3.57557,7.16449-7.79748,8.39132-4.09808,1.19085-7.99957.74735-11.31452-2.19897-2.07521-1.84443-3.06141-4.31698-3.68279-6.95045-.17657-.74833-.29086-1.51118-.43751-2.26663-.15478-.79744-.57445-1.25362-1.4587-1.20299-.67411.03858-1.35839-.04938-2.02703.02218-.42055.045-.71454-.00983-.91514-.15045v-5.78859c.12975-.07653.30042-.10596.51414-.08067,3.23597.38286,6.1019-.76916,9.01874-1.95042,5.20542-2.1081,10.31886-1.56768,15.31635.88155,3.1806,1.55877,6.53388,1.66935,9.68586.13384,5.7233-2.78814,11.42254-3.13498,17.20303-.40821,2.18742,1.03186,4.41651,1.47683,6.81942,1.34185.72708-.04084,1.14627-.05026,1.39033.08249v5.83311Zm-.05226,17.02099c-7.24671,10.01545-19.81494,20.91441-29.97387,20.91441-9.77279,0-22.34525-10.89345-29.97387-20.90017v-10.27084c4.89417,5.97219,15.22485,12.63048,16.87156,11.48687,3.03896-2.11051,7.05533-4.90465,13.10231-4.90465s10.06309,2.79396,13.10227,4.90465c1.76886,1.22843,12.64801-5.694,16.8716-11.4414v10.21113Zm-23.48319,2.88321c0-1.36635-2.63194.05689-6.4486.05689s-6.53386-1.42323-6.53386-.05689,1.75703,4.27498,6.53386,4.27498,6.4486-2.90861,6.4486-4.27498Zm8.8293,15.86327c-1.62407.71982-11.97002,5.91138-15.26778,5.92012s-13.64364-5.12792-15.26778-5.83916v14.97748c1.57268-.73984,11.29997-5.90336,15.26778-5.91387s13.69518,5.10148,15.26778,5.83294v-14.97749Z" fill="url(#linear-gradient)" stroke-width="0"/>
  </g>
</svg>