<?xml version="1.0" encoding="UTF-8" standalone="no" ?>
<!DOCTYPE svg PUBLIC "-//W3C//DTD SVG 1.1//EN" "http://www.w3.org/Graphics/SVG/1.1/DTD/svg11.dtd">
<svg xmlns="http://www.w3.org/2000/svg" version="1.1" width="40" height="40" viewBox="0 0 40 40" xml:space="preserve">
<desc>Created with Fabric.js 4.6.0</desc>
    <defs>
</defs>
    <g transform="matrix(1 0 0 1 20.26 20.26)" id="hDHXTtjsuf9458HNbPCCH">
<path style="stroke: rgb(164,251,210); stroke-width: 0; stroke-dasharray: none; stroke-linecap: butt; stroke-dashoffset: 0; stroke-linejoin: miter; stroke-miterlimit: 4; fill: rgb(16,48,71); fill-rule: nonzero; opacity: 1;"
      vector-effect="non-scaling-stroke" transform=" translate(-20, -20)" d="M 0 0 L 40 0 L 40 40 L 0 40 z"
      stroke-linecap="round"/>
</g>
    <g transform="matrix(0.91 0 0 0.91 20.26 20.26)" id="OfoUfBrqMG5-BLOa9QwCh">
<path style="stroke: none; stroke-width: 1; stroke-dasharray: none; stroke-linecap: butt; stroke-dashoffset: 0; stroke-linejoin: miter; stroke-miterlimit: 4; fill: rgb(210,210,210); fill-rule: evenodd; opacity: 1;"
      vector-effect="non-scaling-stroke" transform=" translate(0, 0)"
      d="M 9.21023 8.21072 L -3.260770000000001 11.92872 C -3.437520000000001 11.98231 -3.629430000000001 11.939070000000001 -3.766130000000001 11.81488 C -3.9028300000000007 11.69068 -3.964210000000001 11.50379 -3.9277700000000006 11.32272 L 0.5282299999999998 -10.188279999999999 C 0.5668699999999998 -10.36845 0.7160099999999998 -10.503969999999999 0.8990399999999997 -10.525229999999999 C 1.0820699999999996 -10.546499999999998 1.2583099999999998 -10.44878 1.3372299999999997 -10.282279999999998 L 9.58623 7.378720000000003 C 9.66108 7.537640000000003 9.66252 7.721390000000003 9.59018 7.881470000000003 C 9.51784 8.041550000000003 9.37897 8.161890000000003 9.21023 8.210720000000002 z M 11.34923 7.33272 L 1.8002300000000009 -13.116280000000001 L 1.8002300000000009 -13.116280000000001 C 1.5610400000000009 -13.630270000000001 1.057390000000001 -13.970010000000002 0.49123000000000094 -13.999280000000002 C -0.0752599999999991 -14.038240000000002 -0.615869999999999 -13.756740000000002 -0.908769999999999 -13.270280000000003 L -11.26377 3.6487199999999973 C -11.58617 4.171419999999998 -11.57917 4.832959999999997 -11.245769999999998 5.3487199999999975 L -6.181769999999998 13.257719999999997 C -5.789839999999998 13.864809999999997 -5.0446399999999985 14.140899999999997 -4.351769999999998 13.935719999999998 L 10.348230000000001 9.552719999999997 C 10.797550000000001 9.421849999999997 11.16704 9.100809999999997 11.359390000000001 8.674179999999998 C 11.55174 8.247549999999999 11.54766 7.758089999999998 11.348230000000001 7.334719999999998 z"
      stroke-linecap="round"/>
</g>
</svg>