<svg width="40" height="40" viewBox="0 0 40 40" fill="none" xmlns="http://www.w3.org/2000/svg">
<path d="M20 4C15.7263 4 11.7083 5.66425 8.68625 8.68625C5.66425 11.7083 4 15.7263 4 20C4 24.2737 5.66425 28.2917 8.68625 31.3137C11.7083 34.3357 15.7263 36 20 36C24.2737 36 28.2917 34.3357 31.3137 31.3137C34.3357 28.2917 36 24.2737 36 20C36 15.7263 34.3357 11.7083 31.3137 8.68625C28.2917 5.66425 24.2737 4 20 4Z" fill="#FF7F00"/>
<path d="M35 20C35 28.2843 28.2842 35 20.0001 35C11.7158 35 5 28.2843 5 20C5 11.7157 11.7158 5 20.0001 5C28.2842 5 35 11.7157 35 20Z" fill="white"/>
<path d="M16.6714 13.0885L16.0435 10.7259C16.4028 10.4969 16.6418 10.0959 16.6418 9.63827C16.6418 8.92589 16.0643 8.34827 15.3518 8.34827C14.6394 8.34827 14.0619 8.92589 14.0619 9.63827C14.0619 10.3485 14.6359 10.9244 15.3453 10.9279L15.9749 13.2971C13.5238 14.1109 10.8643 15.8899 10.8643 19.7823C10.9188 25.4084 18.3108 30.4405 20.0125 30.4405V12.6114C20.0125 12.6114 18.481 12.6036 16.6714 13.0885ZM17.9708 24.5999C16.9535 25.8748 11.3789 21.3649 12.3265 18.1441C12.7018 16.626 13.9753 15.9426 15.0154 16.1093C18.809 16.881 19.4229 22.2803 17.9708 24.5999ZM15.6183 19.6672C14.9694 19.6672 14.4434 20.1932 14.4434 20.8421C14.4434 21.491 14.9694 22.017 15.6183 22.017C16.2671 22.017 16.7931 21.491 16.7931 20.8421C16.7931 20.1932 16.2671 19.6672 15.6183 19.6672ZM15.267 20.7512C15.1031 20.7512 14.9703 20.6184 14.9703 20.4545C14.9703 20.2906 15.1031 20.1577 15.267 20.1577C15.4309 20.1577 15.5638 20.2906 15.5638 20.4545C15.5638 20.6184 15.4309 20.7512 15.267 20.7512Z" fill="#FF7F00"/>
<path fill-rule="evenodd" clip-rule="evenodd" d="M23.4185 20.8058C23.4185 20.157 23.9445 19.631 24.5933 19.631C25.2422 19.631 25.7682 20.157 25.7682 20.8058C25.7682 21.4547 25.2422 21.9807 24.5933 21.9807C23.9445 21.9807 23.4185 21.4547 23.4185 20.8058ZM24.6478 20.4182C24.6478 20.5821 24.7807 20.715 24.9446 20.715C25.1085 20.715 25.2413 20.5821 25.2413 20.4182C25.2413 20.2543 25.1085 20.1215 24.9446 20.1215C24.7807 20.1215 24.6478 20.2543 24.6478 20.4182Z" fill="#E57200"/>
<path fill-rule="evenodd" clip-rule="evenodd" d="M20 30.4369L20.0125 30.4411C21.7142 30.4411 29.1596 25.2995 29.1778 19.7823C29.1778 15.8293 26.55 14.0542 24.1085 13.2577L24.7516 10.9406C25.4096 10.882 25.9256 10.3298 25.9256 9.65645C25.9256 8.94408 25.3481 8.36658 24.6357 8.36658C23.9232 8.36658 23.3457 8.94408 23.3457 9.65645C23.3457 10.1258 23.5972 10.5353 23.972 10.7611L23.3407 13.0355C21.536 12.5768 20.0125 12.6118 20.0125 12.6118L20 12.6174V30.4369ZM25.2716 16.1093C21.478 16.8811 20.8641 22.2803 22.3162 24.6C23.3335 25.8748 28.9081 21.365 27.9605 18.1442C27.5852 16.6261 26.3117 15.9427 25.2716 16.1093Z" fill="#E57200"/>
</svg>
