<!-- Copyright 2000-2025 JetBrains s.r.o. and contributors. Use of this source code is governed by the Apache 2.0 license. -->
<svg width="16" height="16" viewBox="0 0 16 16" fill="none" xmlns="http://www.w3.org/2000/svg">
<rect x="2" y="2" width="12" height="12" rx="2" fill="#45322B"/>
<path d="M5.8885 6.00003C6.44472 5.99753 7.01513 6.16223 7.44744 6.53343C7.66896 6.71849 7.84791 6.95071 7.99986 7.19794C8.2733 6.74171 8.67273 6.35408 9.16526 6.16723C9.76544 5.93465 10.4438 5.95073 11.043 6.17866C11.5663 6.37587 12.0239 6.71956 12.4389 7.09755C12.7636 7.39337 13.064 7.71705 13.3984 8.00179C13.5746 8.14934 13.7639 8.2876 13.9806 8.36406C14.2685 8.46552 14.6091 8.36977 14.8151 8.14077C15.0058 7.92641 14.994 7.55592 14.7839 7.36014C14.6503 7.24117 14.4219 7.26511 14.3274 7.42373C14.2446 7.54949 14.291 7.70633 14.3558 7.82816C14.1837 7.69847 14.0114 7.51769 14.0121 7.2819C13.9764 7.0093 14.1723 6.76886 14.407 6.67347C14.8649 6.48448 15.4391 6.64739 15.7281 7.06361C16.0061 7.45196 16.0282 7.96249 15.9798 8.42515C15.9213 8.86459 15.6831 9.27473 15.3301 9.5291C14.8344 9.89423 14.2062 10.0075 13.6085 9.99962C13.0339 9.98355 12.4652 9.84957 11.9329 9.62807C11.0426 9.25865 10.2095 8.74812 9.29021 8.45302C8.98528 8.33083 8.66096 8.26474 8.33491 8.24437C8.07532 8.24259 7.82922 8.23008 7.58416 8.24723C7.28511 8.27688 6.98779 8.34012 6.70778 8.45337C5.77289 8.75348 4.92731 9.27687 4.02011 9.647C3.25414 9.95461 2.40544 10.0975 1.59239 9.92674C1.13758 9.83171 0.684853 9.62414 0.37784 9.25436C0.115131 8.93997 -0.0108587 8.51911 0.00160182 8.10683C-0.0129354 7.71776 0.0697885 7.30441 0.318999 7.00144C0.550902 6.7142 0.924371 6.56844 1.28296 6.60059C1.51382 6.61167 1.7478 6.71563 1.89041 6.90748C2.00255 7.05932 2.00947 7.26725 1.96032 7.44481C1.90044 7.60451 1.77688 7.7292 1.64258 7.82494C1.71111 7.70562 1.75265 7.54806 1.67166 7.42338C1.57197 7.25725 1.32657 7.24046 1.19677 7.37693C1.03686 7.54663 1.00329 7.82387 1.11059 8.0318C1.22688 8.24973 1.46744 8.37406 1.70038 8.39943C2.05274 8.43087 2.35837 8.20543 2.61692 7.98678C3.15203 7.51126 3.63384 6.96715 4.22744 6.56487C4.71686 6.22618 5.29351 5.99717 5.8885 6.00003Z" fill="#C77D55"/>
<path fill-rule="evenodd" clip-rule="evenodd" d="M2 4C2 2.89543 2.89543 2 4 2H12C13.1046 2 14 2.89543 14 4V4.5C14 4.77614 13.7761 5 13.5 5C13.2239 5 13 4.77614 13 4.5V4C13 3.44772 12.5523 3 12 3H4C3.44772 3 3 3.44772 3 4V4.5C3 4.77614 2.77614 5 2.5 5C2.22386 5 2 4.77614 2 4.5V4ZM2.5 11C2.77614 11 3 11.2239 3 11.5V12C3 12.5523 3.44772 13 4 13H12C12.5523 13 13 12.5523 13 12V11.5C13 11.2239 13.2239 11 13.5 11C13.7761 11 14 11.2239 14 11.5V12C14 13.1046 13.1046 14 12 14H4C2.89543 14 2 13.1046 2 12V11.5C2 11.2239 2.22386 11 2.5 11Z" fill="#C77D55"/>
</svg>
