<svg width="16" height="16" viewBox="0 0 16 16" fill="none" xmlns="http://www.w3.org/2000/svg">
<path fill-rule="evenodd" clip-rule="evenodd" d="M10.6748 5.90039C10.2873 5.90039 9.93956 5.97601 9.63184 6.12695C9.32404 6.27515 9.08303 6.48202 8.90918 6.74707C8.73826 7.00917 8.6524 7.30529 8.65234 7.63574C8.65234 7.91219 8.70925 8.16767 8.82324 8.40137C8.94009 8.63222 9.10559 8.82462 9.31934 8.97852C9.33025 8.98637 9.34241 8.99241 9.35352 9H7.25879L10.1758 14H4C2.89543 14 2 13.1046 2 12V4C2 2.89543 2.89543 2 4 2H12C13.1046 2 14 2.89543 14 4V9H12.2988C12.2443 8.94864 12.1863 8.89984 12.124 8.85449C11.8961 8.68641 11.6352 8.57672 11.3418 8.52539L10.3457 8.3623C10.1434 8.3281 9.97892 8.24121 9.85352 8.10156C9.72835 7.95916 9.66604 7.79125 9.66602 7.59766C9.66602 7.43236 9.70845 7.28653 9.79395 7.16113C9.87943 7.03587 9.99954 6.93944 10.1533 6.87109C10.3072 6.80274 10.4852 6.76855 10.6875 6.76855C10.8898 6.76857 11.0678 6.80379 11.2217 6.875C11.3756 6.94625 11.4956 7.04761 11.5811 7.17871C11.6664 7.30681 11.7089 7.45204 11.709 7.61426H12.7227C12.7197 7.28097 12.6308 6.98483 12.457 6.72559C12.2832 6.46624 12.0411 6.26351 11.7305 6.11816C11.4228 5.97288 11.0708 5.90042 10.6748 5.90039ZM3.13477 6V7H5V12H6V7H7.87109V6H3.13477Z" fill="#6C707E"/>
<path d="M13.3083 9.99053L12.5 11.3762L11.6917 9.99053H9L12.5 15.9905L16 9.99053H13.3083Z" fill="#6C707E"/>
<path d="M13.3083 9.99053L12.5 11.3762L11.6917 9.99053H10.4L12.5 13.5905L14.6 9.99053H13.3083Z" fill="#C3C5CB"/>
</svg>
