<svg width="16" height="16" viewBox="0 0 16 16" fill="none" xmlns="http://www.w3.org/2000/svg">
<path d="M12 2C13.1046 2 14 2.89543 14 4V9H7.25879L10.1758 14H4C2.89543 14 2 13.1046 2 12V4C2 2.89543 2.89543 2 4 2H12Z" fill="#3574F0"/>
<path d="M7.87109 7H6V12H5V7H3.13477V6H7.87109V7Z" fill="white"/>
<path d="M10.6748 5.90039C11.0708 5.90042 11.4228 5.97288 11.7305 6.11816C12.0411 6.26351 12.2832 6.46624 12.457 6.72559C12.6308 6.98483 12.7197 7.28097 12.7227 7.61426H11.709C11.7089 7.45204 11.6664 7.30681 11.5811 7.17871C11.4956 7.04761 11.3756 6.94625 11.2217 6.875C11.0678 6.80379 10.8898 6.76857 10.6875 6.76855C10.4852 6.76855 10.3072 6.80274 10.1533 6.87109C9.99954 6.93944 9.87943 7.03587 9.79395 7.16113C9.70845 7.28653 9.66602 7.43236 9.66602 7.59766C9.66604 7.79125 9.72835 7.95916 9.85352 8.10156C9.97892 8.24121 10.1434 8.3281 10.3457 8.3623L11.3418 8.52539C11.6352 8.57672 11.8961 8.68641 12.124 8.85449C12.1863 8.89984 12.2443 8.94864 12.2988 9H9.35352C9.34241 8.99241 9.33025 8.98637 9.31934 8.97852C9.10559 8.82462 8.94009 8.63222 8.82324 8.40137C8.70925 8.16767 8.65234 7.91219 8.65234 7.63574C8.6524 7.30529 8.73826 7.00917 8.90918 6.74707C9.08303 6.48202 9.32404 6.27515 9.63184 6.12695C9.93956 5.97601 10.2873 5.90039 10.6748 5.90039Z" fill="white"/>
<path d="M13.3083 10L12.5 11.3856L11.6917 10H9L12.5 16L16 10H13.3083Z" fill="#41B883"/>
<path d="M13.3083 10L12.5 11.3856L11.6917 10H10.4L12.5 13.5999L14.6 10H13.3083Z" fill="#34495E"/>
</svg>
