<svg xmlns="http://www.w3.org/2000/svg" width="16" height="16" viewBox="0 0 16 16">
  <g fill="none" fill-rule="evenodd">
    <polygon fill="#9AA7B0" fill-opacity=".8" points="1 14 6 14 6 12 1 12"/>
    <polygon fill="#9AA7B0" fill-opacity=".8" points="1 2 1 11 6 11 6 9 3 9 3 4 13 4 13 6 15 6 15 2"/>
    <g transform="translate(7 7)">
      <path fill="#751E21" d="M1.74497938,2.51415464 L1.74859794,2.5177732 L1.74934021,2.51842268 C2.15276289,2.90848454 2.57446392,3.13626804 3.05536082,3.59619588 L3.05517526,3.59619588 C1.9327732,2.70046392 -0.425412371,2.18124742 0.157360825,0.838113402 C0.219896907,0.709979381 0.313515464,0.582587629 0.423556701,0.472453608 C0.533505155,0.362412371 0.660989691,0.268701031 0.788659794,0.206350515 C2.1324433,-0.377721649 2.65184536,1.98129897 3.54757732,3.10379381 L3.54739175,3.10397938 C3.08764948,2.62308247 2.85986598,2.20147423 2.46971134,1.79786598 L2.46896907,1.79721649 L2.46553608,1.79359794 L2.45987629,1.78821649 C2.26419588,1.59225773 1.94650515,1.59216495 1.75082474,1.78821649 L1.74497938,1.79378351 L1.73959794,1.7994433 C1.54345361,1.99530928 1.54345361,2.31281443 1.73959794,2.50868041 L1.74497938,2.51415464"/>
      <path fill="#1D5895" d="M1.74497938,6.55079381 L1.74859794,6.54736082 L1.74934021,6.54661856 C2.15276289,6.15646392 2.57446392,5.92868041 3.05536082,5.46893814 L3.05517526,5.46875258 C1.9327732,6.36448454 -0.425597938,6.88370103 0.157360825,8.22683505 C0.219896907,8.35496907 0.313515464,8.48254639 0.423927835,8.5927732 C0.533505155,8.70253608 0.660989691,8.79624742 0.788659794,8.85859794 C2.1324433,9.4426701 2.65184536,7.08374227 3.54757732,5.96106186 L3.54757732,5.96087629 C3.08764948,6.44186598 2.85986598,6.86356701 2.46971134,7.26698969 L2.46896907,7.26763918 L2.46553608,7.27125773 L2.45987629,7.27691753 C2.26419588,7.47278351 1.94650515,7.47278351 1.75082474,7.27691753 L1.74497938,7.27125773 L1.73959794,7.26569072 C1.54345361,7.06982474 1.54345361,6.75231959 1.73959794,6.55636082 L1.74497938,6.55079381"/>
      <path fill="#9D3B2A" d="M7.22282474,6.55097938 L7.21920619,6.54736082 L7.21846392,6.54661856 C6.81494845,6.15646392 6.39343299,5.92868041 5.91225773,5.46893814 L5.9124433,5.46875258 C7.03512371,6.36448454 9.39349485,6.88370103 8.81035052,8.22683505 C8.74818557,8.35496907 8.65428866,8.48254639 8.54406186,8.5927732 C8.43429897,8.70253608 8.30690722,8.79624742 8.17914433,8.85859794 C6.83536082,9.4426701 6.31605155,7.08374227 5.42013402,5.96106186 L5.42041237,5.96106186 C5.88015464,6.44186598 6.10803093,6.86356701 6.49818557,7.26698969 L6.49874227,7.26763918 L6.50217526,7.27125773 L6.50774227,7.27691753 C6.70351546,7.47278351 7.02129897,7.47278351 7.21707216,7.27691753 L7.22848454,7.26569072 C7.42435052,7.06963918 7.42435052,6.75231959 7.22848454,6.55636082 L7.22282474,6.55097938"/>
      <path fill="#3A5E30" d="M7.22282474,2.51415464 L7.21920619,2.5177732 L7.21846392,2.51842268 C6.81494845,2.90848454 6.39343299,3.13626804 5.91225773,3.59619588 L5.9124433,3.59638144 C7.03512371,2.70046392 9.39349485,2.18124742 8.81035052,0.838113402 C8.74818557,0.709979381 8.65428866,0.582587629 8.54406186,0.472453608 C8.43429897,0.362412371 8.30690722,0.268701031 8.17914433,0.206350515 C6.83536082,-0.377721649 6.31605155,1.98129897 5.42013402,3.10397938 L5.42041237,3.10397938 C5.88015464,2.62308247 6.10803093,2.20138144 6.49818557,1.79795876 L6.49874227,1.79721649 L6.50217526,1.79359794 L6.50774227,1.78821649 C6.70351546,1.59216495 7.02129897,1.59216495 7.21707216,1.78821649 L7.22282474,1.79378351 L7.22848454,1.7994433 C7.42435052,1.99521649 7.42435052,2.31281443 7.22848454,2.50868041 L7.22282474,2.51415464"/>
      <path fill="#C4242B" d="M3.61929897,4.53256701 C3.60593814,6.12890722 -0.606989691,6.48278351 0.159123711,8.23119588 C-0.535639175,6.87460825 1.34795876,6.2555567 1.65869072,4.96818557 C1.72503093,4.69345361 1.72401031,4.35386598 1.65470103,4.08024742 C1.33181443,2.80410309 -0.532762887,2.18449485 0.159123711,0.833752577 C-0.606989691,2.58216495 3.60612371,2.93604124 3.61929897,4.53256701"/>
      <path fill="#79A240" d="M4.04628866,1.70703093 C2.76003093,1.39481443 2.14097938,-0.486649485 0.785041237,0.207835052 C2.53345361,-0.558185567 2.88742268,3.65492784 4.48394845,3.66801031 C6.08047423,3.65492784 6.43435052,-0.558185567 8.18276289,0.207835052 C6.82580412,-0.487020619 6.20675258,1.39731959 4.91863918,1.70758763 C4.64919588,1.7724433 4.31591753,1.77235052 4.04628866,1.70703093"/>
      <path fill="#329DCC" d="M4.04591753,7.35810309 C2.76003093,7.67069072 2.14079381,9.55141237 0.785041237,8.85729897 C2.53345361,9.62331959 2.88742268,5.41002062 4.48394845,5.39693814 C6.08047423,5.41002062 6.43435052,9.62331959 8.18276289,8.85729897 C6.82469072,9.55280412 6.20563918,7.66438144 4.91557732,7.35661856 C4.64650515,7.29250515 4.31461856,7.29306186 4.04591753,7.35810309"/>
      <path fill="#E6762B" d="M5.34850515,4.53256701 C5.3617732,2.9362268 9.5748866,2.58216495 8.80849485,0.833752577 C9.50325773,2.19043299 7.61975258,2.80939175 7.30892784,4.09694845 C7.2427732,4.37149485 7.2438866,4.71126804 7.31310309,4.9848866 C7.63598969,6.26103093 9.50019588,6.88045361 8.80849485,8.23119588 C9.5748866,6.48278351 5.36158763,6.12890722 5.34850515,4.53256701"/>
    </g>
  </g>
</svg>
