<svg xmlns="http://www.w3.org/2000/svg" width="16" height="16" viewBox="0 0 16 16">
  <g fill="none" fill-rule="evenodd">
    <path fill="#9AA7B0" fill-opacity=".8" d="M5,14.3256239 C2.63569298,13.2015163 1,10.7906154 1,8 C1,4.136 4.136,1 8,1 C11.864,1 15,4.136 15,8 L13.6,8 C13.6,5.655 12.151,3.646 10.1,2.813 L10.1,3.1 C10.1,3.87 9.47,4.5 8.7,4.5 L7.3,4.5 L7.3,5.9 C7.3,6.285 6.985,6.6 6.6,6.6 L5.2,6.6 L5.2,8 L9.4,8 L5,8 L5,9.2 L2.547,6.747 C2.456,7.153 2.4,7.566 2.4,8 C2.4,9.98978367 3.43631837,11.7349282 5,12.7264786 L5,14.3256239 Z"/>
    <polygon fill="#F26522" fill-opacity=".6" points="6 16 16 16 16 9 6 9"/>
    <path fill="#231F20" fill-opacity=".7" d="M3.15,3 L2.49612121,1.4 L1.85,3 L3.15,3 Z M2.109,0 L2.89,0 L5,5 L3.9,5 L3.4,4 L1.6,4 L1.1,5 L0,5 L2.109,0 Z" transform="translate(7 10)"/>
    <path fill="#231F20" fill-opacity=".7" d="M0.972767969,1.50152588 C0.972767969,1.13305664 1.284,1 1.845,1 C1.85033333,1 2.23533333,1 3,1 L3,0 C2.26266667,0 1.88266667,0 1.86,0 C0.778,0 0,0.45916748 0,1.45 C0,2.31452637 0.419555664,2.69049072 1.47125244,2.91607666 C2.24158869,3.08131157 2.496155,3.22862939 2.496155,3.548 C2.496155,3.86737061 2.13842773,4 1.47125244,4 C1.46058577,4 1.07016829,4 0.3,4 L0.3,5 C1.07550163,5 1.46591911,5 1.47125244,5 C3.5,5 3.5,4 3.5,3.548 C3.5,2.91607666 3.02026367,2.42071533 2.15869141,2.14685059 C1.29711914,1.87298584 0.972767969,1.86999512 0.972767969,1.50152588 Z" transform="translate(12 10)"/>
  </g>
</svg>
