<svg width="140" height="48" viewBox="0 0 140 48" fill="none" xmlns="http://www.w3.org/2000/svg">
  <g clip-path="url(#clip0_526_21)">
    <path fill-rule="evenodd" clip-rule="evenodd" d="M56.8061 9.54547C58.4663 9.54547 59.9646 9.93307 61.301 10.7141H61.2894C62.6258 11.4893 63.6787 12.5653 64.4423 13.9306C65.206 15.2959 65.5878 16.8232 65.5878 18.5066C65.5878 20.1901 65.206 21.7174 64.4423 23.0827C63.6787 24.448 62.6258 25.5182 61.2894 26.2992C60.387 26.8256 59.4093 27.167 58.3564 27.3405V27.5199C58.3564 27.7918 58.4084 28.0232 58.5126 28.2199C58.6167 28.4165 58.7613 28.5612 58.9522 28.6595C59.1432 28.7579 59.3746 28.8099 59.6465 28.8099H61.7291V31.1356H59.1027C58.3737 31.1356 57.7375 30.9967 57.1879 30.7075C56.6383 30.4182 56.216 30.019 55.921 29.4984C55.6259 28.9777 55.4755 28.3645 55.4755 27.6645V27.3752C54.3416 27.2248 53.2887 26.8661 52.3226 26.2992C50.9862 25.524 49.9334 24.448 49.1639 23.0827C48.3945 21.7174 48.0127 20.1901 48.0127 18.5066C48.0127 16.8232 48.3945 15.2959 49.1639 13.9306C49.9334 12.5653 50.9862 11.4951 52.3226 10.7141C53.659 9.93307 55.1458 9.54547 56.8061 9.54547ZM59.6927 23.9446C60.5489 23.4124 61.22 22.6661 61.706 21.7116C62.1919 20.757 62.4349 19.6926 62.4349 18.5124C62.4349 17.3322 62.1919 16.2678 61.706 15.3132C61.22 14.3587 60.5489 13.6182 59.6927 13.0802C58.8365 12.5422 57.8762 12.276 56.8119 12.276C55.7474 12.276 54.7813 12.5422 53.9251 13.0802C53.0631 13.6124 52.392 14.3587 51.9061 15.3132C51.4201 16.2678 51.1772 17.3322 51.1772 18.5124C51.1772 19.6926 51.4201 20.757 51.9061 21.7116C52.392 22.6661 53.0689 23.4066 53.9251 23.9446C54.7871 24.4827 55.7416 24.7488 56.8119 24.7488C57.882 24.7488 58.8365 24.4827 59.6927 23.9446ZM73.8837 14.2025C75.1275 14.2025 76.2613 14.4918 77.2737 15.0703C78.2861 15.6488 79.0845 16.4471 79.6688 17.4537C80.2531 18.4603 80.5423 19.5942 80.5423 20.838C80.5423 22.0818 80.2531 23.2099 79.6688 24.2223C79.0845 25.2347 78.2861 26.0273 77.2737 26.6058C76.2556 27.1843 75.1101 27.4736 73.8663 27.4736C72.6225 27.4736 71.4886 27.1843 70.4762 26.6058C69.4638 26.0273 68.6655 25.2347 68.0812 24.2223C67.4969 23.2157 67.2076 22.0818 67.2076 20.838C67.2076 19.5942 67.4969 18.4661 68.0754 17.4537C68.6539 16.4413 69.4522 15.6488 70.4704 15.0703C71.4944 14.4918 72.6398 14.2025 73.8837 14.2025ZM75.7638 24.3554C76.3134 24.0199 76.7415 23.5455 77.0423 22.9322C77.3432 22.319 77.4936 21.6306 77.4936 20.838C77.4936 20.0455 77.3432 19.3455 77.0365 18.738C76.7357 18.1306 76.3076 17.6562 75.758 17.3149C75.2084 16.9736 74.5779 16.8 73.8721 16.8C73.1663 16.8 72.5357 16.9736 71.9861 17.3091C71.4365 17.6446 71.0142 18.119 70.7134 18.7323C70.4126 19.3455 70.2622 20.0513 70.2622 20.838C70.2622 21.6248 70.4126 22.319 70.7134 22.9322C71.0142 23.5397 71.4365 24.0199 71.9861 24.3554C72.5299 24.6967 73.1663 24.8645 73.8721 24.8645C74.5779 24.8645 75.2142 24.6909 75.7638 24.3554ZM90.6142 14.8967C91.2506 15.267 91.7713 15.7703 92.182 16.3951V9.85787H95.1035V27.1901H92.182V25.2926C91.7713 25.9116 91.2506 26.4149 90.6142 26.7909C89.8274 27.2537 88.9076 27.4851 87.8605 27.4851C86.7382 27.4851 85.7316 27.2017 84.8407 26.6347C83.9498 26.0678 83.2498 25.281 82.7465 24.2686C82.2432 23.2562 81.9944 22.1165 81.9944 20.8438C81.9944 19.5711 82.2432 18.4314 82.7465 17.419C83.2498 16.4066 83.9498 15.6199 84.8349 15.0529C85.72 14.486 86.7324 14.2025 87.8605 14.2025C88.9076 14.2025 89.8274 14.4339 90.6142 14.8967ZM90.4522 24.3612C90.996 24.0199 91.4184 23.5455 91.725 22.938C92.0316 22.3306 92.182 21.6306 92.182 20.838C92.182 20.0455 92.0316 19.3455 91.725 18.738C91.4241 18.1306 90.996 17.6562 90.4522 17.3149C89.9084 16.9736 89.2663 16.8 88.5721 16.8C87.8779 16.8 87.2589 16.9736 86.7151 17.3149C86.1713 17.6562 85.7489 18.1306 85.4481 18.738C85.1473 19.3455 84.9969 20.0455 84.9969 20.838C84.9969 21.6306 85.1473 22.3306 85.4481 22.9438C85.7489 23.557 86.1713 24.0314 86.7151 24.367C87.2589 24.7083 87.8663 24.8761 88.5721 24.8761C89.2779 24.8761 89.9084 24.7025 90.4522 24.3612ZM105.968 14.8909C106.61 15.2727 107.137 15.7818 107.547 16.4124V14.4975H110.422V27.1785H107.547V25.2637C107.137 25.8942 106.61 26.4091 105.968 26.7851C105.181 27.248 104.261 27.4794 103.214 27.4794C102.092 27.4794 101.085 27.1959 100.194 26.6289C99.3035 26.062 98.6035 25.2752 98.1002 24.2628C97.5969 23.2504 97.3423 22.1108 97.3423 20.838C97.3423 19.5653 97.5969 18.4256 98.1002 17.4132C98.6035 16.4008 99.3035 15.6141 100.189 15.0471C101.074 14.4802 102.08 14.1967 103.214 14.1967C104.261 14.1967 105.181 14.4281 105.968 14.8909ZM105.8 24.3612C106.35 24.0199 106.772 23.5455 107.079 22.938C107.385 22.3306 107.536 21.6306 107.536 20.838C107.536 20.0455 107.385 19.3455 107.079 18.738C106.772 18.1306 106.344 17.6562 105.8 17.3149C105.256 16.9736 104.614 16.8 103.92 16.8C103.226 16.8 102.607 16.9736 102.063 17.3149C101.519 17.6562 101.097 18.1306 100.796 18.738C100.495 19.3455 100.345 20.0455 100.345 20.838C100.345 21.6306 100.495 22.3306 100.796 22.9438C101.097 23.557 101.519 24.0314 102.063 24.367C102.607 24.7083 103.214 24.8761 103.92 24.8761C104.626 24.8761 105.256 24.7025 105.8 24.3612ZM120.107 14.1967C121.015 14.1967 121.813 14.3992 122.496 14.7926L122.502 14.8099C123.184 15.2033 123.717 15.7761 124.099 16.5281C124.475 17.2744 124.665 18.1711 124.665 19.2124V27.1843H121.756V19.6579C121.756 19.0446 121.651 18.524 121.443 18.0959C121.235 17.6678 120.94 17.338 120.552 17.1124C120.165 16.8868 119.702 16.7711 119.164 16.7711C118.591 16.7711 118.076 16.8984 117.631 17.1587C117.185 17.419 116.838 17.7777 116.595 18.2463C116.352 18.7149 116.231 19.2413 116.231 19.8372V27.1785H113.309V14.4975H116.144V16.3546C116.508 15.7413 116.977 15.2438 117.561 14.8794C118.284 14.4223 119.135 14.1967 120.107 14.1967ZM136.988 16.4124V14.4975H139.857V27.1785H136.988V25.2637C136.577 25.8942 136.051 26.4091 135.408 26.7851C134.622 27.248 133.702 27.4794 132.655 27.4794C131.532 27.4794 130.526 27.1959 129.635 26.6289C128.744 26.062 128.044 25.2752 127.541 24.2628C127.037 23.2504 126.789 22.1108 126.789 20.838C126.789 19.5653 127.037 18.4256 127.541 17.4132C128.044 16.4008 128.744 15.6141 129.629 15.0471C130.514 14.4802 131.527 14.1967 132.655 14.1967C133.702 14.1967 134.622 14.4281 135.408 14.8909C136.051 15.2727 136.577 15.7818 136.988 16.4124ZM135.246 24.3612C135.79 24.0199 136.213 23.5455 136.519 22.938C136.826 22.3306 136.976 21.6306 136.976 20.838C136.976 20.0455 136.826 19.3455 136.519 18.738C136.218 18.1306 135.79 17.6562 135.246 17.3149C134.703 16.9736 134.061 16.8 133.366 16.8C132.672 16.8 132.053 16.9736 131.509 17.3149C130.965 17.6562 130.543 18.1306 130.242 18.738C129.942 19.3455 129.791 20.0455 129.791 20.838C129.791 21.6306 129.942 22.3306 130.242 22.9438C130.543 23.557 130.965 24.0314 131.509 24.367C132.053 24.7083 132.661 24.8761 133.366 24.8761C134.072 24.8761 134.703 24.7025 135.246 24.3612ZM52.1952 39.0587C52.6979 39.0587 53.1544 39.1974 53.5589 39.4632C53.9634 39.7347 54.2812 40.1046 54.5123 40.5727C54.7435 41.0407 54.859 41.5723 54.859 42.1617C54.859 42.7512 54.7435 43.2828 54.5123 43.7508C54.2812 44.2246 53.9634 44.5945 53.5589 44.8603C53.1544 45.1319 52.6979 45.2648 52.1894 45.2648C51.7155 45.2648 51.2995 45.1608 50.947 44.9528C50.6696 44.7967 50.4616 44.5656 50.2825 44.2998V45.1261H48.5951V37.0246H50.2882V40.0237C50.4674 39.7637 50.6754 39.5325 50.9528 39.3707C51.3052 39.1627 51.7213 39.0587 52.1952 39.0587ZM52.4551 43.5602C52.669 43.4272 52.8366 43.2365 52.9579 42.9938C53.0792 42.7512 53.137 42.4796 53.137 42.1617C53.137 41.8439 53.0792 41.5665 52.9579 41.3239C52.8366 41.0812 52.669 40.8904 52.4551 40.7576C52.2414 40.6247 51.9987 40.5553 51.7155 40.5553C51.4324 40.5553 51.1839 40.6247 50.9701 40.7576C50.7563 40.8904 50.5887 41.0812 50.4674 41.3239C50.346 41.5665 50.2882 41.8382 50.2882 42.1559C50.2882 42.4738 50.346 42.7512 50.4674 42.9938C50.5887 43.2365 50.7563 43.4272 50.9701 43.5602C51.1839 43.693 51.4382 43.7624 51.7155 43.7624C51.9929 43.7624 52.2414 43.693 52.4551 43.5602ZM56.5926 39.1974L57.956 42.8783H57.9618L59.216 39.1974H60.9151L58.453 45.4843C58.28 45.9351 58.0255 46.2933 57.6963 46.5649C57.3669 46.8366 56.9624 46.9694 56.4886 46.9694H55.4311V45.4728H56.3788C56.5117 45.4728 56.6215 45.4439 56.7081 45.3861C56.7948 45.3284 56.8699 45.2417 56.9335 45.1203L57.1068 44.7679L54.8475 39.1974H56.5926ZM66.1501 42.9187C66.2484 42.7396 66.2947 42.5373 66.2947 42.312V37.0246H68.0858V42.4391C68.0858 42.9476 67.9707 43.4041 67.7335 43.8144C67.4969 44.2246 67.1729 44.5425 66.7627 44.7736C66.3526 45.0048 65.8846 45.1203 65.3703 45.1203H64.0003V43.4734H65.1331C65.3645 43.4734 65.5664 43.4272 65.7399 43.329C65.9193 43.2308 66.0518 43.0979 66.1501 42.9187ZM74.9684 41.8208H71.2121V41.8266V43.5659H75.4769V45.1261H69.4673V37.0246H75.3612V38.5906H71.2121V40.3068H74.9684V41.8208ZM78.5279 38.6311H76.1294H76.1237V37.0246H82.7054V38.6311H80.319V45.1203H78.5279V38.6311ZM88.4668 40.8847C88.6346 40.9309 88.7902 40.9887 88.9348 41.0638H88.9406C89.2698 41.243 89.5301 41.4857 89.7146 41.8034C89.8998 42.1213 89.9923 42.4796 89.9923 42.8783C89.9923 43.3117 89.8766 43.6988 89.64 44.0397C89.4028 44.3807 89.0737 44.6465 88.6461 44.8372C88.218 45.0279 87.7327 45.1261 87.19 45.1261H83.5205V37.0246H87.1206C87.6349 37.0246 88.0971 37.1171 88.5015 37.2963C88.9059 37.4754 89.2177 37.7296 89.4433 38.0532C89.6689 38.3768 89.7783 38.7466 89.7783 39.1569C89.7783 39.5152 89.6921 39.833 89.5243 40.1104C89.3565 40.3877 89.1199 40.6073 88.8249 40.7576C88.7213 40.8121 88.6022 40.8461 88.487 40.8789L88.4668 40.8847ZM86.8487 38.3826H85.2595V38.3942V40.3762H86.8487C87.0685 40.3762 87.2646 40.33 87.4324 40.249C87.606 40.1682 87.7327 40.0526 87.831 39.8965C87.9294 39.7405 87.9756 39.5556 87.9756 39.3592C87.9756 39.1627 87.9236 38.9893 87.831 38.8449C87.7327 38.6946 87.6002 38.5848 87.4324 38.504C87.2646 38.423 87.0685 38.3826 86.8487 38.3826ZM87.5655 43.641C87.75 43.5544 87.8946 43.4388 87.9988 43.2828V43.2943C88.1029 43.1383 88.155 42.9649 88.155 42.7569C88.155 42.5489 88.1029 42.364 87.9988 42.2022C87.8946 42.0404 87.7442 41.9132 87.5597 41.8266C87.3688 41.7399 87.1553 41.6937 86.9181 41.6937H85.2595V43.7681H86.9181C87.1611 43.7681 87.3803 43.7277 87.5655 43.641ZM97.1346 40.9424C96.8859 41.3296 96.5393 41.6359 96.0887 41.8497H96.0829C96.0019 41.8902 95.9094 41.9248 95.8168 41.9595L97.6663 45.1261H95.6207L93.9794 42.1733H92.812V45.1261H91.0209V37.0246H94.5689C95.1527 37.0246 95.667 37.1287 96.1118 37.3425C96.5567 37.5563 96.8975 37.8568 97.1404 38.2439C97.3828 38.6311 97.5043 39.0703 97.5043 39.5845C97.5043 40.0988 97.3828 40.5553 97.1346 40.9424ZM95.0775 40.59C95.262 40.4975 95.4066 40.3646 95.505 40.197V40.2028C95.6033 40.0352 95.6554 39.8388 95.6554 39.6076C95.6554 39.3765 95.6033 39.18 95.505 39.0125C95.4066 38.8449 95.262 38.7178 95.0775 38.6253C94.8923 38.5386 94.6731 38.4924 94.4243 38.4924H92.812V40.7287H94.4243C94.6731 40.7287 94.8923 40.6825 95.0775 40.59ZM98.2558 45.1261L101.151 37.0246H101.156H103.098L106.051 45.1261H104.265L103.653 43.3405H100.648L100.076 45.1261H98.2558ZM101.988 39.1223L101.058 41.9826H103.202L102.208 39.1223L102.098 38.6022L101.988 39.1223ZM108.599 45.1261H106.75V37.0246H108.599V45.1261ZM111.743 37.0246L115.221 42.5027H115.227V37.0246H116.862V45.1261H115.1L111.633 39.6481V45.1261H109.997V37.0246H111.743ZM123.097 40.746C123.415 40.9772 123.663 41.2603 123.837 41.5955V41.5839C124.016 41.9248 124.103 42.2947 124.103 42.6934C124.103 43.1845 123.97 43.6237 123.71 44.0109C123.45 44.398 123.086 44.7043 122.623 44.9239C122.155 45.1434 121.618 45.2532 121.023 45.2532C120.428 45.2532 119.896 45.1434 119.434 44.9296C118.971 44.7158 118.607 44.4096 118.342 44.0282C118.076 43.6468 117.937 43.1961 117.932 42.6934H119.723C119.723 42.9014 119.781 43.0863 119.89 43.2481C120 43.4099 120.156 43.5312 120.358 43.6179C120.56 43.7046 120.792 43.7508 121.04 43.7508C121.289 43.7508 121.502 43.7104 121.687 43.6352C121.872 43.5602 122.011 43.4504 122.115 43.3059C122.219 43.1614 122.271 42.9996 122.271 42.8205C122.271 42.5951 122.202 42.4102 122.063 42.2599C121.924 42.1097 121.734 42.0057 121.496 41.948L120.04 41.6475C119.659 41.5665 119.324 41.4221 119.035 41.2141C118.746 41.006 118.521 40.7402 118.365 40.4282C118.209 40.1104 118.128 39.7579 118.128 39.3707C118.128 38.8853 118.255 38.4577 118.497 38.0821C118.746 37.7065 119.087 37.4118 119.526 37.198C119.966 36.9842 120.463 36.8802 121.028 36.8802C121.595 36.8802 122.103 36.9842 122.542 37.1865C122.982 37.3887 123.329 37.6718 123.577 38.0359C123.825 38.3942 123.959 38.816 123.97 39.284H122.178C122.178 39.1107 122.126 38.9547 122.034 38.816C121.936 38.6773 121.803 38.5733 121.635 38.4982C121.468 38.4173 121.266 38.3826 121.046 38.3826C120.826 38.3826 120.63 38.423 120.463 38.4924C120.295 38.5617 120.162 38.6658 120.069 38.7929C119.977 38.9257 119.931 39.076 119.931 39.2494C119.931 39.4458 119.994 39.6019 120.121 39.7347C120.249 39.8677 120.422 39.9543 120.636 40.0064L122.011 40.2895C122.421 40.3646 122.78 40.5206 123.097 40.746Z" fill="black"/>
    <path d="M27.5079 33.5537H34.5998C35.9325 33.5537 37.0071 32.4621 36.9857 31.1294L36.8838 24.7408C36.8729 24.0574 36.5696 23.4117 36.0507 22.9669L13.9758 4.0456C13.5434 3.675 12.9923 3.47107 12.4228 3.47107H5.85707C4.53914 3.47107 3.4707 4.53951 3.4707 5.85743V12.2229C3.4707 12.9109 3.76791 13.5658 4.28568 14.0188L25.9365 32.9633C26.3715 33.344 26.9297 33.5537 27.5079 33.5537Z" fill="#7256FF"/>
    <path d="M28.3545 33.5537H34.6382C35.9561 33.5537 37.0245 32.4853 37.0245 31.1674V23.898C37.0245 23.7823 37.0162 23.6666 36.9993 23.552L33.8474 2.04034C33.6757 0.868492 32.6705 0 31.4864 0H22.5787C21.2604 0 20.192 1.0688 20.1924 2.38709L20.1949 13.0921C20.1949 13.3383 20.2332 13.5831 20.3081 13.8174L26.0809 31.8934C26.3969 32.8823 27.3164 33.5537 28.3545 33.5537Z" fill="url(#paint0_linear_526_21)"/>
    <path d="M2.38636 37.0248H22.1295C23.0888 37.0248 23.9548 36.4503 24.3279 35.5666L33.4669 13.9179C33.5935 13.6182 33.6575 13.2957 33.6546 12.9702L33.5678 2.36684C33.557 1.05651 32.4918 0 31.1815 0H20.9616C20.4956 0 20.04 0.136312 19.6506 0.392304L1.07567 12.604C0.404236 13.0455 0 13.7946 0 14.598V34.6384C0 35.9563 1.06844 37.0248 2.38636 37.0248Z" fill="url(#paint1_linear_526_21)"/>
    <path d="M30.0829 6.94214H6.94238V30.0826H30.0829V6.94214Z" fill="black"/>
    <path fill-rule="evenodd" clip-rule="evenodd" d="M11.537 18.0752C10.8612 17.6847 10.3297 17.1471 9.94324 16.463C9.55668 15.7789 9.36328 15.0153 9.36328 14.1717C9.36328 13.3282 9.55633 12.5646 9.94324 11.8805C10.3297 11.1964 10.8609 10.6587 11.537 10.2682C12.2128 9.87772 12.9685 9.68213 13.8034 9.68213C14.6382 9.68213 15.3877 9.87738 16.0635 10.2682C16.7393 10.6587 17.2697 11.1964 17.6541 11.8805C18.0384 12.5646 18.2308 13.3282 18.2308 14.1717C18.2308 15.0153 18.0384 15.7789 17.6541 16.463C17.2697 17.1471 16.7393 17.6847 16.0635 18.0752C15.6224 18.3301 15.1481 18.502 14.6408 18.5906V18.6299C14.6408 18.7579 14.6657 18.8685 14.7152 18.9615C14.7647 19.0544 14.836 19.1249 14.9293 19.1722C15.0222 19.2196 15.1328 19.2435 15.2612 19.2435H16.3217V20.496H14.9264C14.55 20.496 14.2206 20.4226 13.9375 20.2757L13.9371 20.2765C13.654 20.1297 13.4367 19.9218 13.2859 19.6531C13.1348 19.3845 13.0596 19.0681 13.0596 18.7044L13.059 18.6062C12.5142 18.5231 12.0055 18.3462 11.537 18.0752ZM15.1864 16.7855C15.5957 16.5274 15.916 16.1694 16.1474 15.7127C16.3788 15.2561 16.4945 14.7423 16.4945 14.1717C16.4945 13.6011 16.3788 13.0877 16.1474 12.6307C15.916 12.1741 15.5957 11.8164 15.1864 11.558C14.7771 11.2998 14.316 11.1704 13.8037 11.1704C13.2914 11.1704 12.8293 11.2994 12.4178 11.558C12.0063 11.8164 11.6838 12.1741 11.4506 12.6307C11.217 13.0874 11.1003 13.6011 11.1003 14.1717C11.1003 14.7423 11.217 15.2561 11.4506 15.7127C11.6842 16.1694 12.0067 16.5274 12.4178 16.7855C12.8293 17.044 13.291 17.1731 13.8037 17.1731C14.3164 17.1731 14.7774 17.044 15.1864 16.7855Z" fill="white"/>
    <path d="M19.0873 25.4545H9.83105V27.1901H19.0873V25.4545Z" fill="white"/>
    <path fill-rule="evenodd" clip-rule="evenodd" d="M23.018 9.83112H19.7129V18.5124H23.018C23.8406 18.5124 24.5774 18.3266 25.2286 17.9545C25.8794 17.5824 26.3889 17.0669 26.757 16.4074C27.1247 15.7479 27.3088 15.003 27.3088 14.1718C27.3088 13.3405 27.1247 12.5957 26.757 11.9361C26.3893 11.2766 25.8798 10.7611 25.2286 10.389C24.5774 10.0169 23.8406 9.83112 23.018 9.83112ZM25.2568 15.7063C25.046 16.1383 24.7463 16.4702 24.3576 16.7016C23.9689 16.9331 23.5162 17.0484 22.9995 17.0484H21.4057V11.294H22.9995C23.5162 11.294 23.9689 11.4097 24.3576 11.6411C24.7463 11.8729 25.046 12.2045 25.2568 12.6365C25.4676 13.0686 25.5732 13.5799 25.5732 14.1714C25.5732 14.7629 25.4676 15.2742 25.2568 15.7063Z" fill="white"/>
  </g>
  <defs>
    <linearGradient id="paint0_linear_526_21" x1="37.2509" y1="32.5873" x2="22.9132" y2="1.66322" gradientUnits="userSpaceOnUse">
      <stop offset="0.1" stop-color="#7256FF"/>
      <stop offset="0.59" stop-color="#FF2D90"/>
    </linearGradient>
    <linearGradient id="paint1_linear_526_21" x1="34.5235" y1="2.3531" x2="0.624788" y2="36.2518" gradientUnits="userSpaceOnUse">
      <stop offset="0.21" stop-color="#FF2D90"/>
      <stop offset="0.7" stop-color="#FF8200"/>
    </linearGradient>
    <clipPath id="clip0_526_21">
      <rect width="140" height="47.438" fill="white"/>
    </clipPath>
  </defs>
</svg>

