<svg width="16" height="16" viewBox="0 0 16 16" fill="none" xmlns="http://www.w3.org/2000/svg">
<path d="M0.727509 11.6365H1.81801V14.182H4.36351V15.273H0.727509V11.6365Z" fill="#91B0F2"/>
<path d="M0.727509 4.96946V8.30296L2.85001 10.487L3.75751 9.51496L6.48501 12.2425L5.57551 13.15L7.69651 15.271H11.03C11.1907 15.271 11.3449 15.2071 11.4585 15.0935C11.5722 14.9798 11.636 14.8257 11.636 14.665V9.81496L6.18201 4.36346H1.33201C1.17155 4.36386 1.01779 4.42788 0.904471 4.54149C0.791148 4.65509 0.727508 4.809 0.727509 4.96946Z" fill="#0F46BD"/>
<path d="M3 9.12448L8.606 0.727478H15.2725V7.39398L6.8755 13L3 9.12448Z" fill="#062AA9"/>
<path d="M3.35002 9.47598C3.25091 9.37687 3.18921 9.24647 3.17545 9.10698C3.16168 8.96749 3.19669 8.82755 3.27452 8.71098L8.24452 1.26648C8.35524 1.10065 8.50515 0.964704 8.68099 0.870683C8.85682 0.776663 9.05313 0.727474 9.25252 0.727478H14.6665C14.8272 0.727478 14.9814 0.791324 15.095 0.904971C15.2087 1.01862 15.2725 1.17276 15.2725 1.33348V6.74598C15.2725 6.94537 15.2233 7.14168 15.1293 7.31751C15.0353 7.49334 14.8993 7.64326 14.7335 7.75398L7.28902 12.724C7.17245 12.8018 7.0325 12.8368 6.89302 12.8231C6.75353 12.8093 6.62313 12.7476 6.52402 12.6485L3.35002 9.47598Z" fill="#2560E0"/>
<path d="M3.75 11.3535L8.3775 6.72595L9.2735 7.62195L4.6465 12.25L3.75 11.3535Z" fill="#0A44C2"/>
<path d="M3.75 11.3535L8.3775 6.72595L9.2735 7.62195L4.6465 12.25L3.75 11.3535Z" fill="#729AF2"/>
<path d="M5.38602 11.51L4.49002 10.614L8.37802 6.7265L9.27402 7.6225L5.38602 11.51Z" fill="#4C80F0"/>
<path d="M11.6365 6.18196C11.9961 6.18196 12.3476 6.07534 12.6465 5.87557C12.9455 5.67581 13.1785 5.39187 13.3161 5.05968C13.4537 4.72748 13.4897 4.36194 13.4196 4.00929C13.3494 3.65663 13.1763 3.33269 12.922 3.07844C12.6678 2.82419 12.3438 2.65104 11.9912 2.58089C11.6385 2.51074 11.273 2.54675 10.9408 2.68435C10.6086 2.82195 10.3247 3.05497 10.1249 3.35393C9.92514 3.6529 9.81851 4.00439 9.81851 4.36396C9.81851 4.84612 10.0101 5.30854 10.351 5.64948C10.6919 5.99042 11.1543 6.18196 11.6365 6.18196Z" fill="#0A44C2"/>
<path d="M11.6365 6.18196C11.9961 6.18196 12.3476 6.07534 12.6465 5.87557C12.9455 5.67581 13.1785 5.39187 13.3161 5.05968C13.4537 4.72748 13.4897 4.36194 13.4196 4.00929C13.3494 3.65663 13.1763 3.33269 12.922 3.07844C12.6678 2.82419 12.3438 2.65104 11.9912 2.58089C11.6385 2.51074 11.273 2.54675 10.9408 2.68435C10.6086 2.82195 10.3247 3.05497 10.1249 3.35393C9.92514 3.6529 9.81851 4.00439 9.81851 4.36396C9.81851 4.84612 10.0101 5.30854 10.351 5.64948C10.6919 5.99042 11.1543 6.18196 11.6365 6.18196Z" fill="#91B0F2"/>
<g opacity="0.2">
<path d="M2.85001 10.487L3.58201 9.70448L4.49151 10.614L3.75001 11.3535L4.64651 12.25L5.38601 11.5105L6.30001 12.426L5.57551 13.15L7.69651 15.271H11.03C11.1907 15.271 11.3449 15.2071 11.4585 15.0935C11.5722 14.9798 11.636 14.8257 11.636 14.665V9.81498L14.7335 7.75048C14.8993 7.63973 15.0352 7.4898 15.1292 7.31398C15.2233 7.13816 15.2725 6.94186 15.2725 6.74248V1.33348C15.2725 1.17276 15.2087 1.01862 15.095 0.904971C14.9814 0.791324 14.8272 0.727478 14.6665 0.727478H9.25451C9.05513 0.727518 8.85883 0.776725 8.68301 0.870742C8.50718 0.964759 8.35726 1.10068 8.24651 1.26648L6.18201 4.36348H1.33201C1.17146 4.36388 1.01763 4.42797 0.904295 4.54168C0.790958 4.65539 0.727376 4.80943 0.727509 4.96998V8.30298L2.85001 10.487Z" fill="url(#paint0_linear_2_2)"/>
<path d="M1.81801 11.6365H0.727509V15.273H4.36351V14.182H1.81801V11.6365Z" fill="url(#paint1_linear_2_2)"/>
</g>
<defs>
<linearGradient id="paint0_linear_2_2" x1="8.0049" y1="0.731118" x2="8.0049" y2="15.2766" gradientUnits="userSpaceOnUse">
<stop stop-color="white"/>
<stop offset="1" stop-color="white" stop-opacity="0"/>
</linearGradient>
<linearGradient id="paint1_linear_2_2" x1="2.55034" y1="0.731115" x2="2.55034" y2="15.2766" gradientUnits="userSpaceOnUse">
<stop stop-color="white"/>
<stop offset="1" stop-color="white" stop-opacity="0"/>
</linearGradient>
</defs>
</svg>
