<svg width="16" height="16" viewBox="0 0 16 16" fill="none" xmlns="http://www.w3.org/2000/svg">
<path d="M1.45435 1.50004C1.32184 1.49827 1.19535 1.55711 1.10882 1.66076C1.02229 1.76441 0.984574 1.90227 1.00579 2.03736L2.90993 13.9742C2.95891 14.2757 3.21046 14.4974 3.50652 14.4999H12.6415C12.8637 14.5029 13.0545 14.3374 13.09 14.1108L14.9942 2.03967C15.0154 1.90459 14.9777 1.76673 14.8912 1.66307C14.8046 1.55942 14.6781 1.50059 14.5456 1.50235L1.45435 1.50004ZM9.4724 10.1273H6.55675L5.7673 5.8681H10.1789L9.4724 10.1273Z" fill="#2684FF"/>
<path fill-rule="evenodd" clip-rule="evenodd" d="M14.3889 5.86815H10.1791L9.47265 10.1273H6.557L3.11426 14.3472C3.22337 14.4446 3.3625 14.4988 3.50675 14.5H12.6439C12.8662 14.503 13.057 14.3375 13.0925 14.1109L14.3889 5.86815Z" fill="url(#paint0_linear_202_5)"/>
<defs>
<linearGradient id="paint0_linear_202_5" x1="15.3622" y1="7.0609" x2="10.2882" y2="14.0376" gradientUnits="userSpaceOnUse">
<stop offset="0.18" stop-color="#0052CC"/>
<stop offset="1" stop-color="#2684FF"/>
</linearGradient>
</defs>
</svg>
