<svg width="16" height="16" viewBox="0 0 16 16" xmlns="http://www.w3.org/2000/svg" fill="#ffffff">
  <path stroke="null" id="svg_1" d="m6.15422,7.8997c0,-0.91205 0.75159,-1.6417 1.6726,-1.6417c0.92409,0 1.67788,0.7387 1.67788,1.6417s-0.75379,1.6417 -1.67788,1.6417c-0.92101,0 -1.6726,-0.7387 -1.6726,-1.6417zm1.67304,-6.8997c-3.28624,0 -6.03914,2.20791 -6.82066,5.18815c-0.0066,0.02242 -0.0066,0.04097 -0.0066,0.07029c0,0.17939 0.14917,0.33248 0.33663,0.33248l2.83739,0c0.13509,0 0.2539,-0.07633 0.30231,-0.19319c0.58658,-1.24195 1.86578,-2.11131 3.35313,-2.11131c2.033,0 3.68756,1.62143 3.68756,3.61588s-1.65456,3.61588 -3.68976,3.61588c-1.48514,0 -2.76567,-0.86246 -3.35092,-2.11131c-0.05677,-0.10996 -0.16942,-0.19319 -0.30231,-0.19319l-2.83739,0c-0.1835,0 -0.33663,0.1436 -0.33663,0.32989c0,0.02242 0.0088,0.04312 0.0088,0.06943c0.77491,2.97852 3.53222,5.18642 6.81846,5.18642c3.88689,0 7.04068,-3.09064 7.04068,-6.8997c0,-3.80691 -3.15379,-6.8997 -7.04068,-6.8997z"/>
</svg>