<svg width="16" height="16" viewBox="0 0 16 16" xmlns="http://www.w3.org/2000/svg">
 <defs>
  <linearGradient y2="0.39303" y1="0.67329" x2="0.4289" x1="0.56355" id="a">
   <stop stop-color="#07c3f2" offset="0"/>
   <stop stop-color="#6b57ff" offset="1"/>
  </linearGradient>
  <linearGradient y2="0.36084" y1="0.57622" x2="0.66613" x1="0.35784" id="b">
   <stop stop-color="#07c3f2" offset="0"/>
   <stop stop-color="#009ae5" offset="1"/>
  </linearGradient>
  <linearGradient y2="0.2256" y1="0.76001" x2="0.21762" x1="0.73979" id="c">
   <stop stop-color="#009ae5" offset="0"/>
   <stop stop-color="#6b57ff" offset="1"/>
  </linearGradient>
  <linearGradient y2="0.10287" y1="0.80728" x2="0.77935" x1="0.30487" id="d">
   <stop stop-color="#07c3f2" offset="0.3"/>
   <stop stop-color="#3bea62" offset="0.6"/>
  </linearGradient>
 </defs>
 <g>
  <title>Layer 1</title>
  <g stroke="null" id="svg_10">
   <path stroke="null" id="svg_1" fill="url(#a)" d="m4.51997,12.94956l-2.89584,-7.61526a3.18658,3.18658 0 0 1 2.89008,-4.3193a3.18514,3.18514 0 0 1 3.10886,2.19347l2.53458,7.74192c0.51095,1.56162 -5.06485,3.50754 -5.63768,1.99917z"/>
   <path stroke="null" id="svg_2" fill="url(#b)" d="m13.20894,10.53301l-7.09712,3.83857a3.4327,3.4327 0 0 1 -4.76403,-1.612a3.43989,3.43989 0 0 1 1.84804,-4.60571l7.48428,-3.0225a2.97788,2.97788 0 0 1 3.53345,1.02477a2.98796,2.98796 0 0 1 -1.00462,4.37687z"/>
   <path stroke="null" id="svg_3" fill="url(#c)" d="m10.52755,10.59921l-7.32884,-3.54208a3.18946,3.18946 0 0 1 -0.86357,-5.12673a3.17794,3.17794 0 0 1 3.76517,-0.54405l7.15325,3.88607a2.99659,2.99659 0 0 1 1.21764,4.03a2.98796,2.98796 0 0 1 -3.94364,1.2968z"/>
   <path stroke="null" id="svg_4" fill="url(#d)" d="m3.02887,14.50543a3.46868,3.46868 0 0 1 -1.23491,-5.36422l6.20044,-7.49292a1.72714,1.72714 0 0 1 2.04234,-0.47496a1.73434,1.73434 0 0 1 0.92258,2.15893l-3.23264,9.17257a3.45428,3.45428 0 0 1 -4.69783,2.00061z"/>
   <path stroke="null" id="svg_5" d="m3.59307,3.59133l8.63571,0l0,8.63571l-8.63571,0l0,-8.63571z"/>
   <g stroke="null" id="svg_6" fill="#fff">
    <path stroke="null" id="svg_7" d="m4.66966,10.5949l3.23839,0l0,0.53973l-3.23839,0l0,-0.53973z"/>
    <path stroke="null" id="svg_8" d="m5.54043,5.31704l-0.98879,0l0,-0.65919l2.69146,0l0,0.65919l-0.98879,0l0,2.58927l-0.71388,0l0,-2.58927z"/>
    <path stroke="null" id="svg_9" d="m7.51224,6.29143l0,-0.00863a1.64942,1.64942 0 0 1 1.69404,-1.67965a1.67533,1.67533 0 0 1 1.28096,0.49943l-0.45481,0.5239a1.20036,1.20036 0 0 0 -0.83191,-0.36702c-0.54693,0 -0.94129,0.45481 -0.94129,1.0075l0,0.01008c0,0.557 0.38573,1.02045 0.94129,1.02045c0.37134,0 0.59874,-0.14393 0.85494,-0.37997l0.45481,0.45913a1.66237,1.66237 0 0 1 -1.33278,0.57571a1.63935,1.63935 0 0 1 -1.66526,-1.66094"/>
   </g>
  </g>
 </g>
</svg>