<svg xmlns="http://www.w3.org/2000/svg" width="16" height="16" viewBox="0 0 16 16">
  <g fill="none" fill-rule="evenodd" transform="translate(2)">
    <path fill="#0095DD" d="M2.68563934,12.379082 C2.65921311,12.379082 2.63245902,12.3756721 2.60570492,12.3685902 C2.44163934,12.3245902 2.34406557,12.1556721 2.38806557,11.9914754 C2.89672131,10.0925246 2.79947541,5.01206557 2.79836066,4.96085246 C2.79488525,4.79108197 2.92996721,4.65036066 3.09993443,4.64708197 C3.10209836,4.64688525 3.10419672,4.64688525 3.10622951,4.64688525 C3.27337705,4.64688525 3.4104918,4.78052459 3.41390164,4.94852459 C3.41822951,5.16065574 3.51377049,10.168459 2.98281967,12.1510164 C2.94596721,12.2883934 2.8215082,12.379082 2.68563934,12.379082 Z"/>
    <path fill="#7658B1" d="M7.12216393,8.55186885 C6.50308197,8.55186885 5.98170492,8.29678689 5.94806557,8.27980328 C5.79606557,8.20386885 5.73442623,8.01895082 5.81042623,7.86701639 C5.88629508,7.71540984 6.0704918,7.65344262 6.22295082,7.72904918 C6.2412459,7.73809836 7.19193443,8.19416393 7.8307541,7.72209836 C7.96734426,7.62072131 8.16006557,7.64977049 8.26118033,7.7864918 C8.36229508,7.92314754 8.33337705,8.11580328 8.19672131,8.21691803 C7.85442623,8.47003279 7.47265574,8.55186885 7.12216393,8.55186885 Z"/>
    <path fill="#FF8A12" d="M8.34163934,11.5361311 C8.09567213,11.5361311 7.8172459,11.5211148 7.50406557,11.5020328 C7.33436066,11.4916066 7.2052459,11.3455738 7.21560656,11.1757377 C7.22596721,11.0060984 7.37062295,10.8779672 7.54163934,10.8874098 C8.18681967,10.9270164 8.91770492,10.9720656 9.09377049,10.7576393 C9.22190164,10.6013115 9.19488525,10.1732459 9.0132459,9.4855082 C8.56760656,7.79816393 8.95501639,7.22963934 9.3532459,6.82944262 C9.38111475,6.80170492 9.40701639,6.77586885 9.4292459,6.75029508 C9.69842623,6.44308197 10.5706885,5.96754098 10.7426885,5.87540984 C10.8925902,5.79501639 11.0791475,5.85154098 11.1593443,6.0012459 C11.2396066,6.15114754 11.1832787,6.33757377 11.0335082,6.41803279 C10.6462951,6.62544262 10.0363279,6.99160656 9.89259016,7.15560656 C9.8624918,7.19016393 9.82747541,7.22570492 9.78983607,7.26360656 C9.56118033,7.49344262 9.21554098,7.84065574 9.60839344,9.32806557 C9.85980328,10.2805246 9.84865574,10.8078033 9.56963934,11.1479344 C9.31921311,11.453377 8.91960656,11.5361311 8.34163934,11.5361311 Z"/>
    <path fill="#DB0012" d="M7.73003279,15.9937049 C6.96944262,15.9937049 6.22347541,15.6542951 5.70229508,15.0396721 C4.47593443,13.5931803 3.57927869,13.606623 3.56885246,13.605377 C3.39895082,13.6167869 3.25731148,13.4807869 3.24898361,13.3131803 C3.24059016,13.1455738 3.36498361,13.0024918 3.5322623,12.9909508 C3.65239344,12.9839344 4.7452459,12.9588852 6.17180328,14.6415082 C6.71285246,15.2796066 7.52662295,15.5295082 8.29547541,15.2933115 C9.79337705,14.833377 10.8539016,12.701377 11.2046557,9.44406557 C11.5147541,6.56518033 11.6982951,3.62157377 10.2747541,2.03672131 C9.42832787,1.09403279 8.04872131,0.635934426 6.0572459,0.635934426 C1.78078689,0.635934426 0.900196721,3.42301639 0.720131148,4.62137705 C0.448983607,6.42583607 1.14367213,8.29508197 2.20655738,8.62196721 C2.36904918,8.672 2.46032787,8.84419672 2.41029508,9.0067541 C2.3602623,9.16911475 2.18813115,9.25993443 2.02557377,9.21029508 C0.669311475,8.79331148 -0.207278689,6.65003279 0.111278689,4.52990164 C0.535737705,1.70609836 2.7584918,0.0202622951 6.05731148,0.0202622951 C8.23357377,0.0202622951 9.76295082,0.545377049 10.732918,1.62544262 C12.3256393,3.39888525 12.1417049,6.49291803 11.8167869,9.51003279 C11.2984918,14.3205246 9.5012459,15.5669508 8.47619672,15.8818361 C8.23081967,15.9571148 7.97967213,15.9937049 7.73003279,15.9937049 Z"/>
  </g>
</svg>
