<svg width="40" height="40" viewBox="0 0 40 40" fill="none" xmlns="http://www.w3.org/2000/svg">
<path fill-rule="evenodd" clip-rule="evenodd" d="M5.5 4C5.30666 3.99996 5.11167 4.03731 4.92597 4.11422C4.36546 4.3464 4 4.89335 4 5.50004V34.5C4 35.3285 4.67157 36 5.5 36H34.5C35.1067 36 35.6536 35.6346 35.8858 35.0741C36.118 34.5136 35.9897 33.8684 35.5607 33.4394L23.6213 21.5H34.5C35.3284 21.5 36 20.8284 36 20V18.5C36 10.4919 29.5081 4 21.5 4H5.5ZM21.5 7V18.5H33C33 12.1487 27.8513 7 21.5 7ZM18.5 16.3787V7H9.12128L18.5 16.3787ZM16.3786 18.5H7V9.12136L16.3786 18.5ZM7 21.5V33H11.25V21.5H7ZM18.5 33H14.25V21.5H18.5V33ZM21.5 33V23.6214L30.8787 33H21.5Z" fill="#CED0D6"/>
</svg>
