<!-- Copyright 2000-2023 JetBrains s.r.o. and contributors. Use of this source code is governed by the Apache 2.0 license. -->
<svg width="16" height="16" viewBox="0 0 16 16" fill="none" xmlns="http://www.w3.org/2000/svg">
<path fill-rule="evenodd" clip-rule="evenodd" d="M3.71399 4.91087L3.71962 4.9165L3.72078 4.91751C4.34832 5.52428 5.0043 5.87861 5.75237 6.59405H5.75208C4.00612 5.20069 0.33783 4.39302 1.24437 2.3037C1.34164 2.10438 1.48727 1.90621 1.65845 1.7349C1.82948 1.56372 2.02779 1.41795 2.22639 1.32096C4.31672 0.4124 5.12468 4.08199 6.51804 5.82809L6.51775 5.82838C5.80259 5.08032 5.44826 4.42448 4.84136 3.79665L4.8402 3.79564L4.83486 3.79001L4.82606 3.78164C4.52166 3.47681 4.02748 3.47667 3.72309 3.78164L3.71399 3.7903L3.70562 3.7991C3.40051 4.10378 3.40051 4.59768 3.70562 4.90236L3.71399 4.91087" fill="#941F15"/>
<path fill-rule="evenodd" clip-rule="evenodd" d="M3.71407 11.19L3.7197 11.1847L3.72085 11.1835C4.3484 10.5766 5.00438 10.2223 5.75244 9.50712L5.75215 9.50684C4.00619 10.9002 0.337615 11.7079 1.24444 13.7972C1.34172 13.9965 1.48735 14.195 1.6591 14.3664C1.82955 14.5372 2.02786 14.6829 2.22646 14.7799C4.31679 15.6885 5.12475 12.019 6.51811 10.2727V10.2724C5.80267 11.0206 5.44834 11.6765 4.84143 12.3041L4.84027 12.3051L4.83493 12.3107L4.82613 12.3195C4.52174 12.6242 4.02755 12.6242 3.72316 12.3195L3.71407 12.3107L3.7057 12.3021C3.40058 11.9974 3.40058 11.5035 3.7057 11.1987L3.71407 11.19" fill="#2376AB"/>
<path fill-rule="evenodd" clip-rule="evenodd" d="M12.2353 4.91087L12.2297 4.9165L12.2286 4.91751C11.6009 5.52428 10.9452 5.87861 10.1967 6.59405L10.197 6.59434C11.9434 5.20069 15.6119 4.39302 14.7048 2.3037C14.6081 2.10438 14.4621 1.90621 14.2906 1.73489C14.1199 1.56372 13.9217 1.41795 13.7229 1.32096C11.6326 0.4124 10.8248 4.08199 9.43115 5.82838H9.43159C10.1467 5.08032 10.5012 4.42434 11.1081 3.79679L11.109 3.79564L11.1143 3.79001L11.123 3.78164C11.4275 3.47667 11.9219 3.47667 12.2264 3.78164L12.2353 3.7903L12.2441 3.7991C12.5488 4.10364 12.5488 4.59768 12.2441 4.90236L12.2353 4.91087" fill="#669915"/>
<path fill-rule="evenodd" clip-rule="evenodd" d="M6.62985 8.05059V8.05059C6.60906 10.5338 0.0556183 11.0843 1.24735 13.804C0.166608 11.6938 3.09665 10.7308 3.58001 8.72822C3.68321 8.30085 3.68162 7.77261 3.5738 7.34698C3.07154 5.36186 0.171082 4.39803 1.24735 2.29688C0.0556183 5.01663 6.60935 5.5671 6.62985 8.05059" fill="#F23838"/>
<path fill-rule="evenodd" clip-rule="evenodd" d="M7.29424 3.65534C5.2934 3.16967 4.33043 0.242945 2.22119 1.32325C4.94094 0.131667 5.49156 6.6854 7.97505 6.70575C10.4585 6.6854 11.009 0.131667 13.7288 1.32325C11.6179 0.242368 10.655 3.17356 8.65123 3.6562C8.2321 3.75709 7.71367 3.75695 7.29424 3.65534" fill="#A9C23A"/>
<path fill-rule="evenodd" clip-rule="evenodd" d="M12.127 5.43986C10.7356 6.16717 9.32937 6.9022 9.31982 8.05034C9.3227 8.40162 9.45633 8.71422 9.68028 8.99976H12.4517C12.4225 8.91953 12.397 8.83765 12.3759 8.75395C12.2682 8.32832 12.2665 7.79979 12.3694 7.37271C12.5637 6.56772 13.1532 5.93074 13.7187 5.31973C14.5602 4.41051 15.3484 3.55881 14.702 2.29663C15.343 3.75886 13.745 4.59415 12.127 5.43986Z" fill="#F9AF17"/>
<path fill-rule="evenodd" clip-rule="evenodd" d="M7.73357 9.41821C6.72073 9.60631 6.03891 10.9108 5.36373 12.2026C4.51807 13.8205 3.68284 15.4185 2.2207 14.7779C3.48279 15.4241 4.33456 14.6358 5.24383 13.7943C5.81958 13.2615 6.41839 12.7073 7.15902 12.4825L7.73357 9.41821Z" fill="#60D0E7"/>
<path fill-rule="evenodd" clip-rule="evenodd" d="M3.71399 4.91087L3.71962 4.9165L3.72078 4.91751C4.34832 5.52428 5.0043 5.87861 5.75237 6.59405H5.75208C4.00612 5.20069 0.33783 4.39302 1.24437 2.3037C1.34164 2.10438 1.48727 1.90621 1.65845 1.7349C1.82948 1.56372 2.02779 1.41795 2.22639 1.32096C4.31672 0.4124 5.12468 4.08199 6.51804 5.82809L6.51775 5.82838C5.80259 5.08032 5.44826 4.42448 4.84136 3.79665L4.8402 3.79564L4.83486 3.79001L4.82606 3.78164C4.52166 3.47681 4.02748 3.47667 3.72309 3.78164L3.71399 3.7903L3.70562 3.7991C3.40051 4.10378 3.40051 4.59768 3.70562 4.90236L3.71399 4.91087" fill="#941F15"/>
<path fill-rule="evenodd" clip-rule="evenodd" d="M3.71407 11.19L3.7197 11.1847L3.72085 11.1835C4.3484 10.5766 5.00438 10.2223 5.75244 9.50712L5.75215 9.50684C4.00619 10.9002 0.337615 11.7079 1.24444 13.7972C1.34172 13.9965 1.48735 14.195 1.6591 14.3664C1.82955 14.5372 2.02786 14.6829 2.22646 14.7799C4.31679 15.6885 5.12475 12.019 6.51811 10.2727V10.2724C5.80267 11.0206 5.44834 11.6765 4.84143 12.3041L4.84027 12.3051L4.83493 12.3107L4.82613 12.3195C4.52174 12.6242 4.02755 12.6242 3.72316 12.3195L3.71407 12.3107L3.7057 12.3021C3.40058 11.9974 3.40058 11.5035 3.7057 11.1987L3.71407 11.19" fill="#2376AB"/>
<path fill-rule="evenodd" clip-rule="evenodd" d="M12.2353 4.91087L12.2297 4.9165L12.2286 4.91751C11.6009 5.52428 10.9452 5.87861 10.1967 6.59405L10.197 6.59434C11.9434 5.20069 15.6119 4.39302 14.7048 2.3037C14.6081 2.10438 14.4621 1.90621 14.2906 1.73489C14.1199 1.56372 13.9217 1.41795 13.7229 1.32096C11.6326 0.4124 10.8248 4.08199 9.43115 5.82838H9.43159C10.1467 5.08032 10.5012 4.42434 11.1081 3.79679L11.109 3.79564L11.1143 3.79001L11.123 3.78164C11.4275 3.47667 11.9219 3.47667 12.2264 3.78164L12.2353 3.7903L12.2441 3.7991C12.5488 4.10364 12.5488 4.59768 12.2441 4.90236L12.2353 4.91087" fill="#669915"/>
<path fill-rule="evenodd" clip-rule="evenodd" d="M6.62985 8.05059V8.05059C6.60906 10.5338 0.0556183 11.0843 1.24735 13.804C0.166608 11.6938 3.09665 10.7308 3.58001 8.72822C3.68321 8.30085 3.68162 7.77261 3.5738 7.34698C3.07154 5.36186 0.171082 4.39803 1.24735 2.29688C0.0556183 5.01663 6.60935 5.5671 6.62985 8.05059" fill="#F23838"/>
<path fill-rule="evenodd" clip-rule="evenodd" d="M7.29424 3.65534C5.2934 3.16967 4.33043 0.242945 2.22119 1.32325C4.94094 0.131667 5.49156 6.6854 7.97505 6.70575C10.4585 6.6854 11.009 0.131667 13.7288 1.32325C11.6179 0.242368 10.655 3.17356 8.65123 3.6562C8.2321 3.75709 7.71367 3.75695 7.29424 3.65534" fill="#A9C23A"/>
<path d="M5.24383 13.7943C5.85395 13.2297 6.48995 12.6411 7.29318 12.4458C7.41593 12.4161 7.54715 12.3951 7.68189 12.3827L7.9439 11.2231L7.94429 11.2213C8.09408 10.5532 8.66649 10.1339 9.28107 10.0944C8.90224 9.67203 8.47814 9.39927 7.97456 9.39514C6.8262 9.40455 6.09111 10.811 5.36373 12.2026C4.51807 13.8205 3.68284 15.4185 2.2207 14.7779C3.48279 15.4241 4.33456 14.6358 5.24383 13.7943Z" fill="#60D0E7"/>
<path d="M12.127 5.43986C10.7356 6.16717 9.32937 6.9022 9.31982 8.05034C9.32662 8.87927 10.0615 9.49283 10.9932 10.0436C11.2132 10.0071 11.4437 9.99207 11.6842 10.004C12.1774 10.017 12.6398 10.1562 13.0168 10.4533C13.1065 10.4029 13.1986 10.3557 13.2939 10.3123C12.8875 9.84543 12.5254 9.34497 12.3759 8.75395C12.2682 8.32832 12.2665 7.79979 12.3694 7.37271C12.5637 6.56772 13.1532 5.93074 13.7187 5.31973C14.5602 4.41051 15.3484 3.55881 14.702 2.29663C15.343 3.75886 13.745 4.59415 12.127 5.43986Z" fill="#F9AF17"/>
<path d="M14.7961 11.0006C15.9327 11.0006 16.1301 11.958 15.9327 12.8207L15.299 15.6443C15.2464 15.883 15.0009 16.0358 14.7506 15.9856C14.5003 15.9354 14.3401 15.7013 14.3927 15.4626L14.9842 12.8207C15.2988 11.4527 13.5154 11.6214 12.7918 12.6372L12.1095 15.6468C12.0569 15.8854 11.8114 16.0382 11.5611 15.988C11.5508 15.986 11.5407 15.9836 11.5307 15.9809C11.2925 15.9223 11.1426 15.6946 11.1937 15.4626L11.7879 12.8185C11.932 12.2008 11.636 11.8971 11.2061 11.8438C10.6944 11.7889 9.99349 12.0905 9.60233 12.6396L8.91613 15.6502C8.86295 15.8887 8.61705 16.041 8.36689 15.9903C8.11673 15.9396 7.95704 15.7051 8.01021 15.4666L8.91987 11.4406C8.97305 11.2021 9.21895 11.0498 9.46911 11.1005C9.75344 11.1582 9.87045 11.4192 9.81566 11.6696C10.3391 11.2567 10.9491 10.965 11.6464 11.0034C12.3271 11.0171 12.6598 11.3833 12.7687 11.8623C13.3963 11.3251 13.9265 11.0006 14.7961 11.0006Z" fill="#548AF7"/>
</svg>
