<!-- Copyright 2000-2022 JetBrains s.r.o. and contributors. Use of this source code is governed by the Apache 2.0 license. -->
<svg width="16" height="16" viewBox="0 0 16 16" fill="none" xmlns="http://www.w3.org/2000/svg">
<g clip-path="url(#clip0_2726_38337)">
<path fill-rule="evenodd" clip-rule="evenodd" d="M3.71448 4.911L3.72011 4.91663L3.72127 4.91764C4.34881 5.5244 5.00479 5.87873 5.75285 6.59417H5.75257C4.00661 5.20081 0.338318 4.39314 1.24485 2.30382C1.34213 2.1045 1.48776 1.90634 1.65894 1.73502C1.82997 1.56384 2.02828 1.41807 2.22687 1.32108C4.3172 0.412522 5.12516 4.08211 6.51852 5.82821L6.51824 5.8285C5.80308 5.08044 5.44875 4.4246 4.84184 3.79677L4.84069 3.79576L4.83535 3.79013L4.82654 3.78176C4.52215 3.47693 4.02797 3.47679 3.72358 3.78176L3.71448 3.79042L3.70611 3.79922C3.401 4.1039 3.401 4.5978 3.70611 4.90248L3.71448 4.911" fill="#941F15"/>
<path fill-rule="evenodd" clip-rule="evenodd" d="M3.71456 11.1905L3.72019 11.1852L3.72134 11.184C4.34889 10.5771 5.00487 10.2228 5.75293 9.50761L5.75264 9.50732C4.00668 10.9007 0.338103 11.7084 1.24493 13.7977C1.34221 13.997 1.48784 14.1954 1.65959 14.3669C1.83004 14.5377 2.02835 14.6834 2.22695 14.7804C4.31728 15.689 5.12524 12.0195 6.5186 10.2731V10.2728C5.80315 11.0211 5.44882 11.677 4.84192 12.3046L4.84076 12.3056L4.83542 12.3112L4.82662 12.32C4.52223 12.6247 4.02804 12.6247 3.72365 12.32L3.71456 12.3112L3.70619 12.3026C3.40107 11.9979 3.40107 11.504 3.70619 11.1992L3.71456 11.1905" fill="#2376AB"/>
<path fill-rule="evenodd" clip-rule="evenodd" d="M12.2356 4.911L12.23 4.91663L12.2288 4.91764C11.6011 5.5244 10.9454 5.87873 10.1969 6.59417L10.1972 6.59446C11.9436 5.20081 15.6122 4.39314 14.7051 2.30382C14.6084 2.1045 14.4623 1.90634 14.2908 1.73502C14.1201 1.56384 13.9219 1.41807 13.7232 1.32108C11.6329 0.412522 10.825 4.08211 9.4314 5.8285H9.43183C10.147 5.08044 10.5015 4.42446 11.1084 3.79691L11.1092 3.79576L11.1146 3.79013L11.1232 3.78176C11.4278 3.47679 11.9221 3.47679 12.2266 3.78176L12.2356 3.79042L12.2444 3.79922C12.5491 4.10376 12.5491 4.5978 12.2444 4.90248L12.2356 4.911" fill="#669915"/>
<path fill-rule="evenodd" clip-rule="evenodd" d="M6.63009 8.05107V8.05107C6.60931 10.5343 0.0558625 11.0847 1.24759 13.8045C0.166852 11.6943 3.09689 10.7313 3.58025 8.7287C3.68345 8.30134 3.68186 7.7731 3.57405 7.34747C3.07178 5.36235 0.171326 4.39852 1.24759 2.29736C0.0558625 5.01712 6.60959 5.56759 6.63009 8.05107" fill="#F23838"/>
<path fill-rule="evenodd" clip-rule="evenodd" d="M7.2943 3.65558C5.29346 3.16991 4.33049 0.243189 2.22125 1.3235C4.941 0.131911 5.49162 6.68564 7.97511 6.70599C10.4586 6.68564 11.0091 0.131911 13.7288 1.3235C11.618 0.242612 10.655 3.17381 8.65129 3.65645C8.23216 3.75733 7.71373 3.75719 7.2943 3.65558" fill="#A9C23A"/>
<path fill-rule="evenodd" clip-rule="evenodd" d="M12.1273 5.4401C10.7358 6.16742 9.32961 6.90244 9.32007 8.05059C9.32295 8.40184 9.45655 8.71442 9.68048 8.99994H12.4519C12.4227 8.91973 12.3973 8.83787 12.3761 8.75419C12.2684 8.32857 12.2667 7.80003 12.3696 7.37296C12.5639 6.56797 13.1535 5.93098 13.7189 5.31997C14.5604 4.41076 15.3486 3.55906 14.7023 2.29688C15.3432 3.75911 13.7452 4.59439 12.1273 5.4401Z" fill="#F9AF17"/>
<path fill-rule="evenodd" clip-rule="evenodd" d="M7.73406 9.41846C6.72122 9.60655 6.0394 10.911 5.36422 12.2028C4.51856 13.8208 3.68333 15.4188 2.22119 14.7782C3.48328 15.4243 4.33505 14.636 5.24432 13.7946C5.82007 13.2617 6.41888 12.7076 7.15951 12.4827L7.73406 9.41846Z" fill="#60D0E7"/>
<path fill-rule="evenodd" clip-rule="evenodd" d="M3.71448 4.911L3.72011 4.91663L3.72127 4.91764C4.34881 5.5244 5.00479 5.87873 5.75285 6.59417H5.75257C4.00661 5.20081 0.338318 4.39314 1.24485 2.30382C1.34213 2.1045 1.48776 1.90634 1.65894 1.73502C1.82997 1.56384 2.02828 1.41807 2.22687 1.32108C4.3172 0.412522 5.12516 4.08211 6.51852 5.82821L6.51824 5.8285C5.80308 5.08044 5.44875 4.4246 4.84184 3.79677L4.84069 3.79576L4.83535 3.79013L4.82654 3.78176C4.52215 3.47693 4.02797 3.47679 3.72358 3.78176L3.71448 3.79042L3.70611 3.79922C3.401 4.1039 3.401 4.5978 3.70611 4.90248L3.71448 4.911" fill="#941F15"/>
<path fill-rule="evenodd" clip-rule="evenodd" d="M3.71456 11.1905L3.72019 11.1852L3.72134 11.184C4.34889 10.5771 5.00487 10.2228 5.75293 9.50761L5.75264 9.50732C4.00668 10.9007 0.338103 11.7084 1.24493 13.7977C1.34221 13.997 1.48784 14.1954 1.65959 14.3669C1.83004 14.5377 2.02835 14.6834 2.22695 14.7804C4.31728 15.689 5.12524 12.0195 6.5186 10.2731V10.2728C5.80315 11.0211 5.44882 11.677 4.84192 12.3046L4.84076 12.3056L4.83542 12.3112L4.82662 12.32C4.52223 12.6247 4.02804 12.6247 3.72365 12.32L3.71456 12.3112L3.70619 12.3026C3.40107 11.9979 3.40107 11.504 3.70619 11.1992L3.71456 11.1905" fill="#2376AB"/>
<path fill-rule="evenodd" clip-rule="evenodd" d="M12.2356 4.911L12.23 4.91663L12.2288 4.91764C11.6011 5.5244 10.9454 5.87873 10.1969 6.59417L10.1972 6.59446C11.9436 5.20081 15.6122 4.39314 14.7051 2.30382C14.6084 2.1045 14.4623 1.90634 14.2908 1.73502C14.1201 1.56384 13.9219 1.41807 13.7232 1.32108C11.6329 0.412522 10.825 4.08211 9.4314 5.8285H9.43183C10.147 5.08044 10.5015 4.42446 11.1084 3.79691L11.1092 3.79576L11.1146 3.79013L11.1232 3.78176C11.4278 3.47679 11.9221 3.47679 12.2266 3.78176L12.2356 3.79042L12.2444 3.79922C12.5491 4.10376 12.5491 4.5978 12.2444 4.90248L12.2356 4.911" fill="#669915"/>
<path fill-rule="evenodd" clip-rule="evenodd" d="M6.63009 8.05107V8.05107C6.60931 10.5343 0.0558625 11.0847 1.24759 13.8045C0.166852 11.6943 3.09689 10.7313 3.58025 8.7287C3.68345 8.30134 3.68186 7.7731 3.57405 7.34747C3.07178 5.36235 0.171326 4.39852 1.24759 2.29736C0.0558625 5.01712 6.60959 5.56759 6.63009 8.05107" fill="#F23838"/>
<path fill-rule="evenodd" clip-rule="evenodd" d="M7.2943 3.65558C5.29346 3.16991 4.33049 0.243189 2.22125 1.3235C4.941 0.131911 5.49162 6.68564 7.97511 6.70599C10.4586 6.68564 11.0091 0.131911 13.7288 1.3235C11.618 0.242612 10.655 3.17381 8.65129 3.65645C8.23216 3.75733 7.71373 3.75719 7.2943 3.65558" fill="#A9C23A"/>
<path fill-rule="evenodd" clip-rule="evenodd" d="M12.1273 5.4401C10.7358 6.16742 9.32961 6.90244 9.32007 8.05059C9.32295 8.40184 9.45655 8.71442 9.68048 8.99994H12.4519C12.4227 8.91973 12.3973 8.83787 12.3761 8.75419C12.2684 8.32857 12.2667 7.80003 12.3696 7.37296C12.5639 6.56797 13.1535 5.93098 13.7189 5.31997C14.5604 4.41076 15.3486 3.55906 14.7023 2.29688C15.3432 3.75911 13.7452 4.59439 12.1273 5.4401Z" fill="#F9AF17"/>
<path fill-rule="evenodd" clip-rule="evenodd" d="M7.73406 9.41846C6.72122 9.60655 6.0394 10.911 5.36422 12.2028C4.51856 13.8208 3.68333 15.4188 2.22119 14.7782C3.48328 15.4243 4.33505 14.636 5.24432 13.7946C5.82007 13.2617 6.41888 12.7076 7.15951 12.4827L7.73406 9.41846Z" fill="#60D0E7"/>
<g clip-path="url(#clip1_2726_38337)">
<path d="M14.0811 10.6006C15.1119 10.6006 15.291 11.4679 15.1119 12.2495L14.4482 15.2559C14.4005 15.472 14.1778 15.6104 13.9508 15.565C13.7238 15.5195 13.5785 15.3074 13.6262 15.0912L14.2517 12.2495C14.537 11.0102 12.9195 11.163 12.2632 12.0833L11.5554 15.2581C11.5077 15.4742 11.2849 15.6127 11.0579 15.5672C11.0486 15.5653 11.0395 15.5632 11.0304 15.5608C10.8144 15.5076 10.6784 15.3014 10.7248 15.0912L11.3527 12.2475C11.4834 11.6879 11.215 11.4128 10.825 11.3645C10.3609 11.3148 9.7252 11.588 9.37042 12.0855L9.36995 12.0821L9.36918 12.0833L8.65903 15.2611C8.61081 15.4772 8.38778 15.6152 8.16089 15.5692C7.934 15.5233 7.78916 15.3109 7.83739 15.0948L8.75145 10.9993C8.79968 10.7832 9.02271 10.6452 9.2496 10.6912C9.50748 10.7434 9.61361 10.9799 9.56391 11.2067C10.0387 10.8327 10.5919 10.5684 11.2243 10.6032C11.8417 10.6156 12.1435 10.9473 12.2422 11.3812C12.8114 10.8946 13.2924 10.6006 14.0811 10.6006Z" fill="#548AF7" stroke="#548AF7" stroke-width="0.2" stroke-linecap="round"/>
</g>
</g>
<defs>
<clipPath id="clip0_2726_38337">
<rect width="16" height="16" fill="white"/>
</clipPath>
<clipPath id="clip1_2726_38337">
<rect width="8" height="8" fill="white" transform="translate(7.5 9)"/>
</clipPath>
</defs>
</svg>
