<svg xmlns="http://www.w3.org/2000/svg" width="16" height="16" viewBox="0 0 16 16">
  <g fill="none" fill-rule="evenodd" transform="translate(1 4)">
    <path fill="#EFCCA3" d="M11.655814,2.70232558 C11.6341085,2.2248062 11.6992248,1.80155039 11.4821705,1.44341085 C10.9612403,0.553488372 9.65891473,0.0325581395 7.05426357,0.0325581395 L7.05426357,0.108527132 C7.05426357,0.108527132 7,0.108527132 7,0.108527132 C7,0.108527132 7.05426357,0.108527132 7.05426357,0.108527132 L7.05426357,0.0325581395 C4.4496124,0.0325581395 3.08217054,0.553488372 2.56124031,1.45426357 C2.35503876,1.82325581 2.37674419,2.23565891 2.34418605,2.71317829 C2.32248062,3.09302326 2.14883721,3.49457364 2.2248062,3.92868217 C2.31162791,4.49302326 2.34418605,5.05736434 2.43100775,5.57829457 C2.49612403,6.00155039 3.08217054,6.35968992 3.13643411,6.76124031 C3.28837209,7.86821705 4.43875969,8.37829457 7.04341085,8.37829457 L7.04341085,8.46511628 L6.97829457,8.46511628 L6.98914729,8.46511628 L7.05426357,8.46511628 L7.05426357,8.37829457 C9.65891473,8.37829457 10.7658915,7.86821705 10.9069767,6.76124031 C10.9612403,6.34883721 11.503876,6.00155039 11.5689922,5.57829457 C11.655814,5.05736434 11.6883721,4.49302326 11.7751938,3.92868217 C11.8511628,3.49457364 11.6775194,3.08217054 11.655814,2.70232558 Z"/>
    <path fill="#CCAC8D" d="M7.01085271,3.09302326 C7.47751938,3.10387597 7.80310078,3.39689922 8.10697674,3.66821705 C8.46511628,3.98294574 9.07286822,4.2 9.32248062,4.47131783 C9.57209302,4.74263566 9.89767442,5.01395349 10.0170543,5.4372093 C10.1364341,5.86046512 10.1689922,6.40310078 10.1689922,6.54418605 C10.1689922,6.68527132 10.2449612,6.65271318 10.4620155,6.54418605 C10.972093,6.29457364 11.5364341,5.62170543 11.5364341,5.62170543 C11.4713178,6.04496124 10.9178295,6.4248062 10.8635659,6.82635659 C10.7333333,7.93333333 9.65891473,8.46511628 7,8.46511628 L6.98914729,8.46511628 L7.05426357,8.46511628"/>
    <path fill="#CCAC8D" d="M8.7255814,2.24651163 C8.82325581,2.58294574 9.17054264,3.72248062 8.49767442,3.34263566 C8.49767442,3.34263566 8.77984496,3.50542636 8.95348837,4.12403101 C9.1379845,4.74263566 9.58294574,4.81860465 9.58294574,4.81860465 C9.58294574,4.81860465 10.3100775,4.95968992 10.8527132,4.49302326 C11.3085271,4.10232558 11.3844961,3.40775194 11.1891473,2.87596899 C10.9937984,2.35503876 10.6465116,2.19224806 10.1364341,2.08372093 C9.62635659,1.96434109 8.60620155,1.86666667 8.7255814,2.24651163 Z"/>
    <g transform="translate(9.008 2.496)">
      <circle cx="1.009" cy=".988" r="1" fill="#000"/>
      <circle cx=".76" cy=".564" r="1" fill="#FFF"/>
    </g>
    <path fill="#EFCCA3" d="M8.5627907,3.44031008 C8.5627907,3.44031008 9.42015504,4.02635659 9.88682171,4.60155039 C10.3534884,5.17674419 10.3426357,5.28527132 10.3426357,5.28527132 L10.0062016,5.4372093 C10.0062016,5.4372093 9.52868217,4.53643411 8.94263566,4.2 C8.34573643,3.86356589 8.28062016,3.58139535 8.28062016,3.58139535 L8.5627907,3.44031008 Z"/>
    <path fill="#CCAC8D" d="M7.04341085,3.09302326 C6.57674419,3.10387597 6.22945736,3.39689922 5.91472868,3.66821705 C5.55658915,3.98294574 4.92713178,4.2 4.67751938,4.47131783 C4.42790698,4.74263566 4.09147287,5.01395349 3.97209302,5.4372093 C3.85271318,5.86046512 3.80930233,6.40310078 3.80930233,6.54418605 C3.80930233,6.68527132 3.83100775,6.69612403 3.51627907,6.54418605 C3.00620155,6.30542636 2.44186047,5.62170543 2.44186047,5.62170543 C2.50697674,6.04496124 3.06046512,6.4248062 3.11472868,6.82635659 C3.26666667,7.93333333 4.34108527,8.46511628 7,8.46511628 L7.01085271,8.46511628 L7.05426357,8.46511628"/>
    <path fill="#56332B" d="M9.56124031,4.92713178 C9.04031008,4.28682171 8.20465116,3.68992248 7.04341085,3.68992248 L7.03255814,3.68992248 C5.87131783,3.68992248 5.03565891,4.28682171 4.51472868,4.92713178 C3.97209302,5.58914729 4.01550388,5.8496124 4.01550388,6.47906977 C4.01550388,8.75813953 4.81860465,8.10697674 5.3503876,8.38914729 C5.89302326,8.66046512 6.45736434,8.57364341 7.03255814,8.57364341 L7.04341085,8.57364341 C7.62945736,8.57364341 8.18294574,8.6496124 8.7255814,8.37829457 C9.25736434,8.10697674 10.0604651,8.77984496 10.0604651,6.50077519 C10.0713178,5.87131783 10.103876,5.58914729 9.56124031,4.92713178 Z"/>
    <path fill="#442823" d="M6.98914729,4.25426357 C6.98914729,4.25426357 6.91317829,5.30697674 6.76124031,5.51317829 L7.04341085,5.44806202 L6.98914729,4.25426357 Z"/>
    <path fill="#442823" d="M7.06511628,4.25426357 C7.06511628,4.25426357 7.14108527,5.30697674 7.29302326,5.51317829 L7.01085271,5.44806202 L7.06511628,4.25426357 Z"/>
    <path fill="#56332B" d="M6.15348837,4.00465116 C6.04496124,3.75503876 6.43565891,3.35348837 7.05426357,3.34263566 C7.67286822,3.34263566 8.06356589,3.74418605 7.95503876,4.00465116 C7.84651163,4.26511628 7.45581395,4.34108527 7.05426357,4.35193798 C6.66356589,4.34108527 6.2620155,4.26511628 6.15348837,4.00465116 Z"/>
    <path fill="#000" d="M7.05426357,4.25426357 C7.05426357,4.21085271 7.42325581,4.2 7.61860465,4.06976744 C7.61860465,4.06976744 7.21705426,4.2 7.13023256,4.14573643 C7.04341085,4.10232558 7.02170543,3.97209302 7.02170543,3.97209302 C7.02170543,3.97209302 6.98914729,4.10232558 6.92403101,4.14573643 C6.84806202,4.18914729 6.39224806,4.06976744 6.39224806,4.06976744 C6.39224806,4.06976744 7,4.22170543 7,4.25426357 C7,4.28682171 6.98914729,4.39534884 6.98914729,4.47131783 C6.98914729,4.74263566 6.98914729,5.41550388 7.03255814,5.46976744 C7.09767442,5.56744186 7.07596899,4.74263566 7.07596899,4.47131783 C7.06511628,4.38449612 7.06511628,4.29767442 7.05426357,4.25426357 Z"/>
    <path fill="#7F4A41" d="M7.07596899,5.70852713 C7.26046512,5.70852713 7.58604651,5.83875969 7.87906977,6.04496124 C7.59689922,5.73023256 7.26046512,5.51317829 7.07596899,5.51317829 C6.88062016,5.51317829 6.46821705,5.75193798 6.1751938,6.09922481 C6.47906977,5.86046512 6.86976744,5.70852713 7.07596899,5.70852713 Z"/>
    <path fill="#442823" d="M7,7.62945736 C6.5875969,7.62945736 6.18604651,7.49922481 5.81705426,7.40155039 C5.74108527,7.37984496 5.66511628,7.43410853 5.58914729,7.4124031 C4.90542636,7.19534884 4.35193798,6.82635659 4.01550388,6.35968992 C4.01550388,6.39224806 4.01550388,6.43565891 4.01550388,6.46821705 C4.01550388,8.74728682 4.81860465,8.10697674 5.3503876,8.37829457 C5.89302326,8.6496124 6.45736434,8.5627907 7.03255814,8.5627907 L7.04341085,8.5627907 C7.62945736,8.5627907 8.18294574,8.63875969 8.7255814,8.36744186 C9.25736434,8.09612403 10.0604651,8.75813953 10.0604651,6.47906977 C10.0604651,6.39224806 10.0604651,6.30542636 10.0713178,6.22945736 C9.75658915,6.73953488 9.18139535,7.14108527 8.46511628,7.37984496 C8.4,7.40155039 8.24806202,7.34728682 8.18294574,7.35813953 C7.79224806,7.48837209 7.44496124,7.62945736 7,7.62945736 Z"/>
    <path fill="#442823" d="M5.96899225 6.40310078C5.96899225 6.40310078 5.69767442 7.21705426 5.88217054 7.5751938L5.63255814 7.46666667C5.63255814 7.46666667 5.81705426 6.64186047 5.96899225 6.40310078zM8.11782946 6.40310078C8.11782946 6.40310078 8.38914729 7.21705426 8.20465116 7.5751938L8.45426357 7.46666667C8.45426357 7.46666667 8.25891473 6.64186047 8.11782946 6.40310078z"/>
    <path fill="#CCAC8D" d="M5.2744186,2.24651163 C5.17674419,2.58294574 4.82945736,3.72248062 5.50232558,3.34263566 C5.50232558,3.34263566 5.22015504,3.50542636 5.04651163,4.12403101 C4.87286822,4.74263566 4.41705426,4.81860465 4.41705426,4.81860465 C4.41705426,4.81860465 3.68992248,4.95968992 3.14728682,4.49302326 C2.69147287,4.10232558 2.61550388,3.40775194 2.81085271,2.87596899 C3.00620155,2.34418605 3.35348837,2.19224806 3.86356589,2.08372093 C4.37364341,1.96434109 5.38294574,1.86666667 5.2744186,2.24651163 Z"/>
    <path fill="#000" d="M7.04341085,5.51317829 C7.33643411,5.51317829 8.24806202,6.14263566 8.25891473,6.91317829 C8.25891473,6.90232558 8.25891473,6.89147287 8.25891473,6.86976744 C8.25891473,6.06666667 7.52093023,5.42635659 7.04341085,5.42635659 C6.56589147,5.42635659 5.82790698,6.07751938 5.82790698,6.86976744 C5.82790698,6.88062016 5.82790698,6.89147287 5.82790698,6.91317829 C5.83875969,6.14263566 6.7503876,5.51317829 7.04341085,5.51317829 Z"/>
    <g fill="#331712" transform="translate(6.62 3.581)">
      <circle cx=".815" cy=".5" r="1" transform="rotate(-14.46 .815 .5)"/>
      <circle cx=".198" cy=".501" r="1" transform="rotate(17.235 .198 .501)"/>
    </g>
    <g transform="translate(3.039 2.496)">
      <circle cx=".998" cy=".988" r="1" fill="#000"/>
      <circle cx="1.248" cy=".564" r="1" fill="#FFF"/>
    </g>
    <path fill="#7F4A41" d="M7.3255814,3.49457364 C7.3255814,3.48372093 7.07596899,3.60310078 7.01085271,3.61395349 C6.94573643,3.60310078 6.69612403,3.48372093 6.69612403,3.49457364 C6.69612403,3.49457364 6.90232558,3.49457364 7.01085271,3.49457364 C7.11937984,3.49457364 7.3255814,3.49457364 7.3255814,3.49457364 Z"/>
    <path fill="#EFCCA3" d="M5.42635659,3.44031008 C5.42635659,3.44031008 4.56899225,4.02635659 4.10232558,4.60155039 C3.63565891,5.17674419 3.64651163,5.28527132 3.64651163,5.28527132 L3.98294574,5.4372093 C3.98294574,5.4372093 4.46046512,4.53643411 5.04651163,4.2 C5.63255814,3.86356589 5.70852713,3.58139535 5.70852713,3.58139535 L5.42635659,3.44031008 Z"/>
    <path fill="#CCAC8D" d="M3.54883721 1.70387597C3.54883721 1.70387597 3.25581395 2.50697674 2.60465116 2.84341085 2.60465116 2.84341085 3.6248062 2.72403101 3.54883721 1.70387597zM10.3968992 1.70387597C10.3968992 1.70387597 10.6899225 2.50697674 11.3410853 2.84341085 11.3410853 2.84341085 10.3209302 2.72403101 10.3968992 1.70387597zM8.54108527 3.20155039C8.54108527 3.20155039 7.90077519 2.52868217 7.04341085 2.50697674 7.03255814 2.50697674 7.06511628 2.50697674 7.05426357 2.50697674 7.04341085 2.50697674 7.06511628 2.50697674 7.06511628 2.50697674 6.19689922 2.52868217 5.56744186 3.20155039 5.56744186 3.20155039 6.31627907 2.68062016 6.95658915 2.69147287 7.06511628 2.69147287 7.06511628 2.69147287 7.06511628 2.69147287 7.06511628 2.69147287 7.06511628 2.69147287 7.06511628 2.69147287 7.06511628 2.69147287 7.05426357 2.69147287 7.79224806 2.68062016 8.54108527 3.20155039zM7.79224806 1.79069767C7.79224806 1.79069767 7.46666667 1.33488372 7.03255814 1.32403101 7.03255814 1.32403101 7.04341085 1.32403101 7.04341085 1.32403101 7.04341085 1.32403101 7.05426357 1.32403101 7.05426357 1.32403101 6.72868217 1.33488372 6.30542636 1.79069767 6.30542636 1.79069767 6.6744186 1.43255814 7.05426357 1.44341085 7.05426357 1.44341085 7.05426357 1.44341085 7.05426357 1.44341085 7.05426357 1.44341085 7.05426357 1.44341085 7.05426357 1.44341085 7.05426357 1.44341085 7.05426357 1.44341085 7.4124031 1.43255814 7.79224806 1.79069767zM4.0372093 5.12248062C4.0372093 5.12248062 3.52713178 5.37209302 3.15813953 5.22015504 3.15813953 5.22015504 3.14728682 5.22015504 3.14728682 5.22015504 3.14728682 5.22015504 3.14728682 5.22015504 3.14728682 5.22015504 2.82170543 5.03565891 2.65891473 4.48217054 2.65891473 4.48217054 2.65891473 4.48217054 2.98449612 5.45891473 4.0372093 5.12248062zM9.98449612 5.12248062C9.98449612 5.12248062 10.4945736 5.37209302 10.8635659 5.22015504 10.8635659 5.22015504 10.8635659 5.22015504 10.8635659 5.22015504 10.8635659 5.22015504 10.8635659 5.22015504 10.8635659 5.22015504 11.2976744 5.03565891 11.3627907 4.48217054 11.3627907 4.48217054 11.3627907 4.48217054 11.0372093 5.45891473 9.98449612 5.12248062z"/>
    <path fill="#CCAC8D" d="M4.62325581 1.6496124C4.90542636 1.59534884 5.37209302 1.58449612 5.74108527 1.70387597 6.20775194 1.86666667 5.82790698 2.46356589 5.9255814 2.49612403 6.02325581 2.52868217 6.15348837 2.08372093 7.02170543 2.12713178 7.90077519 2.17054264 7.99844961 2.56124031 8.11782946 2.49612403 8.2372093 2.43100775 7.99844961 1.41085271 9.31162791 1.6496124 9.31162791 1.6496124 7.93333333 1.28062016 7.99844961 2.27906977 7.99844961 2.27906977 7.20620155 1.67131783 6.09922481 2.21395349 6.11007752 2.21395349 6.39224806 1.28062016 4.62325581 1.6496124zM9.43100775 1.6496124C9.45271318 1.6496124 9.46356589 1.66046512 9.4744186 1.66046512 9.48527132 1.66046512 9.46356589 1.6496124 9.43100775 1.6496124zM4.24341085.314728682C4.24341085.314728682 3.07131783 1.79069767 2.89767442 2.35503876 2.72403101 2.93023256 2.59379845 5.28527132 2.44186047 5.62170543L1.89922481 3.29922481 2.89767442.879069767 4.24341085.314728682zM9.75658915.314728682C9.75658915.314728682 10.9286822 1.79069767 11.1023256 2.35503876 11.275969 2.93023256 11.4062016 5.28527132 11.5581395 5.62170543L12.1007752 3.29922481 11.1023256.879069767 9.75658915.314728682z"/>
    <path fill="#56332B" d="M9.70232558,0.314728682 C9.70232558,0.314728682 10.9612403,1.36744186 11.3302326,2.58294574 C11.6992248,3.79844961 11.5472868,5.2744186 11.8294574,5.45891473 C12.2310078,5.71937984 12.6868217,4.16744186 12.8387597,4.00465116 C13.0775194,3.74418605 13.8697674,3.08217054 13.924031,2.9627907 C13.9782946,2.84341085 12.3178295,1.03100775 11.5906977,0.672868217 C10.7116279,0.260465116 9.62635659,0.227906977 9.70232558,0.314728682 Z"/>
    <path fill="#442823" d="M10.7767442,0.965891473 C10.7767442,0.965891473 12.2635659,2.86511628 12.2418605,5.23100775 L12.8387597,4.01550388 C12.827907,4.01550388 12.3069767,2.46356589 10.7767442,0.965891473 Z"/>
    <path fill="#56332B" d="M4.24341085,0.314728682 C4.24341085,0.314728682 2.98449612,1.36744186 2.61550388,2.58294574 C2.24651163,3.79844961 2.39844961,5.2744186 2.11627907,5.45891473 C1.71472868,5.71937984 1.25891473,4.16744186 1.10697674,4.00465116 C0.868217054,3.74418605 0.0759689922,3.08217054 0.0217054264,2.9627907 C-0.0325581395,2.84341085 1.62790698,1.03100775 2.35503876,0.672868217 C3.23410853,0.260465116 4.31937984,0.227906977 4.24341085,0.314728682 Z"/>
    <path fill="#442823" d="M3.16899225,0.965891473 C3.16899225,0.965891473 1.68217054,2.86511628 1.70387597,5.23100775 L1.11782946,4.01550388 C1.11782946,4.01550388 1.63875969,2.46356589 3.16899225,0.965891473 Z"/>
    <path fill="#CCAC8D" d="M2.36589147 5.2744186C2.36589147 5.2744186 2.4744186 5.86046512 2.64806202 6.04496124 2.82170543 6.22945736 2.70232558 5.90387597 2.70232558 5.90387597 2.70232558 5.90387597 2.51782946 5.80620155 2.5503876 5.05736434 2.58294574 4.30852713 2.36589147 5.2744186 2.36589147 5.2744186zM11.6232558 5.2744186C11.6232558 5.2744186 11.5147287 5.86046512 11.3410853 6.04496124 11.1674419 6.22945736 11.2868217 5.90387597 11.2868217 5.90387597 11.2868217 5.90387597 11.4713178 5.80620155 11.4387597 5.05736434 11.4062016 4.30852713 11.6232558 5.2744186 11.6232558 5.2744186z"/>
    <g fill="#442823" transform="translate(5.1 4.667)">
      <ellipse cx=".833" cy=".188" rx="1" ry="1"/>
      <ellipse cx=".322" cy=".787" rx="1" ry="1"/>
      <ellipse cx=".156" cy=".188" rx="1" ry="1"/>
    </g>
    <g fill="#442823" transform="translate(7.922 4.667)">
      <circle cx=".125" cy=".188" r="1"/>
      <circle cx=".7" cy=".787" r="1"/>
      <circle cx=".887" cy=".188" r="1"/>
    </g>
  </g>
</svg>
