<svg xmlns="http://www.w3.org/2000/svg" width="16" height="16" viewBox="0 0 16 16">
  <g fill="none" fill-rule="evenodd">
    <polygon fill="#F4AF3D" fill-opacity=".7" points="1 16 16 16 16 9 1 9"/>
    <polygon fill="#9AA7B0" fill-opacity=".8" points="7 1 3 5 7 5"/>
    <polygon fill="#9AA7B0" fill-opacity=".8" points="8 1 8 6 3 6 3 8 13 8 13 1"/>
    <path fill="#423426" d="M4.06189474,0.037315511 C4.44354971,0.0344422167 4.83493957,0.225012531 5.13157505,0.654402116 C5.2835809,0.868518519 5.40636062,1.13715288 5.51063548,1.42317627 C5.69825731,0.895385686 5.97231384,0.446927875 6.31026901,0.23075912 C6.72209357,-0.0382857143 7.18758869,-0.0197025898 7.59870565,0.244006126 C7.95780312,0.472153161 8.27178558,0.86974993 8.55654191,1.30701309 C8.77930799,1.64923364 8.98545614,2.02369479 9.2148694,2.35311612 C9.33576218,2.52379727 9.46566082,2.68373155 9.61434308,2.77216931 C9.81193567,2.88956391 10.0456374,2.77881147 10.1869435,2.51387135 C10.317807,2.26590977 10.3097232,1.83730382 10.1655653,1.61083598 C10.0738986,1.47317906 9.917154,1.50086717 9.85229045,1.68434754 C9.79555361,1.82987803 9.82737427,2.01130604 9.87180312,2.15224673 C9.75374074,2.00223837 9.63548538,1.79308493 9.63593567,1.52030855 C9.61149123,1.20495517 9.74591423,0.926768031 9.90692593,0.816426065 C10.2211442,0.597757171 10.6151501,0.786275132 10.8134717,1.26775717 C11.0041813,1.71703592 11.0193626,2.30762852 10.9861267,2.84284489 C10.9459864,3.35123141 10.7825945,3.82573545 10.5403372,4.12000557 C10.2002593,4.54241715 9.76917934,4.6733946 9.35902729,4.66432693 C8.96478558,4.64570649 8.57457505,4.49073517 8.20930214,4.23445224 C7.59846979,3.80711501 7.02681287,3.2164851 6.39601754,2.87512281 C6.18678168,2.73377165 5.96425146,2.65731217 5.74052047,2.63372877 C5.56239766,2.63167641 5.39353801,2.61719799 5.22538596,2.63704985 C5.02018129,2.67138012 4.81617739,2.74451852 4.62405263,2.87549596 C3.98257895,3.22271679 3.40236647,3.82819827 2.77989084,4.25639376 C2.2542924,4.61223448 1.67195712,4.7775795 1.11408772,4.57999387 C0.802013645,4.47006238 0.491354776,4.22993706 0.280703704,3.80215205 C0.100436647,3.43843776 0.0140019493,2.95158229 0.0225146199,2.47461543 C0.0125438596,2.02451573 0.0693021442,1.54631746 0.240306043,1.19581287 C0.399409357,0.863555556 0.655690058,0.694926761 0.90174269,0.732130326 C1.0601384,0.744929546 1.22069981,0.865197438 1.31854191,1.0871501 C1.39549903,1.26279421 1.40023782,1.50336731 1.36650877,1.70875188 C1.32542495,1.89350097 1.24064133,2.03776274 1.14850292,2.14851518 C1.19552632,2.01044779 1.22402339,1.82819883 1.16844444,1.68393706 C1.10004288,1.49176218 0.931654971,1.47235812 0.842604288,1.63020273 C0.732883041,1.82655695 0.709832359,2.14728376 0.783465887,2.38781955 C0.863253411,2.63996046 1.02833918,2.78377444 1.1881501,2.81310443 C1.42993567,2.84948705 1.63964327,2.58868894 1.81705848,2.33576441 C2.18421832,1.78562183 2.51479727,1.15618379 2.92211891,0.69078474 C3.25795127,0.298971874 3.65360819,0.034031746 4.06187329,0.0373528265 L4.06189474,0.037315511 Z" transform="translate(2 10)"/>
  </g>
</svg>
