<svg width="40" height="40" viewBox="0 0 40 40" fill="none" xmlns="http://www.w3.org/2000/svg">
<g clip-path="url(#clip0_1_9)">
<path d="M19.9508 39.9016C30.9694 39.9016 39.9016 30.9694 39.9016 19.9508C39.9016 8.93229 30.9694 0 19.9508 0C8.93229 0 0 8.93229 0 19.9508C0 30.9694 8.93229 39.9016 19.9508 39.9016Z" fill="white"/>
<path fill-rule="evenodd" clip-rule="evenodd" d="M26.1031 24.4538C29.4808 24.6195 33.0084 23.1036 34.1034 20.0871C35.1985 17.0705 34.7739 14.0873 30.8455 12.298C26.9172 10.508 25.1029 8.38055 21.9293 7.09696C19.8558 6.25825 17.5487 6.75601 15.1798 8.06523C8.79941 11.5915 3.0826 22.7324 5.71761 33.0546C5.75542 33.1961 5.69197 33.3441 5.56359 33.4152C5.43601 33.4854 5.27581 33.4589 5.17686 33.3513C1.62414 29.4324 -0.374959 24.1185 0.0591557 18.433C0.89756 7.45416 10.4916 -0.778655 21.4704 0.0597485C32.4485 0.898053 40.6813 10.492 39.8429 21.4708C39.4909 26.0814 37.595 30.2074 34.6999 33.3809C32.4859 35.6553 29.6651 36.6662 27.3113 36.6244C25.6049 36.5942 23.9359 35.915 22.7817 34.9221C21.1343 33.5028 20.4684 31.8812 20.2407 30.0707C20.1836 29.6211 20.2172 28.3952 20.4514 27.5461C20.6254 26.9134 21.0683 25.6909 21.7158 25.1564C20.9582 24.8306 19.984 24.1202 19.6763 23.7793C19.6012 23.6958 19.6113 23.5643 19.6789 23.4744C19.7458 23.3837 19.865 23.3485 19.9707 23.3866C20.6218 23.61 21.4148 23.8299 22.251 23.9703C23.3503 24.1542 24.7177 24.3851 26.1031 24.4538ZM19.2296 8.48738C20.3058 8.40299 21.2448 9.32159 21.4067 10.5431C21.6225 12.1705 21.0254 13.8515 19.0615 13.8902C17.3837 13.9236 16.8754 12.2318 16.9866 11.2069C17.0971 10.1819 17.9419 8.58843 19.2296 8.48738Z" fill="black"/>
</g>
<defs>
<clipPath id="clip0_1_9">
<rect width="40" height="40" fill="white"/>
</clipPath>
</defs>
</svg>
