<svg width="40" height="40" viewBox="0 0 40 40" fill="none" xmlns="http://www.w3.org/2000/svg">
<path d="M18.7407 4.00819C18.6659 4.01607 18.4259 4.04361 18.2094 4.06329C15.132 4.38598 12.1018 5.68857 9.63045 7.75855C9.17395 8.13634 8.13503 9.17526 7.75724 9.63176C5.71088 12.0756 4.51454 14.8185 4.07379 18.0651C3.9754 18.7853 3.9754 21.2173 4.07379 21.9375C4.51454 25.1841 5.71088 27.927 7.75724 30.3708C8.13503 30.8273 9.17395 31.8663 9.63045 32.2441C12.0743 34.2904 14.8172 35.4868 18.0638 35.9275C18.784 36.0259 21.216 36.0259 21.9362 35.9275C25.1828 35.4868 27.9257 34.2904 30.3696 32.2441C30.826 31.8663 31.865 30.8273 32.2428 30.3708C34.2891 27.927 35.4855 25.1841 35.9262 21.9375C36.0246 21.2173 36.0246 18.7853 35.9262 18.0651C35.4855 14.8185 34.2891 12.0756 32.2428 9.63176C31.865 9.17526 30.826 8.13634 30.3696 7.75855C27.9336 5.72006 25.1631 4.50798 21.9598 4.07903C21.6135 4.03181 21.1098 4.01213 20.1771 4.00426C19.4648 3.99639 18.8155 4.00032 18.7407 4.00819V4.00819ZM18.9375 5.70825C18.9375 6.16868 18.9689 7.16825 19.0122 8.11666C19.0358 8.58103 19.0634 9.24609 19.0752 9.5924C19.1185 10.8202 19.2484 14.0432 19.268 14.3305L19.2877 14.6178L19.1106 14.5981C19.0122 14.5902 18.9217 14.5666 18.906 14.5548C18.8942 14.5391 18.8666 14.2676 18.8509 13.9488C18.7801 12.5478 18.5479 7.11316 18.5243 6.31822L18.5006 5.44458L18.6108 5.42884C18.6699 5.42097 18.7682 5.40917 18.8312 5.40523L18.9375 5.4013V5.70825ZM22.7036 5.6138C22.7075 5.61774 22.7193 6.8062 22.7311 8.2544C22.7468 9.70653 22.7665 11.0091 22.7783 11.1508C22.7901 11.2964 22.7862 11.4223 22.7665 11.4302C22.7508 11.442 22.6524 11.442 22.554 11.4302L22.373 11.4145L22.3454 10.2693C22.3297 9.63569 22.31 8.93521 22.3022 8.70696C22.2707 8.01041 22.2431 5.64528 22.2667 5.58625C22.2825 5.54297 22.3258 5.53903 22.4911 5.56658C22.6052 5.59019 22.6996 5.60987 22.7036 5.6138V5.6138ZM13.6012 6.93213C13.6248 6.96755 13.8098 9.13591 14.038 11.9733C14.1128 12.9374 14.1875 13.8189 14.1993 13.9291C14.219 14.1298 14.2151 14.1377 14.0892 14.2164C14.0183 14.2597 13.9475 14.2951 13.9317 14.2951C13.9199 14.2951 13.8963 14.1928 13.8845 14.0669C13.8294 13.5553 13.6169 11.0839 13.4674 9.29725C13.3808 8.24653 13.3021 7.30599 13.2903 7.20367C13.2706 7.03051 13.2745 7.01477 13.3769 6.95968C13.5028 6.89278 13.5736 6.88097 13.6012 6.93213V6.93213ZM24.4351 7.72313C24.5453 7.76248 24.5571 7.78216 24.5807 8.00647C24.6201 8.4 24.6083 10.2811 24.565 10.2811C24.4508 10.2811 24.2147 10.1473 24.195 10.0725C24.1832 10.0253 24.1714 9.46647 24.1714 8.83289C24.1714 7.55391 24.1557 7.62868 24.4351 7.72313V7.72313ZM17.1666 7.90809C17.1666 8.01434 17.1941 8.6007 17.2256 9.21855C17.2571 9.83639 17.2925 10.6195 17.3082 10.958C17.3358 11.6427 17.3437 11.6191 17.08 11.6348C16.9501 11.6388 16.9501 11.6388 16.9423 11.442C16.9344 11.3318 16.9147 10.9894 16.8911 10.6746C16.8714 10.3598 16.8242 9.67898 16.7927 9.15952C16.7612 8.64006 16.7219 8.12453 16.7101 8.01434C16.6865 7.81758 16.6904 7.80971 16.7967 7.77035C16.8596 7.74674 16.9698 7.72706 17.0406 7.72706C17.1666 7.72313 17.1666 7.72313 17.1666 7.90809V7.90809ZM28.0831 8.44723L28.2169 8.50232L28.2445 9.02965C28.2563 9.31693 28.2642 9.93871 28.2563 10.407L28.2445 11.2649L28.0792 11.1823L27.9139 11.1036L27.9021 9.79704C27.8942 9.07688 27.8982 8.4669 27.906 8.43936C27.9218 8.38033 27.9218 8.38033 28.0831 8.44723V8.44723ZM20.8973 8.96275C20.9209 8.98636 20.976 10.895 20.9799 11.8631L20.9838 12.4455L20.7989 12.418C20.6926 12.4061 20.606 12.3943 20.6021 12.3904C20.5903 12.3825 20.4722 9.46647 20.4722 9.18313V8.89192L20.6729 8.91553C20.7871 8.93127 20.8854 8.95095 20.8973 8.96275V8.96275ZM29.9603 9.24216C30.0075 9.29725 30.0154 10.1591 30.0272 14.9129C30.039 20.3712 30.039 20.5129 29.9681 20.5129C29.9249 20.5129 29.8658 20.4893 29.8304 20.4617C29.7714 20.4184 29.7635 19.9423 29.7438 15.2789C29.7281 12.4534 29.7084 9.88755 29.6966 9.57666L29.673 9.00998L29.7871 9.09262C29.854 9.13984 29.9288 9.20674 29.9603 9.24216V9.24216ZM26.4303 10.0489C26.45 10.0646 26.4697 10.289 26.4736 10.5447C26.4933 11.4145 26.4972 16.7468 26.4775 16.7625C26.4697 16.7704 26.3988 16.7507 26.3201 16.7193L26.1784 16.6602V9.96626L26.2886 9.98987C26.3477 10.0056 26.4106 10.0292 26.4303 10.0489V10.0489ZM15.5688 10.2693C15.5806 10.3755 15.6003 10.6156 15.6121 10.8123C15.6239 11.0052 15.6515 11.4459 15.6751 11.7883C15.7223 12.4809 15.7144 12.5242 15.4901 12.5242C15.3721 12.5242 15.3563 12.5124 15.3406 12.3943C15.3012 12.1622 15.1635 10.226 15.1832 10.1945C15.2029 10.167 15.4075 10.0961 15.5019 10.0883C15.5255 10.0843 15.557 10.167 15.5688 10.2693V10.2693ZM9.05983 11.2728C9.10312 11.6899 9.18969 12.5636 9.25266 13.2129C9.31956 13.8622 9.37465 14.4132 9.37465 14.4368C9.37465 14.484 9.07163 14.6335 9.04015 14.6021C9.02048 14.5824 8.62694 11.0996 8.62694 10.9422C8.62694 10.8478 8.92996 10.4503 8.96932 10.4936C8.98112 10.5015 9.02048 10.8517 9.05983 11.2728ZM24.4902 11.686L24.6043 11.7529L24.6083 12.6029C24.6122 13.0673 24.6201 13.5867 24.6201 13.756C24.6279 14.1101 24.5846 14.1692 24.3721 14.0944L24.2501 14.0511V13.7127C24.2501 13.5238 24.2383 12.9768 24.2226 12.4927L24.199 11.6191H24.2895C24.3367 11.6191 24.4272 11.6506 24.4902 11.686V11.686ZM10.7874 13.2129C10.8583 13.9685 10.9724 15.2435 11.0472 16.0463L11.181 17.5024L11.0275 17.6559L10.8779 17.8093L10.8504 17.4984C10.8347 17.3253 10.7559 16.5225 10.6733 15.7118C10.5907 14.9011 10.4726 13.7245 10.4136 13.0988L10.3034 11.9654L10.4569 11.8237C10.5946 11.6939 10.6103 11.6899 10.6379 11.7608C10.6536 11.8001 10.7205 12.4534 10.7874 13.2129ZM7.83988 13.6891C7.92646 14.4643 8.15471 16.5264 8.35147 18.2698C8.54824 20.0131 8.7332 21.6935 8.76862 22.0083C8.8001 22.3231 8.85519 22.7993 8.88668 23.0708C8.94177 23.5313 8.94177 23.5628 8.8788 23.61C8.78436 23.6808 8.745 23.6729 8.745 23.5903C8.745 23.5549 8.70959 23.2558 8.6663 22.9331C8.59546 22.394 8.4774 21.481 8.21374 19.4307C8.15864 19.0175 8.05239 18.195 7.97762 17.6008C7.89891 17.0065 7.78479 16.1211 7.72182 15.6331C7.65886 15.1451 7.5526 14.3108 7.4857 13.7717C7.41487 13.2365 7.37158 12.7603 7.38339 12.7092C7.41093 12.6029 7.64312 12.233 7.66673 12.2566C7.6746 12.2684 7.7533 12.9099 7.83988 13.6891ZM6.63568 15.3852C6.69471 15.8574 6.80489 16.7193 6.87967 17.3056C6.95444 17.888 7.04888 18.6161 7.09217 18.9191L7.16694 19.47L7.0843 19.5409C7.03708 19.5802 6.98985 19.596 6.97411 19.5802C6.95837 19.5645 6.92689 19.4071 6.90328 19.2339C6.87967 19.0608 6.73406 18.0494 6.57665 16.9908L6.29724 15.0625L6.38775 14.7949C6.43498 14.6493 6.48613 14.5312 6.49794 14.5312C6.51368 14.5312 6.57271 14.9169 6.63568 15.3852V15.3852ZM28.2405 14.8697C28.2956 14.9248 28.3035 15.1687 28.3035 16.975V19.0175H28.1933C27.9533 19.0175 27.9572 19.0765 27.9415 16.8412L27.9297 14.8067H28.0556C28.1225 14.8067 28.2091 14.8342 28.2405 14.8697V14.8697ZM19.6261 15.5741C20.5155 15.7079 21.2908 15.9558 22.0582 16.3493C22.554 16.6051 22.7901 16.7822 23.3411 17.3095C24.1596 18.0927 24.6633 18.7774 25.1356 19.7455C25.8243 21.1543 26.0919 22.4018 26.4303 25.7469C26.5838 27.2462 26.7845 29.9655 26.8278 31.0792C26.8396 31.4019 26.8671 31.9332 26.8907 32.2598C26.934 32.9524 26.9852 32.858 26.3752 33.1531C25.5291 33.5624 24.7145 33.8457 23.6402 34.1094C22.3258 34.4321 21.4757 34.5344 20.1771 34.5383L19.2326 34.5423L19.2405 34.0897C19.2405 33.8418 19.2641 33.2633 19.2877 32.8107C19.4058 30.6188 19.3822 27.8522 19.2287 26.3175C19.1421 25.436 18.9729 24.3656 18.8784 24.1294C18.8588 24.0783 18.9493 24.035 19.3389 23.9012C20.0512 23.6533 20.669 23.3424 20.7635 23.1889C20.9327 22.8977 20.6296 22.4805 20.244 22.4805C20.1771 22.4805 19.9764 22.5514 19.7914 22.634C18.9099 23.0394 17.143 23.5155 16.1237 23.6218C15.4193 23.6966 14.3253 23.6533 13.5658 23.5155C13.1526 23.4408 12.4127 23.1614 11.7949 22.8426C11.0826 22.4727 10.6458 21.9808 10.5159 21.3983C10.4451 21.0835 10.4647 20.4539 10.5552 20.0997C10.6536 19.7101 10.9291 19.1434 11.181 18.8128C12.3025 17.3371 14.6165 16.0581 16.9895 15.6095C17.7451 15.4678 18.8155 15.4521 19.6261 15.5741ZM31.7666 15.6961C31.9083 15.7551 31.924 15.7708 31.924 15.9046C31.9319 16.979 31.9083 19.4346 31.8886 19.5369C31.8846 19.5724 31.68 19.5763 31.5934 19.5448C31.5383 19.5251 31.5305 19.3126 31.5305 17.5772C31.5305 16.3336 31.5462 15.6331 31.5698 15.6331C31.5895 15.6331 31.68 15.6607 31.7666 15.6961V15.6961ZM33.4863 17.8566L33.628 17.9156L33.6004 21.174C33.569 25.3258 33.565 25.4478 33.4155 25.8059C33.1715 26.3922 33.1833 26.5103 33.2069 23.9366C33.2148 22.6498 33.2345 21.3472 33.2423 21.0442C33.2502 20.7411 33.2581 19.8872 33.262 19.1434C33.262 18.2462 33.2738 17.7975 33.3014 17.7975C33.325 17.7975 33.4076 17.8251 33.4863 17.8566ZM9.81934 18.8365C9.84296 19.1552 9.83509 19.1867 9.72096 19.4386L9.59503 19.7062L9.54781 19.3126C9.47304 18.683 9.47304 18.6554 9.62258 18.561C9.68948 18.5138 9.76031 18.4823 9.77212 18.4901C9.78393 18.498 9.80754 18.6554 9.81934 18.8365V18.8365ZM7.38732 21.2094C7.42274 21.5321 7.69821 23.6729 7.83988 24.7237C8.05239 26.349 8.06813 26.5811 7.97368 26.4828C7.96188 26.471 7.87136 25.9239 7.77692 25.2667C7.16301 21.0245 7.16694 21.052 7.2181 21.0205C7.32436 20.9497 7.35977 20.9891 7.38732 21.2094V21.2094ZM10.2207 23.0118C10.2444 23.1102 10.3585 24.1767 10.3585 24.3065C10.3585 24.4167 10.2168 24.519 10.1538 24.4561C10.1342 24.4364 10.083 24.1019 10.0437 23.7162C10.0004 23.3266 9.95708 22.9213 9.94527 22.8151L9.92166 22.6183L10.0594 22.7757C10.1381 22.8623 10.2089 22.9685 10.2207 23.0118V23.0118ZM13.3965 24.4954C13.4398 24.5348 13.4674 24.6922 13.5028 25.1172C13.5618 25.8846 13.5697 25.8256 13.4083 25.8256C13.2431 25.8256 13.247 25.8374 13.1919 25.1448C13.1368 24.4403 13.1368 24.4482 13.2431 24.4482C13.2942 24.4482 13.3611 24.4718 13.3965 24.4954ZM16.5133 24.5545C16.5212 24.5938 16.5409 24.8299 16.5566 25.0779C16.5684 25.3258 16.6038 25.8846 16.6353 26.3175C16.7455 27.9073 16.7494 28.108 16.6825 28.108C16.6078 28.108 16.5999 28.049 16.5133 26.9275C16.4818 26.4631 16.4228 25.7311 16.3834 25.3022C16.348 24.8732 16.3244 24.5151 16.3362 24.5072C16.3795 24.46 16.4936 24.4954 16.5133 24.5545ZM9.11492 25.31C9.13854 25.3455 9.28808 26.6048 9.47304 28.3245C9.52813 28.8439 9.58323 29.3437 9.59503 29.4382L9.61471 29.6074L9.51633 29.5444C9.44155 29.4933 9.41401 29.4421 9.41401 29.3516C9.41401 29.1037 9.24479 27.4705 9.11492 26.471C9.04015 25.9043 8.98112 25.4045 8.98112 25.3573C8.98112 25.2746 9.07557 25.2431 9.11492 25.31V25.31ZM31.8256 26.955L31.7981 28.6L31.6997 28.7456C31.4754 29.0761 31.4872 29.1391 31.499 27.2974L31.5069 25.6091L31.6525 25.4596C31.7312 25.3809 31.8099 25.314 31.8256 25.314C31.8374 25.314 31.8374 26.0538 31.8256 26.955V26.955ZM28.1855 29.5641C28.2051 31.8505 28.2012 32.0276 28.1382 32.0984C28.0989 32.1417 28.0635 32.1693 28.0517 32.1575C28.0241 32.126 27.9848 27.14 28.0162 27.1124C28.032 27.0967 28.0713 27.0888 28.1067 27.0927C28.1579 27.1045 28.1697 27.3839 28.1855 29.5641V29.5641ZM15.3327 27.9979C15.3603 28.2418 15.4586 29.4106 15.498 29.9616C15.5216 30.3315 15.5216 30.3433 15.435 30.3708C15.3878 30.3866 15.3327 30.3827 15.317 30.363C15.2894 30.3354 15.2029 29.4618 15.0966 28.1159L15.0691 27.7932H15.191C15.3052 27.7932 15.313 27.8011 15.3327 27.9979V27.9979ZM12.2396 29.3752C12.2671 29.4028 12.2868 29.5011 12.2868 29.5995C12.2868 29.7018 12.334 30.2331 12.3852 30.7841C12.5347 32.2913 12.5465 32.4959 12.4796 32.4566C12.3773 32.3975 12.2868 32.307 12.3065 32.2834C12.3143 32.2677 12.2986 32.0709 12.2671 31.8466C12.2396 31.6183 12.2041 31.2484 12.1884 31.0202C12.1727 30.7919 12.1372 30.3748 12.1058 30.0954C12.031 29.4067 12.0349 29.328 12.1215 29.328C12.1609 29.328 12.212 29.3477 12.2396 29.3752V29.3752ZM14.101 32.0237C14.1128 32.1103 14.1364 32.433 14.1521 32.7399C14.1797 33.3302 14.1679 33.3735 14.0065 33.2515C13.9593 33.2161 13.9278 33.0665 13.8806 32.6179C13.7979 31.8072 13.794 31.8387 13.9475 31.8545C14.0616 31.8663 14.0774 31.882 14.101 32.0237Z" fill="#222222"/>
<path d="M12.696 17.4592C12.2868 17.6363 12.2553 18.1911 12.6409 18.3879C12.9203 18.5296 13.2037 18.4627 13.3493 18.2187C13.6248 17.7701 13.1761 17.2506 12.696 17.4592ZM15.3642 17.837C14.9864 18.0691 14.9864 18.628 15.3642 18.8601C15.738 19.0844 16.2221 18.7893 16.2221 18.3407C16.2221 17.9078 15.7262 17.6166 15.3642 17.837Z" fill="#222222"/>
</svg>
