<svg width="16" height="16" viewBox="0 0 16 16" fill="none" xmlns="http://www.w3.org/2000/svg">
<path fill-rule="evenodd" clip-rule="evenodd" d="M2.5 2C2.22386 2 2 2.22386 2 2.5V13.5C2 13.7761 2.22386 14 2.5 14H13.5C13.7022 14 13.8845 13.8782 13.9619 13.6913C14.0393 13.5045 13.9966 13.2894 13.8536 13.1464L9.20711 8.5H13.5C13.7761 8.5 14 8.27614 14 8V7.5C14 4.46243 11.5376 2 8.5 2H2.5ZM8.5 3V7.5H13C13 5.01472 10.9853 3 8.5 3ZM7.5 3H3.70711L7.5 6.79289V3ZM3 7.5V3.70711L6.79289 7.5H3ZM5.75 8.5H7.5V13H5.75V8.5ZM8.5 9.20711V13H12.2929L8.5 9.20711ZM4.75 8.5V13H3V8.5H4.75Z" fill="#6C707E"/>
</svg>
