<svg width="40" height="40" viewBox="0 0 40 40" fill="none" xmlns="http://www.w3.org/2000/svg">
<path fill-rule="evenodd" clip-rule="evenodd" d="M29.1141 22.9851C28.5835 22.9851 28.1521 22.8656 27.6214 22.6539C26.1353 22.0189 25.0538 20.754 24.7359 19.3774C25.5315 18.8482 26.5164 18.5645 27.4889 18.5839C28.0718 18.5943 28.6566 18.7093 29.2133 18.9476C29.6382 19.1593 30.0494 19.3579 30.4743 19.6755C31.9605 20.7345 31.0252 23.0909 29.1141 22.9851ZM22.6127 27.4193C22.2935 27.1017 22.0951 26.6842 21.8824 26.2609C21.2453 24.7784 21.4646 23.1895 22.3138 22.0247C23.7999 22.3428 25.1595 23.2895 25.7965 24.772C26.0093 25.1953 26.1287 25.7382 26.1287 26.1622C26.2345 27.7498 23.7804 28.69 22.6127 27.4193ZM21.6833 8.88678C21.8954 8.46342 22.0951 8.05305 22.413 7.62969C22.8509 7.11347 23.4775 6.90699 24.0715 6.96802C25.0629 7.06867 25.9956 7.8615 25.9297 8.98613C25.9297 9.41014 25.8102 9.95297 25.5975 10.3763C24.9611 11.8587 23.7001 12.8048 22.2146 13.123C21.259 11.9581 21.0463 10.3692 21.6833 8.88678ZM18.7978 26.1621C18.5856 26.5855 18.3859 26.9958 18.0681 27.4192C17.0061 28.7958 14.5449 27.8296 14.6512 26.029C14.6512 25.6056 14.7707 25.0959 14.9828 24.6726C15.6198 23.1895 16.8802 22.2434 18.3663 21.9259C19.2155 23.1966 19.4348 24.7849 18.7978 26.1621ZM12.9595 22.7531C12.5346 22.9648 11.9974 23.0836 11.4661 23.0836C9.55573 23.1895 8.62695 20.972 10.0067 19.8078C10.3252 19.4903 10.7364 19.2584 11.2677 19.0468C11.8251 18.8085 12.4093 18.6942 12.9921 18.6825C13.9594 18.6656 14.9084 18.9422 15.7125 19.4773C15.5004 20.8538 14.4457 22.1174 12.9595 22.7531ZM11.1352 12.1633C11.2468 12.1575 11.3474 12.1497 11.4668 12.1633C11.9974 12.1633 12.4289 12.2828 12.9595 12.4945C14.4457 13.1295 15.5272 14.3944 15.845 15.771C14.5716 16.6177 12.8531 16.8359 11.3676 16.2008C10.9427 15.9892 10.5308 15.7574 10.1066 15.4398C8.71311 14.3477 9.46109 12.2491 11.1352 12.1633ZM16.343 7.0667C16.9246 7.0115 17.5302 7.2128 17.9682 7.72901C18.2867 8.04653 18.4858 8.4634 18.6979 8.88676C19.3349 10.3692 19.1163 11.9587 18.2665 13.123C16.781 12.8048 15.4208 11.8587 14.7837 10.3763C14.571 9.95295 14.4522 9.41011 14.4522 8.9861C14.4522 7.9277 15.3738 7.1589 16.343 7.0667ZM28.2223 4.12105C27.9297 3.95244 27.6334 3.78382 27.3274 3.63607C27.0159 3.48592 26.6959 3.33876 26.3704 3.21245C26.2676 3.16955 26.166 3.13142 26.062 3.09091C25.7785 2.98843 25.492 2.87225 25.1981 2.78824C23.6164 2.27586 21.9246 2 20.1689 2C11.2321 2 4 9.10253 4 17.8787C4 25.6056 9.64006 32.0259 17.0833 33.454V38C26.7598 36.5671 35.3279 29.0237 35.9673 19.1215C36.3517 13.1611 33.3258 7.07621 28.2223 4.12105Z" fill="#00A817"/>
</svg>
