<svg width="40" height="40" viewBox="0 0 40 40" fill="none" xmlns="http://www.w3.org/2000/svg">
  <g clip-path="url(#clip0_526_2)">
    <path d="M29.7187 36.25H37.3805C38.8203 36.25 39.9813 35.0707 39.9582 33.6309L39.8481 26.7289C39.8363 25.9906 39.5086 25.293 38.9481 24.8125L15.0993 4.3707C14.6321 3.97031 14.0367 3.75 13.4215 3.75H6.32812C4.90429 3.75 3.75 4.90429 3.75 6.32812V13.2051C3.75 13.9484 4.07109 14.6559 4.63047 15.1453L28.0211 35.6121C28.491 36.0234 29.0941 36.25 29.7187 36.25Z" fill="#7256FF"/>
    <path d="M30.6334 36.25H37.4221C38.8459 36.25 40.0002 35.0957 40.0002 33.6719V25.8184C40.0002 25.6934 39.9912 25.5684 39.9729 25.4446L36.5677 2.2043C36.3822 0.938281 35.2963 0 34.017 0H24.3936C22.9693 0 21.8151 1.15469 21.8154 2.57891L21.8182 14.1441C21.8182 14.4101 21.8596 14.6746 21.9404 14.9277L28.1771 34.4563C28.5186 35.5246 29.512 36.25 30.6334 36.25Z" fill="url(#paint0_linear_526_2)"/>
    <path d="M2.57812 40H23.9078C24.9441 40 25.8797 39.3793 26.2828 38.4246L36.1562 15.0363C36.2929 14.7125 36.3621 14.3641 36.359 14.0125L36.2652 2.55703C36.2535 1.14141 35.1027 0 33.6871 0H22.6461C22.1426 0 21.6504 0.147266 21.2297 0.423828L1.16211 13.6168C0.436719 14.0937 0 14.9031 0 15.7711V37.4219C0 38.8457 1.15429 40 2.57812 40Z" fill="url(#paint1_linear_526_2)"/>
    <path d="M32.5 7.5H7.5V32.5H32.5V7.5Z" fill="black"/>
    <path fill-rule="evenodd" clip-rule="evenodd" d="M12.4637 19.5278C11.7335 19.1059 11.1594 18.525 10.7418 17.786C10.3242 17.0469 10.1152 16.2219 10.1152 15.3106C10.1152 14.3993 10.3238 13.5743 10.7418 12.8352C11.1594 12.0961 11.7332 11.5153 12.4637 11.0934C13.1937 10.6715 14.0101 10.4602 14.9121 10.4602C15.814 10.4602 16.6238 10.6711 17.3539 11.0934C18.084 11.5153 18.657 12.0961 19.0722 12.8352C19.4875 13.5743 19.6953 14.3993 19.6953 15.3106C19.6953 16.2219 19.4875 17.0469 19.0722 17.786C18.657 18.525 18.084 19.1059 17.3539 19.5278C16.8773 19.8031 16.3649 19.9888 15.8168 20.0846V20.127C15.8168 20.2653 15.8437 20.3848 15.8972 20.4852C15.9507 20.5856 16.0277 20.6618 16.1285 20.7129C16.2289 20.7641 16.3484 20.7899 16.4871 20.7899H17.6328V22.143H16.1254C15.7187 22.143 15.3629 22.0637 15.057 21.9051L15.0566 21.9059C14.7507 21.7473 14.516 21.5227 14.3531 21.2325C14.1898 20.9422 14.1085 20.6004 14.1085 20.2075L14.108 20.1014C13.5194 20.0116 12.9697 19.8205 12.4637 19.5278ZM16.4062 18.1344C16.8484 17.8555 17.1945 17.4688 17.4445 16.9754C17.6945 16.4821 17.8195 15.927 17.8195 15.3106C17.8195 14.6941 17.6945 14.1395 17.4445 13.6457C17.1945 13.1524 16.8484 12.766 16.4062 12.4868C15.964 12.2078 15.466 12.068 14.9125 12.068C14.359 12.068 13.8597 12.2075 13.4152 12.4868C12.9707 12.766 12.6222 13.1524 12.3703 13.6457C12.1179 14.1391 11.9918 14.6941 11.9918 15.3106C11.9918 15.927 12.1179 16.4821 12.3703 16.9754C12.6226 17.4688 12.971 17.8555 13.4152 18.1344C13.8597 18.4137 14.3585 18.5531 14.9125 18.5531C15.4664 18.5531 15.9644 18.4137 16.4062 18.1344Z" fill="white"/>
    <path d="M20.6201 27.5H10.6201V29.375H20.6201V27.5Z" fill="white"/>
    <path fill-rule="evenodd" clip-rule="evenodd" d="M24.8676 10.6212H21.2969V20H24.8676C25.7563 20 26.5523 19.7993 27.2558 19.3973C27.9589 18.9953 28.5094 18.4383 28.907 17.7258C29.3043 17.0133 29.5031 16.2087 29.5031 15.3106C29.5031 14.4125 29.3043 13.6078 28.907 12.8953C28.5098 12.1828 27.9594 11.6258 27.2558 11.2238C26.5523 10.8219 25.7563 10.6212 24.8676 10.6212ZM27.2863 16.9684C27.0586 17.4352 26.7348 17.7938 26.3148 18.0438C25.8949 18.2938 25.4058 18.4184 24.8476 18.4184H23.1258V12.2016H24.8476C25.4058 12.2016 25.8949 12.3266 26.3148 12.5766C26.7348 12.827 27.0586 13.1852 27.2863 13.652C27.5141 14.1188 27.6281 14.6712 27.6281 15.3102C27.6281 15.9493 27.5141 16.5016 27.2863 16.9684Z" fill="white"/>
  </g>
  <defs>
    <linearGradient id="paint0_linear_526_2" x1="40.2447" y1="35.2059" x2="24.7549" y2="1.79687" gradientUnits="userSpaceOnUse">
      <stop offset="0.1" stop-color="#7256FF"/>
      <stop offset="0.59" stop-color="#FF2D90"/>
    </linearGradient>
    <linearGradient id="paint1_linear_526_2" x1="37.2977" y1="2.54219" x2="0.675" y2="39.1649" gradientUnits="userSpaceOnUse">
      <stop offset="0.21" stop-color="#FF2D90"/>
      <stop offset="0.7" stop-color="#FF8200"/>
    </linearGradient>
    <clipPath id="clip0_526_2">
      <rect width="40" height="40" fill="white"/>
    </clipPath>
  </defs>
</svg>

