<svg xmlns="http://www.w3.org/2000/svg" xmlns:xlink="http://www.w3.org/1999/xlink" width="40" height="40" viewBox="0 0 40 40">
  <defs>
    <polygon id="pug_dark-a" points=".057 .682 11 .682 11 15.307 .057 15.307"/>
    <polygon id="pug_dark-c" points="0 .682 10.943 .682 10.943 15.307 0 15.307"/>
  </defs>
  <g fill="none" fill-rule="evenodd" transform="translate(2 8)">
    <path fill="#EFCCA3" d="M30.124,7.4902 C30.068,6.1502 30.236,4.9632 29.675,3.9582 C28.326,1.4622 24.954,0.0002 18.211,0.0002 L18.211,0.2132 L18.07,0.2132 L18.211,0.2132 L18.211,0.0002 C11.467,0.0002 7.927,1.4622 6.578,3.9882 C6.044,5.0242 6.101,6.1802 6.017,7.5202 C5.96,8.5872 5.511,9.7132 5.707,10.9302 C5.932,12.5142 6.017,14.0972 6.241,15.5592 C6.409,16.7472 7.927,17.7512 8.067,18.8782 C8.461,21.9832 11.439,23.4152 18.183,23.4152 L18.183,23.6582 L18.014,23.6582 L18.211,23.6582 L18.211,23.4152 C24.954,23.4152 27.82,21.9832 28.186,18.8782 C28.326,17.7202 29.73,16.7472 29.899,15.5592 C30.124,14.0972 30.208,12.5142 30.434,10.9302 C30.63,9.7132 30.181,8.5552 30.124,7.4902"/>
    <path fill="#CCAC8D" d="M18.0986,8.5869 C19.3066,8.6169 20.1496,9.4399 20.9366,10.1999 C21.8636,11.0829 23.4366,11.6919 24.0826,12.4529 C24.7296,13.2149 25.5726,13.9759 25.8816,15.1629 C26.1906,16.3509 26.2746,17.8729 26.2746,18.2699 C26.2746,18.6649 26.4716,18.5729 27.0336,18.2699 C28.3546,17.5679 29.8156,15.6809 29.8156,15.6809 C29.6466,16.8679 28.2136,17.9349 28.0736,19.0609 C27.7366,22.1659 24.9536,23.6579 18.0706,23.6579 L18.0416,23.6579 L18.2106,23.6579"/>
    <path fill="#CCAC8D" d="M22.5381,6.2119 C22.7911,7.1549 23.6891,10.3529 21.9471,9.2869 C21.9471,9.2869 22.6791,9.7429 23.1281,11.4799 C23.6051,13.2149 24.7581,13.4279 24.7581,13.4279 C24.7581,13.4279 26.6401,13.8229 28.0451,12.5149 C29.2251,11.4179 29.4221,9.4699 28.9161,7.9779 C28.4101,6.5159 27.5111,6.0599 26.1901,5.7549 C24.8701,5.4199 22.2281,5.1459 22.5381,6.2119"/>
    <path fill="#000" d="M25.8818,7.0029 C27.2468,7.0029 28.3548,8.2029 28.3548,9.6829 C28.3548,11.1619 27.2468,12.3619 25.8818,12.3619 C24.5158,12.3619 23.4088,11.1619 23.4088,9.6829 C23.4088,8.2029 24.5158,7.0029 25.8818,7.0029"/>
    <path fill="#FFF" d="M25.2354,7.7949 C25.5914,7.7949 25.8814,8.1079 25.8814,8.4949 C25.8814,8.8819 25.5914,9.1949 25.2354,9.1949 C24.8784,9.1949 24.5894,8.8819 24.5894,8.4949 C24.5894,8.1079 24.8784,7.7949 25.2354,7.7949"/>
    <path fill="#EFCCA3" d="M22.1162,9.5605 C22.1162,9.5605 24.3362,11.2055 25.5442,12.8185 C26.7532,14.4325 26.7242,14.7375 26.7242,14.7375 L25.8532,15.1635 C25.8532,15.1635 24.6172,12.6355 23.0992,11.6925 C21.5542,10.7475 21.3862,9.9565 21.3862,9.9565 L22.1162,9.5605 Z"/>
    <path fill="#CCAC8D" d="M18.1826,8.5869 C16.9746,8.6169 16.0756,9.4399 15.2606,10.1999 C14.3326,11.0829 12.7036,11.6919 12.0576,12.4529 C11.4116,13.2149 10.5396,13.9759 10.2316,15.1629 C9.9216,16.3509 9.8096,17.8729 9.8096,18.2699 C9.8096,18.6649 9.8656,18.6949 9.0506,18.2699 C7.7306,17.5999 6.2696,15.6809 6.2696,15.6809 C6.4376,16.8679 7.8706,17.9349 8.0116,19.0609 C8.4046,22.1659 11.1866,23.6579 18.0706,23.6579 L18.2106,23.6579"/>
    <path fill="#A06A5D" d="M24.7012,13.7324 C23.3522,11.9354 21.1892,10.2604 18.1822,10.2604 L18.1542,10.2604 C15.1482,10.2604 12.9842,11.9354 11.6362,13.7324 C10.2312,15.5894 10.3442,16.3204 10.3442,18.0864 C10.3442,24.4804 12.4232,22.6534 13.8002,23.4454 C15.2042,24.2064 16.6652,23.9624 18.1542,23.9624 L18.1822,23.9624 C19.7002,23.9624 21.1332,24.1754 22.5382,23.4154 C23.9152,22.6534 25.9942,24.5414 25.9942,18.1474 C26.0212,16.3804 26.1062,15.5894 24.7012,13.7324"/>
    <path fill="#442823" d="M18.042,11.8447 C18.042,11.8447 17.846,14.7977 17.452,15.3757 L18.183,15.1937 L18.042,11.8447 Z"/>
    <path fill="#442823" d="M18.2393,11.8447 C18.2393,11.8447 18.4353,14.7977 18.8293,15.3757 L18.0983,15.1937 L18.2393,11.8447 Z"/>
    <path fill="#56332B" d="M15.8789,11.1445 C15.5979,10.4435 16.6089,9.3175 18.2109,9.2875 C19.8129,9.2875 20.8239,10.4135 20.5429,11.1445 C20.2619,11.8745 19.2499,12.0875 18.2109,12.1185 C17.1989,12.0875 16.1589,11.8745 15.8789,11.1445"/>
    <path fill="#000" d="M18.2109,11.8447 C18.2109,11.7227 19.1659,11.6927 19.6719,11.3267 C19.6719,11.3267 18.6319,11.6927 18.4069,11.5397 C18.1829,11.4177 18.1259,11.0527 18.1259,11.0527 C18.1259,11.0527 18.0419,11.4177 17.8739,11.5397 C17.6769,11.6617 16.4969,11.3267 16.4969,11.3267 C16.4969,11.3267 18.0699,11.7527 18.0699,11.8447 C18.0699,11.9357 18.0419,12.2407 18.0419,12.4527 C18.0419,13.2147 18.0419,15.1027 18.1539,15.2547 C18.3229,15.5287 18.2669,13.2147 18.2669,12.4527 C18.2389,12.2097 18.2389,11.9657 18.2109,11.8447"/>
    <path fill="#7F4A41" d="M18.2666,15.9248 C18.7446,15.9248 19.5876,16.2898 20.3456,16.8678 C19.6156,15.9858 18.7446,15.3758 18.2666,15.3758 C17.7606,15.3758 16.6936,16.0458 15.9346,17.0208 C16.7216,16.3508 17.7336,15.9248 18.2666,15.9248"/>
    <path fill="#884B44" d="M18.0703,21.3135 C17.0033,21.3135 15.9633,20.9485 15.0073,20.6745 C14.8103,20.6135 14.6143,20.7655 14.4183,20.7055 C12.6473,20.0955 11.2153,19.0605 10.3433,17.7505 L10.3433,18.0555 C10.3433,24.4505 12.4233,22.6535 13.7993,23.4155 C15.2043,24.1755 16.6653,23.9325 18.1543,23.9325 L18.1823,23.9325 C19.7003,23.9325 21.1333,24.1455 22.5383,23.3845 C23.9153,22.6235 25.9943,24.4805 25.9943,18.0855 C25.9943,17.8425 25.9943,17.5995 26.0213,17.3855 C25.2073,18.8175 23.7173,19.9435 21.8633,20.6135 C21.6953,20.6745 21.3013,20.5225 21.1333,20.5525 C20.1213,20.9175 19.2223,21.3135 18.0703,21.3135"/>
    <path fill="#442823" d="M20.9639,17.873 C20.9639,17.873 21.6669,20.157 21.1899,21.162 L21.8349,20.857 C21.8349,20.857 21.3299,18.543 20.9639,17.873 M15.4019,17.873 C15.4019,17.873 14.6979,20.157 15.1759,21.162 L14.5299,20.857 C14.5299,20.857 15.0079,18.543 15.4019,17.873"/>
    <path fill="#CCAC8D" d="M13.6025,6.2119 C13.3495,7.1549 12.4515,10.3529 14.1925,9.2869 C14.1925,9.2869 13.4615,9.7429 13.0125,11.4799 C12.5635,13.2149 11.3825,13.4279 11.3825,13.4279 C11.3825,13.4279 9.4995,13.8229 8.0955,12.5149 C6.9155,11.4179 6.7185,9.4699 7.2245,7.9779 C7.7305,6.4849 8.6285,6.0599 9.9505,5.7549 C11.2705,5.4199 13.8835,5.1459 13.6025,6.2119"/>
    <path fill="#000" d="M18.1826,15.376 C18.9416,15.376 21.3016,17.143 21.3286,19.305 L21.3286,19.183 C21.3286,16.93 19.4186,15.133 18.1826,15.133 C16.9466,15.133 15.0366,16.96 15.0366,19.183 L15.0366,19.305 C15.0636,17.143 17.4236,15.376 18.1826,15.376"/>
    <path fill="#331712" d="M18.5859 10.2764C18.7059 10.2424 18.8509 10.4134 18.9079 10.6574 18.9669 10.9014 18.9159 11.1274 18.7959 11.1614 18.6759 11.1944 18.5309 11.0234 18.4729 10.7794 18.4149 10.5354 18.4649 10.3094 18.5859 10.2764M17.6016 10.2842C17.7196 10.3232 17.7606 10.5512 17.6916 10.7922 17.6226 11.0332 17.4706 11.1962 17.3516 11.1562 17.2336 11.1162 17.1936 10.8882 17.2616 10.6472 17.3306 10.4072 17.4836 10.2442 17.6016 10.2842"/>
    <path fill="#000" d="M10.3994,7.0029 C11.7644,7.0029 12.8724,8.2029 12.8724,9.6829 C12.8724,11.1619 11.7644,12.3619 10.3994,12.3619 C9.0344,12.3619 7.9264,11.1619 7.9264,9.6829 C7.9264,8.2029 9.0344,7.0029 10.3994,7.0029"/>
    <path fill="#FFF" d="M11.0459,7.7949 C11.4019,7.7949 11.6919,8.1079 11.6919,8.4949 C11.6919,8.8819 11.4019,9.1949 11.0459,9.1949 C10.6889,9.1949 10.3999,8.8819 10.3999,8.4949 C10.3999,8.1079 10.6889,7.7949 11.0459,7.7949"/>
    <path fill="#7F4A41" d="M18.9131,9.7129 C18.9131,9.6829 18.2671,10.0179 18.0991,10.0479 C17.9301,10.0179 17.2831,9.6829 17.2831,9.7129 L18.9131,9.7129 Z"/>
    <path fill="#EFCCA3" d="M13.9961,9.5605 C13.9961,9.5605 11.7761,11.2055 10.5681,12.8185 C9.3601,14.4325 9.3881,14.7375 9.3881,14.7375 L10.2591,15.1635 C10.2591,15.1635 11.4951,12.6355 13.0131,11.6925 C14.5301,10.7475 14.7261,9.9565 14.7261,9.9565 L13.9961,9.5605 Z"/>
    <path fill="#CCAC8D" d="M25.7969,14.2803 C25.7969,14.2803 27.1179,14.9803 28.0729,14.5543 C29.1969,14.0373 29.3649,12.4833 29.3649,12.4833 C29.3649,12.4833 28.5229,15.2243 25.7969,14.2803 M10.3999,14.2803 C10.3999,14.2803 9.0789,14.9803 8.1239,14.5543 L8.0959,14.5543 C7.2529,14.0373 6.8309,12.4833 6.8309,12.4833 C6.8309,12.4833 7.6739,15.2243 10.3999,14.2803 M20.1209,4.9323 C20.1209,4.9323 19.2779,3.6543 18.1539,3.6233 L18.2109,3.6233 C17.3679,3.6543 16.2729,4.9323 16.2729,4.9323 C17.2279,3.9273 18.2109,3.9583 18.2109,3.9583 C18.2109,3.9583 19.1379,3.9273 20.1209,4.9323 M22.0609,8.8903 C22.0609,8.8903 20.4019,7.0033 18.1829,6.9423 L18.2109,6.9423 L18.2389,6.9423 C15.9909,7.0033 14.3609,8.8903 14.3609,8.8903 C16.2999,7.4293 17.9579,7.4603 18.2389,7.4603 C18.2109,7.4603 20.1209,7.4293 22.0609,8.8903 M26.8649,4.6893 C26.8649,4.6893 27.6229,6.9423 29.3099,7.8853 C29.3099,7.8853 26.6679,7.5513 26.8649,4.6893 M9.1349,4.6893 C9.1349,4.6893 8.3769,6.9423 6.6909,7.8853 C6.6909,7.8853 9.3319,7.5513 9.1349,4.6893"/>
    <path fill="#CCAC8D" d="M25.207,0.792 C25.207,0.792 28.241,4.933 28.691,6.516 C29.141,8.13 29.478,14.737 29.871,15.681 L31.276,9.165 L28.691,2.375 L25.207,0.792 Z M10.934,0.792 C10.934,0.792 7.898,4.933 7.449,6.516 C7,8.13 6.662,14.737 6.27,15.681 L4.864,9.165 L7.449,2.375 L10.934,0.792 Z M24.364,4.537 C24.42,4.537 24.448,4.567 24.477,4.567 C24.505,4.567 24.448,4.537 24.364,4.537 Z M11.917,4.537 C12.647,4.385 13.855,4.355 14.811,4.689 C16.019,5.146 15.036,6.82 15.288,6.912 C15.541,7.003 15.879,5.755 18.126,5.877 C20.402,5.998 20.655,7.095 20.964,6.912 C21.273,6.729 20.655,3.867 24.055,4.537 C24.055,4.537 20.486,3.502 20.655,6.303 C20.655,6.303 18.604,4.598 15.738,6.12 C15.767,6.12 16.497,3.502 11.917,4.537 Z"/>
    <g transform="translate(25)">
      <mask id="pug_dark-b" fill="#fff">
        <use xlink:href="#pug_dark-a"/>
      </mask>
      <path fill="#A06A5D" d="M0.0664,0.792 C0.0664,0.792 3.3264,3.745 4.2814,7.155 C5.2364,10.565 4.8424,14.707 5.5744,15.225 C6.6134,15.955 7.7944,11.601 8.1864,11.145 C8.8044,10.413 10.8564,8.556 10.9974,8.221 C11.1364,7.886 6.8374,2.801 4.9564,1.797 C2.6794,0.64 -0.1296,0.548 0.0664,0.792" mask="url(#pug_dark-b)"/>
    </g>
    <path fill="#884B44" d="M27.8486,2.6182 C27.8486,2.6182 31.6976,7.9472 31.6416,14.5852 L33.1866,11.1752 C33.1596,11.1752 31.8106,6.8202 27.8486,2.6182"/>
    <mask id="pug_dark-d" fill="#fff">
      <use xlink:href="#pug_dark-c"/>
    </mask>
    <path fill="#A06A5D" d="M10.9336,0.792 C10.9336,0.792 7.6736,3.745 6.7186,7.155 C5.7636,10.565 6.1576,14.707 5.4256,15.225 C4.3866,15.955 3.2056,11.601 2.8136,11.145 C2.1956,10.413 0.1436,8.556 0.0026,8.221 C-0.1364,7.886 4.1626,2.801 6.0436,1.797 C8.3206,0.64 11.1296,0.548 10.9336,0.792" mask="url(#pug_dark-d)"/>
    <path fill="#884B44" d="M8.1514,2.6182 C8.1514,2.6182 4.3024,7.9472 4.3584,14.5852 L2.8404,11.1752 C2.8404,11.1752 4.1894,6.8202 8.1514,2.6182"/>
    <path fill="#CCAC8D" d="M30.04,14.707 C30.04,14.707 29.759,16.351 29.31,16.868 C28.859,17.386 29.169,16.473 29.169,16.473 C29.169,16.473 29.646,16.198 29.562,14.098 C29.478,11.997 30.04,14.707 30.04,14.707 M6.072,14.707 C6.072,14.707 6.353,16.351 6.803,16.868 C7.253,17.386 6.943,16.473 6.943,16.473 C6.943,16.473 6.466,16.198 6.55,14.098 C6.635,11.997 6.072,14.707 6.072,14.707"/>
    <path fill="#442823" d="M15.2607 13.2148C15.3847 13.2148 15.4857 13.3228 15.4857 13.4578 15.4857 13.5928 15.3847 13.7018 15.2607 13.7018 15.1367 13.7018 15.0357 13.5928 15.0357 13.4578 15.0357 13.3228 15.1367 13.2148 15.2607 13.2148M13.9678 14.6758C14.0918 14.6758 14.1928 14.7848 14.1928 14.9198 14.1928 15.0548 14.0918 15.1628 13.9678 15.1628 13.8438 15.1628 13.7428 15.0548 13.7428 14.9198 13.7428 14.7848 13.8438 14.6758 13.9678 14.6758M13.5469 13.2148C13.6709 13.2148 13.7719 13.3228 13.7719 13.4578 13.7719 13.5928 13.6709 13.7018 13.5469 13.7018 13.4219 13.7018 13.3209 13.5928 13.3209 13.4578 13.3209 13.3228 13.4219 13.2148 13.5469 13.2148M20.7393 13.2148C20.8633 13.2148 20.9643 13.3228 20.9643 13.4578 20.9643 13.5928 20.8633 13.7018 20.7393 13.7018 20.6153 13.7018 20.5143 13.5928 20.5143 13.4578 20.5143 13.3228 20.6153 13.2148 20.7393 13.2148M22.0322 14.6758C22.1562 14.6758 22.2572 14.7848 22.2572 14.9198 22.2572 15.0548 22.1562 15.1628 22.0322 15.1628 21.9082 15.1628 21.8072 15.0548 21.8072 14.9198 21.8072 14.7848 21.9082 14.6758 22.0322 14.6758M22.4531 13.2148C22.5781 13.2148 22.6791 13.3228 22.6791 13.4578 22.6791 13.5928 22.5781 13.7018 22.4531 13.7018 22.3291 13.7018 22.2281 13.5928 22.2281 13.4578 22.2281 13.3228 22.3291 13.2148 22.4531 13.2148"/>
  </g>
</svg>
