<svg xmlns="http://www.w3.org/2000/svg" width="16" height="16" viewBox="0 0 16 16">
  <g fill="none" fill-rule="evenodd">
    <path fill="#21844F" d="M4.45,8.1 C3.37,8.1 2.67,7.6 2.21,6.97 L3.02,6.13 C3.43,6.66 3.84,6.96 4.43,6.96 C5.09,6.96 5.54,6.52 5.54,5.58 L5.54,1 L6.81,1 L6.81,5.62 C6.81,6.45 6.56,7.07 6.15,7.48 C5.74,7.89 5.15,8.1 4.45,8.1 Z M10.95,8.1 C9.88,8.1 8.87,7.73 8.03,6.98 L8.77,6.1 C9.44,6.68 10.12,7.01 10.98,7.01 C11.74,7.01 12.22,6.65 12.22,6.13 L12.22,6.11 C12.22,5.61 11.94,5.34 10.64,5.04 C9.15,4.68 8.31,4.24 8.31,2.95 L8.31,2.93 C8.31,1.73 9.31,0.9 10.7,0.9 C11.72,0.9 12.53,1.21 13.24,1.78 L12.58,2.71 C11.95,2.24 11.32,1.99 10.68,1.99 C9.96,1.99 9.54,2.36 9.54,2.82 L9.54,2.84 C9.54,3.38 9.86,3.62 11.21,3.94 C12.69,4.3 13.45,4.83 13.45,5.99 L13.45,6.01 C13.45,7.32 12.42,8.1 10.95,8.1 Z"/>
    <path fill="#E64552" d="M5.33,15.09 C4.44,15.09 3.81,14.7 3.81,13.54 L3.81,10.76 L3.14,10.76 L3.14,9.72 L3.81,9.72 L3.81,8.27 L5.02,8.27 L5.02,9.72 L6.44,9.72 L6.44,10.76 L5.02,10.76 L5.02,13.35 C5.02,13.82 5.26,14.01 5.67,14.01 C5.94,14.01 6.18,13.95 6.42,13.83 L6.42,14.82 C6.12,14.99 5.79,15.09 5.33,15.09 Z M9.7,15.11 C8.46,15.11 7.25,14.12 7.25,12.37 L7.25,12.35 C7.25,10.6 8.44,9.61 9.7,9.61 C10.57,9.61 11.12,10.04 11.5,10.54 L11.5,7.7 L12.71,7.7 L12.71,15 L11.5,15 L11.5,14.12 C11.11,14.67 10.56,15.11 9.7,15.11 Z M9.99,14.06 C10.8,14.06 11.52,13.38 11.52,12.37 L11.52,12.35 C11.52,11.33 10.8,10.66 9.99,10.66 C9.16,10.66 8.47,11.31 8.47,12.35 L8.47,12.37 C8.47,13.39 9.17,14.06 9.99,14.06 Z"/>
  </g>
</svg>
