<svg xmlns="http://www.w3.org/2000/svg" width="13" height="13" viewBox="0 0 13 13">
  <g fill="none" fill-rule="evenodd">
    <path fill="#AFB1B3" d="M3.54142349,6.91886121 C2.65359431,6.91886121 2.07814947,6.50782918 1.7,5.98992883 L2.36587189,5.29939502 C2.70291815,5.73508897 3.03996441,5.98170819 3.52498221,5.98170819 C4.06754448,5.98170819 4.43747331,5.62 4.43747331,4.84725979 L4.43747331,1.08220641 L5.48149466,1.08220641 L5.48149466,4.88014235 C5.48149466,5.56245552 5.27597865,6.07213523 4.93893238,6.40918149 C4.60188612,6.74622776 4.11686833,6.91886121 3.54142349,6.91886121 Z M8.88483986,6.91886121 C8.00523132,6.91886121 7.17494662,6.61469751 6.48441281,5.99814947 L7.09274021,5.2747331 C7.64352313,5.75153025 8.20252669,6.02281139 8.90950178,6.02281139 C9.53427046,6.02281139 9.92886121,5.72686833 9.92886121,5.29939502 L9.92886121,5.28295374 C9.92886121,4.87192171 9.69868327,4.64996441 8.63,4.4033452 C7.40512456,4.10740214 6.71459075,3.74569395 6.71459075,2.68523132 L6.71459075,2.66879004 C6.71459075,1.68231317 7.5366548,1 8.67932384,1 C9.51782918,1 10.1837011,1.25483986 10.7673665,1.72341637 L10.2248043,2.48793594 C9.70690391,2.10156584 9.18900356,1.89604982 8.66288256,1.89604982 C8.07099644,1.89604982 7.72572954,2.20021352 7.72572954,2.57836299 L7.72572954,2.59480427 C7.72572954,3.03871886 7.98879004,3.23601423 9.09857651,3.49907473 C10.3152313,3.79501779 10.94,4.23071174 10.94,5.18430605 L10.94,5.20074733 C10.94,6.27765125 10.093274,6.91886121 8.88483986,6.91886121 Z"/>
    <path fill="#AFB1B3" d="M4.43231975,12.6455904 C3.72831766,12.6455904 3.2299791,12.3370951 3.2299791,11.4195193 L3.2299791,9.22050157 L2.7,9.22050157 L2.7,8.39784744 L3.2299791,8.39784744 L3.2299791,7.25087774 L4.18710554,7.25087774 L4.18710554,8.39784744 L5.31034483,8.39784744 L5.31034483,9.22050157 L4.18710554,9.22050157 L4.18710554,11.2692268 C4.18710554,11.6410031 4.3769488,11.7912957 4.70126437,11.7912957 C4.91483804,11.7912957 5.1046813,11.7438349 5.29452456,11.6489133 L5.29452456,12.4320167 C5.05722048,12.566489 4.796186,12.6455904 4.43231975,12.6455904 Z M7.88904911,12.6614107 C6.90819227,12.6614107 5.95106583,11.8783072 5.95106583,10.4940334 L5.95106583,10.4782132 C5.95106583,9.09393939 6.892372,8.31083595 7.88904911,8.31083595 C8.57723093,8.31083595 9.0122884,8.65097179 9.31287356,9.04647858 L9.31287356,6.8 L10.27,6.8 L10.27,12.5743992 L9.31287356,12.5743992 L9.31287356,11.8783072 C9.00437827,12.3133647 8.56932079,12.6614107 7.88904911,12.6614107 Z M8.11844305,11.8308464 C8.75916405,11.8308464 9.32869383,11.2929572 9.32869383,10.4940334 L9.32869383,10.4782132 C9.32869383,9.67137931 8.75916405,9.14140021 8.11844305,9.14140021 C7.46190178,9.14140021 6.9161024,9.65555904 6.9161024,10.4782132 L6.9161024,10.4940334 C6.9161024,11.3008673 7.46981191,11.8308464 8.11844305,11.8308464 Z"/>
  </g>
</svg>
