<svg xmlns="http://www.w3.org/2000/svg" xmlns:xlink="http://www.w3.org/1999/xlink" width="40" height="40" viewBox="0 0 40 40">
  <defs>
    <polygon id="perforce-a" points=".001 0 31.915 0 31.915 14.243 .001 14.243"/>
    <polygon id="perforce-c" points=".396 .35 31 .35 31 13 .396 13"/>
  </defs>
  <g fill="none" fill-rule="evenodd" transform="translate(4 4)">
    <mask id="perforce-b" fill="#fff">
      <use xlink:href="#perforce-a"/>
    </mask>
    <path fill="#ECAD00" d="M0.0005,7.0396 C0.6435,6.7726 1.2865,6.5096 1.9285,6.2396 C4.0345,5.3516 6.1605,4.5056 8.2425,3.5606 C10.6575,2.4616 13.0385,1.2806 15.4265,0.1196 C15.7485,-0.0374 16.0035,-0.0424 16.3305,0.1176 C18.5445,1.1946 20.7475,2.2996 22.9945,3.2976 C25.8025,4.5446 28.6475,5.6976 31.4765,6.8936 C31.5925,6.9426 31.6955,7.0206 31.9145,7.1506 C31.0935,7.3926 30.3765,7.5796 29.6755,7.8136 C26.7785,8.7806 23.9185,9.8416 21.2355,11.3466 C19.5475,12.2926 17.8645,13.2486 16.1655,14.1716 C15.9805,14.2716 15.6525,14.2646 15.4665,14.1626 C13.3655,13.0156 11.2905,11.8206 9.1865,10.6806 C8.3125,10.2066 7.4075,9.7776 6.4805,9.4296 C4.5495,8.7046 2.5945,8.0476 0.6485,7.3646 C0.4385,7.2906 0.2255,7.2316 0.0135,7.1646 C0.0085,7.1236 0.0045,7.0816 0.0005,7.0396" mask="url(#perforce-b)"/>
    <g transform="translate(1 19)">
      <mask id="perforce-d" fill="#fff">
        <use xlink:href="#perforce-c"/>
      </mask>
      <path fill="#ECAD00" d="M0.396,10.2695 C0.929,9.8405 1.333,9.5025 1.75,9.1845 C3.021,8.2155 4.305,7.2665 5.568,6.2875 C6.144,5.8405 6.698,5.5275 7.481,5.7235 C9.335,6.1885 11.218,6.5335 13.067,7.0175 C14.208,7.3165 15.31,7.7725 16.421,8.1805 C16.811,8.3245 17.077,8.2465 17.391,7.9575 C19.946,5.6185 22.516,3.2965 25.504,1.5335 C26.151,1.1525 26.783,0.7405 27.452,0.4075 C27.659,0.3045 27.988,0.3545 28.226,0.4385 C29.136,0.7605 30.033,1.1255 31,1.5005 C30.849,1.6495 30.783,1.7535 30.689,1.7995 C28.058,3.1055 25.723,4.8805 23.575,6.8685 C21.591,8.7055 19.804,10.7675 17.953,12.7515 C17.73,12.9915 17.592,13.0535 17.28,12.9565 C15.29,12.3335 13.307,11.6705 11.291,11.1575 C8.047,10.3315 4.73,10.2045 1.403,10.2685 C1.137,10.2735 0.872,10.2695 0.396,10.2695" mask="url(#perforce-d)"/>
    </g>
    <path fill="#ECAD00" d="M0.6049,18.1309 C2.3409,17.0949 4.0469,16.1589 5.6599,15.0759 C6.3899,14.5859 6.9769,14.6239 7.7039,14.9299 C10.0139,15.9019 12.3419,16.8319 14.6569,17.7949 C15.1489,17.9999 15.6199,18.2649 16.0889,18.5239 C16.4249,18.7089 16.6889,18.6229 16.9819,18.4079 C19.4589,16.5879 22.0789,15.0099 24.8539,13.7229 C26.0129,13.1839 27.2379,12.7939 28.4339,12.3389 C28.5029,12.3139 28.5979,12.2969 28.6599,12.3239 C29.7439,12.7989 30.8239,13.2809 31.9809,13.7959 C30.9029,14.2859 29.8899,14.6859 28.9329,15.1949 C27.3779,16.0229 25.8389,16.8849 24.3329,17.7999 C21.9649,19.2369 19.7569,20.9129 17.6649,22.7459 C17.3689,23.0069 17.0849,23.0249 16.7179,22.8879 C14.0899,21.9069 11.4919,20.8169 8.8089,20.0239 C6.2669,19.2719 3.6339,18.8399 1.0419,18.2649 C0.9169,18.2369 0.7959,18.1909 0.6049,18.1309"/>
  </g>
</svg>
