<svg id="fe3d76f5-46b5-45da-a5bd-d5567e35d175" xmlns="http://www.w3.org/2000/svg" viewBox="0 0 34.926 40">
    <defs>
        <style>.cls-1{fill:#f1f1f2;}.cls-2{fill:#00aeef;}</style>
    </defs>
    <path class="cls-1"
          d="M3.022,9.638a1.075,1.075,0,0,0-.485.84V29.522a1.075,1.075,0,0,0,.485.84l16.493,9.522a1.07,1.07,0,0,0,.97,0l16.493-9.522a1.075,1.075,0,0,0,.485-.84V10.478a1.075,1.075,0,0,0-.485-.84L20.485.116a1.07,1.07,0,0,0-.97,0Z"
          transform="translate(-2.537)"/>
    <path class="cls-2" d="M23.386,21.324h-6.4a1.376,1.376,0,0,1-.06-2.751h6.462a1.376,1.376,0,1,1,.061,2.751Z"
          transform="translate(-2.537)"/>
    <path class="cls-2"
          d="M29.4,20.305c.034-.752.581-4.537-5.961-8.132a12.563,12.563,0,0,1-2.017,2.015c.074.059,1.175.731,1.263.775,4.017,2.024,3.982,4.915,3.969,5.192l-.026.055.021.159c-.007.252-.178,2.38-3.9,4.554-4.867,2.844-5.719,5.259-5.84,5.715l2.658.708a.434.434,0,0,1-.014.048,4.834,4.834,0,0,1,1.088-1.479l4.4,2.49a1.375,1.375,0,0,0,1.355-2.394l-3.461-1.959c.363-.245.761-.5,1.2-.754C29.166,24.357,29.408,21.043,29.4,20.305Z"
          transform="translate(-2.537)"/>
    <path class="cls-2"
          d="M10.976,19.7c-.034.752-.58,4.537,5.962,8.132a12.557,12.557,0,0,1,2.016-2.015c-.074-.059-1.175-.731-1.263-.775-4.016-2.024-3.982-4.915-3.968-5.192l.025-.056-.021-.158c.007-.252.179-2.38,3.9-4.554,4.867-2.844,5.719-5.259,5.841-5.715l-2.659-.708a.442.442,0,0,1,.015-.048,4.853,4.853,0,0,1-1.089,1.479l-4.4-2.49a1.376,1.376,0,0,0-1.356,2.394l3.462,1.959c-.363.245-.762.5-1.2.754C11.206,15.64,10.961,18.957,10.976,19.7Z"
          transform="translate(-2.537)"/>
</svg>