<svg width="40" height="40" viewBox="0 0 40 40" fill="none" xmlns="http://www.w3.org/2000/svg">
<path d="M26.8571 12C26.8571 11.3688 26.3455 10.8571 25.7143 10.8571C25.0831 10.8571 24.5714 11.3688 24.5714 12V22.0484L26.8408 25.7143H26.8571V12Z" fill="white"/>
<path fill-rule="evenodd" clip-rule="evenodd" d="M36 20C36 28.8366 28.8366 36 20 36C11.1634 36 4 28.8366 4 20C4 11.1634 11.1634 4 20 4C28.8366 4 36 11.1634 36 20ZM25.636 32.5064C23.9168 33.2824 22.0088 33.7143 20 33.7143C12.4258 33.7143 6.28571 27.5742 6.28571 20C6.28571 12.4258 12.4258 6.28571 20 6.28571C27.5742 6.28571 33.7143 12.4258 33.7143 20C33.7143 24.7478 31.3017 28.9321 27.6356 31.3938L15.2574 11.3984C14.9886 10.9641 14.4643 10.761 13.973 10.9007C13.4817 11.0405 13.1429 11.4892 13.1429 12V28C13.1429 28.6311 13.6545 29.1428 14.2857 29.1428C14.9169 29.1428 15.4286 28.6311 15.4286 28V16.0174L25.636 32.5064Z" fill="white"/>
</svg>
