<svg width="16" height="16" viewBox="0 0 16 16" fill="none" xmlns="http://www.w3.org/2000/svg">
<path fill-rule="evenodd" clip-rule="evenodd" d="M8 14C11.3137 14 14 11.3137 14 8C14 4.68629 11.3137 2 8 2C4.68629 2 2 4.68629 2 8C2 11.3137 4.68629 14 8 14ZM6.27596 5.63313C6.09845 5.45562 5.81064 5.45562 5.63313 5.63313C5.45562 5.81064 5.45562 6.09845 5.63313 6.27596L7.35718 8L5.63313 9.72404C5.45562 9.90155 5.45562 10.1894 5.63313 10.3669C5.81064 10.5444 6.09845 10.5444 6.27596 10.3669L8 8.64282L9.72404 10.3669C9.90155 10.5444 10.1894 10.5444 10.3669 10.3669C10.5444 10.1894 10.5444 9.90155 10.3669 9.72404L8.64282 8L10.3669 6.27596C10.5444 6.09845 10.5444 5.81064 10.3669 5.63313C10.1894 5.45562 9.90155 5.45562 9.72404 5.63313L8 7.35718L6.27596 5.63313Z" fill="#FF5862"/>
</svg>
