<svg width="16" height="16" viewBox="0 0 16 16" fill="none" xmlns="http://www.w3.org/2000/svg">
<path fill-rule="evenodd" clip-rule="evenodd" d="M8 14C11.3137 14 14 11.3137 14 8C14 4.68629 11.3137 2 8 2C4.68629 2 2 4.68629 2 8C2 11.3137 4.68629 14 8 14ZM6.45204 4.5H7.19499C7.31944 4.5 7.43838 4.55278 7.52379 4.64589C7.60919 4.73901 7.6535 4.86422 7.64626 4.99202L7.4509 8.43704C7.43692 8.68289 7.23903 8.8749 6.99962 8.87491H6.64741C6.408 8.8749 6.21012 8.68289 6.19614 8.43704L6.00077 4.99202C5.99353 4.86422 6.03783 4.73901 6.12324 4.64589C6.20864 4.55278 6.32759 4.5 6.45204 4.5ZM6.82351 11.5C6.3687 11.5 6 11.1082 6 10.625C6 10.1417 6.3687 9.75 6.82351 9.75C7.27833 9.75 7.64703 10.1417 7.64703 10.625C7.64703 11.1082 7.27833 11.5 6.82351 11.5ZM9.54752 4.5H8.80458C8.68013 4.5 8.56118 4.55278 8.47578 4.64589C8.39037 4.73901 8.34607 4.86422 8.3533 4.99202L8.54868 8.43704C8.56265 8.68289 8.76054 8.8749 8.99995 8.87491H9.35216C9.59157 8.8749 9.78946 8.68289 9.80344 8.43704L9.9988 4.99202C10.006 4.86422 9.96173 4.73901 9.87633 4.64589C9.79092 4.55278 9.67198 4.5 9.54752 4.5ZM9.17605 11.5C8.72124 11.5 8.35254 11.1082 8.35254 10.625C8.35254 10.1417 8.72124 9.75 9.17605 9.75C9.63087 9.75 9.99956 10.1417 9.99956 10.625C9.99956 11.1082 9.63087 11.5 9.17605 11.5Z" fill="#FDA332"/>
</svg>
