<svg width="16" height="16" viewBox="0 0 16 16" fill="none" xmlns="http://www.w3.org/2000/svg">
<path fill-rule="evenodd" clip-rule="evenodd" d="M8 14C11.3137 14 14 11.3137 14 8C14 4.68629 11.3137 2 8 2C4.68629 2 2 4.68629 2 8C2 11.3137 4.68629 14 8 14ZM8.0002 4.5C7.55837 4.5 7.2002 4.85258 7.2002 5.2875C7.2002 5.72242 7.55837 6.075 8.0002 6.075C8.44202 6.075 8.8002 5.72242 8.8002 5.2875C8.8002 4.85258 8.44202 4.5 8.0002 4.5ZM8.0002 6.775C7.55837 6.775 7.2002 7.12758 7.2002 7.5625V10.7125C7.2002 11.1474 7.55837 11.5 8.0002 11.5C8.44202 11.5 8.8002 11.1474 8.8002 10.7125V7.5625C8.8002 7.12758 8.44202 6.775 8.0002 6.775Z" fill="#45A5F4"/>
</svg>
