<svg width="16" height="16" viewBox="0 0 16 16" fill="none" xmlns="http://www.w3.org/2000/svg">
<path fill-rule="evenodd" clip-rule="evenodd" d="M8 14C11.3137 14 14 11.3137 14 8C14 4.68629 11.3137 2 8 2C4.68629 2 2 4.68629 2 8C2 11.3137 4.68629 14 8 14ZM10.6204 8.58448L7.98183 11L5.37415 8.58366C5.24075 8.46004 5.32822 8.23696 5.51009 8.23696H7.37612V5.4C7.37612 5.17909 7.5552 5 7.77612 5H8.18754C8.40845 5 8.58754 5.17909 8.58754 5.4V8.23696H10.4853C10.6678 8.23696 10.755 8.46127 10.6204 8.58448Z" fill="#B8B3CA"/>
</svg>
