<svg width="16" height="16" viewBox="0 0 16 16" fill="none" xmlns="http://www.w3.org/2000/svg">
<path fill-rule="evenodd" clip-rule="evenodd" d="M8 14C11.3137 14 14 11.3137 14 8C14 4.68629 11.3137 2 8 2C4.68629 2 2 4.68629 2 8C2 11.3137 4.68629 14 8 14ZM7.62196 4.50003H8.3649C8.48936 4.50003 8.6083 4.55281 8.69371 4.64592C8.77911 4.73904 8.82341 4.86425 8.81618 4.99205L8.62081 8.43707C8.60684 8.68292 8.40895 8.87493 8.16954 8.87494H7.81733C7.57792 8.87493 7.38003 8.68292 7.36606 8.43707L7.17068 4.99205C7.16345 4.86425 7.20775 4.73904 7.29316 4.64592C7.37856 4.55281 7.49751 4.50003 7.62196 4.50003ZM7.99343 11.5C7.53861 11.5 7.16991 11.1083 7.16991 10.625C7.16991 10.1418 7.53861 9.75006 7.99343 9.75006C8.44824 9.75006 8.81694 10.1418 8.81694 10.625C8.81694 11.1083 8.44824 11.5 7.99343 11.5Z" fill="#FFD121"/>
</svg>
