<!-- Copyright 2000-2022 JetBrains s.r.o. and contributors. Use of this source code is governed by the Apache 2.0 license. -->
<svg width="32" height="15" viewBox="0 0 32 15" fill="none" xmlns="http://www.w3.org/2000/svg">
<rect width="32" height="15" rx="7.5" fill="#548AF7" fill-opacity="0.6"/>
<path d="M5.88379 11H6.94824V5.88281H7.02637L10.6445 11H11.6309V3.9541H10.5664V9.08105H10.4932L6.87012 3.9541H5.88379V11ZM15.5078 11.1025C16.8652 11.1025 17.5977 10.3213 17.7734 9.62305L17.7832 9.5791L16.7627 9.58398L16.7432 9.62305C16.6162 9.89648 16.2109 10.2334 15.5322 10.2334C14.6582 10.2334 14.1016 9.64258 14.082 8.62695H17.8418V8.25586C17.8418 6.66406 16.9336 5.59473 15.4541 5.59473C13.9746 5.59473 13.0176 6.70312 13.0176 8.3584V8.36328C13.0176 10.043 13.9551 11.1025 15.5078 11.1025ZM15.459 6.46387C16.1768 6.46387 16.709 6.92285 16.792 7.87012H14.0967C14.1895 6.95703 14.7363 6.46387 15.459 6.46387ZM20.083 11H21.1621L22.2559 7.04492H22.3389L23.4375 11H24.5264L25.9863 5.69727H24.9365L23.9893 9.78906H23.9062L22.8125 5.69727H21.8066L20.7129 9.78906H20.6348L19.6826 5.69727H18.6182L20.083 11Z" fill="#231F20" fill-opacity="0.7"/>
</svg>
