<svg width="16" height="16" viewBox="0 0 16 16" fill="none" xmlns="http://www.w3.org/2000/svg">
  <g clip-path="url(#clip0_526_2)">
    <path d="M11.8875 14.5H14.9522C15.5281 14.5 15.9925 14.0283 15.9833 13.4523L15.9392 10.6916C15.9345 10.3963 15.8034 10.1172 15.5792 9.925L6.0397 1.74828C5.85283 1.58813 5.61467 1.5 5.3686 1.5H2.53125C1.96172 1.5 1.5 1.96172 1.5 2.53125V5.28202C1.5 5.57937 1.62844 5.86235 1.85219 6.05813L11.2085 14.2449C11.3964 14.4094 11.6376 14.5 11.8875 14.5Z" fill="#7256FF"/>
    <path d="M12.2538 14.5H14.9692C15.5387 14.5 16.0005 14.0383 16.0005 13.4688V10.3273C16.0005 10.2773 15.9969 10.2273 15.9895 10.1778L14.6275 0.88172C14.5533 0.375313 14.1189 0 13.6072 0H9.75781C9.18811 0 8.72641 0.461875 8.72656 1.03156L8.72766 5.65765C8.72766 5.76405 8.74421 5.86985 8.77656 5.9711L11.2712 13.7825C11.4078 14.2099 11.8052 14.5 12.2538 14.5Z" fill="url(#paint0_linear_526_2)"/>
    <path d="M1.03125 16H9.56313C9.97765 16 10.3519 15.7517 10.5131 15.3699L14.4625 6.01452C14.5172 5.885 14.5449 5.74563 14.5436 5.605L14.5061 1.02281C14.5014 0.456562 14.0411 0 13.4749 0H9.05843C8.85703 0 8.66015 0.0589063 8.49188 0.169531L0.464845 5.44672C0.174688 5.6375 0 5.96125 0 6.30842V14.9688C0 15.5383 0.461718 16 1.03125 16Z" fill="url(#paint1_linear_526_2)"/>
    <path d="M13 3H3V13H13V3Z" fill="black"/>
    <path fill-rule="evenodd" clip-rule="evenodd" d="M4.98527 7.81111C4.69322 7.64236 4.46355 7.41001 4.29652 7.11438C4.12947 6.81876 4.0459 6.48876 4.0459 6.12423C4.0459 5.75971 4.12932 5.42971 4.29652 5.13408C4.46355 4.83846 4.69307 4.60611 4.98527 4.43736C5.2773 4.26861 5.60385 4.18408 5.96465 4.18408C6.32542 4.18408 6.64932 4.26846 6.94135 4.43736C7.2334 4.60611 7.4626 4.83846 7.6287 5.13408C7.7948 5.42971 7.87792 5.75971 7.87792 6.12423C7.87792 6.48876 7.7948 6.81876 7.6287 7.11438C7.4626 7.41001 7.2334 7.64236 6.94135 7.81111C6.75072 7.92126 6.54575 7.99553 6.32652 8.03383V8.05078C6.32652 8.10611 6.3373 8.15391 6.3587 8.19408C6.3801 8.23423 6.4109 8.26471 6.4512 8.28516C6.49135 8.30563 6.53917 8.31596 6.59465 8.31596H7.05292V8.85721H6.44995C6.2873 8.85721 6.14495 8.82548 6.0226 8.76203L6.02245 8.76236C5.9001 8.69891 5.8062 8.60908 5.74105 8.49298C5.67572 8.37688 5.64322 8.24016 5.64322 8.08298L5.643 8.04056C5.40755 8.00466 5.1877 7.92818 4.98527 7.81111ZM6.5623 7.25376C6.73917 7.14221 6.8776 6.98751 6.9776 6.79016C7.0776 6.59283 7.1276 6.37078 7.1276 6.12423C7.1276 5.87766 7.0776 5.65578 6.9776 5.45828C6.8776 5.26096 6.73917 5.10641 6.5623 4.99471C6.38542 4.88313 6.1862 4.82721 5.9648 4.82721C5.7434 4.82721 5.5437 4.88298 5.3659 4.99471C5.18807 5.10641 5.0487 5.26096 4.94792 5.45828C4.84697 5.65563 4.79652 5.87766 4.79652 6.12423C4.79652 6.37078 4.84697 6.59283 4.94792 6.79016C5.04885 6.98751 5.18822 7.14221 5.3659 7.25376C5.5437 7.36548 5.74322 7.42126 5.9648 7.42126C6.18635 7.42126 6.38557 7.36548 6.5623 7.25376Z" fill="white"/>
    <path d="M8.24805 11H4.24805V11.75H8.24805V11Z" fill="white"/>
    <path fill-rule="evenodd" clip-rule="evenodd" d="M9.94683 4.24847H8.51855V8.00002H9.94683C10.3023 8.00002 10.6207 7.91972 10.9021 7.75892C11.1834 7.59815 11.4036 7.37535 11.5626 7.09035C11.7215 6.80535 11.8011 6.48347 11.8011 6.12425C11.8011 5.76502 11.7215 5.44315 11.5626 5.15815C11.4037 4.87315 11.1836 4.65035 10.9021 4.48955C10.6207 4.32877 10.3023 4.24847 9.94683 4.24847ZM10.9143 6.78737C10.8232 6.9741 10.6937 7.11752 10.5257 7.21752C10.3578 7.31752 10.1621 7.36737 9.93886 7.36737H9.2501V4.88065H9.93886C10.1621 4.88065 10.3578 4.93065 10.5257 5.03065C10.6937 5.1308 10.8232 5.2741 10.9143 5.4608C11.0054 5.64752 11.0511 5.86847 11.0511 6.1241C11.0511 6.37972 11.0054 6.60065 10.9143 6.78737Z" fill="white"/>
  </g>
  <defs>
    <linearGradient id="paint0_linear_526_2" x1="16.0983" y1="14.0823" x2="9.90234" y2="0.71875" gradientUnits="userSpaceOnUse">
      <stop offset="0.1" stop-color="#7256FF"/>
      <stop offset="0.59" stop-color="#FF2D90"/>
    </linearGradient>
    <linearGradient id="paint1_linear_526_2" x1="14.9191" y1="1.01687" x2="0.27" y2="15.666" gradientUnits="userSpaceOnUse">
      <stop offset="0.21" stop-color="#FF2D90"/>
      <stop offset="0.7" stop-color="#FF8200"/>
    </linearGradient>
    <clipPath id="clip0_526_2">
      <rect width="16" height="16" fill="white"/>
    </clipPath>
  </defs>
</svg>