<svg width="16" height="16" viewBox="0 0 16 16" fill="none" xmlns="http://www.w3.org/2000/svg">
<path fill-rule="evenodd" clip-rule="evenodd" d="M0.5 15.5H15.5V8.5H0.5V15.5Z" fill="#62B543" fill-opacity="0.7"/>
<path d="M1.22559 13.1128C1.25635 14.0391 2.01172 14.603 3.19775 14.603C4.42139 14.603 5.19727 13.998 5.19727 13.041C5.19727 12.2891 4.7666 11.8652 3.77881 11.6533L3.18066 11.5269C2.61328 11.397 2.37402 11.2261 2.37402 10.9219C2.37402 10.5562 2.71582 10.3135 3.2251 10.3135C3.74121 10.3135 4.10693 10.5664 4.14111 10.9834H5.1084C5.09131 10.0913 4.37012 9.5 3.22168 9.5C2.12109 9.5 1.33496 10.1016 1.33496 11.0107C1.33496 11.7319 1.78271 12.1934 2.69189 12.3882L3.33447 12.5283C3.9292 12.6616 4.16504 12.8394 4.16504 13.1606C4.16504 13.5229 3.78906 13.7861 3.23877 13.7861C2.69189 13.7861 2.26807 13.5195 2.22021 13.1128H1.22559Z" fill="#231F20" fill-opacity="0.7"/>
<path d="M7.35523 10.3921H8.23365C8.74635 10.3921 9.06764 10.6997 9.06764 11.1782C9.06764 11.667 8.76344 11.9644 8.24391 11.9644H7.35523V10.3921ZM7.35523 12.7129H8.18238L9.10182 14.5176H10.2708L9.2317 12.5591C9.79908 12.3369 10.1272 11.79 10.1272 11.1577C10.1272 10.1836 9.47779 9.58545 8.34303 9.58545H6.32301V14.5176H7.35523V12.7129Z" fill="#231F20" fill-opacity="0.7"/>
<path d="M12.3296 14.5176V12.5762H14.336V11.7593H12.3296V10.4365H14.5274V9.58545H11.2974V14.5176H12.3296Z" fill="#231F20" fill-opacity="0.7"/>
<path fill-rule="evenodd" clip-rule="evenodd" d="M6.5 0.5L2.5 4.5H6.5V0.5Z" fill="#9AA7B0" fill-opacity="0.8"/>
<path fill-rule="evenodd" clip-rule="evenodd" d="M7.5 0.5V5.5H2.5V7.5H12.5V0.5H7.5Z" fill="#9AA7B0" fill-opacity="0.8"/>
</svg>
