<svg width="16" height="16" viewBox="0 0 16 16" fill="none" xmlns="http://www.w3.org/2000/svg">
<path d="M11 2C11.5523 2 12 2.44772 12 3V9H11C10.4477 9 10 9.44772 10 10V14H5C4.44772 14 4 13.5523 4 13V6H6C7.10457 6 8 5.10457 8 4V2H11Z" fill="#25324D"/>
<path d="M7 4C7 4.06893 6.99277 4.13617 6.97949 4.20117C6.88625 4.65686 6.48325 5 6 5H4.41406L7 2.41406V4Z" fill="#25324D"/>
<path fill-rule="evenodd" clip-rule="evenodd" d="M11 1C12.1046 1 13 1.89543 13 3V9H12V3C12 2.44772 11.5523 2 11 2H8V4C8 5.10457 7.10457 6 6 6H4V13C4 13.5523 4.44772 14 5 14H10V15H5C3.89543 15 3 14.1046 3 13V5.41406C3.00004 5.1489 3.10547 4.89453 3.29297 4.70703L6.70703 1.29297C6.89453 1.10547 7.1489 1.00004 7.41406 1H11ZM4.41406 5H6C6.55228 5 7 4.55228 7 4V2.41406L4.41406 5Z" fill="#548AF7"/>
<path d="M10.9175 16V10.014H12.1311L12.7133 11.9164C12.7734 12.1077 12.8226 12.2826 12.8609 12.4412C12.8991 12.5997 12.9237 12.7145 12.9347 12.7856C12.9456 12.7145 12.9702 12.5997 13.0085 12.4412C13.0467 12.2826 13.0932 12.1077 13.1479 11.9164L13.7055 10.014H14.9191V16H13.9597V14.1386C13.9597 13.8652 13.9679 13.5673 13.9843 13.2448C14.0007 12.9222 14.0198 12.5997 14.0417 12.2772C14.0635 11.9546 14.0881 11.6485 14.1155 11.3588C14.1483 11.069 14.1756 10.8148 14.1975 10.5962L13.3939 13.4252H12.4591L11.6309 10.5962C11.6582 10.8039 11.6855 11.0499 11.7129 11.3342C11.7402 11.613 11.7648 11.9136 11.7867 12.2362C11.814 12.5532 11.8359 12.8758 11.8523 13.2038C11.8687 13.5318 11.8769 13.8434 11.8769 14.1386V16H10.9175Z" fill="#CED0D6"/>
</svg>
