<svg width="16" height="16" viewBox="0 0 16 16" fill="none" xmlns="http://www.w3.org/2000/svg">
<path d="M11 2C11.5523 2 12 2.44772 12 3V9H11C10.4477 9 10 9.44772 10 10V14H5C4.44772 14 4 13.5523 4 13V6H6C7.10457 6 8 5.10457 8 4V2H11Z" fill="#EDF3FF"/>
<path d="M7 4C7 4.06893 6.99277 4.13617 6.97949 4.20117C6.88625 4.65686 6.48325 5 6 5H4.41406L7 2.41406V4Z" fill="#EDF3FF"/>
<path fill-rule="evenodd" clip-rule="evenodd" d="M11 1C12.1046 1 13 1.89543 13 3V9H12V3C12 2.44772 11.5523 2 11 2H8V4C8 5.10457 7.10457 6 6 6H4V13C4 13.5523 4.44772 14 5 14H10V15H5C3.89543 15 3 14.1046 3 13V5.41406C3.00004 5.1489 3.10547 4.89453 3.29297 4.70703L6.70703 1.29297C6.89453 1.10547 7.1489 1.00004 7.41406 1H11ZM4.41406 5H6C6.55228 5 7 4.55228 7 4V2.41406L4.41406 5Z" fill="#3574F0"/>
<path d="M11.0898 16V10.014H13.0824C13.4815 10.014 13.8286 10.0906 14.1238 10.2436C14.4245 10.3967 14.6568 10.6126 14.8208 10.8914C14.9848 11.1648 15.0668 11.4873 15.0668 11.859C15.0668 12.2253 14.9821 12.5478 14.8126 12.8266C14.6486 13.1054 14.419 13.3214 14.1238 13.4744C13.8286 13.6275 13.4815 13.704 13.0824 13.704H12.1148V16H11.0898ZM12.1148 12.7774H13.0824C13.3667 12.7774 13.5936 12.6954 13.763 12.5314C13.938 12.362 14.0254 12.1378 14.0254 11.859C14.0254 11.5748 13.938 11.3506 13.763 11.1866C13.5936 11.0226 13.3667 10.9406 13.0824 10.9406H12.1148V12.7774Z" fill="#6C707E"/>
</svg>
