<svg xmlns="http://www.w3.org/2000/svg" width="16" height="16" viewBox="0 0 16 16">
  <g fill="none" fill-rule="evenodd">
    <path fill="#40B6E0" fill-opacity=".6" d="M16,12 C16,14.2091429 14.2091429,16 12,16 C9.79085714,16 8,14.2091429 8,12 C8,9.79085714 9.79085714,8 12,8 C14.2091429,8 16,9.79085714 16,12"/>
    <rect width="6" height="6" x="1" y="1" fill="#40B6E0" fill-opacity=".6"/>
    <rect width="6" height="6" x="8" y="1" fill="#40B6E0" fill-opacity=".6"/>
    <rect width="6" height="6" x="1" y="8" fill="#40B6E0" fill-opacity=".6"/>
    <path fill="#231F20" fill-opacity=".7" d="M3.33333333,2.85502116 C3.02,3.16102116 2.68533333,3.31866667 2.06666667,3.33333333 C1.374,3.348 0.666666667,2.85293333 0.666666667,2.00026667 C0.666666667,1.1416 1.314,0.666666667 2.06666667,0.666666667 C2.63222114,0.666666667 3.03222114,0.789835612 3.26666667,1.0361735 L3.67746667,0.557820638 C3.21959993,0.180116797 2.85884603,0.000266666667 2.06546667,0.000266666667 C0.893466667,0.000266666667 0.000133333333,0.9056 0.000133333333,2.00026667 C0.000133333333,3.1216 0.909466667,4.00026667 2.00146667,4.00026667 C2.86189779,4.00026667 3.3488,3.72893333 3.74413333,3.32093333 C3.47026667,3.01032522 3.33333333,2.85502116 3.33333333,2.85502116 Z" transform="translate(10 10)"/>
  </g>
</svg>
