<svg xmlns="http://www.w3.org/2000/svg" width="16" height="16" viewBox="0 0 16 16">
  <g fill="none" fill-rule="evenodd">
    <g fill="#3592C4" transform="translate(3 3)">
      <path d="M2.00685844,6.75057239 C0.818305761,6.17203802 -7.90478794e-14,4.95883301 -7.90478794e-14,3.55584938 C-7.90478794e-14,1.59200457 1.60333671,0 3.5811605,0 C5.00116468,0 6.22813171,0.820631838 6.80727797,2.01032622 C6.70573843,2.00347901 6.60327551,2 6.5,2 C4.01471429,2 2,4.01471429 2,6.5 C2,6.58408269 2.00230608,6.66762675 2.00685844,6.75057239 Z"/>
      <path d="M10,6.5 C10,8.433 8.433,10 6.5,10 C4.567,10 3,8.433 3,6.5 C3,4.567 4.567,3 6.5,3 C8.433,3 10,4.567 10,6.5"/>
    </g>
    <rect width="1" height="12" x="1" y="2" fill="#AFB1B3"/>
    <rect width="2" height="1" x="2" y="2" fill="#AFB1B3"/>
    <rect width="2" height="1" x="2" y="13" fill="#AFB1B3"/>
    <rect width="1" height="12" x="14" y="2" fill="#AFB1B3"/>
    <rect width="3" height="1" x="12" y="2" fill="#AFB1B3"/>
    <rect width="2" height="1" x="12" y="13" fill="#AFB1B3"/>
  </g>
</svg>
