<svg xmlns="http://www.w3.org/2000/svg" width="16" height="16" viewBox="0 0 16 16">
  <g fill="none" fill-rule="evenodd">
    <path fill="#40B6E0" fill-opacity=".6" d="M16,12 C16,14.2091429 14.2091429,16 12,16 C9.79085714,16 8,14.2091429 8,12 C8,9.79085714 9.79085714,8 12,8 C14.2091429,8 16,9.79085714 16,12"/>
    <rect width="6" height="6" x="1" y="1" fill="#40B6E0" fill-opacity=".6"/>
    <rect width="6" height="6" x="8" y="1" fill="#40B6E0" fill-opacity=".6"/>
    <rect width="6" height="6" x="1" y="8" fill="#40B6E0" fill-opacity=".6"/>
    <path fill="#231F20" fill-opacity=".7" d="M1.359375,2 C2.082375,2 2.25,1.7828 2.25,1.36613333 L2.25,1.3548 C2.25,0.886133333 2.070375,0.666666667 1.359375,0.666666667 L0.750375,0.666666667 L0.750375,2 L1.359375,2 Z M0.000375,0.000133333333 L1.374375,0.000133333333 C2.375625,0.000133333333 3.000375,0.531466667 3.000375,1.33746667 C3.000375,2.24613333 2.229375,2.66666667 1.288125,2.66666667 L0.750375,2.65613333 L0.750375,4.00013333 L0.000375,4.00013333 L0.000375,0.000133333333 Z" transform="translate(11 10)"/>
  </g>
</svg>
