<svg xmlns="http://www.w3.org/2000/svg" width="13" height="13" viewBox="0 0 13 13">
  <g fill="#AFB1B3" fill-rule="evenodd" transform="translate(.5 1)">
    <path d="M6.04201681,11.3512 C3.10282582,11.3512 0.728478058,8.8396677 0.728478058,5.7512 C0.728478058,2.6627323 3.10282582,0.1512 6.04201681,0.1512 C8.98120779,0.1512 11.3555556,2.6627323 11.3555556,5.7512 C11.3555556,8.8396677 8.98120779,11.3512 6.04201681,11.3512 Z M11.284201,5.7544445 C11.284201,2.69278345 8.93040698,0.21 6.026218,0.21 C3.12274196,0.21 0.768235,2.69278345 0.768235,5.7544445 C0.768235,8.81704528 3.12274196,11.298889 6.026218,11.298889 C8.93058522,11.298889 11.284201,8.81704528 11.284201,5.7544445 Z"/>
    <path d="M5.90851602,0.793704521 C5.94036599,0.949098149 5.9735793,1.10290948 6.01420168,1.25466667 C6.06630252,1.5648 6.11848739,1.87511111 6.17058824,2.18551111 C6.11537815,2.34826667 5.39176471,2.40328889 5.31042017,2.41288889 C5.22907563,2.42248889 5.10554622,2.60888889 5.09537815,2.64062222 C5.08521008,2.67208889 5.09714286,2.79813333 5.13445378,2.84728889 C5.17109244,2.94133333 5.55134454,3.0728 5.68184874,3.07493333 C5.66512605,3.79226667 5.17352941,4.33128889 5.03672269,4.91537778 C4.9589916,4.89351111 4.75109244,4.52026667 4.72394958,4.50177778 C4.69680672,4.48328889 4.51176471,4.42213333 4.43067227,4.48124444 C4.35731092,4.48888889 4.33613445,4.48995556 4.31336134,4.52275556 C4.29058824,4.55546667 4.26789916,5.45813333 4.31336134,5.53573333 C4.30478992,5.84871111 4.31159664,5.98204444 4.48932773,6.09404444 C4.47268908,6.20062222 4.45890756,6.39093333 4.62621849,6.34231111 C4.69495798,6.32213333 4.80268908,6.17075556 4.82168067,6.09404444 C4.82823529,6.0872 4.82823529,6.07342222 4.82168067,6.07342222 C4.79277311,5.99671111 4.69386555,5.96044444 4.62621849,5.92862222 C4.59336134,5.84657778 4.55235294,5.54764444 4.59352941,5.47306667 C4.61714286,5.43048889 4.60663866,5.3496 4.60663866,5.30826667 C4.77605042,5.37217778 5.07605042,6.0072 5.13445378,6.21831111 C5.17747899,6.37342222 5.15226891,6.45937778 5.21268908,6.59031111 C5.32277311,6.82933333 5.5492437,7.11866667 5.76008403,7.25217778 C5.84058824,7.30284444 5.91260504,7.31102222 5.97521008,7.37626667 C6.05403361,7.48248889 6.04235294,7.67946667 6.09252101,7.8104 C6.17210084,8.01928889 6.41865546,8.2696 6.44445378,8.49306667 C6.14781513,8.49173333 5.80117647,8.46008889 5.58420168,8.59653333 C5.52756303,8.63208889 5.48453782,8.70177778 5.42789916,8.74133333 C5.43058824,8.83697778 5.43386555,8.84737778 5.48655462,8.88613333 C5.38168067,9.04933333 5.18084034,9.11333333 5.11512605,9.32035556 C5.02226891,9.45724444 5.05260504,9.77671111 5.17369748,9.83733333 C5.19386555,9.85404444 5.17857143,9.84497778 5.21285714,9.85768889 C5.32588235,9.72622222 5.50428571,9.67217778 5.62336134,9.54764444 C5.71193277,9.45511111 5.76176471,9.32222222 5.89705882,9.27902222 C6.43159664,9.10782222 7.1792437,9.48142222 7.40243697,8.92746667 C7.44789916,8.86204444 7.44705882,8.74008889 7.44168067,8.6792 C7.65554622,8.77244444 7.81084034,8.79555556 7.93142857,8.70106667 C8.03420168,8.62097778 8.12672269,8.42968889 8.22554622,8.02328889 C8.24840336,7.92933333 8.27823529,7.74355556 8.24344538,7.60284444 C8.17369748,7.32088889 8.04453782,7.06737778 7.93058824,6.83777778 C7.90462185,6.78595556 7.9202521,6.67804444 7.89134454,6.63093333 C7.89672269,6.38008889 8.02739496,6.47706667 8.14537815,6.3624 C8.17159664,6.3368 8.17638655,6.28524444 8.20394958,6.25893333 C8.19210084,6.17928889 8.19394958,6.14746667 8.14537815,6.11413333 C8.09663866,6.08088889 7.95008403,6.11413333 7.85226891,6.11413333 C7.88554622,5.66417778 8.02554622,5.25128889 7.59823529,5.10106667 C7.54521008,5.08231111 7.38798319,5.05635556 7.30512605,5.08035556 C7.26327731,5.09262222 7.17008403,5.1336 7.12915966,5.16328889 C7.06201681,5.21182222 6.99142857,5.30586667 6.97268908,5.39066667 C6.95369748,5.47528889 7.02957983,5.61431111 7.09,5.72168889 C7.22310924,5.69244444 7.2,5.58337778 7.30529412,5.53546667 C7.31168067,5.52871111 7.32462185,5.52871111 7.32462185,5.53546667 C7.34411765,5.5424 7.36453782,5.53111111 7.38319328,5.55608889 C7.40193277,5.58115556 7.41697479,6.15057778 7.38319328,6.27991111 C7.37184874,6.32364444 7.31588235,6.39848889 7.34411765,6.48684444 C7.3907563,6.63306667 7.55991597,6.77395556 7.63739496,6.90035556 C7.75033613,7.08471111 7.8702521,7.32248889 7.9305042,7.54142222 C7.9305042,7.59635556 7.94983193,7.65066667 7.94983193,7.70613333 C7.97605042,7.90613333 7.9102521,8.22 7.85218487,8.32711111 C7.79411765,8.43422222 7.74521008,8.43662222 7.71529412,8.45137778 C7.68537815,8.46613333 7.6312605,8.44933333 7.60563025,8.43102222 C7.5605042,8.41555556 7.57361345,8.40906667 7.53915966,8.38915556 C7.59344538,8.21342222 7.72310924,8.07466667 7.77369748,7.87226667 C7.85705882,7.53866667 7.69487395,7.17155556 7.59773109,7.00373333 C7.47033613,6.78337778 7.34714286,6.54444444 7.16773109,6.38337778 C7.02084034,6.25155556 6.82848739,6.11573333 6.71798319,5.94915556 C6.66647059,5.87146667 6.66789916,5.78915556 6.62016807,5.70106667 C6.57504202,5.61706667 6.47571429,5.53875556 6.44428571,5.43217778 C6.14697479,4.42515556 7.01680672,3.72328889 6.77655462,2.74391111 C6.73142857,2.55982222 6.60588235,2.4232 6.54201681,2.26817778 C6.47621849,2.10844444 6.47630252,1.95991111 6.42470588,1.79253333 C6.32319643,1.46304759 6.23864111,1.13224672 6.14003496,0.795081332 C8.61946438,0.874823613 10.605966,3.03497979 10.605966,5.6872445 C10.605966,8.39080291 8.54330785,10.581689 5.997983,10.581689 C3.45343917,10.581689 1.39,8.39080291 1.39,5.6872445 C1.39,3.01626335 3.40524738,0.844360625 5.90851602,0.793704521 Z M4.80268908,3.42568889 C4.82647059,3.47484444 4.83932773,3.49875556 4.88092437,3.52915556 C4.87907563,3.92328889 4.83554622,4.50204444 4.96932773,4.71297778 C4.99033613,4.72888889 5.00537815,4.74444444 5.03084034,4.74888889 C5.09142857,4.51608889 5.24487395,4.256 5.29823529,4.14044444 C5.35680672,4.01395556 5.13134454,3.47146667 5.07647059,3.38408889 C5.02411765,3.30071111 4.91991597,3.30266667 4.88092437,3.19777778 C4.64529412,3.19297778 4.63806723,3.20853333 4.50941176,3.30106667 C4.52058824,3.36657778 4.52663866,3.36133333 4.54857143,3.40453333 C4.61739496,3.42 4.70798319,3.42746667 4.80268908,3.42568889 Z"/>
  </g>
</svg>
