<svg xmlns="http://www.w3.org/2000/svg" width="16" height="16" viewBox="0 0 16 16">
  <g fill="none" fill-rule="evenodd" transform="translate(2 .4)">
    <ellipse cx="6.05" cy="7.876" fill="#FFF" stroke="#8EBB3F" stroke-width=".83" rx="5.95" ry="6.119"/>
    <g transform="translate(0 1.66)">
      <path fill="#7FB52F" d="M6.03146218,0.0823407407 C9.31784874,0.0823407407 11.981042,2.82219259 11.981042,6.20085926 C11.981042,9.58056296 9.31784874,12.3193778 6.03146218,12.3193778 C2.74608403,12.3193778 0.0818823529,9.58056296 0.0818823529,6.20085926 C0.0818823529,2.82219259 2.74598319,0.0823407407 6.03146218,0.0823407407 Z"/>
      <path stroke="#FFF" stroke-width=".5" d="M11.981042,6.20085926 C11.981042,9.58056296 9.31784874,12.3193778 6.03146218,12.3193778 C2.74608403,12.3193778 0.0818823529,9.58056296 0.0818823529,6.20085926 C0.0818823529,2.82219259 2.74608403,0.0823407407 6.03146218,0.0823407407 C9.31764706,0.0823407407 11.981042,2.82219259 11.981042,6.20085926 Z"/>
    </g>
    <g transform="translate(3.933)">
      <path fill="#FFF" fill-rule="nonzero" d="M4.75936134,10.0366519 C4.67566387,9.7077037 4.52067227,9.41194074 4.38393277,9.14407407 C4.35277311,9.08361481 4.37152941,8.95771852 4.33684034,8.90275556 C4.34329412,8.6101037 4.50010084,8.72324444 4.64168067,8.58946667 C4.67314286,8.5596 4.67889076,8.49945185 4.71196639,8.46875556 C4.6977479,8.37583704 4.69996639,8.33871111 4.64168067,8.29982222 C4.58319328,8.26103704 4.40732773,8.29982222 4.28994958,8.29982222 C4.32988235,7.77487407 4.49788235,7.29317037 3.98510924,7.11791111 C3.92147899,7.09602963 3.73280672,7.06574815 3.63337815,7.09374815 C3.58315966,7.10805926 3.47132773,7.15586667 3.42221849,7.1905037 C3.34164706,7.24712593 3.25694118,7.35684444 3.23445378,7.45577778 C3.21166387,7.5545037 3.30272269,7.7166963 3.37522689,7.84197037 C3.53495798,7.80785185 3.50722689,7.68060741 3.63357983,7.62471111 C3.6412437,7.61682963 3.65677311,7.61682963 3.65677311,7.62471111 C3.68016807,7.6328 3.70467227,7.61962963 3.72705882,7.64877037 C3.74954622,7.67801481 3.76759664,8.34234074 3.72705882,8.49322963 C3.71344538,8.54425185 3.64628571,8.63157037 3.68016807,8.73465185 C3.73613445,8.90524444 3.93912605,9.06961481 4.03210084,9.21708148 C4.16763025,9.43216296 4.31152941,9.70957037 4.38383193,9.96499259 C4.38383193,10.0290815 4.40702521,10.0924444 4.40702521,10.1571556 C4.43848739,10.3904889 4.35952941,10.7566667 4.28984874,10.8816296 C4.22016807,11.0065926 4.16147899,11.0093926 4.12557983,11.0266074 C4.08968067,11.0438222 4.0247395,11.0242222 3.99398319,11.0028593 C3.93983193,10.9848148 3.95556303,10.9772444 3.91421849,10.9540148 C3.97936134,10.7489926 4.13495798,10.5871111 4.19566387,10.3509778 C4.29569748,9.96177778 4.10107563,9.53348148 3.9845042,9.33768889 C3.83163025,9.08060741 3.68379832,8.80185185 3.4685042,8.61394074 C3.29223529,8.46014815 3.06141176,8.30168889 2.92880672,8.10734815 C2.8669916,8.01671111 2.86870588,7.92068148 2.81142857,7.81791111 C2.75727731,7.71991111 2.63808403,7.62854815 2.60036975,7.50420741 C2.24359664,6.32934815 3.28739496,5.5105037 2.99909244,4.3678963 C2.94494118,4.15312593 2.79428571,3.99373333 2.71764706,3.81287407 C2.63868908,3.62651852 2.63878992,3.45322963 2.57687395,3.25795556 C2.42833613,2.78921481 2.31005042,2.31819259 2.15455462,1.83420741 C2.03778151,1.47041481 1.93744538,1.08131852 1.80282353,0.700414815 C1.70460504,0.422592593 1.6247395,0.169244444 1.58642017,0.026237037 C1.56292437,0.026237037 1.53741176,0.0457333333 1.51391597,0.0457333333 C1.55485714,0.441051852 1.65922689,0.860118519 1.75583193,1.2069037 C1.89055462,1.6912 1.95721008,2.16896296 2.08426891,2.63044444 C2.14678992,2.99226667 2.20941176,3.3542963 2.27193277,3.71642963 C2.20568067,3.90631111 1.33734454,3.9705037 1.23973109,3.9817037 C1.14211765,3.9929037 0.993882353,4.21037037 0.981680672,4.24739259 C0.969478992,4.2841037 0.983798319,4.43115556 1.02857143,4.4885037 C1.07253782,4.59822222 1.52884034,4.7516 1.68544538,4.75408889 C1.66537815,5.59097778 1.07546218,6.21983704 0.911294118,6.90127407 C0.818016807,6.87576296 0.568537815,6.44031111 0.535966387,6.41874074 C0.503394958,6.39717037 0.281344538,6.32582222 0.184033613,6.39478519 C0.096,6.4037037 0.0705882353,6.40494815 0.0432605042,6.44321481 C0.0159327731,6.48137778 -0.0112941176,7.53448889 0.0432605042,7.62502222 C0.0329747899,7.99016296 0.0411428571,8.14571852 0.254420168,8.27638519 C0.234453782,8.40072593 0.217915966,8.62275556 0.418689076,8.56602963 C0.501176471,8.54248889 0.630453782,8.36588148 0.653243697,8.27638519 C0.661109244,8.2684 0.661109244,8.25232593 0.653243697,8.25232593 C0.618554622,8.16282963 0.499865546,8.12051852 0.418689076,8.08339259 C0.379260504,7.98767407 0.33005042,7.63891852 0.379462185,7.55191111 C0.407798319,7.50223704 0.395193277,7.40786667 0.395193277,7.35964444 C0.598487395,7.43420741 0.958487395,8.17506667 1.02857143,8.42136296 C1.08020168,8.60232593 1.04994958,8.70260741 1.12245378,8.85536296 C1.25455462,9.13422222 1.52631933,9.47177778 1.77932773,9.62754074 C1.87593277,9.68665185 1.96235294,9.69619259 2.03747899,9.77231111 C2.13206723,9.89623704 2.11805042,10.1260444 2.1782521,10.2788 C2.2737479,10.5225037 2.56961345,10.8145333 2.60057143,11.0752444 C2.24460504,11.0736889 1.82863866,11.0367704 1.56826891,11.1959556 C1.50030252,11.237437 1.44867227,11.3187407 1.38070588,11.3648889 C1.38393277,11.4764741 1.38786555,11.4886074 1.45109244,11.5338222 C1.3252437,11.7242222 1.08423529,11.7988889 1.00537815,12.0404148 C0.89394958,12.2001185 0.930352941,12.5728296 1.07566387,12.6435556 C1.09986555,12.6630519 1.08151261,12.6524741 1.12265546,12.6673037 C1.25828571,12.5139259 1.47236975,12.4508741 1.6152605,12.3055852 C1.72154622,12.1976296 1.78134454,12.0425926 1.94369748,11.9921926 C2.58514286,11.7924593 3.48231933,12.2283259 3.75015126,11.5820444 C3.80470588,11.5057185 3.80369748,11.363437 3.7972437,11.2924 C4.05388235,11.4011852 4.24023529,11.4281481 4.38494118,11.3179111 C4.50826891,11.2244741 4.61929412,11.0013037 4.73788235,10.5271704 C4.76531092,10.4175556 4.80110924,10.2008148 4.75936134,10.0366519 Z M0.630453782,5.1633037 C0.658991597,5.22065185 0.674420168,5.24854815 0.724336134,5.28401481 C0.722117647,5.74383704 0.669882353,6.41905185 0.830420168,6.66514074 C0.855630252,6.6837037 0.873680672,6.70185185 0.904235294,6.70703704 C0.976941176,6.43543704 1.16107563,6.132 1.22510924,5.99718519 C1.29539496,5.84961481 1.02484034,5.21671111 0.958991597,5.11477037 C0.896168067,5.0174963 0.77112605,5.01977778 0.724336134,4.89740741 C0.441579832,4.89180741 0.432907563,4.90995556 0.278521008,5.01791111 C0.291932773,5.09434074 0.299193277,5.08822222 0.325512605,5.13862222 C0.40810084,5.15666667 0.516806723,5.16537778 0.630453782,5.1633037 Z"/>
      <path stroke="#8EBB3F" stroke-linecap="round" stroke-linejoin="round" stroke-width=".5" d="M4.75936134,10.0366519 C4.67566387,9.7077037 4.52067227,9.41194074 4.38393277,9.14407407 C4.35277311,9.08361481 4.37152941,8.95771852 4.33684034,8.90275556 C4.34329412,8.6101037 4.50010084,8.72324444 4.64168067,8.58946667 C4.67314286,8.5596 4.67889076,8.49945185 4.71196639,8.46875556 C4.6977479,8.37583704 4.69996639,8.33871111 4.64168067,8.29982222 C4.58319328,8.26103704 4.40732773,8.29982222 4.28994958,8.29982222 C4.32988235,7.77487407 4.49788235,7.29317037 3.98510924,7.11791111 C3.92147899,7.09602963 3.73280672,7.06574815 3.63337815,7.09374815 C3.58315966,7.10805926 3.47132773,7.15586667 3.42221849,7.1905037 C3.34164706,7.24712593 3.25694118,7.35684444 3.23445378,7.45577778 C3.21166387,7.5545037 3.30272269,7.7166963 3.37522689,7.84197037 C3.53495798,7.80785185 3.50722689,7.68060741 3.63357983,7.62471111 C3.6412437,7.61682963 3.65677311,7.61682963 3.65677311,7.62471111 C3.68016807,7.6328 3.70467227,7.61962963 3.72705882,7.64877037 C3.74954622,7.67801481 3.76759664,8.34234074 3.72705882,8.49322963 C3.71344538,8.54425185 3.64628571,8.63157037 3.68016807,8.73465185 C3.73613445,8.90524444 3.93912605,9.06961481 4.03210084,9.21708148 C4.16763025,9.43216296 4.31152941,9.70957037 4.38383193,9.96499259 C4.38383193,10.0290815 4.40702521,10.0924444 4.40702521,10.1571556 C4.43848739,10.3904889 4.35952941,10.7566667 4.28984874,10.8816296 C4.22016807,11.0065926 4.16147899,11.0093926 4.12557983,11.0266074 C4.08968067,11.0438222 4.0247395,11.0242222 3.99398319,11.0028593 C3.93983193,10.9848148 3.95556303,10.9772444 3.91421849,10.9540148 C3.97936134,10.7489926 4.13495798,10.5871111 4.19566387,10.3509778 C4.29569748,9.96177778 4.10107563,9.53348148 3.9845042,9.33768889 C3.83163025,9.08060741 3.68379832,8.80185185 3.4685042,8.61394074 C3.29223529,8.46014815 3.06141176,8.30168889 2.92880672,8.10734815 C2.8669916,8.01671111 2.86870588,7.92068148 2.81142857,7.81791111 C2.75727731,7.71991111 2.63808403,7.62854815 2.60036975,7.50420741 C2.24359664,6.32934815 3.28739496,5.5105037 2.99909244,4.3678963 C2.94494118,4.15312593 2.79428571,3.99373333 2.71764706,3.81287407 C2.63868908,3.62651852 2.63878992,3.45322963 2.57687395,3.25795556 C2.42833613,2.78921481 2.31005042,2.31819259 2.15455462,1.83420741 C2.03778151,1.47041481 1.93744538,1.08131852 1.80282353,0.700414815 C1.70460504,0.422592593 1.6247395,0.169244444 1.58642017,0.026237037 C1.56292437,0.026237037 1.53741176,0.0457333333 1.51391597,0.0457333333 C1.55485714,0.441051852 1.65922689,0.860118519 1.75583193,1.2069037 C1.89055462,1.6912 1.95721008,2.16896296 2.08426891,2.63044444 C2.14678992,2.99226667 2.20941176,3.3542963 2.27193277,3.71642963 C2.20568067,3.90631111 1.33734454,3.9705037 1.23973109,3.9817037 C1.14211765,3.9929037 0.993882353,4.21037037 0.981680672,4.24739259 C0.969478992,4.2841037 0.983798319,4.43115556 1.02857143,4.4885037 C1.07253782,4.59822222 1.52884034,4.7516 1.68544538,4.75408889 C1.66537815,5.59097778 1.07546218,6.21983704 0.911294118,6.90127407 C0.818016807,6.87576296 0.568537815,6.44031111 0.535966387,6.41874074 C0.503394958,6.39717037 0.281344538,6.32582222 0.184033613,6.39478519 C0.096,6.4037037 0.0705882353,6.40494815 0.0432605042,6.44321481 C0.0159327731,6.48137778 -0.0112941176,7.53448889 0.0432605042,7.62502222 C0.0329747899,7.99016296 0.0411428571,8.14571852 0.254420168,8.27638519 C0.234453782,8.40072593 0.217915966,8.62275556 0.418689076,8.56602963 C0.501176471,8.54248889 0.630453782,8.36588148 0.653243697,8.27638519 C0.661109244,8.2684 0.661109244,8.25232593 0.653243697,8.25232593 C0.618554622,8.16282963 0.499865546,8.12051852 0.418689076,8.08339259 C0.379260504,7.98767407 0.33005042,7.63891852 0.379462185,7.55191111 C0.407798319,7.50223704 0.395193277,7.40786667 0.395193277,7.35964444 C0.598487395,7.43420741 0.958487395,8.17506667 1.02857143,8.42136296 C1.08020168,8.60232593 1.04994958,8.70260741 1.12245378,8.85536296 C1.25455462,9.13422222 1.52631933,9.47177778 1.77932773,9.62754074 C1.87593277,9.68665185 1.96235294,9.69619259 2.03747899,9.77231111 C2.13206723,9.89623704 2.11805042,10.1260444 2.1782521,10.2788 C2.2737479,10.5225037 2.56961345,10.8145333 2.60057143,11.0752444 C2.24460504,11.0736889 1.82863866,11.0367704 1.56826891,11.1959556 C1.50030252,11.237437 1.44867227,11.3187407 1.38070588,11.3648889 C1.38393277,11.4764741 1.38786555,11.4886074 1.45109244,11.5338222 C1.3252437,11.7242222 1.08423529,11.7988889 1.00537815,12.0404148 C0.89394958,12.2001185 0.930352941,12.5728296 1.07566387,12.6435556 C1.09986555,12.6630519 1.08151261,12.6524741 1.12265546,12.6673037 C1.25828571,12.5139259 1.47236975,12.4508741 1.6152605,12.3055852 C1.72154622,12.1976296 1.78134454,12.0425926 1.94369748,11.9921926 C2.58514286,11.7924593 3.48231933,12.2283259 3.75015126,11.5820444 C3.80470588,11.5057185 3.80369748,11.363437 3.7972437,11.2924 C4.05388235,11.4011852 4.24023529,11.4281481 4.38494118,11.3179111 C4.50826891,11.2244741 4.61929412,11.0013037 4.73788235,10.5271704 C4.76531092,10.4175556 4.80110924,10.2008148 4.75936134,10.0366519 Z M0.630453782,5.1633037 C0.658991597,5.22065185 0.674420168,5.24854815 0.724336134,5.28401481 C0.722117647,5.74383704 0.669882353,6.41905185 0.830420168,6.66514074 C0.855630252,6.6837037 0.873680672,6.70185185 0.904235294,6.70703704 C0.976941176,6.43543704 1.16107563,6.132 1.22510924,5.99718519 C1.29539496,5.84961481 1.02484034,5.21671111 0.958991597,5.11477037 C0.896168067,5.0174963 0.77112605,5.01977778 0.724336134,4.89740741 C0.441579832,4.89180741 0.432907563,4.90995556 0.278521008,5.01791111 C0.291932773,5.09434074 0.299193277,5.08822222 0.325512605,5.13862222 C0.40810084,5.15666667 0.516806723,5.16537778 0.630453782,5.1633037 Z"/>
    </g>
    <path fill="#FFF" fill-rule="nonzero" d="M8.69213445,10.0366519 C8.60843697,9.7077037 8.45344538,9.41194074 8.31670588,9.14407407 C8.28554622,9.08361481 8.30430252,8.95771852 8.26961345,8.90275556 C8.27606723,8.6101037 8.43287395,8.72324444 8.57445378,8.58946667 C8.60591597,8.5596 8.61166387,8.49945185 8.6447395,8.46875556 C8.63052101,8.37583704 8.6327395,8.33871111 8.57445378,8.29982222 C8.51596639,8.26103704 8.34010084,8.29982222 8.22272269,8.29982222 C8.26265546,7.77487407 8.43065546,7.29317037 7.91788235,7.11791111 C7.8542521,7.09602963 7.66557983,7.06574815 7.56615126,7.09374815 C7.51593277,7.10805926 7.40410084,7.15586667 7.3549916,7.1905037 C7.27442017,7.24712593 7.18971429,7.35684444 7.16722689,7.45577778 C7.14443697,7.5545037 7.2354958,7.7166963 7.308,7.84197037 C7.46773109,7.80785185 7.44,7.68060741 7.56635294,7.62471111 C7.57401681,7.61682963 7.58954622,7.61682963 7.58954622,7.62471111 C7.61294118,7.6328 7.63744538,7.61962963 7.65983193,7.64877037 C7.68231933,7.67801481 7.70036975,8.34234074 7.65983193,8.49322963 C7.64621849,8.54425185 7.57905882,8.63157037 7.61294118,8.73465185 C7.66890756,8.90524444 7.87189916,9.06961481 7.96487395,9.21708148 C8.10040336,9.43216296 8.24430252,9.70957037 8.31660504,9.96499259 C8.31660504,10.0290815 8.33979832,10.0924444 8.33979832,10.1571556 C8.3712605,10.3904889 8.29230252,10.7566667 8.22262185,10.8816296 C8.15294118,11.0065926 8.0942521,11.0093926 8.05835294,11.0266074 C8.02245378,11.0438222 7.95751261,11.0242222 7.9267563,11.0028593 C7.87260504,10.9848148 7.88833613,10.9772444 7.8469916,10.9540148 C7.91213445,10.7489926 8.06773109,10.5871111 8.12843697,10.3509778 C8.22847059,9.96177778 8.03384874,9.53348148 7.91727731,9.33768889 C7.76440336,9.08060741 7.61657143,8.80185185 7.40127731,8.61394074 C7.2250084,8.46014815 6.99418487,8.30168889 6.86157983,8.10734815 C6.79976471,8.01671111 6.80147899,7.92068148 6.74420168,7.81791111 C6.69005042,7.71991111 6.57085714,7.62854815 6.53314286,7.50420741 C6.17636975,6.32934815 7.22016807,5.5105037 6.93186555,4.3678963 C6.87771429,4.15312593 6.72705882,3.99373333 6.65042017,3.81287407 C6.57146218,3.62651852 6.57156303,3.45322963 6.50964706,3.25795556 C6.36110924,2.78921481 6.24282353,2.31819259 6.08732773,1.83420741 C5.97055462,1.47041481 5.87021849,1.08131852 5.73559664,0.700414815 C5.63737815,0.422592593 5.55751261,0.169244444 5.51919328,0.026237037 C5.49569748,0.026237037 5.47018487,0.0457333333 5.44668908,0.0457333333 C5.48763025,0.441051852 5.592,0.860118519 5.68860504,1.2069037 C5.82332773,1.6912 5.88998319,2.16896296 6.01704202,2.63044444 C6.07956303,2.99226667 6.14218487,3.3542963 6.20470588,3.71642963 C6.13845378,3.90631111 5.27011765,3.9705037 5.1725042,3.9817037 C5.07489076,3.9929037 4.92665546,4.21037037 4.91445378,4.24739259 C4.9022521,4.2841037 4.91657143,4.43115556 4.96134454,4.4885037 C5.00531092,4.59822222 5.46161345,4.7516 5.61821849,4.75408889 C5.59815126,5.59097778 5.00823529,6.21983704 4.84406723,6.90127407 C4.75078992,6.87576296 4.50131092,6.44031111 4.4687395,6.41874074 C4.43616807,6.39717037 4.21411765,6.32582222 4.11680672,6.39478519 C4.02877311,6.4037037 4.00336134,6.40494815 3.97603361,6.44321481 C3.94870588,6.48137778 3.92147899,7.53448889 3.97603361,7.62502222 C3.9657479,7.99016296 3.97391597,8.14571852 4.18719328,8.27638519 C4.16722689,8.40072593 4.15068908,8.62275556 4.35146218,8.56602963 C4.43394958,8.54248889 4.56322689,8.36588148 4.58601681,8.27638519 C4.59388235,8.2684 4.59388235,8.25232593 4.58601681,8.25232593 C4.55132773,8.16282963 4.43263866,8.12051852 4.35146218,8.08339259 C4.31203361,7.98767407 4.26282353,7.63891852 4.31223529,7.55191111 C4.34057143,7.50223704 4.32796639,7.40786667 4.32796639,7.35964444 C4.5312605,7.43420741 4.8912605,8.17506667 4.96134454,8.42136296 C5.01297479,8.60232593 4.98272269,8.70260741 5.05522689,8.85536296 C5.18732773,9.13422222 5.45909244,9.47177778 5.71210084,9.62754074 C5.80870588,9.68665185 5.89512605,9.69619259 5.9702521,9.77231111 C6.06484034,9.89623704 6.05082353,10.1260444 6.11102521,10.2788 C6.20652101,10.5225037 6.50238655,10.8145333 6.53334454,11.0752444 C6.17737815,11.0736889 5.76141176,11.0367704 5.50104202,11.1959556 C5.43307563,11.237437 5.38144538,11.3187407 5.31347899,11.3648889 C5.31670588,11.4764741 5.32063866,11.4886074 5.38386555,11.5338222 C5.25801681,11.7242222 5.0170084,11.7988889 4.93815126,12.0404148 C4.82672269,12.2001185 4.86312605,12.5728296 5.00843697,12.6435556 C5.03263866,12.6630519 5.01428571,12.6524741 5.05542857,12.6673037 C5.19105882,12.5139259 5.40514286,12.4508741 5.54803361,12.3055852 C5.65431933,12.1976296 5.71411765,12.0425926 5.87647059,11.9921926 C6.51791597,11.7924593 7.41509244,12.2283259 7.68292437,11.5820444 C7.73747899,11.5057185 7.73647059,11.363437 7.73001681,11.2924 C7.98665546,11.4011852 8.1730084,11.4281481 8.31771429,11.3179111 C8.44104202,11.2244741 8.55206723,11.0013037 8.67065546,10.5271704 C8.69808403,10.4175556 8.73388235,10.2008148 8.69213445,10.0366519 Z M4.56322689,5.1633037 C4.59176471,5.22065185 4.60719328,5.24854815 4.65710924,5.28401481 C4.65489076,5.74383704 4.60265546,6.41905185 4.76319328,6.66514074 C4.78840336,6.6837037 4.80645378,6.70185185 4.8370084,6.70703704 C4.90971429,6.43543704 5.09384874,6.132 5.15788235,5.99718519 C5.22816807,5.84961481 4.95761345,5.21671111 4.89176471,5.11477037 C4.82894118,5.0174963 4.70389916,5.01977778 4.65710924,4.89740741 C4.37435294,4.89180741 4.36568067,4.90995556 4.21129412,5.01791111 C4.22470588,5.09434074 4.23196639,5.08822222 4.25828571,5.13862222 C4.34087395,5.15666667 4.44957983,5.16537778 4.56322689,5.1633037 Z"/>
  </g>
</svg>
