<svg width="40" height="40" viewBox="0 0 40 40" fill="none" xmlns="http://www.w3.org/2000/svg">
<path d="M28.2206 16.6507C28.5481 16.9788 28.7321 17.4235 28.7321 17.8872C28.7321 18.3508 28.5481 18.7956 28.2206 19.1237C27.8905 19.4495 27.4457 19.6325 26.9819 19.6332C26.7525 19.6337 26.5251 19.589 26.313 19.5015C26.1008 19.4141 25.9079 19.2857 25.7454 19.1237L20.5158 13.8856C20.3483 13.7247 20.2145 13.532 20.1223 13.3188C20.0302 13.1056 19.9815 12.8761 19.9791 12.6438C19.9767 12.4116 20.0207 12.1812 20.1085 11.9661C20.1963 11.751 20.3262 11.5557 20.4904 11.3914C20.6547 11.2272 20.85 11.0973 21.0651 11.0095C21.2802 10.9217 21.5106 10.8777 21.7428 10.8801C21.9751 10.8825 22.2046 10.9312 22.4178 11.0233C22.631 11.1155 22.8237 11.2493 22.9846 11.4168L28.2206 16.6507Z" fill="white"/>
<path d="M28.2203 25.381C28.4651 25.6256 28.6317 25.9373 28.6992 26.2768C28.7666 26.6162 28.7318 26.9679 28.5992 27.2876C28.4666 27.6072 28.2421 27.8802 27.9541 28.0722C27.6662 28.2641 27.3277 28.3662 26.9817 28.3657H13.0177C12.7886 28.3659 12.5617 28.321 12.35 28.2335C12.1383 28.1459 11.9459 28.0175 11.7839 27.8555C11.6219 27.6935 11.4935 27.5011 11.4059 27.2894C11.3184 27.0777 11.2735 26.8508 11.2738 26.6217V20.5096C11.2656 20.2756 11.3046 20.0423 11.3885 19.8237C11.4724 19.6051 11.5995 19.4056 11.7621 19.2372C11.9248 19.0688 12.1196 18.9348 12.3352 18.8433C12.5507 18.7518 12.7825 18.7047 13.0166 18.7047C13.2507 18.7047 13.4825 18.7518 13.698 18.8433C13.9136 18.9348 14.1085 19.0688 14.2711 19.2372C14.4337 19.4056 14.5608 19.6051 14.6447 19.8237C14.7286 20.0423 14.7676 20.2756 14.7594 20.5096V24.8757H22.7605L11.779 13.8793C11.6115 13.7184 11.4777 13.5258 11.3855 13.3125C11.2933 13.0993 11.2446 12.8698 11.2423 12.6376C11.2399 12.4053 11.2839 12.1749 11.3717 11.9598C11.4595 11.7448 11.5893 11.5494 11.7536 11.3851C11.9178 11.2209 12.1132 11.091 12.3283 11.0032C12.5433 10.9154 12.7738 10.8714 13.006 10.8738C13.2383 10.8762 13.4678 10.9249 13.681 11.017C13.8942 11.1092 14.0869 11.243 14.2478 11.4106L28.2203 25.381Z" fill="white"/>
<path d="M20 34.6995C17.0951 34.6978 14.2559 33.835 11.8413 32.2201C9.42672 30.6052 7.54506 28.3107 6.43419 25.6266C5.32332 22.9425 5.0331 19.9893 5.60023 17.1404C6.16736 14.2914 7.56637 11.6745 9.62043 9.62042C11.6745 7.56636 14.2914 6.16735 17.1404 5.60022C19.9894 5.0331 22.9425 5.32331 25.6266 6.43418C28.3107 7.54505 30.6052 9.42671 32.2201 11.8413C33.835 14.2559 34.6978 17.0951 34.6995 20C34.7007 21.9307 34.3212 23.8427 33.5829 25.6266C32.8446 27.4105 31.7618 29.0314 30.3966 30.3966C29.0314 31.7618 27.4105 32.8446 25.6266 33.5829C23.8427 34.3212 21.9307 34.7006 20 34.6995V34.6995ZM20 4C16.8355 4 13.7421 4.93838 11.1109 6.69649C8.4797 8.45459 6.42894 10.9534 5.21793 13.8771C4.00693 16.8007 3.69008 20.0177 4.30744 23.1214C4.92481 26.2251 6.44866 29.0761 8.6863 31.3137C10.9239 33.5513 13.7749 35.0752 16.8786 35.6926C19.9823 36.3099 23.1993 35.9931 26.1229 34.7821C29.0466 33.5711 31.5454 31.5203 33.3035 28.8891C35.0616 26.2579 36 23.1645 36 20C36 15.7594 34.3154 11.6924 31.3168 8.69383C28.3182 5.69525 24.2513 4.01066 20.0107 4.01066" fill="white"/>
</svg>
