<svg width="16" height="16" viewBox="0 0 16 16" fill="none" xmlns="http://www.w3.org/2000/svg">
<path fill-rule="evenodd" clip-rule="evenodd" d="M12.4913 2.61215C12.2962 2.41699 11.9489 2.40545 11.5952 2.58221L11.2107 2.77641C10.9107 2.92723 10.6784 3.17532 10.5359 3.43903L11.3935 4.29665L12.0069 4.91002L12.8645 5.76764C13.1288 5.62574 13.3763 5.39281 13.5271 5.09289L13.7213 4.70838C13.8987 4.35525 13.8872 4.00798 13.6914 3.81221L13.398 3.51886L12.7847 2.9055L12.4913 2.61215Z" fill="#6E6E6E"/>
<path fill-rule="evenodd" clip-rule="evenodd" d="M11.0711 10.0812L6.22234 5.23249L8.15961 3.29522C8.8748 2.58003 10.107 2.65215 10.9119 3.45704L12.8471 5.39229C13.6514 6.19658 13.7235 7.42876 13.0083 8.14395L11.0711 10.0812Z" fill="#6E6E6E"/>
<path fill-rule="evenodd" clip-rule="evenodd" d="M8.89322 10.9459L10.3036 9.53553L9.66716 8.89914L8.25683 10.3095L8.89322 10.9459Z" fill="#6E6E6E"/>
<path fill-rule="evenodd" clip-rule="evenodd" d="M5.98733 8.05349L7.40442 6.6364L6.76802 6L5.35093 7.41709L5.98733 8.05349Z" fill="#6E6E6E"/>
<path fill-rule="evenodd" clip-rule="evenodd" d="M3.81222 13.5904C4.00738 13.7855 4.3601 13.7916 4.72244 13.6063L5.11635 13.4027C5.42358 13.2445 5.6637 12.9887 5.81279 12.7184L4.95517 11.8607L4.34181 11.2474L3.48419 10.3897C3.21327 10.5382 2.958 10.779 2.79987 11.0862L2.59628 11.4801C2.4103 11.8418 2.41639 12.1946 2.61216 12.3903L2.90551 12.6837L3.51887 13.297L3.81222 13.5904Z" fill="#6E6E6E"/>
<path fill-rule="evenodd" clip-rule="evenodd" d="M5.23249 6.12131L10.0812 10.97L8.14395 12.9073C7.42876 13.6225 6.19658 13.5504 5.39169 12.7455L3.45644 10.8102C2.65215 10.006 2.58003 8.77377 3.29522 8.05858L5.23249 6.12131Z" fill="#6E6E6E"/>
<path fill-rule="evenodd" clip-rule="evenodd" d="M7.41635 5.25067L6 6.66701L6.6364 7.3034L8.05274 5.88706L7.41635 5.25067Z" fill="#6E6E6E"/>
<path fill-rule="evenodd" clip-rule="evenodd" d="M10.3218 8.14351L8.89914 9.56613L9.53553 10.2025L10.9582 8.77991L10.3218 8.14351Z" fill="#6E6E6E"/>
</svg>
