<svg width="16" height="16" viewBox="0 0 16 16" fill="none" xmlns="http://www.w3.org/2000/svg">
<path fill-rule="evenodd" clip-rule="evenodd" d="M14.4913 0.612147C14.2962 0.416986 13.938 0.416381 13.567 0.610413L13.1636 0.823461C12.849 0.988956 12.601 1.25268 12.4453 1.52963L13.3029 2.38725L13.9163 3.00061L14.7739 3.85823C15.0515 3.70311 15.3146 3.45454 15.4801 3.13994L15.6931 2.73658C15.8878 2.36618 15.8872 2.00798 15.6914 1.81221L15.398 1.51886L14.7847 0.905496L14.4913 0.612147Z" fill="#6E6E6E"/>
<path fill-rule="evenodd" clip-rule="evenodd" d="M13.0711 8.08122L8.22234 3.23249L10.1596 1.29522C10.8748 0.580029 12.107 0.652154 12.9119 1.45704L14.8471 3.39229C15.6514 4.19658 15.7235 5.42876 15.0083 6.14395L13.0711 8.08122Z" fill="#6E6E6E"/>
<path fill-rule="evenodd" clip-rule="evenodd" d="M10.8932 8.94587L12.3036 7.53553L11.6672 6.89914L10.2568 8.30947L10.8932 8.94587Z" fill="#6E6E6E"/>
<path fill-rule="evenodd" clip-rule="evenodd" d="M7.98733 6.05349L9.40442 4.6364L8.76802 4L7.35093 5.41709L7.98733 6.05349Z" fill="#6E6E6E"/>
<path fill-rule="evenodd" clip-rule="evenodd" d="M1.81222 15.5904C2.00738 15.7855 2.35559 15.7961 2.71081 15.6179L3.09695 15.4221C3.39813 15.27 3.6318 15.0206 3.77543 14.7557L2.91781 13.8981L2.30445 13.2847L1.44683 12.4271C1.18137 12.5701 0.932547 12.8044 0.780467 13.1056L0.584644 13.4917C0.405796 13.8463 0.416394 14.1946 0.612161 14.3903L0.905509 14.6837L1.51887 15.297L1.81222 15.5904Z" fill="#6E6E6E"/>
<path fill-rule="evenodd" clip-rule="evenodd" d="M3.23249 8.12131L8.08122 12.97L6.14395 14.9073C5.42876 15.6225 4.19658 15.5504 3.39169 14.7455L1.45644 12.8102C0.652155 12.006 0.58003 10.7738 1.29522 10.0586L3.23249 8.12131Z" fill="#6E6E6E"/>
<path fill-rule="evenodd" clip-rule="evenodd" d="M5.41634 7.25067L4 8.66701L4.6364 9.3034L6.05274 7.88706L5.41634 7.25067Z" fill="#6E6E6E"/>
<path fill-rule="evenodd" clip-rule="evenodd" d="M8.32176 10.1435L6.89914 11.5661L7.53553 12.2025L8.95815 10.7799L8.32176 10.1435Z" fill="#6E6E6E"/>
</svg>
