<svg width="20" height="20" viewBox="0 0 20 20" fill="none" xmlns="http://www.w3.org/2000/svg">
<path d="M14.2481 11.0011C14.6625 11.0011 14.9984 11.337 14.9984 11.7513C14.9983 12.1655 14.6624 12.5014 14.2481 12.5014H5.74442C5.33017 12.5013 4.99417 12.1654 4.9941 11.7513C4.9941 11.3371 5.33013 11.0013 5.74442 11.0011H14.2481Z" fill="#6C707E"/>
<path d="M13.2477 7.50057C13.6621 7.50057 13.998 7.83641 13.998 8.25069C13.998 8.66497 13.6621 9.00081 13.2477 9.00081H6.74486C6.33056 9.0007 5.99453 8.6649 5.99453 8.25069C5.99453 7.83648 6.33056 7.50068 6.74486 7.50057H13.2477Z" fill="#6C707E"/>
<path fill-rule="evenodd" clip-rule="evenodd" d="M14.5226 4C15.3999 4 16.1753 4.57159 16.4346 5.40941L18.9093 13.4078C19.2951 14.6546 18.4037 15.9186 17.1224 15.9961L16.9973 16H3.00203L2.87698 15.9961C1.63813 15.9208 0.763866 14.7365 1.05686 13.5308L1.09007 13.4097L3.55793 5.41039C3.8006 4.6244 4.49745 4.07281 5.30674 4.00684L5.46989 4H14.5226ZM5.46989 5.50024C5.25068 5.50044 5.05685 5.64343 4.99215 5.85284L2.52429 13.8522C2.42532 14.1736 2.66567 14.4995 3.00203 14.4998H16.9973C17.3342 14.4998 17.5746 14.1729 17.4751 13.8512L15.0004 5.85284C14.9355 5.64344 14.7419 5.50024 14.5226 5.50024H5.46989Z" fill="#6C707E"/>
</svg>
