<svg width="16" height="16" viewBox="0 0 16 16" fill="none" xmlns="http://www.w3.org/2000/svg">
<path d="M11.4938 9C11.7694 9.00002 11.9928 9.22387 11.9928 9.5C11.9928 9.77613 11.7694 9.99998 11.4938 10H4.50831C4.23274 10 4.00934 9.77614 4.00934 9.5C4.00934 9.22386 4.23274 9 4.50831 9H11.4938Z" fill="#6C707E"/>
<path d="M10.4959 6C10.7714 6.00002 10.9948 6.22387 10.9948 6.5C10.9948 6.77613 10.7714 6.99998 10.4959 7H5.50623C5.23066 7 5.00727 6.77614 5.00727 6.5C5.00727 6.22386 5.23066 6 5.50623 6H10.4959Z" fill="#6C707E"/>
<path fill-rule="evenodd" clip-rule="evenodd" d="M11.446 3C12.3549 3.00003 13.1499 3.61559 13.3786 4.49707L14.9349 10.4971C15.2632 11.7637 14.3084 13 13.0024 13H2.9968L2.75609 12.9854C1.65476 12.8542 0.86786 11.8345 1.01849 10.7334L1.06526 10.4971L2.62258 4.49707C2.83701 3.67088 3.54776 3.07776 4.38454 3.00684L4.55411 3H11.446ZM4.55411 4C4.09983 4 3.70283 4.30754 3.58834 4.74805L2.03103 10.748C1.86664 11.3815 2.34367 12 2.9968 12H13.0024C13.6554 12 14.1324 11.3814 13.9681 10.748L12.4128 4.74805C12.2984 4.30745 11.9004 4.00003 11.446 4H4.55411Z" fill="#6C707E"/>
</svg>
