<svg width="16" height="16" viewBox="0 0 16 16" fill="none" xmlns="http://www.w3.org/2000/svg">
<path d="M11 4.5C11 4.22386 10.7761 4 10.5 4C10.2239 4 10 4.22386 10 4.5V8.89618L10.9928 10.5H11V4.5Z" fill="black"/>
<path fill-rule="evenodd" clip-rule="evenodd" d="M15 8C15 11.866 11.866 15 8 15C4.13401 15 1 11.866 1 8C1 4.13401 4.13401 1 8 1C11.866 1 15 4.13401 15 8ZM10.4658 13.4715C9.71359 13.811 8.87886 14 8 14C4.68629 14 2 11.3137 2 8C2 4.68629 4.68629 2 8 2C11.3137 2 14 4.68629 14 8C14 10.0772 12.9445 11.9078 11.3406 12.9848L5.92513 4.2368C5.80752 4.04681 5.57812 3.95792 5.36319 4.01906C5.14827 4.0802 5 4.27653 5 4.49998V11.5C5 11.7761 5.22386 12 5.5 12C5.77614 12 6 11.7761 6 11.5V6.2576L10.4658 13.4715Z" fill="black"/>
</svg>
