<svg width="16" height="16" viewBox="0 0 16 16" fill="none" xmlns="http://www.w3.org/2000/svg">
<path d="M3.56126 13.156C3.14526 13.156 2.7986 13.0607 2.52126 12.87C2.24826 12.675 2.04243 12.376 1.90376 11.973C1.7651 11.57 1.69576 11.0565 1.69576 10.4325H2.91776C2.91776 10.8355 2.93943 11.1583 2.98276 11.401C3.03043 11.6437 3.10193 11.8213 3.19726 11.934C3.29693 12.0423 3.4226 12.0965 3.57426 12.0965C3.72593 12.0965 3.84726 12.0445 3.93826 11.9405C4.0336 11.8365 4.10293 11.674 4.14626 11.453C4.19393 11.232 4.21776 10.9482 4.21776 10.6015C4.21776 10.1855 4.1701 9.85833 4.07476 9.62C3.98376 9.37733 3.83426 9.191 3.62626 9.061L3.02176 8.684C2.7531 8.51067 2.52993 8.31133 2.35226 8.086C2.17893 7.85633 2.04893 7.58983 1.96226 7.2865C1.87993 6.98317 1.83876 6.6365 1.83876 6.2465C1.83876 5.6875 1.9016 5.22167 2.02726 4.849C2.15726 4.47633 2.3501 4.199 2.60576 4.017C2.86143 3.835 3.17343 3.744 3.54176 3.744C3.92743 3.744 4.2481 3.83717 4.50376 4.0235C4.75943 4.2055 4.9501 4.48283 5.07576 4.8555C5.20576 5.22817 5.27076 5.69833 5.27076 6.266H4.05526C4.05526 5.902 4.03576 5.61383 3.99676 5.4015C3.9621 5.18917 3.9101 5.0375 3.84076 4.9465C3.77143 4.85117 3.6761 4.8035 3.55476 4.8035C3.38576 4.8035 3.2601 4.90967 3.17776 5.122C3.09976 5.33 3.06076 5.681 3.06076 6.175C3.06076 6.539 3.10626 6.82717 3.19726 7.0395C3.2926 7.2475 3.44643 7.4165 3.65876 7.5465L4.20476 7.8845C4.4951 8.0665 4.7291 8.27883 4.90676 8.5215C5.08876 8.76417 5.22093 9.05017 5.30326 9.3795C5.38993 9.7045 5.43326 10.0858 5.43326 10.5235C5.43326 11.1128 5.36393 11.6047 5.22526 11.999C5.09093 12.389 4.8851 12.6793 4.60776 12.87C4.33043 13.0607 3.9816 13.156 3.56126 13.156ZM7.78291 8.84H8.99841L10.1619 13H8.89441L7.78291 8.84ZM6.32691 3.9H7.88691C8.38524 3.9 8.79041 3.9975 9.10241 4.1925C9.41874 4.38317 9.65058 4.6735 9.79791 5.0635C9.94958 5.4535 10.0254 5.9475 10.0254 6.5455C10.0254 7.15217 9.94741 7.65267 9.79141 8.047C9.63974 8.437 9.40358 8.7295 9.08291 8.9245C8.76224 9.11517 8.34624 9.2105 7.83491 9.2105H7.51641V13H6.32691V3.9ZM7.88691 8.073C8.12524 8.073 8.30941 8.02317 8.43941 7.9235C8.57374 7.82383 8.66691 7.66567 8.71891 7.449C8.77524 7.23233 8.80341 6.93117 8.80341 6.5455C8.80341 6.1685 8.77524 5.87167 8.71891 5.655C8.66691 5.43833 8.57374 5.28233 8.43941 5.187C8.30941 5.08733 8.12524 5.0375 7.88691 5.0375H7.51641V8.073H7.88691ZM11.1384 3.9H14.2324V5.0505H12.3279V7.969H13.9724V9.1195H12.3279V13H11.1384V3.9Z" fill="#3574F0"/>
</svg>
