<svg width="16" height="16" viewBox="0 0 16 16" fill="none" xmlns="http://www.w3.org/2000/svg">
<path d="M11 2C11.5523 2 12 2.44772 12 3V9H4V6H6C7.10457 6 8 5.10457 8 4V2H11ZM7 4C7 4.06893 6.99277 4.13617 6.97949 4.20117C6.88625 4.65686 6.48325 5 6 5H4.41406L7 2.41406V4Z" fill="#25324D"/>
<path fill-rule="evenodd" clip-rule="evenodd" d="M11 1C12.1046 1 13 1.89543 13 3V9H12V3C12 2.44772 11.5523 2 11 2H8V4C8 5.10457 7.10457 6 6 6H4V9H3V5.41406C3.00004 5.1489 3.10547 4.89453 3.29297 4.70703L6.70703 1.29297C6.89453 1.10547 7.1489 1.00004 7.41406 1H11ZM4.41406 5H6C6.55228 5 7 4.55228 7 4V2.41406L4.41406 5Z" fill="#548AF7"/>
<path d="M3.77148 10C4.05885 10.0724 4.30389 10.1968 4.50586 10.376C4.84479 10.6712 5.01699 11.0703 5.02246 11.5732H3.99707C3.99707 11.3382 3.92064 11.1546 3.76758 11.0234C3.61455 10.887 3.39867 10.8193 3.12012 10.8193C2.85225 10.8193 2.64467 10.8821 2.49707 11.0078C2.34959 11.1335 2.27548 11.3107 2.27539 11.54C2.27539 11.7477 2.33018 11.9257 2.43945 12.0732C2.55425 12.2154 2.71844 12.3168 2.93164 12.377L3.64453 12.5732C4.12013 12.6935 4.48389 12.9101 4.73535 13.2217C4.98677 13.5278 5.1123 13.9076 5.1123 14.3613C5.11229 14.7002 5.0302 15.0013 4.86621 15.2637C4.70223 15.5204 4.47274 15.7203 4.17773 15.8623C4.05724 15.9203 3.92783 15.9657 3.79004 16H2.46777C2.32645 15.967 2.19333 15.926 2.07031 15.8701C1.76969 15.7335 1.53703 15.5395 1.37305 15.2881C1.21452 15.0312 1.13242 14.7301 1.12695 14.3857H2.15234C2.15234 14.6317 2.24012 14.8256 2.41504 14.9678C2.59542 15.1044 2.83845 15.1728 3.14453 15.1729C3.43966 15.1729 3.66902 15.1044 3.83301 14.9678C4.00245 14.8311 4.08787 14.6428 4.08789 14.4023C4.08789 14.2002 4.02734 14.0255 3.90723 13.8779C3.79244 13.7249 3.62586 13.6201 3.40723 13.5654L2.71777 13.377C2.24797 13.2567 1.88476 13.0409 1.62793 12.7295C1.37646 12.4179 1.25 12.0405 1.25 11.5977C1.25003 11.2588 1.32743 10.9633 1.48047 10.7119C1.63352 10.4607 1.84929 10.2665 2.12793 10.1299C2.2441 10.074 2.36935 10.033 2.50195 10H3.77148Z" fill="#CED0D6"/>
<path fill-rule="evenodd" clip-rule="evenodd" d="M8.09473 10.0068C8.49342 10.0069 8.83741 10.0811 9.12695 10.2285C9.42215 10.3761 9.65241 10.5837 9.81641 10.8516C9.98035 11.1139 10.0625 11.4255 10.0625 11.7861C10.0625 12.1797 9.96106 12.5275 9.75879 12.8281C9.562 13.1287 9.29393 13.3421 8.95508 13.4678L10.1445 15.9932H8.99609L7.95508 13.6152H7.22461V15.9932H6.2002V10.0068H8.09473ZM7.22461 12.7129H8.09473C8.384 12.7128 8.61054 12.6338 8.77441 12.4756C8.9384 12.3171 9.02049 12.0981 9.02051 11.8193C9.02051 11.5351 8.93841 11.3138 8.77441 11.1553C8.61051 10.9914 8.38417 10.9093 8.09473 10.9092H7.22461V12.7129Z" fill="#CED0D6"/>
<path d="M14.8721 10.958H12.1582V12.5576H14.6592V13.5088H12.1748V15.9932H11.1494V10.0068H14.8721V10.958Z" fill="#CED0D6"/>
</svg>
