<svg width="16" height="16" viewBox="0 0 16 16" fill="none" xmlns="http://www.w3.org/2000/svg">
<path d="M10 3.5C10 4.32843 9.32843 5 8.5 5C7.67157 5 7 4.32843 7 3.5C7 2.67157 7.67157 2 8.5 2C9.32843 2 10 2.67157 10 3.5Z" fill="#548AF7"/>
<path d="M14 5.5C14 6.32843 13.3284 7 12.5 7C11.6716 7 11 6.32843 11 5.5C11 4.67157 11.6716 4 12.5 4C13.3284 4 14 4.67157 14 5.5Z" fill="#C77D55"/>
<path d="M6 5.5C6 6.32843 5.32843 7 4.5 7C3.67157 7 3 6.32843 3 5.5C3 4.67157 3.67157 4 4.5 4C5.32843 4 6 4.67157 6 5.5Z" fill="#A571E6"/>
<path d="M5 9C5 9.82843 4.32843 10.5 3.5 10.5C2.67157 10.5 2 9.82843 2 9C2 8.17157 2.67157 7.5 3.5 7.5C4.32843 7.5 5 8.17157 5 9Z" fill="#57965C"/>
<path d="M9.00035 4.91455C8.84386 4.96991 8.67545 5.00003 8.5 5.00003C8.32481 5.00003 8.15664 4.97 8.00035 4.9148V7.0979L5.96458 5.82555C5.88921 6.16619 5.69803 6.4633 5.43446 6.67347L8.00035 8.27715V13H7.00035V11.0002C7.00035 10.8278 6.91154 10.6676 6.76535 10.5762L4.93652 9.43317C4.8363 9.76599 4.62359 10.0501 4.34257 10.2412L6.00035 11.2773V13H3.5C3.22386 13 3 13.2239 3 13.5C3 13.7762 3.22386 14 3.5 14H12.5C12.7761 14 13 13.7762 13 13.5C13 13.2239 12.7761 13 12.5 13H9.00035V8.27715L11.5659 6.67371C11.3022 6.46361 11.111 6.16654 11.0355 5.82593L9.00035 7.0979V4.91455Z" fill="#CED0D6"/>
</svg>
