<!-- Copyright 2000-2023 JetBrains s.r.o. and contributors. Use of this source code is governed by the Apache 2.0 license. -->
<svg width="14" height="14" viewBox="0 0 14 14" fill="none" xmlns="http://www.w3.org/2000/svg">
    <path d="M10 7C10 9.48528 7.98528 11.5 5.5 11.5C3.01472 11.5 1 9.48528 1 7C1 4.51472 3.01472 2.5 5.5 2.5C7.98528 2.5 10 4.51472 10 7Z" fill="#253627"/>
    <path fill-rule="evenodd" clip-rule="evenodd" d="M11.5 8C11.2239 8 11 7.77614 11 7.5L11 1.70711L9.85355 2.85355C9.65829 3.04882 9.34171 3.04882 9.14645 2.85355C8.95118 2.65829 8.95118 2.34171 9.14645 2.14645L11.1464 0.146447C11.3417 -0.0488155 11.6583 -0.0488155 11.8536 0.146447L13.8536 2.14645C14.0488 2.34171 14.0488 2.65829 13.8536 2.85355C13.6583 3.04882 13.3417 3.04882 13.1464 2.85355L12 1.70711L12 7.5C12 7.77614 11.7761 8 11.5 8Z" fill="#DB3B4B"/>
    <path d="M10 7C10 9.48528 7.98528 11.5 5.5 11.5C3.01472 11.5 1 9.48528 1 7C1 4.51472 3.01472 2.5 5.5 2.5C6.61537 2.5 7.63597 2.90579 8.4222 3.5778L8.43934 3.56066C8.05008 3.1714 7.91948 2.62142 8.04756 2.12432C7.28593 1.72554 6.41931 1.5 5.5 1.5C2.46243 1.5 0 3.96243 0 7C0 10.0376 2.46243 12.5 5.5 12.5C7.91689 12.5 9.96967 10.9411 10.7077 8.7739C10.2828 8.50906 10 8.03755 10 7.5V7Z" fill="#57965C"/>
    <svg x="-0.3" y="0.8" width="12" height="12" viewBox="0 0 16 16" fill="none" xmlns="http://www.w3.org/2000/svg">
        <path d="M8.57081 5C7.72702 5 7.06335 5.37098 6.68265 5.99832V5.12281H5.7002V12H6.70312V9.52032C7.08689 10.1272 7.74186 10.4854 8.57081 10.4854C10.0291 10.4854 11.0474 9.36988 11.0474 7.74269C11.0474 6.1155 10.0291 5 8.57081 5ZM8.36101 9.5848C7.38367 9.5848 6.70312 8.8326 6.70312 7.74269C6.70312 6.65278 7.38367 5.90058 8.36101 5.90058C9.33324 5.90058 10.0036 6.65278 10.0036 7.74269C10.0036 8.8326 9.33324 9.5848 8.36101 9.5848Z" fill="#57965C"/>
    </svg>
</svg>
