<svg xmlns="http://www.w3.org/2000/svg" xmlns:xlink="http://www.w3.org/1999/xlink" width="40" height="40" viewBox="0 0 40 40">
  <defs>
    <polygon id="meteor-a" points="0 0 36 0 36 35.999 0 35.999"/>
  </defs>
  <g fill="none" fill-rule="evenodd" transform="translate(2 2)">
    <mask id="meteor-b" fill="#fff">
      <use xlink:href="#meteor-a"/>
    </mask>
    <path fill="#DF4F4F" d="M9.2676,26.0029 L16.7026,34.2009 C16.7026,34.2009 17.0646,34.4479 17.3426,34.1599 C17.6206,33.8719 17.4066,33.5829 17.4066,33.5829 L9.2676,26.0029 Z M26.4436,9.7589 L33.8776,17.9579 C33.8776,17.9579 34.2416,18.2049 34.5186,17.9169 C34.7956,17.6279 34.5826,17.3389 34.5826,17.3389 L26.4436,9.7589 Z M5.1636,17.6919 L21.5656,35.7269 C21.5656,35.7269 22.2996,36.2539 22.8616,35.6389 C23.4216,35.0229 22.9906,34.4069 22.9906,34.4069 L5.1636,17.6919 Z M18.0146,5.8559 L34.4166,23.8899 C34.4166,23.8899 35.1516,24.4179 35.7116,23.8019 C36.2736,23.1869 35.8416,22.5699 35.8416,22.5699 L18.0146,5.8559 Z M2.9046,9.8849 L26.3816,35.6979 C26.3816,35.6979 27.4316,36.4539 28.2356,35.5719 C29.0386,34.6909 28.4206,33.8099 28.4206,33.8099 L2.9046,9.8849 Z M9.7616,3.1479 L33.2406,28.9619 C33.2406,28.9619 34.2896,29.7179 35.0936,28.8359 C35.8966,27.9539 35.2796,27.0729 35.2796,27.0729 L9.7616,3.1479 Z M-0.0004,-0.0001 L30.8296,33.3059 C30.8296,33.3059 31.8806,34.0619 32.6836,33.1799 C33.4876,32.2989 32.8696,31.4169 32.8696,31.4169 L-0.0004,-0.0001 Z" mask="url(#meteor-b)"/>
  </g>
</svg>
