<svg width="20" height="20" viewBox="0 0 20 20" fill="none" xmlns="http://www.w3.org/2000/svg">
<path d="M6.53033 9.46967L5.25 8.18934V10V17C5.25 17.1381 5.13807 17.25 5 17.25H2C1.86193 17.25 1.75 17.1381 1.75 17V3C1.75 2.86193 1.86193 2.75 2 2.75H5.08579C5.15209 2.75 5.21568 2.77634 5.26256 2.82322L9.46967 7.03033L10 7.56066L10.5303 7.03033L14.7374 2.82322L14.2071 2.29289L14.7374 2.82322C14.7843 2.77634 14.8479 2.75 14.9142 2.75H18C18.1381 2.75 18.25 2.86193 18.25 3V17C18.25 17.1381 18.1381 17.25 18 17.25H15C14.8619 17.25 14.75 17.1381 14.75 17V10V8.18934L13.4697 9.46967L10 12.9393L6.53033 9.46967Z" stroke="#CED0D6" stroke-width="1.5"/>
</svg>
