<svg width="16" height="16" viewBox="0 0 16 16" fill="none" xmlns="http://www.w3.org/2000/svg">
<path fill-rule="evenodd" clip-rule="evenodd" d="M1 16H16V9H1V16Z" fill="#B99BF8" fill-opacity="0.7"/>
<path fill-rule="evenodd" clip-rule="evenodd" d="M7 1L3 5H7V1Z" fill="#9AA7B0" fill-opacity="0.8"/>
<path fill-rule="evenodd" clip-rule="evenodd" d="M8 1V6H3V8H13V1H8Z" fill="#9AA7B0" fill-opacity="0.8"/>
<path fill-rule="evenodd" clip-rule="evenodd" d="M2.95999 15L1.79999 10H2.94999L3.48461 13.3L4.14999 10H5.24999L6.00032 13.3L6.64999 10H7.79999L6.49999 15H5.49999L4.73124 11.9L3.99999 15H2.95999Z" fill="#231F20" fill-opacity="0.7"/>
<path fill-rule="evenodd" clip-rule="evenodd" d="M13 11H11.5V10H15.5V11H14V15H13V11Z" fill="#231F20" fill-opacity="0.7"/>
<path fill-rule="evenodd" clip-rule="evenodd" d="M10.47 13L9.81613 11.4L9.17001 13H10.47ZM9.42901 10H10.21L12.32 15H11.22L10.72 14H8.92001L8.42001 15H7.32001L9.42901 10Z" fill="#231F20" fill-opacity="0.7"/>
</svg>
